<svg version="1.1" xmlns="http://www.w3.org/2000/svg" viewBox="0 0 288.0189208984375 183.58645629882812" width="288.0189208984375" height="183.58645629882812" filter="invert(93%) hue-rotate(180deg)">
  <!-- svg-source:excalidraw -->
  
  <defs>
    <style class="style-fonts">
      @font-face {
        font-family: "Virgil";
        src: url("https://excalidraw.com/Virgil.woff2");
      }
      @font-face {
        font-family: "Cascadia";
        src: url("https://excalidraw.com/Cascadia.woff2");
      }
    </style>
    
  </defs>
  <rect x="0" y="0" width="288.0189208984375" height="183.58645629882812" fill="#ffffff"/><g transform="translate(13.6514892578125 15.842376708984375) rotate(0 -0.365142822265625 18.987716674804688)" stroke="none"><path fill="#1e1e1e" d="M 0.85,0 Q 0.85,0 0.82,1.88 0.80,3.77 0.78,6.05 0.76,8.32 0.74,11.39 0.73,14.45 0.72,17.22 0.71,20.00 0.70,22.43 0.69,24.87 0.69,27.17 0.68,29.46 0.47,31.53 0.25,33.59 0.19,35.40 0.12,37.22 0.09,37.35 0.06,37.47 -0.00,37.59 -0.06,37.70 -0.17,37.78 -0.27,37.86 -0.39,37.91 -0.51,37.95 -0.64,37.96 -0.77,37.96 -0.89,37.93 -1.02,37.89 -1.12,37.82 -1.23,37.74 -1.31,37.64 -1.39,37.53 -1.42,37.41 -1.46,37.28 -1.46,37.15 -1.46,37.02 -1.42,36.90 -1.37,36.78 -1.29,36.68 -1.21,36.57 -1.10,36.50 -1.00,36.43 -0.87,36.40 -0.74,36.37 -0.61,36.37 -0.48,36.38 -0.36,36.43 -0.24,36.48 -0.15,36.57 -0.05,36.66 0.01,36.77 0.07,36.88 0.10,37.01 0.12,37.13 0.11,37.26 0.09,37.39 0.04,37.51 -0.01,37.63 -0.10,37.72 -0.19,37.81 -0.31,37.87 -0.42,37.93 -0.55,37.95 -0.68,37.97 -0.81,37.95 -0.94,37.92 -1.05,37.86 -1.17,37.80 -1.25,37.70 -1.34,37.61 -1.39,37.49 -1.45,37.37 -1.46,37.24 -1.47,37.11 -1.47,37.11 -1.47,37.11 -1.28,35.28 -1.09,33.45 -0.88,31.45 -0.68,29.46 -0.69,27.17 -0.69,24.87 -0.70,22.43 -0.71,20.00 -0.72,17.22 -0.73,14.45 -0.74,11.39 -0.76,8.32 -0.78,6.05 -0.80,3.77 -0.82,1.88 -0.85,0 -0.84,-0.10 -0.82,-0.20 -0.79,-0.30 -0.75,-0.39 -0.69,-0.48 -0.63,-0.56 -0.56,-0.63 -0.48,-0.70 -0.39,-0.75 -0.30,-0.79 -0.20,-0.82 -0.10,-0.84 0.00,-0.84 0.10,-0.84 0.20,-0.82 0.30,-0.79 0.39,-0.75 0.48,-0.70 0.56,-0.63 0.63,-0.56 0.69,-0.48 0.75,-0.39 0.79,-0.30 0.82,-0.20 0.84,-0.10 0.85,0.00 0.85,0.00 L 0.85,0 Z"/></g><g transform="translate(10.7303466796875 14.38177490234375) rotate(0 8.033233642578125 5.47723388671875)" stroke="none"><path fill="#1e1e1e" d="M -0.73,-0.49 Q -0.73,-0.49 -0.33,-1.14 0.06,-1.79 0.74,-2.39 1.42,-2.98 2.84,-3.63 4.26,-4.27 5.77,-4.54 7.27,-4.80 8.75,-4.90 10.24,-4.99 11.38,-4.80 12.52,-4.62 13.52,-3.83 14.53,-3.05 15.18,-2.28 15.83,-1.51 16.15,-0.45 16.46,0.61 16.60,1.49 16.74,2.38 16.33,3.53 15.91,4.68 15.29,5.77 14.67,6.85 14.00,8.31 13.34,9.77 12.59,10.87 11.85,11.98 11.10,12.87 10.35,13.77 8.10,14.86 5.85,15.95 5.72,15.97 5.59,15.99 5.47,15.96 5.34,15.94 5.22,15.87 5.11,15.81 5.02,15.71 4.94,15.61 4.88,15.49 4.83,15.37 4.82,15.24 4.81,15.11 4.85,14.98 4.88,14.85 4.95,14.74 5.02,14.63 5.12,14.55 5.23,14.47 5.35,14.42 5.47,14.38 5.60,14.38 5.73,14.37 5.86,14.41 5.98,14.45 6.09,14.53 6.20,14.61 6.27,14.71 6.35,14.82 6.39,14.95 6.42,15.07 6.42,15.20 6.42,15.33 6.37,15.46 6.32,15.58 6.24,15.68 6.16,15.78 6.05,15.85 5.94,15.92 5.81,15.95 5.68,15.98 5.55,15.97 5.42,15.96 5.30,15.91 5.18,15.86 5.08,15.77 4.99,15.68 4.92,15.57 4.86,15.45 4.83,15.32 4.81,15.19 4.83,15.06 4.85,14.93 4.91,14.82 4.97,14.70 5.06,14.61 5.15,14.52 5.27,14.46 5.39,14.40 5.39,14.40 5.39,14.40 7.34,13.63 9.29,12.86 9.98,12.02 10.66,11.18 11.33,10.18 11.99,9.17 12.66,7.64 13.33,6.11 13.87,5.11 14.41,4.10 14.74,3.30 15.07,2.50 15.00,1.75 14.94,1.00 14.77,0.20 14.60,-0.60 14.10,-1.26 13.60,-1.92 12.89,-2.54 12.18,-3.16 11.27,-3.29 10.35,-3.43 8.97,-3.30 7.58,-3.17 6.30,-2.90 5.02,-2.64 3.83,-2.04 2.64,-1.44 2.13,-1.08 1.61,-0.72 1.17,-0.11 0.73,0.49 0.66,0.57 0.59,0.65 0.51,0.71 0.42,0.77 0.32,0.81 0.22,0.85 0.11,0.86 0.01,0.88 -0.09,0.87 -0.19,0.86 -0.29,0.82 -0.39,0.78 -0.48,0.73 -0.57,0.67 -0.64,0.59 -0.71,0.51 -0.77,0.42 -0.82,0.32 -0.84,0.22 -0.87,0.12 -0.87,0.01 -0.87,-0.09 -0.85,-0.19 -0.83,-0.30 -0.78,-0.39 -0.73,-0.49 -0.73,-0.49 L -0.73,-0.49 Z"/></g><g transform="translate(37.02099609375 31.908905029296875) rotate(0 6.20751953125 -1.460601806640625)" stroke="none"><path fill="#1e1e1e" d="M -0.15,-0.94 Q -0.15,-0.94 1.10,-1.11 2.37,-1.28 3.90,-1.74 5.44,-2.21 6.80,-2.42 8.17,-2.63 10.12,-3.11 12.08,-3.59 12.22,-3.59 12.36,-3.60 12.50,-3.56 12.64,-3.52 12.75,-3.44 12.87,-3.36 12.96,-3.25 13.04,-3.14 13.09,-3.00 13.13,-2.87 13.13,-2.72 13.13,-2.58 13.09,-2.45 13.04,-2.31 12.95,-2.20 12.87,-2.09 12.75,-2.01 12.63,-1.93 12.49,-1.89 12.36,-1.85 12.21,-1.86 12.07,-1.87 11.94,-1.92 11.81,-1.97 11.70,-2.07 11.59,-2.16 11.52,-2.28 11.45,-2.40 11.42,-2.54 11.39,-2.68 11.40,-2.82 11.42,-2.96 11.48,-3.09 11.54,-3.22 11.64,-3.33 11.74,-3.43 11.86,-3.49 11.99,-3.56 12.13,-3.58 12.27,-3.61 12.41,-3.58 12.55,-3.56 12.67,-3.49 12.80,-3.42 12.90,-3.32 12.99,-3.22 13.05,-3.09 13.11,-2.96 13.13,-2.82 13.14,-2.68 13.11,-2.54 13.08,-2.40 13.01,-2.28 12.93,-2.16 12.82,-2.06 12.72,-1.97 12.58,-1.92 12.45,-1.87 12.45,-1.87 12.45,-1.87 10.43,-1.49 8.42,-1.10 7.18,-0.88 5.93,-0.66 4.30,-0.10 2.66,0.44 1.41,0.69 0.15,0.94 0.04,0.94 -0.07,0.95 -0.18,0.92 -0.29,0.90 -0.40,0.85 -0.50,0.80 -0.59,0.73 -0.68,0.66 -0.75,0.57 -0.82,0.48 -0.87,0.37 -0.91,0.26 -0.93,0.15 -0.95,0.04 -0.94,-0.07 -0.93,-0.18 -0.90,-0.29 -0.86,-0.40 -0.80,-0.50 -0.74,-0.60 -0.65,-0.68 -0.57,-0.76 -0.47,-0.81 -0.37,-0.87 -0.26,-0.90 -0.15,-0.94 -0.15,-0.94 L -0.15,-0.94 Z"/></g><g transform="translate(37.02099609375 42.133056640625) rotate(0 5.842376708984375 -1.82574462890625)" stroke="none"><path fill="#1e1e1e" d="M -0.30,-0.92 Q -0.30,-0.92 0.96,-1.30 2.23,-1.68 3.81,-2.24 5.39,-2.81 7.88,-3.51 10.36,-4.22 10.51,-4.24 10.65,-4.25 10.79,-4.22 10.94,-4.19 11.06,-4.11 11.18,-4.03 11.28,-3.92 11.37,-3.81 11.42,-3.68 11.47,-3.54 11.48,-3.40 11.49,-3.25 11.45,-3.11 11.41,-2.97 11.33,-2.85 11.24,-2.73 11.13,-2.65 11.01,-2.56 10.87,-2.51 10.74,-2.47 10.59,-2.47 10.44,-2.47 10.31,-2.52 10.17,-2.57 10.06,-2.65 9.94,-2.74 9.86,-2.86 9.78,-2.98 9.74,-3.12 9.70,-3.26 9.71,-3.41 9.72,-3.55 9.78,-3.69 9.83,-3.82 9.93,-3.93 10.02,-4.04 10.15,-4.12 10.27,-4.19 10.41,-4.22 10.56,-4.25 10.70,-4.23 10.84,-4.22 10.98,-4.16 11.11,-4.09 11.21,-3.99 11.32,-3.89 11.38,-3.76 11.45,-3.63 11.47,-3.49 11.49,-3.35 11.47,-3.20 11.44,-3.06 11.38,-2.93 11.31,-2.81 11.20,-2.71 11.09,-2.61 10.96,-2.55 10.83,-2.49 10.83,-2.49 10.83,-2.49 8.40,-1.87 5.98,-1.26 4.39,-0.62 2.80,0.00 1.55,0.46 0.30,0.92 0.19,0.94 0.07,0.97 -0.03,0.96 -0.15,0.96 -0.26,0.93 -0.38,0.89 -0.48,0.83 -0.58,0.77 -0.67,0.69 -0.75,0.61 -0.81,0.51 -0.88,0.41 -0.91,0.30 -0.95,0.19 -0.96,0.07 -0.97,-0.03 -0.95,-0.15 -0.93,-0.27 -0.89,-0.38 -0.84,-0.48 -0.77,-0.58 -0.70,-0.67 -0.61,-0.75 -0.52,-0.82 -0.41,-0.87 -0.30,-0.92 -0.30,-0.92 L -0.30,-0.92 Z"/></g><g transform="translate(72.0751953125 27.527130126953125) rotate(0 13.145355224609375 5.112060546875)" stroke="none"><path fill="#1e1e1e" d="M 0.91,-0.15 Q 0.91,-0.15 1.08,1.11 1.25,2.38 1.32,4.22 1.39,6.07 1.41,7.47 1.43,8.87 1.44,9.89 1.46,10.90 1.52,11.54 1.58,12.18 1.57,12.28 1.56,12.39 1.52,12.48 1.48,12.58 1.43,12.67 1.37,12.76 1.29,12.83 1.22,12.90 1.12,12.95 1.03,13.00 0.93,13.02 0.83,13.05 0.73,13.05 0.62,13.05 0.52,13.03 0.42,13.01 0.33,12.96 0.24,12.91 0.16,12.84 0.08,12.78 0.02,12.69 -0.03,12.61 -0.07,12.51 -0.11,12.41 -0.12,12.31 -0.14,12.21 -0.34,11.49 -0.54,10.77 -0.62,9.54 -0.69,8.31 -0.49,6.90 -0.30,5.50 0.22,3.82 0.75,2.14 1.66,0.94 2.56,-0.26 3.39,-0.99 4.22,-1.73 5.27,-2.27 6.32,-2.81 7.54,-2.84 8.76,-2.86 9.79,-2.17 10.82,-1.47 11.68,-0.29 12.54,0.89 13.11,2.27 13.69,3.65 13.94,5.12 14.19,6.58 14.29,7.84 14.39,9.09 14.49,9.82 14.58,10.56 14.62,10.66 14.66,10.75 14.65,10.85 14.65,10.95 14.62,11.04 14.59,11.14 14.54,11.22 14.49,11.31 14.42,11.38 14.35,11.45 14.26,11.50 14.18,11.55 14.08,11.58 13.99,11.60 13.89,11.61 13.79,11.62 13.70,11.60 13.60,11.58 13.51,11.54 13.42,11.50 13.34,11.44 13.27,11.38 13.20,11.30 13.14,11.22 13.10,11.13 13.06,11.04 13.05,10.94 13.03,10.85 12.86,9.89 12.69,8.94 12.62,7.40 12.54,5.87 12.72,4.34 12.91,2.81 13.43,1.46 13.96,0.12 14.64,-0.72 15.33,-1.57 16.58,-2.18 17.84,-2.79 19.54,-2.60 21.24,-2.42 22.44,-1.64 23.65,-0.86 24.41,0.37 25.16,1.62 25.68,3.44 26.20,5.27 26.61,7.82 27.01,10.36 27.00,10.49 26.99,10.62 26.95,10.73 26.90,10.85 26.82,10.95 26.74,11.05 26.63,11.11 26.52,11.18 26.40,11.20 26.27,11.23 26.15,11.22 26.02,11.21 25.91,11.15 25.79,11.10 25.70,11.01 25.61,10.93 25.55,10.81 25.49,10.70 25.47,10.58 25.45,10.45 25.47,10.33 25.49,10.20 25.55,10.09 25.61,9.98 25.70,9.89 25.79,9.81 25.90,9.75 26.02,9.70 26.14,9.68 26.27,9.67 26.39,9.70 26.52,9.72 26.63,9.79 26.73,9.85 26.82,9.95 26.90,10.05 26.95,10.16 26.99,10.28 27.00,10.41 27.01,10.53 26.97,10.66 26.94,10.78 26.87,10.88 26.80,10.99 26.70,11.06 26.60,11.14 26.48,11.18 26.36,11.22 26.23,11.22 26.11,11.22 25.99,11.18 25.87,11.14 25.76,11.07 25.66,10.99 25.59,10.89 25.52,10.78 25.49,10.66 25.45,10.54 25.45,10.54 25.45,10.54 25.18,8.08 24.91,5.63 24.45,3.96 23.99,2.29 23.42,1.25 22.85,0.22 21.92,-0.42 21.00,-1.07 19.66,-1.28 18.32,-1.49 17.35,-1.05 16.39,-0.60 15.82,0.02 15.24,0.65 14.78,1.82 14.32,2.98 14.16,4.39 14.00,5.79 14.09,7.21 14.19,8.64 14.42,9.70 14.66,10.75 14.65,10.85 14.65,10.95 14.62,11.04 14.59,11.14 14.54,11.22 14.49,11.31 14.42,11.38 14.35,11.45 14.26,11.50 14.18,11.55 14.08,11.58 13.99,11.60 13.89,11.61 13.79,11.62 13.70,11.60 13.60,11.58 13.51,11.54 13.42,11.50 13.34,11.44 13.27,11.38 13.20,11.30 13.14,11.22 13.10,11.13 13.06,11.04 13.05,10.94 13.03,10.85 13.03,10.75 13.04,10.65 13.05,9.92 13.06,9.19 12.97,8.00 12.87,6.80 12.66,5.48 12.44,4.15 11.93,2.91 11.42,1.67 10.71,0.64 9.99,-0.38 9.30,-0.94 8.61,-1.51 7.75,-1.53 6.90,-1.55 6.03,-1.09 5.16,-0.64 4.43,-0.01 3.71,0.61 2.94,1.61 2.17,2.61 1.71,4.16 1.25,5.70 1.10,6.94 0.95,8.18 1.06,9.22 1.16,10.26 1.37,11.22 1.58,12.18 1.57,12.28 1.56,12.39 1.52,12.48 1.48,12.58 1.43,12.67 1.37,12.76 1.29,12.83 1.22,12.90 1.13,12.95 1.03,13.00 0.93,13.02 0.83,13.05 0.73,13.05 0.62,13.05 0.52,13.03 0.42,13.01 0.33,12.96 0.24,12.91 0.16,12.84 0.08,12.78 0.02,12.69 -0.03,12.61 -0.07,12.51 -0.11,12.41 -0.12,12.31 -0.14,12.21 -0.09,11.57 -0.04,10.93 -0.06,9.92 -0.08,8.91 -0.14,7.53 -0.19,6.14 -0.30,4.40 -0.41,2.65 -0.66,1.40 -0.91,0.15 -0.91,0.04 -0.92,-0.07 -0.89,-0.17 -0.87,-0.28 -0.82,-0.38 -0.78,-0.49 -0.71,-0.57 -0.64,-0.66 -0.55,-0.73 -0.46,-0.79 -0.36,-0.84 -0.26,-0.88 -0.15,-0.90 -0.04,-0.92 0.07,-0.91 0.18,-0.90 0.28,-0.87 0.39,-0.83 0.48,-0.77 0.58,-0.71 0.65,-0.63 0.73,-0.55 0.79,-0.46 0.84,-0.36 0.87,-0.25 0.91,-0.15 0.91,-0.15 L 0.91,-0.15 Z"/></g><g transform="translate(110.0506591796875 26.79681396484375) rotate(0 7.668121337890625 3.6514892578125)" stroke="none"><path fill="#1e1e1e" d="M 0.43,-0.87 Q 0.43,-0.87 1.27,-0.44 2.10,-0.01 3.10,0.63 4.10,1.29 5.33,1.97 6.55,2.66 7.91,3.38 9.27,4.11 10.64,4.61 12.02,5.12 13.63,5.76 15.24,6.40 15.36,6.46 15.48,6.52 15.57,6.62 15.66,6.71 15.72,6.83 15.78,6.96 15.79,7.09 15.81,7.22 15.78,7.35 15.75,7.48 15.68,7.60 15.62,7.71 15.52,7.80 15.41,7.89 15.29,7.94 15.17,7.99 15.03,8.00 14.90,8.01 14.77,7.97 14.64,7.94 14.53,7.86 14.42,7.79 14.34,7.68 14.26,7.58 14.21,7.45 14.17,7.33 14.17,7.19 14.16,7.06 14.21,6.93 14.25,6.80 14.33,6.70 14.41,6.59 14.52,6.51 14.63,6.44 14.76,6.40 14.88,6.36 15.02,6.37 15.15,6.38 15.28,6.42 15.40,6.47 15.50,6.56 15.61,6.64 15.68,6.76 15.75,6.87 15.78,7.00 15.81,7.13 15.79,7.26 15.78,7.40 15.73,7.52 15.67,7.64 15.58,7.74 15.49,7.84 15.37,7.90 15.25,7.96 15.12,7.99 14.99,8.01 14.86,7.99 14.73,7.97 14.73,7.97 14.73,7.97 13.12,7.24 11.51,6.51 10.04,5.99 8.57,5.48 7.17,4.79 5.78,4.10 4.49,3.44 3.20,2.78 2.22,2.23 1.25,1.69 0.40,1.28 -0.43,0.87 -0.53,0.80 -0.63,0.74 -0.71,0.65 -0.79,0.57 -0.85,0.46 -0.90,0.36 -0.93,0.25 -0.96,0.13 -0.97,0.01 -0.97,-0.09 -0.94,-0.21 -0.92,-0.32 -0.86,-0.43 -0.81,-0.53 -0.73,-0.62 -0.66,-0.71 -0.56,-0.78 -0.47,-0.85 -0.36,-0.90 -0.25,-0.94 -0.13,-0.96 -0.01,-0.97 0.09,-0.96 0.21,-0.95 0.32,-0.91 0.43,-0.87 0.43,-0.87 L 0.43,-0.87 Z"/></g><g transform="translate(122.4656982421875 23.14532470703125) rotate(0 -4.38177490234375 7.302978515625)" stroke="none"><path fill="#1e1e1e" d="M 0.74,0.63 Q 0.74,0.63 -0.55,2.07 -1.84,3.51 -3.02,4.95 -4.20,6.38 -5.32,8.01 -6.44,9.64 -7.11,11.99 -7.78,14.33 -7.84,14.46 -7.89,14.59 -7.99,14.70 -8.09,14.80 -8.21,14.87 -8.34,14.94 -8.48,14.97 -8.62,14.99 -8.76,14.97 -8.90,14.95 -9.03,14.89 -9.15,14.82 -9.25,14.72 -9.35,14.62 -9.41,14.49 -9.48,14.36 -9.49,14.22 -9.51,14.08 -9.48,13.94 -9.45,13.80 -9.38,13.67 -9.31,13.55 -9.20,13.46 -9.10,13.36 -8.97,13.31 -8.83,13.25 -8.69,13.24 -8.55,13.23 -8.41,13.27 -8.27,13.31 -8.15,13.38 -8.04,13.46 -7.95,13.57 -7.86,13.69 -7.81,13.82 -7.76,13.96 -7.76,14.10 -7.76,14.24 -7.80,14.38 -7.85,14.51 -7.93,14.63 -8.02,14.74 -8.13,14.82 -8.25,14.90 -8.39,14.94 -8.52,14.98 -8.66,14.98 -8.81,14.97 -8.94,14.92 -9.07,14.87 -9.18,14.78 -9.29,14.69 -9.37,14.57 -9.44,14.45 -9.48,14.31 -9.51,14.17 -9.50,14.03 -9.48,13.89 -9.48,13.89 -9.48,13.89 -8.61,11.33 -7.75,8.78 -6.62,7.06 -5.49,5.35 -4.34,3.85 -3.19,2.36 -1.96,0.86 -0.74,-0.63 -0.65,-0.71 -0.56,-0.79 -0.46,-0.84 -0.36,-0.90 -0.24,-0.93 -0.13,-0.96 -0.01,-0.96 0.10,-0.96 0.21,-0.94 0.33,-0.91 0.43,-0.86 0.54,-0.81 0.63,-0.73 0.71,-0.65 0.78,-0.56 0.85,-0.46 0.89,-0.35 0.94,-0.24 0.95,-0.13 0.97,-0.01 0.96,0.10 0.95,0.21 0.91,0.32 0.87,0.43 0.80,0.53 0.74,0.63 0.74,0.63 L 0.74,0.63 Z"/></g><g transform="translate(136.34130859375 20.954437255859375) rotate(0 8.3984375 4.7469482421875)" stroke="none"><path fill="#1e1e1e" d="M 0.87,-0.58 Q 0.87,-0.58 1.67,0.70 2.47,1.99 3.23,3.41 3.99,4.84 4.70,6.05 5.42,7.27 5.95,8.46 6.49,9.66 6.92,10.57 7.35,11.47 7.60,12.10 7.86,12.73 7.43,13.16 7.00,13.59 8.20,11.74 9.39,9.90 10.46,8.00 11.53,6.09 12.41,4.26 13.29,2.42 13.88,0.83 14.46,-0.76 15.14,-2.84 15.82,-4.92 15.88,-5.05 15.94,-5.18 16.04,-5.28 16.14,-5.38 16.27,-5.45 16.39,-5.51 16.53,-5.54 16.67,-5.56 16.82,-5.54 16.96,-5.51 17.08,-5.44 17.21,-5.38 17.31,-5.27 17.40,-5.17 17.46,-5.04 17.52,-4.91 17.54,-4.77 17.55,-4.63 17.52,-4.49 17.49,-4.35 17.41,-4.22 17.34,-4.10 17.23,-4.01 17.12,-3.92 16.99,-3.87 16.86,-3.81 16.71,-3.81 16.57,-3.80 16.43,-3.84 16.30,-3.88 16.18,-3.96 16.06,-4.04 15.97,-4.15 15.89,-4.27 15.84,-4.40 15.80,-4.54 15.80,-4.68 15.80,-4.82 15.85,-4.96 15.89,-5.09 15.98,-5.21 16.07,-5.32 16.19,-5.40 16.30,-5.48 16.44,-5.52 16.58,-5.55 16.72,-5.55 16.86,-5.54 17.00,-5.48 17.13,-5.43 17.24,-5.34 17.35,-5.25 17.42,-5.12 17.49,-5.00 17.52,-4.86 17.55,-4.72 17.54,-4.58 17.52,-4.44 17.52,-4.44 17.52,-4.44 16.74,-2.34 15.95,-0.23 15.39,1.44 14.82,3.12 13.97,5.03 13.13,6.95 12.11,8.94 11.10,10.93 9.71,12.98 8.33,15.03 7.26,14.14 6.19,13.25 6.08,12.69 5.96,12.13 5.52,11.22 5.09,10.31 4.56,9.21 4.04,8.12 3.25,6.91 2.47,5.69 1.68,4.37 0.88,3.04 0.00,1.81 -0.87,0.58 -0.93,0.47 -0.99,0.35 -1.02,0.23 -1.05,0.11 -1.04,-0.01 -1.04,-0.14 -1.01,-0.26 -0.98,-0.39 -0.92,-0.50 -0.85,-0.61 -0.77,-0.70 -0.68,-0.80 -0.58,-0.87 -0.47,-0.94 -0.35,-0.98 -0.23,-1.02 -0.10,-1.04 0.01,-1.05 0.14,-1.03 0.26,-1.02 0.38,-0.97 0.50,-0.92 0.60,-0.85 0.71,-0.77 0.79,-0.68 0.87,-0.58 0.87,-0.58 L 0.87,-0.58 Z"/></g><g transform="translate(10 91.06292724609375) rotate(0 1.095428466796875 15.701385498046875)" stroke="none"><path fill="#1e1e1e" d="M 0.89,0 Q 0.89,0 0.85,1.88 0.82,3.77 0.80,6.26 0.78,8.74 0.97,11.02 1.16,13.30 1.24,15.57 1.32,17.83 1.34,20.05 1.37,22.27 1.59,24.44 1.81,26.61 2.12,27.91 2.42,29.21 2.51,29.29 2.60,29.37 2.66,29.47 2.72,29.57 2.75,29.69 2.77,29.81 2.76,29.93 2.74,30.05 2.69,30.16 2.64,30.27 2.55,30.35 2.47,30.44 2.36,30.49 2.26,30.55 2.14,30.57 2.02,30.58 1.90,30.56 1.78,30.54 1.67,30.48 1.57,30.42 1.49,30.34 1.41,30.25 1.36,30.14 1.31,30.03 1.30,29.91 1.29,29.79 1.31,29.67 1.34,29.55 1.40,29.45 1.47,29.35 1.56,29.27 1.65,29.20 1.77,29.15 1.88,29.11 2.00,29.11 2.12,29.10 2.24,29.13 2.35,29.17 2.45,29.24 2.55,29.31 2.62,29.40 2.69,29.50 2.73,29.62 2.76,29.73 2.76,29.85 2.76,29.97 2.72,30.08 2.68,30.20 2.61,30.29 2.53,30.39 2.43,30.45 2.33,30.52 2.21,30.55 2.10,30.58 1.98,30.57 1.86,30.56 1.75,30.52 1.64,30.47 1.64,30.47 1.64,30.47 1.03,28.61 0.43,26.76 0.20,24.53 -0.02,22.30 -0.07,20.09 -0.12,17.89 -0.22,15.66 -0.32,13.44 -0.55,11.09 -0.78,8.74 -0.80,6.26 -0.82,3.77 -0.85,1.88 -0.89,0 -0.87,-0.10 -0.86,-0.21 -0.82,-0.31 -0.78,-0.41 -0.72,-0.50 -0.66,-0.59 -0.58,-0.66 -0.50,-0.73 -0.41,-0.78 -0.31,-0.83 -0.21,-0.85 -0.10,-0.88 0.00,-0.88 0.10,-0.88 0.21,-0.85 0.31,-0.83 0.41,-0.78 0.50,-0.73 0.58,-0.66 0.66,-0.59 0.72,-0.50 0.78,-0.41 0.82,-0.31 0.86,-0.21 0.87,-0.10 0.89,0.00 0.89,0.00 L 0.89,0 Z"/></g><g transform="translate(10 91.06292724609375) rotate(0 6.572662353515625 0.3651580810546875)" stroke="none"><path fill="#1e1e1e" d="M -0.73,-0.31 Q -0.73,-0.31 -0.08,-1.78 0.56,-3.24 1.54,-4.38 2.51,-5.51 3.84,-6.23 5.16,-6.96 6.17,-7.28 7.18,-7.59 8.42,-7.47 9.65,-7.34 10.68,-6.15 11.70,-4.96 12.32,-3.57 12.93,-2.18 12.99,-0.66 13.04,0.85 12.61,2.19 12.18,3.53 11.10,4.79 10.03,6.04 9.13,6.78 8.24,7.52 7.38,7.90 6.53,8.29 5.64,8.36 4.75,8.43 4.33,8.02 3.90,7.62 2.59,5.56 1.27,3.51 1.21,3.38 1.15,3.25 1.14,3.10 1.12,2.96 1.16,2.82 1.19,2.68 1.26,2.56 1.34,2.44 1.45,2.35 1.56,2.26 1.69,2.21 1.82,2.16 1.96,2.15 2.11,2.14 2.24,2.18 2.38,2.22 2.50,2.30 2.61,2.39 2.70,2.50 2.78,2.61 2.83,2.75 2.87,2.88 2.87,3.03 2.87,3.17 2.82,3.30 2.78,3.44 2.69,3.55 2.60,3.66 2.48,3.74 2.36,3.82 2.23,3.86 2.09,3.89 1.95,3.89 1.80,3.88 1.67,3.82 1.54,3.77 1.43,3.68 1.33,3.58 1.25,3.46 1.18,3.34 1.15,3.20 1.12,3.06 1.14,2.92 1.16,2.77 1.22,2.65 1.28,2.52 1.38,2.41 1.48,2.31 1.60,2.25 1.73,2.18 1.87,2.16 2.01,2.14 2.15,2.16 2.29,2.19 2.42,2.25 2.54,2.32 2.64,2.43 2.74,2.53 2.74,2.53 2.74,2.53 4.37,4.71 6.00,6.89 6.70,6.68 7.41,6.47 8.22,5.81 9.02,5.15 9.97,4.11 10.92,3.07 11.30,1.96 11.68,0.86 11.67,-0.40 11.65,-1.66 11.12,-2.88 10.58,-4.09 9.89,-5.08 9.20,-6.07 8.38,-6.12 7.56,-6.18 6.69,-5.94 5.82,-5.70 4.71,-5.12 3.59,-4.54 2.77,-3.58 1.95,-2.63 1.34,-1.15 0.73,0.31 0.68,0.39 0.63,0.47 0.56,0.54 0.50,0.61 0.42,0.66 0.33,0.71 0.24,0.74 0.15,0.78 0.06,0.78 -0.03,0.79 -0.12,0.77 -0.22,0.76 -0.31,0.72 -0.39,0.68 -0.47,0.63 -0.55,0.57 -0.61,0.49 -0.67,0.42 -0.71,0.33 -0.75,0.25 -0.77,0.15 -0.79,0.06 -0.78,-0.03 -0.78,-0.12 -0.75,-0.22 -0.73,-0.31 -0.73,-0.31 L -0.73,-0.31 Z"/></g><g transform="translate(39.2119140625 96.17501831054688) rotate(0 5.84234619140625 -0.3651580810546875)" stroke="none"><path fill="#1e1e1e" d="M -0.12,-0.99 Q -0.12,-0.99 1.56,-1.16 3.24,-1.32 4.61,-1.38 5.99,-1.43 8.69,-1.23 11.39,-1.03 11.53,-0.97 11.67,-0.91 11.78,-0.81 11.90,-0.71 11.97,-0.58 12.05,-0.45 12.08,-0.30 12.11,-0.15 12.09,-0.00 12.07,0.14 12.00,0.28 11.94,0.41 11.83,0.52 11.72,0.63 11.59,0.70 11.45,0.77 11.30,0.79 11.15,0.81 11.00,0.78 10.86,0.76 10.72,0.68 10.59,0.61 10.49,0.50 10.39,0.38 10.32,0.25 10.26,0.11 10.25,-0.03 10.24,-0.18 10.27,-0.33 10.31,-0.48 10.39,-0.61 10.47,-0.74 10.59,-0.83 10.70,-0.93 10.84,-0.98 10.99,-1.04 11.14,-1.04 11.29,-1.05 11.44,-1.00 11.58,-0.96 11.70,-0.87 11.83,-0.79 11.92,-0.66 12.01,-0.54 12.05,-0.40 12.10,-0.25 12.10,-0.10 12.09,0.04 12.04,0.18 11.99,0.33 11.90,0.45 11.80,0.57 11.68,0.65 11.55,0.73 11.40,0.77 11.26,0.81 11.10,0.80 10.95,0.78 10.95,0.78 10.95,0.79 8.53,0.51 6.10,0.24 4.78,0.36 3.47,0.48 1.79,0.74 0.12,0.99 0.00,0.99 -0.11,0.99 -0.23,0.96 -0.35,0.94 -0.46,0.88 -0.56,0.82 -0.65,0.74 -0.74,0.66 -0.81,0.56 -0.88,0.47 -0.93,0.35 -0.97,0.24 -0.98,0.12 -1.00,0.00 -0.99,-0.11 -0.97,-0.23 -0.93,-0.35 -0.89,-0.46 -0.82,-0.56 -0.75,-0.66 -0.66,-0.74 -0.57,-0.82 -0.46,-0.88 -0.35,-0.93 -0.24,-0.96 -0.12,-0.99 -0.12,-0.99 L -0.12,-0.99 Z"/></g><g transform="translate(37.75128173828125 107.12945556640625) rotate(0 6.207550048828125 -1.0954437255859375)" stroke="none"><path fill="#1e1e1e" d="M 0,-0.97 Q 0,-0.97 1.46,-0.93 2.93,-0.88 4.51,-1.26 6.08,-1.64 8.60,-2.23 11.11,-2.82 11.26,-2.82 11.40,-2.83 11.54,-2.79 11.68,-2.75 11.80,-2.67 11.92,-2.59 12.01,-2.48 12.09,-2.36 12.14,-2.22 12.19,-2.09 12.19,-1.94 12.19,-1.80 12.14,-1.66 12.09,-1.52 12.01,-1.41 11.92,-1.29 11.80,-1.21 11.68,-1.13 11.54,-1.09 11.40,-1.05 11.26,-1.06 11.11,-1.07 10.98,-1.12 10.84,-1.18 10.73,-1.27 10.62,-1.36 10.55,-1.49 10.47,-1.61 10.44,-1.75 10.41,-1.89 10.43,-2.04 10.44,-2.18 10.50,-2.31 10.56,-2.44 10.66,-2.55 10.76,-2.65 10.89,-2.72 11.02,-2.79 11.16,-2.81 11.30,-2.84 11.45,-2.81 11.59,-2.79 11.72,-2.72 11.84,-2.65 11.94,-2.55 12.04,-2.44 12.10,-2.31 12.17,-2.18 12.18,-2.04 12.20,-1.89 12.17,-1.75 12.13,-1.61 12.06,-1.49 11.99,-1.36 11.88,-1.27 11.76,-1.18 11.63,-1.12 11.50,-1.07 11.50,-1.07 11.50,-1.07 8.99,-0.55 6.48,-0.03 4.71,0.42 2.94,0.88 1.47,0.93 0,0.97 -0.11,0.96 -0.23,0.94 -0.34,0.90 -0.45,0.86 -0.54,0.79 -0.64,0.72 -0.72,0.64 -0.80,0.55 -0.85,0.44 -0.91,0.34 -0.93,0.23 -0.96,0.11 -0.96,-0.00 -0.96,-0.11 -0.93,-0.23 -0.91,-0.34 -0.85,-0.44 -0.80,-0.55 -0.72,-0.64 -0.64,-0.72 -0.54,-0.79 -0.45,-0.86 -0.34,-0.90 -0.23,-0.94 -0.11,-0.96 0.00,-0.97 0.00,-0.97 L 0,-0.97 Z"/></g><g transform="translate(83.0296630859375 72.07522583007812) rotate(0 2.190887451171875 8.03326416015625)" stroke="none"><path fill="#1e1e1e" d="M 0.23,0.92 Q 0.23,0.92 -0.59,1.13 -1.43,1.34 -2.07,1.78 -2.71,2.22 -3.43,2.81 -4.14,3.40 -4.59,3.79 -5.04,4.18 -3.54,4.64 -2.05,5.09 -0.58,5.49 0.88,5.89 2.56,6.29 4.24,6.68 6.04,7.29 7.85,7.90 8.91,8.64 9.97,9.38 10.52,10.20 11.07,11.03 11.11,11.98 11.15,12.92 10.38,14.06 9.62,15.20 8.56,15.71 7.50,16.23 6.62,16.45 5.75,16.67 4.93,16.69 4.12,16.72 3.44,16.03 2.75,15.34 2.46,14.51 2.17,13.69 2.13,12.46 2.08,11.22 2.09,10.09 2.09,8.96 2.33,7.77 2.56,6.59 3.41,5.35 4.26,4.11 2.92,3.13 1.58,2.15 1.50,2.07 1.41,1.98 1.36,1.87 1.32,1.76 1.30,1.64 1.29,1.52 1.32,1.41 1.34,1.29 1.41,1.19 1.47,1.09 1.56,1.01 1.65,0.93 1.77,0.89 1.88,0.84 2.00,0.84 2.12,0.83 2.23,0.87 2.35,0.90 2.45,0.97 2.54,1.04 2.62,1.13 2.69,1.23 2.72,1.34 2.76,1.46 2.76,1.58 2.76,1.70 2.72,1.81 2.68,1.92 2.61,2.02 2.53,2.11 2.43,2.18 2.34,2.24 2.22,2.27 2.10,2.31 1.98,2.30 1.86,2.29 1.75,2.25 1.64,2.20 1.55,2.12 1.46,2.04 1.40,1.94 1.34,1.84 1.32,1.72 1.29,1.60 1.30,1.48 1.32,1.37 1.37,1.26 1.42,1.15 1.50,1.06 1.59,0.98 1.69,0.92 1.80,0.87 1.92,0.85 2.04,0.83 2.15,0.85 2.27,0.87 2.38,0.93 2.48,0.98 2.48,0.98 2.48,0.98 3.89,2.14 5.30,3.29 4.73,5.09 4.16,6.88 4.00,7.90 3.84,8.91 3.91,10.00 3.99,11.09 4.10,12.11 4.22,13.13 4.31,13.65 4.40,14.17 4.89,14.56 5.39,14.95 6.12,14.84 6.85,14.72 7.60,14.44 8.35,14.16 8.98,12.94 9.62,11.71 9.35,11.13 9.08,10.56 8.22,9.97 7.35,9.37 5.62,8.83 3.89,8.29 2.17,7.95 0.46,7.61 -1.10,7.27 -2.67,6.93 -3.90,6.56 -5.13,6.19 -5.88,5.56 -6.62,4.93 -6.58,4.04 -6.54,3.15 -5.93,2.58 -5.32,2.01 -4.53,1.33 -3.75,0.64 -2.84,0.07 -1.92,-0.50 -1.07,-0.71 -0.23,-0.92 -0.11,-0.93 -0.00,-0.95 0.11,-0.93 0.22,-0.92 0.33,-0.88 0.43,-0.84 0.53,-0.77 0.62,-0.71 0.70,-0.62 0.78,-0.54 0.83,-0.44 0.88,-0.33 0.91,-0.22 0.94,-0.11 0.94,-0.00 0.94,0.11 0.91,0.22 0.88,0.33 0.83,0.43 0.78,0.53 0.70,0.62 0.63,0.70 0.53,0.77 0.44,0.84 0.33,0.88 0.23,0.92 0.23,0.92 L 0.23,0.92 Z"/></g><g transform="translate(101.287109375 80.83877563476562) rotate(0 5.477203369140625 -2.190887451171875)" stroke="none"><path fill="#1e1e1e" d="M -0.88,-0.14 Q -0.88,-0.14 -0.63,-1.40 -0.39,-2.66 0.18,-3.73 0.75,-4.80 1.68,-5.71 2.60,-6.61 3.43,-7.22 4.25,-7.83 5.34,-8.13 6.42,-8.43 7.33,-8.56 8.24,-8.69 9.24,-8.28 10.24,-7.87 10.92,-6.94 11.61,-6.01 11.87,-4.67 12.14,-3.34 12.04,-2.29 11.94,-1.24 11.40,-0.10 10.87,1.04 9.92,1.80 8.97,2.57 7.24,3.10 5.51,3.63 4.12,3.83 2.74,4.04 1.58,3.67 0.42,3.30 -0.00,1.98 -0.44,0.65 -0.52,0.61 -0.61,0.57 -0.68,0.51 -0.75,0.45 -0.81,0.37 -0.86,0.30 -0.90,0.21 -0.93,0.13 -0.95,0.04 -0.96,-0.04 -0.95,-0.14 -0.95,-0.23 -0.92,-0.32 -0.89,-0.40 -0.84,-0.48 -0.79,-0.56 -0.72,-0.62 -0.65,-0.69 -0.57,-0.73 -0.49,-0.78 -0.40,-0.80 -0.31,-0.83 -0.22,-0.83 -0.13,-0.83 -0.04,-0.82 0.04,-0.80 0.16,-0.73 0.28,-0.66 0.36,-0.57 0.45,-0.48 0.49,-0.36 0.54,-0.25 0.55,-0.13 0.56,-0.00 0.53,0.11 0.50,0.23 0.43,0.33 0.36,0.44 0.26,0.51 0.17,0.59 0.05,0.63 -0.06,0.67 -0.18,0.68 -0.30,0.68 -0.42,0.64 -0.54,0.60 -0.64,0.53 -0.74,0.46 -0.81,0.36 -0.88,0.25 -0.92,0.14 -0.96,0.02 -0.95,-0.10 -0.95,-0.22 -0.90,-0.34 -0.86,-0.45 -0.78,-0.55 -0.70,-0.65 -0.60,-0.71 -0.49,-0.78 -0.37,-0.81 -0.25,-0.84 -0.13,-0.82 -0.00,-0.81 0.10,-0.76 0.21,-0.71 0.31,-0.63 0.40,-0.55 0.46,-0.44 0.52,-0.33 0.54,-0.21 0.56,-0.08 0.54,0.03 0.53,0.15 0.47,0.26 0.41,0.37 0.33,0.46 0.24,0.55 0.13,0.60 0.01,0.66 -0.10,0.67 -0.22,0.69 -0.34,0.66 -0.47,0.64 -0.45,0.64 -0.44,0.65 -0.52,0.61 -0.61,0.57 -0.68,0.51 -0.75,0.45 -0.81,0.37 -0.86,0.30 -0.90,0.21 -0.93,0.13 -0.95,0.04 -0.96,-0.04 -0.95,-0.14 -0.95,-0.23 -0.92,-0.32 -0.89,-0.40 -0.84,-0.48 -0.79,-0.56 -0.72,-0.62 -0.65,-0.69 -0.57,-0.73 -0.49,-0.78 -0.40,-0.80 -0.31,-0.83 -0.22,-0.83 -0.13,-0.83 -0.04,-0.82 0.04,-0.80 0.52,0.62 1.00,2.05 1.80,2.35 2.60,2.65 3.84,2.44 5.09,2.23 6.58,1.80 8.08,1.36 8.79,0.84 9.49,0.32 9.89,-0.57 10.30,-1.47 10.42,-2.26 10.55,-3.05 10.35,-4.07 10.16,-5.08 9.77,-5.73 9.38,-6.38 8.84,-6.72 8.29,-7.06 7.54,-6.99 6.79,-6.92 5.95,-6.74 5.12,-6.56 4.38,-6.05 3.65,-5.54 2.88,-4.79 2.12,-4.05 1.67,-3.21 1.23,-2.36 1.05,-1.11 0.88,0.14 0.85,0.25 0.82,0.35 0.76,0.44 0.71,0.53 0.63,0.61 0.56,0.69 0.47,0.75 0.37,0.80 0.27,0.84 0.17,0.87 0.06,0.88 -0.03,0.89 -0.14,0.87 -0.25,0.85 -0.35,0.81 -0.44,0.77 -0.53,0.70 -0.62,0.64 -0.68,0.55 -0.75,0.47 -0.80,0.37 -0.84,0.27 -0.86,0.17 -0.89,0.06 -0.88,-0.03 -0.88,-0.14 -0.88,-0.14 L -0.88,-0.14 Z"/></g><g transform="translate(131.95953369140625 66.963134765625) rotate(0 -9.49383544921875 14.605941772460938)" stroke="none"><path fill="#1e1e1e" d="M 0.77,0.38 Q 0.77,0.38 0.35,1.22 -0.06,2.06 -0.91,3.48 -1.75,4.89 -3.37,7.58 -5.00,10.28 -6.76,12.70 -8.52,15.13 -9.89,17.18 -11.25,19.23 -12.68,21.37 -14.11,23.51 -14.92,24.82 -15.73,26.14 -16.95,27.83 -18.17,29.51 -18.27,29.58 -18.38,29.65 -18.50,29.69 -18.62,29.72 -18.75,29.71 -18.87,29.71 -18.99,29.66 -19.11,29.61 -19.20,29.53 -19.30,29.45 -19.36,29.34 -19.43,29.23 -19.46,29.11 -19.48,28.98 -19.47,28.86 -19.45,28.73 -19.40,28.62 -19.35,28.50 -19.26,28.41 -19.17,28.32 -19.06,28.26 -18.95,28.20 -18.82,28.18 -18.70,28.16 -18.57,28.18 -18.45,28.21 -18.34,28.26 -18.23,28.32 -18.14,28.42 -18.05,28.51 -18.00,28.62 -17.95,28.74 -17.94,28.86 -17.92,28.99 -17.95,29.11 -17.98,29.24 -18.04,29.34 -18.11,29.45 -18.21,29.53 -18.30,29.61 -18.42,29.66 -18.54,29.71 -18.66,29.71 -18.79,29.72 -18.91,29.69 -19.03,29.65 -19.14,29.58 -19.24,29.51 -19.32,29.41 -19.39,29.31 -19.43,29.19 -19.47,29.07 -19.47,28.94 -19.47,28.81 -19.43,28.69 -19.39,28.57 -19.31,28.47 -19.24,28.37 -19.24,28.37 -19.24,28.37 -18.07,26.90 -16.91,25.42 -16.09,24.08 -15.27,22.73 -13.86,20.59 -12.45,18.45 -11.08,16.36 -9.72,14.27 -8.02,11.88 -6.32,9.49 -4.74,6.79 -3.15,4.09 -2.38,2.69 -1.61,1.29 -1.19,0.45 -0.77,-0.38 -0.71,-0.47 -0.65,-0.55 -0.58,-0.62 -0.50,-0.69 -0.41,-0.74 -0.32,-0.80 -0.22,-0.82 -0.12,-0.85 -0.01,-0.85 0.08,-0.85 0.18,-0.83 0.28,-0.81 0.38,-0.76 0.47,-0.71 0.55,-0.65 0.63,-0.58 0.69,-0.49 0.75,-0.41 0.79,-0.31 0.83,-0.22 0.84,-0.11 0.86,-0.01 0.85,0.08 0.84,0.18 0.80,0.28 0.77,0.38 0.77,0.38 L 0.77,0.38 Z"/></g><g transform="translate(130.49896240234375 85.95086669921875) rotate(0 -0.365142822265625 6.20751953125)" stroke="none"><path fill="#1e1e1e" d="M 1.02,0.14 Q 1.02,0.14 0.76,1.60 0.50,3.07 0.38,4.49 0.26,5.92 0.19,7.15 0.13,8.39 0.33,10.05 0.54,11.71 0.61,11.83 0.67,11.96 0.70,12.09 0.72,12.23 0.70,12.37 0.68,12.50 0.62,12.63 0.56,12.75 0.46,12.85 0.36,12.95 0.24,13.01 0.11,13.07 -0.02,13.09 -0.15,13.11 -0.29,13.08 -0.43,13.05 -0.55,12.98 -0.67,12.91 -0.76,12.81 -0.85,12.70 -0.91,12.58 -0.96,12.45 -0.97,12.31 -0.98,12.17 -0.95,12.04 -0.91,11.90 -0.84,11.78 -0.76,11.67 -0.65,11.58 -0.54,11.49 -0.41,11.45 -0.28,11.40 -0.14,11.40 -0.00,11.40 0.12,11.44 0.25,11.48 0.36,11.56 0.48,11.64 0.56,11.76 0.64,11.87 0.68,12.00 0.72,12.14 0.71,12.27 0.71,12.41 0.66,12.54 0.61,12.67 0.52,12.78 0.43,12.89 0.32,12.96 0.20,13.04 0.06,13.07 -0.06,13.10 -0.20,13.09 -0.34,13.08 -0.47,13.02 -0.59,12.97 -0.70,12.87 -0.80,12.78 -0.80,12.78 -0.80,12.78 -1.14,10.56 -1.48,8.34 -1.46,7.08 -1.45,5.81 -1.40,4.31 -1.34,2.80 -1.18,1.33 -1.02,-0.14 -0.99,-0.26 -0.96,-0.38 -0.90,-0.49 -0.84,-0.60 -0.75,-0.70 -0.67,-0.79 -0.56,-0.86 -0.46,-0.93 -0.34,-0.97 -0.22,-1.01 -0.10,-1.02 0.02,-1.03 0.14,-1.02 0.27,-1.00 0.38,-0.95 0.50,-0.91 0.60,-0.83 0.70,-0.76 0.78,-0.66 0.86,-0.57 0.92,-0.46 0.97,-0.34 1.00,-0.22 1.03,-0.10 1.03,0.02 1.02,0.14 1.02,0.14 L 1.02,0.14 Z"/></g><g transform="translate(139.26251220703125 91.79324340820312) rotate(0 2.556060791015625 -1.095458984375)" stroke="none"><path fill="#1e1e1e" d="M -1.04,-0.34 Q -1.04,-0.34 -0.56,-1.58 -0.09,-2.82 0.36,-3.83 0.82,-4.83 1.53,-5.44 2.25,-6.05 3.09,-6.31 3.93,-6.58 4.71,-6.45 5.49,-6.32 6.15,-5.71 6.82,-5.10 7.27,-4.12 7.71,-3.14 7.92,-2.24 8.13,-1.33 7.99,-0.38 7.86,0.56 7.54,1.28 7.22,1.99 6.05,2.77 4.89,3.55 3.69,3.85 2.49,4.14 1.56,4.27 0.63,4.41 -0.15,4.25 -0.95,4.10 -1.64,3.47 -2.33,2.84 -2.63,1.75 -2.93,0.65 -2.27,0.14 -1.61,-0.36 -1.63,-0.50 -1.64,-0.63 -1.62,-0.77 -1.60,-0.90 -1.55,-1.03 -1.50,-1.15 -1.43,-1.26 -1.35,-1.37 -1.24,-1.46 -1.14,-1.55 -1.02,-1.61 -0.90,-1.67 -0.77,-1.70 -0.64,-1.73 -0.50,-1.73 -0.37,-1.73 -0.23,-1.70 -0.10,-1.66 0.01,-1.60 0.12,-1.53 0.22,-1.44 0.32,-1.35 0.40,-1.24 0.47,-1.12 0.52,-1.00 0.57,-0.87 0.54,-0.95 0.52,-1.03 0.56,-0.85 0.59,-0.67 0.57,-0.49 0.55,-0.31 0.48,-0.15 0.40,0.01 0.27,0.14 0.15,0.27 -0.00,0.36 -0.16,0.44 -0.34,0.47 -0.52,0.50 -0.70,0.47 -0.88,0.44 -1.04,0.35 -1.20,0.26 -1.33,0.13 -1.45,0.00 -1.53,-0.16 -1.60,-0.32 -1.62,-0.50 -1.64,-0.68 -1.60,-0.86 -1.56,-1.04 -1.46,-1.19 -1.37,-1.35 -1.23,-1.47 -1.09,-1.58 -0.92,-1.65 -0.75,-1.72 -0.57,-1.72 -0.39,-1.73 -0.21,-1.68 -0.04,-1.63 0.10,-1.53 0.25,-1.43 0.36,-1.28 0.47,-1.14 0.53,-0.97 0.58,-0.79 0.58,-0.61 0.58,-0.43 0.52,-0.26 0.46,-0.09 0.35,0.05 0.24,0.19 0.09,0.29 -0.05,0.40 -0.23,0.44 -0.40,0.49 -0.58,0.48 -0.77,0.47 -0.93,0.40 -1.10,0.33 -1.24,0.21 -1.38,0.10 -1.50,-0.13 -1.61,-0.36 -1.63,-0.50 -1.64,-0.63 -1.62,-0.77 -1.60,-0.90 -1.55,-1.03 -1.50,-1.15 -1.43,-1.26 -1.35,-1.37 -1.24,-1.46 -1.14,-1.55 -1.02,-1.61 -0.90,-1.67 -0.77,-1.70 -0.64,-1.73 -0.50,-1.73 -0.37,-1.73 -0.23,-1.70 -0.10,-1.66 0.01,-1.60 0.12,-1.53 0.22,-1.44 0.32,-1.35 0.40,-1.24 0.47,-1.12 0.52,-1.00 0.57,-0.87 -0.15,-0.25 -0.87,0.35 -0.78,0.93 -0.69,1.51 -0.12,2.03 0.44,2.54 1.23,2.44 2.02,2.34 2.89,2.09 3.77,1.83 4.73,0.98 5.69,0.13 5.83,-0.40 5.98,-0.94 5.86,-1.59 5.73,-2.23 5.41,-2.92 5.08,-3.61 4.69,-4.10 4.31,-4.58 3.35,-4.30 2.40,-4.02 2.08,-3.11 1.77,-2.20 1.40,-0.93 1.04,0.34 0.98,0.46 0.92,0.58 0.84,0.68 0.76,0.79 0.65,0.87 0.54,0.95 0.42,1.00 0.30,1.05 0.17,1.07 0.04,1.09 -0.08,1.08 -0.21,1.07 -0.34,1.03 -0.47,0.99 -0.58,0.92 -0.69,0.85 -0.78,0.75 -0.87,0.65 -0.94,0.54 -1.00,0.43 -1.04,0.30 -1.08,0.17 -1.08,0.04 -1.09,-0.08 -1.06,-0.21 -1.04,-0.34 -1.04,-0.34 L -1.04,-0.34 Z"/></g><g transform="translate(155.32904052734375 88.14175415039062) rotate(0 2.190887451171875 -0.0000152587890625)" stroke="none"><path fill="#1e1e1e" d="M -0.96,-0.19 Q -0.96,-0.19 -0.69,-1.25 -0.43,-2.31 0.13,-3.15 0.70,-3.98 1.42,-4.57 2.14,-5.16 2.99,-5.47 3.84,-5.78 4.81,-5.67 5.78,-5.56 6.54,-4.97 7.31,-4.38 7.80,-3.14 8.30,-1.90 8.47,-0.69 8.63,0.52 8.26,1.61 7.89,2.70 7.24,3.44 6.60,4.17 5.60,4.70 4.61,5.23 3.26,5.44 1.92,5.64 0.94,5.73 -0.02,5.82 -0.79,5.67 -1.56,5.52 -2.45,4.86 -3.34,4.19 -2.53,2.88 -1.73,1.57 -1.81,1.50 -1.89,1.42 -1.95,1.33 -2.01,1.24 -2.05,1.13 -2.08,1.03 -2.09,0.92 -2.10,0.81 -2.09,0.70 -2.07,0.59 -2.03,0.49 -1.99,0.39 -1.92,0.30 -1.86,0.21 -1.77,0.14 -1.69,0.07 -1.59,0.02 -1.49,-0.02 -1.38,-0.05 -1.27,-0.07 -1.16,-0.07 -1.05,-0.06 -0.95,-0.03 -0.84,-0.00 -0.74,0.04 -0.65,0.09 -1.05,0.02 -1.45,-0.04 -1.30,-0.05 -1.15,-0.07 -1.01,-0.04 -0.86,-0.01 -0.73,0.05 -0.61,0.13 -0.51,0.24 -0.41,0.35 -0.35,0.48 -0.30,0.62 -0.29,0.77 -0.28,0.92 -0.31,1.06 -0.35,1.20 -0.43,1.33 -0.51,1.45 -0.63,1.54 -0.74,1.64 -0.88,1.68 -1.02,1.73 -1.17,1.74 -1.32,1.74 -1.46,1.69 -1.60,1.65 -1.72,1.56 -1.84,1.47 -1.93,1.35 -2.01,1.23 -2.05,1.09 -2.10,0.95 -2.09,0.80 -2.09,0.65 -2.03,0.51 -1.98,0.37 -1.89,0.26 -1.79,0.14 -1.67,0.07 -1.54,-0.00 -1.40,-0.04 -1.25,-0.07 -1.10,-0.06 -0.96,-0.04 -0.82,0.01 -0.69,0.07 -0.58,0.17 -0.47,0.27 -0.40,0.40 -0.32,0.53 -0.30,0.67 -0.27,0.82 -0.29,0.96 -0.31,1.11 -0.38,1.24 -0.45,1.38 -0.56,1.48 -0.66,1.58 -1.19,1.58 -1.73,1.57 -1.81,1.50 -1.89,1.42 -1.95,1.33 -2.01,1.24 -2.05,1.13 -2.08,1.03 -2.09,0.92 -2.10,0.81 -2.09,0.70 -2.07,0.59 -2.03,0.49 -1.99,0.39 -1.92,0.30 -1.86,0.21 -1.77,0.14 -1.69,0.07 -1.59,0.02 -1.49,-0.02 -1.38,-0.05 -1.27,-0.07 -1.16,-0.07 -1.05,-0.06 -0.95,-0.03 -0.84,-0.00 -0.74,0.04 -0.65,0.09 -1.30,1.60 -1.95,3.10 -1.04,3.63 -0.13,4.15 0.76,4.07 1.65,4.00 2.73,3.82 3.80,3.63 4.54,3.25 5.29,2.86 5.77,2.43 6.26,2.01 6.57,1.34 6.89,0.68 6.69,-0.24 6.49,-1.17 6.13,-2.00 5.77,-2.84 5.05,-3.33 4.33,-3.82 3.80,-3.72 3.27,-3.61 2.72,-3.22 2.16,-2.83 1.72,-2.36 1.27,-1.88 1.11,-0.84 0.96,0.19 0.92,0.30 0.88,0.41 0.82,0.51 0.76,0.61 0.67,0.69 0.59,0.78 0.48,0.84 0.38,0.89 0.27,0.93 0.16,0.96 0.04,0.97 -0.07,0.97 -0.19,0.95 -0.30,0.93 -0.41,0.88 -0.52,0.83 -0.61,0.75 -0.70,0.68 -0.77,0.58 -0.84,0.49 -0.89,0.38 -0.94,0.27 -0.95,0.15 -0.97,0.04 -0.96,-0.07 -0.96,-0.19 -0.96,-0.19 L -0.96,-0.19 Z"/></g><g transform="translate(169.93499755859375 87.41143798828125) rotate(0 2.5560302734375 -0.3651275634765625)" stroke="none"><path fill="#1e1e1e" d="M -0.99,-0.33 Q -0.99,-0.33 -0.51,-1.58 -0.04,-2.83 0.65,-3.72 1.35,-4.61 2.16,-5.06 2.97,-5.52 3.85,-5.71 4.74,-5.89 5.73,-5.49 6.72,-5.09 7.40,-4.40 8.07,-3.71 8.41,-2.88 8.75,-2.05 8.80,-1.04 8.86,-0.03 7.70,1.12 6.54,2.29 5.37,2.91 4.20,3.54 3.31,4.00 2.42,4.46 1.52,4.72 0.63,4.98 -0.42,4.80 -1.47,4.63 -1.36,2.99 -1.26,1.36 -1.38,1.32 -1.49,1.29 -1.60,1.23 -1.70,1.17 -1.79,1.08 -1.88,1.00 -1.94,0.90 -2.00,0.79 -2.04,0.68 -2.08,0.56 -2.09,0.44 -2.10,0.32 -2.08,0.20 -2.06,0.08 -2.01,-0.02 -1.96,-0.13 -1.89,-0.23 -1.82,-0.32 -1.72,-0.40 -1.63,-0.48 -1.52,-0.53 -1.41,-0.58 -1.29,-0.60 -1.17,-0.63 -1.05,-0.62 -0.93,-0.62 -1.01,-0.62 -1.09,-0.63 -0.93,-0.60 -0.77,-0.58 -0.63,-0.50 -0.49,-0.42 -0.38,-0.31 -0.26,-0.19 -0.20,-0.04 -0.13,0.10 -0.11,0.26 -0.09,0.42 -0.13,0.58 -0.16,0.74 -0.25,0.88 -0.33,1.02 -0.45,1.12 -0.58,1.23 -0.73,1.29 -0.88,1.35 -1.04,1.36 -1.20,1.36 -1.36,1.32 -1.52,1.28 -1.65,1.19 -1.79,1.09 -1.88,0.97 -1.98,0.84 -2.03,0.68 -2.09,0.53 -2.09,0.37 -2.09,0.20 -2.03,0.05 -1.98,-0.10 -1.88,-0.22 -1.79,-0.35 -1.65,-0.45 -1.52,-0.54 -1.36,-0.58 -1.20,-0.62 -1.04,-0.61 -0.88,-0.61 -0.73,-0.55 -0.58,-0.48 -0.45,-0.38 -0.33,-0.27 -0.25,-0.14 -0.16,-0.00 -0.13,0.15 -0.09,0.31 -0.11,0.47 -0.13,0.63 -0.20,0.78 -0.26,0.93 -0.38,1.05 -0.49,1.17 -0.63,1.24 -0.77,1.32 -1.02,1.34 -1.26,1.36 -1.38,1.32 -1.49,1.29 -1.60,1.23 -1.70,1.17 -1.79,1.08 -1.87,1.00 -1.94,0.90 -2.00,0.79 -2.04,0.68 -2.08,0.56 -2.09,0.44 -2.10,0.32 -2.08,0.20 -2.06,0.08 -2.01,-0.02 -1.96,-0.13 -1.89,-0.23 -1.82,-0.32 -1.72,-0.40 -1.63,-0.48 -1.52,-0.53 -1.41,-0.58 -1.29,-0.60 -1.17,-0.63 -1.05,-0.62 -0.93,-0.62 -0.34,1.28 0.24,3.19 0.92,3.05 1.60,2.91 2.45,2.44 3.30,1.96 4.25,1.38 5.20,0.80 6.06,0.11 6.92,-0.57 6.69,-1.46 6.46,-2.36 6.10,-2.81 5.75,-3.27 5.30,-3.60 4.85,-3.92 4.32,-3.84 3.79,-3.76 3.25,-3.58 2.72,-3.40 2.22,-2.80 1.72,-2.20 1.35,-0.93 0.99,0.33 0.93,0.44 0.88,0.55 0.80,0.65 0.72,0.75 0.62,0.83 0.52,0.90 0.40,0.95 0.29,1.00 0.16,1.02 0.04,1.04 -0.08,1.03 -0.20,1.02 -0.32,0.98 -0.44,0.94 -0.55,0.87 -0.66,0.81 -0.74,0.72 -0.83,0.62 -0.89,0.52 -0.96,0.41 -0.99,0.28 -1.03,0.16 -1.03,0.04 -1.04,-0.08 -1.01,-0.20 -0.99,-0.33 -0.99,-0.33 L -0.99,-0.33 Z"/></g><g transform="translate(76.45697021484375 63.311676025390625) rotate(0 -0.73028564453125 20.813446044921875)" stroke="none"><path fill="#1e1e1e" d="M 0.25,0.77 Q 0.25,0.77 -0.33,1.01 -0.93,1.25 -1.46,1.85 -2.00,2.46 -2.70,3.33 -3.40,4.21 -4.09,5.97 -4.78,7.74 -5.30,9.54 -5.82,11.35 -6.26,13.36 -6.69,15.38 -6.88,17.46 -7.06,19.55 -6.93,22.08 -6.81,24.62 -6.34,26.49 -5.88,28.37 -5.27,30.00 -4.67,31.62 -4.00,32.92 -3.33,34.23 -2.24,35.58 -1.15,36.93 -0.26,37.94 0.62,38.94 1.55,39.53 2.49,40.11 4.21,40.39 5.94,40.68 6.05,40.72 6.17,40.77 6.27,40.85 6.37,40.94 6.44,41.05 6.50,41.15 6.53,41.28 6.56,41.40 6.54,41.53 6.53,41.66 6.48,41.77 6.43,41.89 6.34,41.98 6.25,42.08 6.14,42.14 6.03,42.20 5.90,42.22 5.77,42.24 5.65,42.22 5.52,42.20 5.41,42.14 5.29,42.08 5.21,41.99 5.12,41.90 5.06,41.78 5.01,41.67 5.00,41.54 4.98,41.41 5.01,41.29 5.03,41.16 5.10,41.05 5.17,40.94 5.26,40.86 5.36,40.78 5.48,40.73 5.60,40.68 5.72,40.67 5.85,40.66 5.97,40.70 6.10,40.73 6.20,40.80 6.31,40.87 6.39,40.98 6.47,41.08 6.51,41.20 6.55,41.32 6.55,41.45 6.55,41.57 6.51,41.70 6.47,41.82 6.39,41.92 6.32,42.02 6.21,42.09 6.10,42.17 5.98,42.20 5.86,42.24 5.73,42.23 5.60,42.22 5.60,42.22 5.60,42.22 3.71,41.73 1.81,41.24 0.72,40.53 -0.36,39.83 -1.27,38.80 -2.19,37.77 -3.35,36.30 -4.52,34.84 -5.22,33.47 -5.93,32.10 -6.56,30.40 -7.20,28.70 -7.69,26.69 -8.18,24.69 -8.32,22.06 -8.46,19.43 -8.28,17.26 -8.09,15.09 -7.67,13.02 -7.25,10.95 -6.73,9.06 -6.22,7.18 -5.46,5.21 -4.71,3.24 -3.98,2.24 -3.26,1.25 -2.42,0.42 -1.58,-0.41 -0.92,-0.59 -0.25,-0.77 -0.16,-0.79 -0.06,-0.81 0.03,-0.80 0.13,-0.80 0.22,-0.77 0.31,-0.74 0.40,-0.69 0.48,-0.65 0.55,-0.58 0.63,-0.51 0.68,-0.43 0.73,-0.34 0.76,-0.25 0.79,-0.16 0.80,-0.06 0.81,0.03 0.79,0.12 0.78,0.22 0.74,0.31 0.70,0.40 0.64,0.48 0.58,0.56 0.51,0.62 0.43,0.68 0.34,0.72 0.25,0.77 0.25,0.77 L 0.25,0.77 Z"/></g><g transform="translate(182.35003662109375 56.008697509765625) rotate(0 2.190887451171875 20.44830322265625)" stroke="none"><path fill="#1e1e1e" d="M 0.55,-0.55 Q 0.55,-0.55 2.01,0.93 3.47,2.42 4.36,4.19 5.25,5.96 6.03,7.97 6.81,9.97 7.15,13.00 7.50,16.02 7.63,18.55 7.77,21.08 7.40,23.27 7.04,25.46 6.45,27.25 5.86,29.04 5.19,30.64 4.51,32.24 3.57,33.80 2.64,35.35 1.37,36.68 0.10,38.01 -0.86,39.39 -1.83,40.77 -1.92,40.85 -2.01,40.94 -2.13,41.00 -2.25,41.05 -2.37,41.06 -2.50,41.08 -2.62,41.05 -2.75,41.02 -2.86,40.96 -2.97,40.89 -3.05,40.79 -3.13,40.69 -3.18,40.58 -3.23,40.46 -3.24,40.33 -3.24,40.20 -3.21,40.08 -3.17,39.96 -3.10,39.85 -3.03,39.74 -2.93,39.67 -2.83,39.59 -2.70,39.55 -2.58,39.51 -2.46,39.51 -2.33,39.51 -2.21,39.55 -2.09,39.59 -1.98,39.67 -1.88,39.75 -1.81,39.85 -1.74,39.96 -1.70,40.08 -1.67,40.20 -1.68,40.33 -1.68,40.46 -1.73,40.58 -1.78,40.70 -1.86,40.79 -1.95,40.89 -2.06,40.96 -2.16,41.02 -2.29,41.05 -2.41,41.08 -2.54,41.06 -2.67,41.05 -2.78,41.00 -2.90,40.94 -2.99,40.85 -3.09,40.77 -3.15,40.65 -3.21,40.54 -3.23,40.41 -3.25,40.29 -3.23,40.16 -3.21,40.03 -3.15,39.92 -3.09,39.81 -3.09,39.81 -3.09,39.81 -1.97,38.45 -0.85,37.09 0.32,35.88 1.51,34.66 2.40,33.19 3.28,31.73 3.94,30.17 4.59,28.62 5.15,26.93 5.71,25.23 6.06,23.19 6.41,21.15 6.27,18.66 6.12,16.18 5.81,13.33 5.50,10.48 4.73,8.54 3.96,6.61 3.18,5.03 2.40,3.45 0.92,2.00 -0.55,0.55 -0.61,0.47 -0.66,0.40 -0.70,0.31 -0.74,0.23 -0.76,0.13 -0.77,0.04 -0.77,-0.04 -0.76,-0.14 -0.74,-0.23 -0.71,-0.32 -0.66,-0.40 -0.61,-0.48 -0.54,-0.54 -0.48,-0.61 -0.40,-0.66 -0.32,-0.71 -0.23,-0.74 -0.14,-0.76 -0.04,-0.77 0.04,-0.77 0.13,-0.76 0.23,-0.74 0.31,-0.70 0.40,-0.66 0.47,-0.61 0.55,-0.55 0.55,-0.55 L 0.55,-0.55 Z"/></g><g transform="translate(207.18011474609375 67.69345092773438) rotate(0 4.016632080078125 5.1120758056640625)" stroke="none"><path fill="#1e1e1e" d="M 0.86,-0.49 Q 0.86,-0.49 1.66,0.99 2.46,2.48 3.36,3.46 4.26,4.45 5.10,5.57 5.95,6.69 7.04,8.45 8.12,10.21 8.09,10.34 8.05,10.47 7.97,10.58 7.90,10.69 7.79,10.77 7.69,10.84 7.56,10.89 7.44,10.93 7.30,10.93 7.17,10.93 7.05,10.88 6.92,10.84 6.82,10.76 6.71,10.68 6.64,10.57 6.56,10.46 6.53,10.33 6.50,10.20 6.50,10.07 6.51,9.94 6.56,9.82 6.61,9.69 6.70,9.59 6.78,9.49 6.90,9.43 7.01,9.36 7.14,9.33 7.27,9.30 7.40,9.32 7.53,9.33 7.65,9.39 7.77,9.45 7.87,9.54 7.96,9.63 8.03,9.75 8.09,9.86 8.11,10.00 8.13,10.13 8.10,10.26 8.08,10.39 8.02,10.50 7.96,10.62 7.86,10.71 7.76,10.80 7.64,10.85 7.52,10.91 7.39,10.92 7.26,10.94 7.13,10.91 7.00,10.88 6.89,10.81 6.78,10.74 6.69,10.64 6.61,10.54 6.56,10.41 6.51,10.29 6.50,10.16 6.50,10.03 6.50,10.03 6.50,10.03 5.60,8.84 4.70,7.66 3.87,6.63 3.04,5.60 1.96,4.49 0.89,3.39 0.01,1.94 -0.86,0.49 -0.91,0.38 -0.95,0.27 -0.97,0.15 -0.99,0.03 -0.98,-0.08 -0.97,-0.20 -0.93,-0.31 -0.89,-0.43 -0.83,-0.53 -0.77,-0.63 -0.68,-0.71 -0.59,-0.80 -0.49,-0.86 -0.38,-0.91 -0.27,-0.95 -0.15,-0.98 -0.03,-0.98 0.08,-0.99 0.20,-0.96 0.32,-0.94 0.42,-0.89 0.53,-0.84 0.62,-0.76 0.72,-0.68 0.79,-0.59 0.86,-0.49 0.86,-0.49 L 0.86,-0.49 Z"/></g><g transform="translate(214.48309326171875 66.963134765625) rotate(0 -5.112091064453125 5.47723388671875)" stroke="none"><path fill="#1e1e1e" d="M 0.50,0.81 Q 0.50,0.81 -1.19,1.82 -2.89,2.84 -4.39,4.26 -5.89,5.67 -6.73,6.87 -7.56,8.06 -8.33,9.43 -9.10,10.81 -9.19,10.92 -9.28,11.02 -9.41,11.10 -9.53,11.17 -9.67,11.20 -9.81,11.23 -9.95,11.22 -10.09,11.20 -10.22,11.14 -10.35,11.08 -10.46,10.98 -10.56,10.88 -10.63,10.75 -10.69,10.63 -10.72,10.49 -10.74,10.35 -10.72,10.20 -10.69,10.06 -10.63,9.94 -10.56,9.81 -10.45,9.71 -10.35,9.61 -10.22,9.55 -10.09,9.49 -9.95,9.48 -9.80,9.46 -9.66,9.49 -9.52,9.53 -9.40,9.60 -9.28,9.67 -9.19,9.78 -9.09,9.89 -9.04,10.03 -8.99,10.16 -8.98,10.30 -8.97,10.45 -9.01,10.58 -9.05,10.72 -9.13,10.84 -9.21,10.96 -9.33,11.04 -9.44,11.13 -9.58,11.18 -9.71,11.22 -9.86,11.22 -10.00,11.22 -10.14,11.18 -10.27,11.13 -10.39,11.04 -10.50,10.95 -10.58,10.84 -10.66,10.72 -10.70,10.58 -10.74,10.44 -10.73,10.30 -10.72,10.15 -10.67,10.02 -10.61,9.89 -10.61,9.89 -10.61,9.89 -9.73,8.53 -8.84,7.18 -7.94,5.84 -7.03,4.50 -5.43,2.93 -3.82,1.35 -2.16,0.27 -0.50,-0.81 -0.40,-0.86 -0.29,-0.91 -0.18,-0.93 -0.07,-0.95 0.04,-0.95 0.15,-0.94 0.26,-0.91 0.38,-0.88 0.48,-0.82 0.58,-0.76 0.66,-0.68 0.74,-0.60 0.80,-0.50 0.86,-0.40 0.90,-0.29 0.94,-0.18 0.94,-0.07 0.95,0.04 0.93,0.15 0.92,0.27 0.87,0.37 0.82,0.48 0.75,0.57 0.68,0.66 0.59,0.74 0.50,0.81 0.50,0.81 L 0.50,0.81 Z"/></g><g transform="translate(236.3919677734375 59.660186767578125) rotate(0 5.112091064453125 5.1120758056640625)" stroke="none"><path fill="#1e1e1e" d="M -0.83,0.41 Q -0.83,0.41 -1.25,-0.45 -1.67,-1.32 -1.69,-2.33 -1.71,-3.34 -1.42,-3.93 -1.14,-4.52 -0.23,-5.03 0.67,-5.54 1.79,-5.71 2.92,-5.87 4.02,-5.44 5.12,-5.00 5.83,-3.81 6.54,-2.62 6.79,-1.22 7.04,0.17 7.12,2.02 7.21,3.87 7.02,5.54 6.83,7.22 6.07,8.65 5.32,10.08 4.56,11.10 3.81,12.12 2.78,12.82 1.76,13.52 0.98,14.17 0.20,14.82 0.09,15.16 -0.01,15.51 -0.09,15.56 -0.17,15.61 -0.26,15.64 -0.35,15.67 -0.45,15.68 -0.54,15.69 -0.64,15.68 -0.73,15.66 -0.82,15.63 -0.91,15.59 -0.99,15.53 -1.06,15.48 -1.12,15.40 -1.18,15.33 -1.23,15.25 -1.27,15.16 -1.29,15.07 -1.31,14.97 -1.31,14.88 -1.30,14.78 -1.28,14.69 -1.25,14.60 -1.21,14.52 -1.16,14.43 -1.10,14.36 -1.03,14.29 -0.31,14.34 0.39,14.39 0.99,14.19 1.59,13.99 2.75,13.74 3.92,13.49 5.10,13.39 6.28,13.28 8.69,13.15 11.10,13.01 11.24,13.03 11.38,13.05 11.51,13.11 11.63,13.18 11.73,13.28 11.83,13.38 11.89,13.50 11.96,13.63 11.97,13.77 11.99,13.91 11.97,14.05 11.94,14.19 11.87,14.31 11.80,14.43 11.69,14.53 11.59,14.62 11.46,14.68 11.33,14.73 11.19,14.74 11.05,14.75 10.91,14.72 10.77,14.68 10.65,14.61 10.53,14.53 10.45,14.42 10.36,14.31 10.31,14.18 10.26,14.05 10.26,13.90 10.25,13.76 10.30,13.63 10.34,13.49 10.42,13.38 10.50,13.26 10.62,13.18 10.73,13.10 10.87,13.06 11.00,13.02 11.15,13.02 11.29,13.03 11.42,13.08 11.55,13.13 11.66,13.21 11.77,13.30 11.85,13.42 11.92,13.54 11.96,13.68 11.99,13.82 11.98,13.96 11.97,14.10 11.91,14.23 11.85,14.36 11.76,14.46 11.66,14.57 11.54,14.64 11.42,14.70 11.28,14.73 11.14,14.76 11.14,14.76 11.14,14.76 8.79,14.78 6.44,14.81 5.36,14.94 4.29,15.07 3.11,15.37 1.93,15.68 0.95,15.59 -0.01,15.51 -0.09,15.56 -0.17,15.61 -0.26,15.64 -0.35,15.67 -0.45,15.68 -0.54,15.69 -0.64,15.68 -0.73,15.66 -0.82,15.63 -0.91,15.59 -0.99,15.53 -1.06,15.48 -1.12,15.40 -1.18,15.33 -1.23,15.25 -1.27,15.16 -1.29,15.07 -1.31,14.97 -1.31,14.88 -1.30,14.78 -1.28,14.69 -1.25,14.60 -1.21,14.52 -1.16,14.43 -1.10,14.36 -1.03,14.30 -0.87,14.06 -0.70,13.82 0.14,13.09 0.99,12.37 1.84,11.82 2.69,11.27 3.37,10.33 4.04,9.40 4.69,8.21 5.34,7.02 5.49,5.49 5.63,3.96 5.51,2.22 5.39,0.48 5.17,-0.64 4.95,-1.76 4.54,-2.55 4.13,-3.35 3.60,-3.62 3.06,-3.90 2.31,-3.77 1.56,-3.63 0.86,-3.37 0.15,-3.11 0.07,-2.57 -0.00,-2.03 0.41,-1.22 0.83,-0.41 0.86,-0.30 0.90,-0.20 0.91,-0.09 0.92,0.01 0.91,0.12 0.89,0.23 0.85,0.34 0.81,0.44 0.74,0.53 0.68,0.62 0.59,0.70 0.51,0.77 0.41,0.82 0.31,0.87 0.20,0.89 0.09,0.92 -0.01,0.92 -0.13,0.91 -0.23,0.89 -0.34,0.86 -0.44,0.80 -0.54,0.75 -0.62,0.67 -0.70,0.60 -0.76,0.50 -0.83,0.41 -0.83,0.41 L -0.83,0.41 Z"/></g><g transform="translate(259.761474609375 68.42373657226562) rotate(0 0.365142822265625 0)" stroke="none"><path fill="#1e1e1e" d="M 1.06,-0.33 Q 1.06,-0.33 1.07,-0.06 1.09,0.20 0.98,0.44 0.87,0.68 0.66,0.84 0.45,1.01 0.19,1.06 -0.06,1.10 -0.32,1.02 -0.57,0.95 -0.76,0.76 -0.95,0.57 -1.02,0.32 -1.10,0.06 -1.06,-0.19 -1.01,-0.45 -0.84,-0.66 -0.68,-0.87 -0.44,-0.98 -0.19,-1.09 0.06,-1.07 0.33,-1.05 0.55,-0.92 0.78,-0.78 0.92,-0.55 L 1.06,-0.33 Z"/></g><g transform="translate(267.79473876953125 45.7845458984375) rotate(0 1.82574462890625 12.780181884765625)" stroke="none"><path fill="#1e1e1e" d="M 0.90,0 Q 0.90,0 0.87,1.25 0.83,2.51 1.01,4.05 1.20,5.58 1.48,7.29 1.75,9.00 1.87,11.25 1.99,13.49 2.04,15.49 2.08,17.49 2.10,19.18 2.11,20.87 2.12,22.00 2.12,23.14 2.85,23.90 3.58,24.66 3.69,24.73 3.79,24.80 3.87,24.90 3.94,25.00 3.98,25.13 4.02,25.25 4.02,25.37 4.02,25.50 3.98,25.62 3.94,25.74 3.87,25.84 3.79,25.94 3.68,26.01 3.58,26.08 3.45,26.12 3.33,26.15 3.21,26.14 3.08,26.14 2.96,26.09 2.84,26.04 2.75,25.96 2.65,25.88 2.58,25.77 2.52,25.66 2.49,25.53 2.47,25.41 2.48,25.28 2.49,25.16 2.55,25.04 2.60,24.93 2.69,24.84 2.78,24.74 2.89,24.68 3.00,24.63 3.13,24.61 3.25,24.59 3.38,24.61 3.50,24.63 3.61,24.69 3.73,24.75 3.81,24.84 3.90,24.93 3.95,25.05 4.01,25.16 4.02,25.29 4.03,25.42 4.01,25.54 3.98,25.66 3.91,25.77 3.85,25.88 3.75,25.96 3.65,26.04 3.53,26.09 3.42,26.14 3.29,26.14 3.16,26.15 3.04,26.12 2.92,26.08 2.92,26.08 2.92,26.08 1.84,24.62 0.76,23.15 0.74,22.02 0.73,20.88 0.70,19.21 0.67,17.53 0.61,15.55 0.54,13.58 0.41,11.42 0.27,9.26 -0.04,7.52 -0.36,5.79 -0.59,4.15 -0.83,2.52 -0.87,1.26 -0.90,0 -0.89,-0.10 -0.87,-0.21 -0.83,-0.31 -0.80,-0.42 -0.73,-0.50 -0.67,-0.59 -0.59,-0.67 -0.51,-0.74 -0.41,-0.79 -0.32,-0.84 -0.21,-0.87 -0.10,-0.89 0.00,-0.89 0.10,-0.89 0.21,-0.87 0.32,-0.84 0.41,-0.79 0.51,-0.74 0.59,-0.67 0.67,-0.59 0.73,-0.50 0.80,-0.42 0.83,-0.31 0.87,-0.21 0.89,-0.10 0.90,0.00 0.90,0.00 L 0.90,0 Z"/></g><g transform="translate(259.761474609375 66.963134765625) rotate(0 -0.73028564453125 0)" stroke="none"><path fill="#1e1e1e" d="M 1.06,-0.33 Q 1.06,-0.33 1.07,-0.06 1.09,0.20 0.98,0.44 0.87,0.68 0.66,0.84 0.45,1.01 0.19,1.06 -0.06,1.10 -0.32,1.02 -0.57,0.95 -0.76,0.76 -0.95,0.57 -1.02,0.32 -1.10,0.06 -1.06,-0.19 -1.01,-0.45 -0.84,-0.66 -0.68,-0.87 -0.44,-0.98 -0.19,-1.09 0.06,-1.07 0.33,-1.05 0.55,-0.92 0.78,-0.78 0.92,-0.55 L 1.06,-0.33 Z"/></g><g transform="translate(10.7303466796875 140.72311401367188) rotate(0 1.825714111328125 16.431671142578125)" stroke="none"><path fill="#1e1e1e" d="M 0.77,-0.12 Q 0.77,-0.12 0.96,1.13 1.15,2.39 1.23,4.23 1.31,6.07 1.34,7.68 1.37,9.29 1.38,10.61 1.39,11.92 1.39,13.32 1.40,14.72 1.60,16.54 1.81,18.36 1.90,20.00 1.99,21.65 2.03,23.19 2.06,24.73 2.29,26.18 2.51,27.63 3.31,29.49 4.10,31.35 4.11,31.44 4.11,31.53 4.09,31.62 4.07,31.70 4.03,31.78 3.99,31.86 3.94,31.93 3.88,32.00 3.81,32.05 3.73,32.11 3.65,32.14 3.57,32.17 3.48,32.19 3.39,32.20 3.30,32.19 3.22,32.19 3.13,32.16 3.05,32.13 2.97,32.08 2.90,32.03 2.84,31.97 2.78,31.90 2.73,31.82 2.69,31.74 2.66,31.66 2.64,31.57 3.04,31.15 3.44,30.73 3.56,30.76 3.67,30.79 3.77,30.85 3.87,30.92 3.95,31.01 4.02,31.11 4.06,31.22 4.10,31.33 4.10,31.45 4.10,31.57 4.07,31.69 4.03,31.80 3.96,31.90 3.89,31.99 3.79,32.06 3.69,32.13 3.58,32.16 3.46,32.20 3.34,32.19 3.22,32.19 3.11,32.14 3.00,32.10 2.91,32.02 2.81,31.95 2.75,31.85 2.69,31.75 2.66,31.63 2.63,31.51 2.64,31.39 2.66,31.27 2.71,31.16 2.75,31.06 2.83,30.97 2.92,30.88 3.02,30.82 3.13,30.76 3.24,30.74 3.36,30.72 3.48,30.74 3.60,30.76 3.71,30.81 3.81,30.87 3.90,30.95 3.98,31.04 4.03,31.15 4.08,31.25 4.10,31.37 4.11,31.49 4.09,31.61 4.06,31.73 4.00,31.83 3.94,31.93 3.85,32.01 3.76,32.09 3.65,32.14 3.54,32.18 3.82,31.77 4.10,31.35 4.11,31.44 4.11,31.53 4.09,31.62 4.07,31.70 4.03,31.78 3.99,31.86 3.94,31.93 3.88,32.00 3.81,32.05 3.73,32.11 3.65,32.14 3.57,32.17 3.48,32.19 3.39,32.20 3.30,32.19 3.22,32.19 3.13,32.16 3.05,32.13 2.97,32.08 2.90,32.03 2.84,31.97 2.78,31.90 2.73,31.82 2.69,31.75 2.66,31.66 2.64,31.57 1.92,29.70 1.20,27.83 0.96,26.30 0.73,24.77 0.69,23.25 0.65,21.73 0.56,20.12 0.47,18.51 0.25,16.62 0.03,14.73 0.02,13.34 0.01,11.94 -0.00,10.63 -0.03,9.33 -0.07,7.73 -0.12,6.14 -0.22,4.39 -0.31,2.64 -0.54,1.38 -0.77,0.12 -0.77,0.03 -0.77,-0.05 -0.76,-0.15 -0.74,-0.24 -0.70,-0.32 -0.66,-0.41 -0.60,-0.48 -0.54,-0.56 -0.46,-0.61 -0.39,-0.67 -0.30,-0.71 -0.22,-0.74 -0.12,-0.76 -0.03,-0.78 0.05,-0.77 0.15,-0.76 0.24,-0.73 0.33,-0.70 0.41,-0.65 0.49,-0.60 0.55,-0.53 0.62,-0.47 0.66,-0.39 0.71,-0.30 0.74,-0.21 0.77,-0.12 0.77,-0.12 L 0.77,-0.12 Z"/></g><g transform="translate(10.7303466796875 142.91400146484375) rotate(0 4.3817138671875 4.7469329833984375)" stroke="none"><path fill="#1e1e1e" d="M -0.92,0 Q -0.92,0 -0.93,-0.71 -0.93,-1.42 -0.44,-2.17 0.04,-2.92 0.74,-3.43 1.44,-3.95 2.53,-4.19 3.61,-4.43 4.79,-4.25 5.97,-4.08 6.98,-3.51 8.00,-2.95 8.69,-1.96 9.39,-0.97 9.67,0.37 9.94,1.73 9.82,2.98 9.69,4.24 8.97,5.88 8.25,7.52 7.52,8.83 6.78,10.13 6.03,11.14 5.27,12.14 3.67,12.97 2.07,13.80 1.94,13.82 1.81,13.83 1.68,13.80 1.56,13.77 1.45,13.71 1.34,13.64 1.25,13.54 1.17,13.44 1.12,13.32 1.07,13.20 1.07,13.07 1.06,12.94 1.10,12.82 1.13,12.69 1.21,12.58 1.28,12.48 1.38,12.40 1.49,12.32 1.61,12.28 1.73,12.24 1.86,12.24 1.99,12.24 2.11,12.28 2.24,12.33 2.34,12.40 2.44,12.48 2.51,12.59 2.59,12.70 2.62,12.82 2.65,12.95 2.65,13.08 2.64,13.21 2.59,13.33 2.54,13.45 2.46,13.55 2.37,13.64 2.26,13.71 2.15,13.78 2.02,13.80 1.90,13.83 1.77,13.82 1.64,13.80 1.52,13.75 1.40,13.69 1.31,13.60 1.22,13.51 1.16,13.40 1.10,13.28 1.08,13.15 1.06,13.03 1.08,12.90 1.10,12.77 1.16,12.66 1.22,12.54 1.32,12.45 1.41,12.37 1.53,12.31 1.65,12.26 1.65,12.26 1.65,12.26 2.90,11.77 4.15,11.29 4.84,10.36 5.52,9.44 6.20,8.18 6.88,6.92 7.51,5.50 8.14,4.07 8.23,3.05 8.32,2.04 8.11,1.00 7.90,-0.02 7.46,-0.70 7.01,-1.37 6.33,-1.77 5.66,-2.16 4.82,-2.25 3.99,-2.35 3.30,-2.24 2.62,-2.12 1.78,-1.61 0.93,-1.09 0.93,-0.54 0.92,0 0.91,0.11 0.89,0.22 0.85,0.32 0.81,0.42 0.75,0.52 0.69,0.61 0.60,0.68 0.52,0.76 0.42,0.81 0.32,0.86 0.21,0.89 0.11,0.91 -0.00,0.91 -0.11,0.91 -0.21,0.89 -0.32,0.86 -0.42,0.81 -0.52,0.76 -0.60,0.68 -0.69,0.61 -0.75,0.52 -0.81,0.42 -0.85,0.32 -0.89,0.22 -0.91,0.11 -0.92,-0.00 -0.92,-0.00 L -0.92,0 Z"/></g><g transform="translate(42.133056640625 146.56549072265625) rotate(0 5.112091064453125 -1.460601806640625)" stroke="none"><path fill="#1e1e1e" d="M -0.37,-0.92 Q -0.37,-0.92 0.69,-1.30 1.76,-1.68 2.86,-2.04 3.96,-2.40 6.74,-3.07 9.51,-3.74 9.66,-3.74 9.82,-3.74 9.96,-3.70 10.10,-3.65 10.23,-3.56 10.35,-3.48 10.44,-3.35 10.53,-3.23 10.57,-3.08 10.61,-2.94 10.61,-2.79 10.60,-2.64 10.55,-2.49 10.50,-2.35 10.40,-2.23 10.31,-2.12 10.18,-2.04 10.05,-1.95 9.90,-1.92 9.76,-1.88 9.61,-1.90 9.45,-1.91 9.32,-1.97 9.18,-2.03 9.06,-2.13 8.95,-2.23 8.88,-2.36 8.80,-2.50 8.78,-2.65 8.75,-2.79 8.77,-2.94 8.79,-3.09 8.86,-3.23 8.93,-3.37 9.03,-3.47 9.14,-3.58 9.28,-3.65 9.41,-3.71 9.56,-3.73 9.71,-3.75 9.86,-3.72 10.01,-3.69 10.14,-3.62 10.27,-3.54 10.38,-3.43 10.48,-3.32 10.54,-3.18 10.59,-3.04 10.61,-2.89 10.62,-2.74 10.58,-2.59 10.54,-2.44 10.46,-2.31 10.38,-2.19 10.26,-2.09 10.14,-2.00 10.00,-1.95 9.86,-1.90 9.86,-1.90 9.86,-1.90 7.19,-1.36 4.53,-0.82 3.48,-0.41 2.43,0.00 1.40,0.46 0.37,0.92 0.25,0.95 0.13,0.99 0.01,0.99 -0.10,0.99 -0.22,0.96 -0.33,0.94 -0.44,0.88 -0.55,0.83 -0.64,0.75 -0.73,0.67 -0.80,0.57 -0.87,0.48 -0.92,0.36 -0.96,0.25 -0.98,0.13 -0.99,0.01 -0.98,-0.10 -0.97,-0.22 -0.93,-0.33 -0.89,-0.44 -0.82,-0.54 -0.76,-0.64 -0.67,-0.73 -0.58,-0.81 -0.47,-0.87 -0.37,-0.92 -0.37,-0.92 L -0.37,-0.92 Z"/></g><g transform="translate(44.32391357421875 154.5987548828125) rotate(0 5.11212158203125 -1.0954437255859375)" stroke="none"><path fill="#1e1e1e" d="M -0.13,-0.97 Q -0.13,-0.97 1.33,-1.14 2.81,-1.31 5.75,-2.02 8.69,-2.74 8.84,-2.75 8.98,-2.77 9.12,-2.73 9.26,-2.69 9.39,-2.61 9.51,-2.54 9.60,-2.42 9.69,-2.31 9.74,-2.17 9.79,-2.03 9.79,-1.89 9.80,-1.74 9.75,-1.60 9.71,-1.46 9.62,-1.34 9.54,-1.22 9.42,-1.14 9.30,-1.05 9.16,-1.01 9.02,-0.97 8.87,-0.98 8.73,-0.98 8.59,-1.03 8.45,-1.08 8.34,-1.17 8.23,-1.27 8.15,-1.39 8.07,-1.51 8.04,-1.66 8.00,-1.80 8.02,-1.94 8.03,-2.09 8.09,-2.22 8.15,-2.36 8.24,-2.46 8.34,-2.57 8.47,-2.64 8.60,-2.72 8.74,-2.74 8.88,-2.77 9.03,-2.75 9.17,-2.73 9.30,-2.66 9.43,-2.60 9.54,-2.49 9.64,-2.39 9.70,-2.26 9.77,-2.13 9.79,-1.98 9.81,-1.84 9.78,-1.69 9.75,-1.55 9.68,-1.42 9.60,-1.30 9.49,-1.20 9.39,-1.10 9.25,-1.05 9.12,-0.99 9.12,-0.99 9.12,-0.99 6.09,-0.26 3.06,0.47 1.60,0.72 0.13,0.97 0.02,0.98 -0.09,0.98 -0.21,0.95 -0.33,0.93 -0.43,0.87 -0.54,0.82 -0.63,0.74 -0.72,0.67 -0.79,0.57 -0.86,0.47 -0.91,0.36 -0.95,0.25 -0.97,0.13 -0.98,0.02 -0.97,-0.09 -0.96,-0.21 -0.92,-0.32 -0.88,-0.44 -0.81,-0.54 -0.75,-0.64 -0.66,-0.72 -0.57,-0.80 -0.47,-0.85 -0.36,-0.91 -0.25,-0.94 -0.13,-0.97 -0.13,-0.97 L -0.13,-0.97 Z"/></g><g transform="translate(83.0296630859375 148.02609252929688) rotate(0 6.207550048828125 -0.3651580810546875)" stroke="none"><path fill="#1e1e1e" d="M -0.63,0.63 Q -0.63,0.63 -1.27,-0.00 -1.92,-0.64 -2.31,-1.46 -2.70,-2.28 -2.85,-3.15 -3.01,-4.02 -2.58,-5.02 -2.15,-6.02 -1.20,-6.69 -0.24,-7.37 0.80,-7.79 1.85,-8.22 3.61,-8.61 5.37,-9.00 6.98,-9.15 8.59,-9.30 10.03,-8.91 11.46,-8.53 12.57,-7.64 13.68,-6.75 14.18,-5.00 14.68,-3.25 14.85,-1.90 15.03,-0.56 15.09,0.68 15.15,1.93 14.51,3.02 13.86,4.11 12.92,4.99 11.98,5.86 10.48,6.68 8.99,7.49 7.68,7.84 6.37,8.19 5.15,8.33 3.93,8.48 2.85,8.10 1.77,7.72 1.02,6.81 0.28,5.90 0.19,4.52 0.11,3.14 0.25,2.19 0.40,1.25 0.30,1.16 0.21,1.07 0.15,0.95 0.08,0.83 0.06,0.70 0.04,0.57 0.06,0.45 0.08,0.32 0.14,0.20 0.20,0.08 0.30,-0.00 0.39,-0.09 0.51,-0.14 0.63,-0.20 0.76,-0.21 0.89,-0.23 1.02,-0.20 1.15,-0.17 1.26,-0.11 1.38,-0.04 1.46,0.05 1.55,0.15 1.60,0.27 1.64,0.39 1.65,0.53 1.66,0.66 1.63,0.78 1.59,0.91 1.52,1.02 1.44,1.13 1.34,1.21 1.24,1.29 1.11,1.33 0.99,1.37 0.86,1.37 0.72,1.37 0.60,1.33 0.47,1.29 0.37,1.21 0.26,1.13 0.19,1.02 0.12,0.92 0.08,0.79 0.05,0.66 0.05,0.53 0.06,0.40 0.11,0.28 0.16,0.16 0.24,0.06 0.32,-0.04 0.44,-0.10 0.55,-0.17 0.68,-0.20 0.81,-0.23 0.94,-0.21 1.07,-0.20 1.19,-0.15 1.31,-0.09 1.31,-0.09 1.31,-0.09 1.39,1.57 1.47,3.24 1.48,4.21 1.48,5.17 1.93,5.83 2.37,6.48 3.11,6.83 3.85,7.17 4.94,7.04 6.04,6.91 7.20,6.61 8.36,6.31 9.72,5.59 11.08,4.87 11.90,4.12 12.73,3.37 13.28,2.61 13.83,1.86 13.74,0.74 13.65,-0.37 13.48,-1.64 13.31,-2.90 12.99,-4.33 12.67,-5.77 11.84,-6.43 11.02,-7.10 9.87,-7.41 8.72,-7.73 7.24,-7.54 5.75,-7.36 4.17,-6.96 2.59,-6.56 1.71,-6.13 0.83,-5.70 0.21,-5.34 -0.40,-4.98 -0.72,-4.53 -1.03,-4.09 -0.96,-3.54 -0.88,-2.98 -0.74,-2.43 -0.59,-1.87 0.01,-1.25 0.63,-0.63 0.70,-0.55 0.76,-0.46 0.81,-0.36 0.85,-0.26 0.87,-0.16 0.89,-0.05 0.89,0.05 0.88,0.16 0.85,0.26 0.82,0.36 0.76,0.46 0.70,0.55 0.63,0.63 0.55,0.70 0.46,0.76 0.36,0.82 0.26,0.85 0.16,0.88 0.05,0.89 -0.05,0.89 -0.16,0.87 -0.26,0.85 -0.36,0.81 -0.46,0.76 -0.55,0.70 -0.63,0.63 -0.63,0.63 L -0.63,0.63 Z"/></g><g transform="translate(113.7021484375 145.10488891601562) rotate(0 0.00005000000000165983 0.00005000000000165983)" stroke="none"><path fill="#1e1e1e" d="M 0.78,-0.78 Q 0.78,-0.78 0.88,-0.63 0.99,-0.49 1.04,-0.32 1.10,-0.14 1.09,0.02 1.09,0.20 1.02,0.37 0.96,0.54 0.85,0.68 0.74,0.82 0.59,0.92 0.43,1.02 0.26,1.06 0.09,1.10 -0.08,1.09 -0.26,1.07 -0.43,1.00 -0.59,0.93 -0.73,0.81 -0.86,0.69 -0.95,0.53 -1.04,0.38 -1.07,0.20 -1.10,0.02 -1.08,-0.14 -1.06,-0.32 -0.98,-0.48 -0.90,-0.64 -0.77,-0.77 -0.64,-0.90 -0.48,-0.98 -0.32,-1.06 -0.14,-1.08 0.03,-1.10 0.20,-1.07 0.38,-1.04 0.53,-0.95 0.69,-0.86 0.81,-0.73 0.93,-0.59 1.00,-0.43 1.07,-0.26 1.09,-0.08 1.10,0.09 1.06,0.26 1.01,0.43 0.92,0.59 0.82,0.74 0.68,0.85 0.54,0.96 0.37,1.02 0.20,1.09 0.02,1.09 -0.15,1.10 -0.32,1.04 -0.49,0.99 -0.63,0.88 -0.78,0.78 -0.78,0.78 -0.78,0.78 -0.86,0.67 -0.95,0.57 -1.00,0.45 -1.06,0.33 -1.08,0.19 -1.10,0.06 -1.10,-0.06 -1.09,-0.20 -1.05,-0.32 -1.01,-0.45 -0.94,-0.57 -0.87,-0.68 -0.77,-0.77 -0.68,-0.87 -0.57,-0.94 -0.45,-1.01 -0.32,-1.05 -0.20,-1.09 -0.06,-1.10 0.06,-1.10 0.19,-1.08 0.33,-1.06 0.45,-1.00 0.57,-0.95 0.67,-0.86 0.78,-0.78 0.78,-0.78 L 0.78,-0.78 Z"/></g><g transform="translate(127.5777587890625 130.49896240234375) rotate(0 0.730316162109375 8.763565063476562)" stroke="none"><path fill="#1e1e1e" d="M 0.96,0 Q 0.96,0 0.91,2.09 0.87,4.19 0.84,5.93 0.81,7.66 0.79,9.23 0.77,10.81 0.96,12.05 1.15,13.29 1.59,15.07 2.04,16.84 2.08,16.97 2.12,17.10 2.11,17.23 2.11,17.36 2.06,17.49 2.02,17.61 1.93,17.72 1.85,17.82 1.74,17.89 1.62,17.97 1.49,18.00 1.37,18.03 1.23,18.02 1.10,18.01 0.98,17.95 0.85,17.90 0.75,17.81 0.65,17.72 0.59,17.61 0.52,17.49 0.50,17.36 0.47,17.23 0.49,17.09 0.51,16.96 0.57,16.84 0.63,16.72 0.72,16.63 0.82,16.53 0.94,16.48 1.06,16.42 1.19,16.40 1.32,16.38 1.46,16.41 1.59,16.43 1.70,16.50 1.82,16.56 1.91,16.66 2.00,16.76 2.05,16.89 2.10,17.01 2.11,17.14 2.12,17.28 2.09,17.41 2.06,17.53 1.99,17.65 1.91,17.76 1.81,17.84 1.70,17.93 1.58,17.97 1.45,18.02 1.32,18.02 1.19,18.02 1.06,17.99 0.93,17.95 0.82,17.87 0.71,17.79 0.64,17.68 0.56,17.57 0.56,17.57 0.56,17.57 0.12,15.55 -0.31,13.53 -0.54,12.17 -0.77,10.81 -0.79,9.24 -0.81,7.66 -0.84,5.93 -0.87,4.19 -0.91,2.09 -0.96,0 -0.94,-0.11 -0.93,-0.22 -0.89,-0.33 -0.85,-0.44 -0.78,-0.54 -0.71,-0.63 -0.63,-0.71 -0.54,-0.79 -0.44,-0.84 -0.34,-0.89 -0.22,-0.92 -0.11,-0.95 0.00,-0.95 0.11,-0.95 0.22,-0.92 0.34,-0.89 0.44,-0.84 0.54,-0.79 0.63,-0.71 0.71,-0.63 0.78,-0.54 0.85,-0.44 0.89,-0.33 0.93,-0.22 0.94,-0.11 0.96,0.00 0.96,0.00 L 0.96,0 Z"/></g><g transform="translate(139.9927978515625 127.5777587890625) rotate(0 2.19091796875 8.398422241210938)" stroke="none"><path fill="#1e1e1e" d="M 0.97,0 Q 0.97,0 0.93,1.25 0.89,2.51 0.85,4.10 0.82,5.68 0.80,7.20 0.78,8.71 0.76,10.40 0.74,12.10 0.93,13.16 1.11,14.22 1.59,14.75 2.06,15.29 2.71,15.51 3.36,15.73 3.78,15.22 4.20,14.72 4.62,14.12 5.03,13.53 5.18,12.66 5.33,11.78 4.85,11.41 4.37,11.05 3.17,10.90 1.97,10.76 1.35,10.91 0.72,11.06 -0.15,11.97 -1.04,12.87 -1.18,13.01 -1.32,13.14 -1.49,13.22 -1.67,13.30 -1.86,13.32 -2.05,13.34 -2.24,13.30 -2.43,13.25 -2.60,13.15 -2.76,13.05 -2.89,12.90 -3.01,12.76 -3.08,12.58 -3.15,12.40 -3.16,12.20 -3.17,12.01 -3.12,11.82 -3.06,11.64 -2.96,11.48 -2.85,11.32 -2.69,11.20 -2.54,11.09 -2.35,11.03 -2.17,10.97 -1.98,10.97 -1.78,10.97 -1.60,11.03 -1.42,11.09 -1.26,11.21 -1.11,11.33 -1.00,11.49 -0.90,11.65 -0.85,11.84 -0.79,12.02 -0.81,12.22 -0.82,12.41 -0.89,12.59 -0.96,12.77 -1.09,12.91 -1.21,13.06 -1.38,13.16 -1.55,13.26 -1.74,13.30 -1.92,13.34 -2.12,13.32 -2.31,13.30 -2.48,13.21 -2.66,13.13 -2.80,13.00 -2.94,12.86 -3.03,12.69 -3.12,12.52 -3.15,12.33 -3.18,12.14 -3.15,11.95 -3.11,11.76 -3.02,11.59 -2.93,11.42 -2.93,11.42 -2.93,11.42 -1.37,10.13 0.18,8.85 1.15,8.64 2.13,8.44 3.15,8.50 4.17,8.56 5.01,8.86 5.84,9.15 6.50,9.81 7.15,10.46 7.34,11.22 7.54,11.98 7.39,12.76 7.24,13.55 6.94,14.13 6.63,14.71 6.05,15.45 5.48,16.19 4.54,16.84 3.61,17.48 2.71,17.29 1.80,17.10 1.31,16.67 0.81,16.24 0.26,15.39 -0.27,14.54 -0.51,13.32 -0.74,12.10 -0.76,10.41 -0.78,8.71 -0.80,7.20 -0.82,5.68 -0.85,4.10 -0.89,2.51 -0.93,1.25 -0.97,0 -0.96,-0.11 -0.94,-0.23 -0.90,-0.34 -0.86,-0.45 -0.79,-0.55 -0.73,-0.64 -0.64,-0.72 -0.55,-0.80 -0.45,-0.85 -0.34,-0.91 -0.23,-0.94 -0.11,-0.96 0.00,-0.96 0.11,-0.96 0.23,-0.94 0.34,-0.91 0.45,-0.85 0.55,-0.80 0.64,-0.72 0.73,-0.64 0.79,-0.55 0.86,-0.45 0.90,-0.34 0.94,-0.23 0.96,-0.11 0.97,0.00 0.97,0.00 L 0.97,0 Z"/></g><g transform="translate(155.32904052734375 125.38687133789062) rotate(0 1.460601806640625 6.9378204345703125)" stroke="none"><path fill="#1e1e1e" d="M 0.75,0.63 Q 0.75,0.63 -0.28,1.70 -1.33,2.77 -0.54,3.53 0.24,4.29 1.26,4.70 2.27,5.11 3.20,5.53 4.13,5.94 4.86,6.60 5.60,7.26 6.13,8.34 6.67,9.42 6.48,10.47 6.29,11.53 5.70,12.26 5.11,13.00 4.40,13.52 3.69,14.04 3.05,14.32 2.40,14.60 1.52,14.32 0.63,14.04 0.24,13.15 -0.13,12.25 -0.19,11.23 -0.25,10.20 -0.01,8.85 0.22,7.51 0.40,4.82 0.59,2.13 0.52,2.00 0.44,1.88 0.41,1.73 0.38,1.59 0.40,1.45 0.42,1.30 0.48,1.17 0.55,1.04 0.65,0.94 0.75,0.83 0.88,0.77 1.01,0.70 1.15,0.68 1.30,0.66 1.44,0.69 1.58,0.71 1.71,0.78 1.84,0.85 1.93,0.96 2.03,1.07 2.09,1.20 2.15,1.33 2.16,1.48 2.18,1.62 2.14,1.76 2.11,1.90 2.03,2.03 1.96,2.15 1.85,2.24 1.73,2.33 1.60,2.39 1.46,2.44 1.32,2.44 1.17,2.45 1.03,2.41 0.89,2.37 0.77,2.28 0.65,2.20 0.57,2.08 0.48,1.97 0.44,1.83 0.39,1.69 0.40,1.54 0.40,1.40 0.45,1.26 0.50,1.12 0.59,1.01 0.67,0.90 0.80,0.82 0.92,0.74 1.06,0.70 1.20,0.66 1.34,0.67 1.49,0.68 1.62,0.74 1.76,0.80 1.87,0.89 1.98,0.99 1.98,0.99 1.98,0.99 2.07,4.40 2.16,7.81 2.05,8.92 1.94,10.04 2.25,11.21 2.57,12.39 3.14,12.03 3.71,11.67 4.15,11.31 4.59,10.95 4.84,10.41 5.10,9.88 4.71,9.20 4.32,8.52 3.87,8.00 3.41,7.49 2.53,7.12 1.65,6.75 0.38,6.29 -0.87,5.83 -1.72,5.09 -2.57,4.36 -2.72,3.31 -2.86,2.26 -1.81,0.81 -0.75,-0.63 -0.67,-0.71 -0.58,-0.79 -0.48,-0.85 -0.37,-0.91 -0.26,-0.94 -0.14,-0.97 -0.02,-0.98 0.08,-0.98 0.20,-0.96 0.32,-0.93 0.42,-0.88 0.53,-0.83 0.62,-0.75 0.72,-0.67 0.79,-0.58 0.86,-0.48 0.90,-0.37 0.95,-0.26 0.97,-0.14 0.98,-0.02 0.97,0.08 0.96,0.20 0.92,0.32 0.88,0.43 0.82,0.53 0.75,0.63 0.75,0.63 L 0.75,0.63 Z"/></g><g transform="translate(195.495361328125 120.27481079101562) rotate(0 0 12.4150390625)" stroke="none"><path fill="#1e1e1e" d="M 0.88,0.29 Q 0.88,0.29 0.70,0.93 0.52,1.56 0.41,2.76 0.30,3.95 0.23,5.54 0.16,7.13 0.12,9.70 0.08,12.26 0.26,14.37 0.44,16.47 0.52,18.24 0.59,20.01 1.04,22.48 1.48,24.95 1.48,25.08 1.48,25.22 1.43,25.34 1.38,25.47 1.30,25.57 1.21,25.68 1.10,25.75 0.99,25.82 0.85,25.85 0.72,25.89 0.59,25.88 0.46,25.86 0.33,25.81 0.21,25.76 0.11,25.67 0.01,25.58 -0.05,25.46 -0.11,25.34 -0.14,25.21 -0.16,25.08 -0.14,24.94 -0.13,24.81 -0.06,24.69 -0.00,24.57 0.08,24.47 0.18,24.38 0.30,24.32 0.42,24.26 0.55,24.24 0.69,24.22 0.82,24.25 0.95,24.28 1.07,24.34 1.18,24.41 1.27,24.51 1.36,24.61 1.42,24.74 1.47,24.86 1.48,24.99 1.49,25.13 1.46,25.26 1.42,25.39 1.35,25.50 1.28,25.62 1.17,25.70 1.07,25.78 0.94,25.83 0.81,25.87 0.68,25.88 0.54,25.88 0.41,25.84 0.29,25.80 0.18,25.72 0.07,25.64 -0.00,25.53 -0.08,25.42 -0.12,25.29 -0.16,25.17 -0.16,25.17 -0.16,25.17 -0.50,22.62 -0.85,20.08 -0.95,18.35 -1.05,16.62 -1.27,14.43 -1.49,12.25 -1.50,9.67 -1.51,7.09 -1.50,5.46 -1.50,3.83 -1.43,2.39 -1.36,0.95 -1.12,0.32 -0.88,-0.29 -0.83,-0.39 -0.78,-0.49 -0.71,-0.58 -0.64,-0.66 -0.55,-0.73 -0.46,-0.80 -0.36,-0.84 -0.25,-0.89 -0.14,-0.90 -0.03,-0.92 0.07,-0.91 0.18,-0.90 0.29,-0.87 0.39,-0.83 0.49,-0.77 0.58,-0.71 0.66,-0.63 0.74,-0.55 0.79,-0.46 0.85,-0.36 0.88,-0.25 0.91,-0.14 0.92,-0.03 0.92,0.07 0.90,0.18 0.88,0.29 0.88,0.29 L 0.88,0.29 Z"/></g><g transform="translate(205.71954345703125 124.65658569335938) rotate(0 -2.556060791015625 4.38177490234375)" stroke="none"><path fill="#1e1e1e" d="M 0.73,0.73 Q 0.73,0.73 -0.55,1.96 -1.85,3.18 -2.87,3.93 -3.89,4.69 -4.71,5.38 -5.54,6.08 -4.78,6.46 -4.03,6.84 -3.28,6.87 -2.54,6.89 -0.37,7.22 1.80,7.55 1.98,7.60 2.16,7.65 2.31,7.76 2.47,7.86 2.58,8.01 2.69,8.16 2.75,8.34 2.81,8.52 2.81,8.71 2.81,8.89 2.75,9.07 2.69,9.25 2.57,9.40 2.46,9.54 2.30,9.65 2.15,9.75 1.97,9.80 1.78,9.85 1.60,9.84 1.41,9.83 1.24,9.76 1.06,9.69 0.92,9.56 0.78,9.44 0.68,9.28 0.59,9.12 0.55,8.94 0.51,8.75 0.53,8.57 0.55,8.38 0.63,8.21 0.71,8.04 0.84,7.91 0.97,7.77 1.14,7.69 1.30,7.60 1.49,7.57 1.67,7.54 1.86,7.57 2.04,7.60 2.21,7.69 2.37,7.78 2.50,7.92 2.63,8.06 2.71,8.23 2.78,8.40 2.80,8.58 2.82,8.77 2.78,8.95 2.74,9.13 2.64,9.29 2.54,9.45 2.40,9.57 2.26,9.69 2.08,9.76 1.91,9.83 1.72,9.84 1.53,9.85 1.53,9.85 1.53,9.85 -0.55,9.46 -2.64,9.07 -3.44,9.03 -4.23,8.98 -5.20,8.87 -6.16,8.75 -6.75,8.33 -7.35,7.91 -7.46,7.05 -7.57,6.18 -7.09,5.53 -6.62,4.88 -5.79,4.10 -4.96,3.32 -4.07,2.59 -3.18,1.85 -1.96,0.55 -0.73,-0.73 -0.63,-0.81 -0.53,-0.89 -0.42,-0.94 -0.31,-0.99 -0.18,-1.01 -0.06,-1.04 0.06,-1.03 0.18,-1.02 0.30,-0.98 0.42,-0.95 0.53,-0.88 0.64,-0.82 0.73,-0.73 0.82,-0.64 0.88,-0.53 0.95,-0.42 0.98,-0.30 1.02,-0.18 1.03,-0.06 1.04,0.06 1.01,0.18 0.99,0.31 0.94,0.42 0.89,0.53 0.81,0.63 0.73,0.73 0.73,0.73 L 0.73,0.73 Z"/></g><g transform="translate(223.9769287109375 128.30807495117188) rotate(0 -4.0166015625 9.128692626953125)" stroke="none"><path fill="#1e1e1e" d="M 0.92,0.55 Q 0.92,0.55 0.24,1.57 -0.43,2.60 -1.23,3.35 -2.02,4.11 -3.12,4.47 -4.21,4.84 -5.10,4.99 -6.00,5.14 -6.89,4.86 -7.79,4.59 -8.24,3.70 -8.69,2.82 -8.82,2.00 -8.96,1.18 -8.79,0.25 -8.62,-0.66 -8.01,-1.58 -7.41,-2.49 -6.60,-2.98 -5.80,-3.46 -5.23,-3.66 -4.66,-3.86 -3.70,-3.92 -2.73,-3.98 -1.95,-3.78 -1.17,-3.58 -0.33,-2.96 0.49,-2.34 1.08,-1.07 1.67,0.20 2.07,2.01 2.47,3.82 2.62,5.45 2.78,7.08 2.83,8.62 2.88,10.16 2.46,11.75 2.04,13.34 1.20,15.08 0.37,16.82 -0.42,18.00 -1.21,19.18 -2.26,19.95 -3.30,20.72 -4.20,21.09 -5.09,21.46 -5.99,21.63 -6.89,21.79 -8.08,21.12 -9.27,20.45 -9.81,19.44 -10.35,18.42 -10.54,17.31 -10.74,16.20 -10.60,14.58 -10.46,12.96 -10.42,12.82 -10.38,12.68 -10.29,12.56 -10.21,12.45 -10.09,12.36 -9.98,12.28 -9.84,12.23 -9.70,12.19 -9.56,12.19 -9.41,12.19 -9.28,12.24 -9.14,12.29 -9.03,12.38 -8.91,12.47 -8.83,12.59 -8.76,12.71 -8.72,12.85 -8.68,12.99 -8.70,13.14 -8.71,13.28 -8.76,13.42 -8.82,13.55 -8.91,13.66 -9.01,13.77 -9.14,13.84 -9.26,13.91 -9.40,13.94 -9.54,13.97 -9.69,13.95 -9.83,13.93 -9.96,13.87 -10.09,13.80 -10.19,13.70 -10.30,13.60 -10.36,13.47 -10.43,13.34 -10.45,13.20 -10.47,13.05 -10.44,12.91 -10.42,12.77 -10.35,12.64 -10.27,12.52 -10.17,12.42 -10.06,12.32 -9.93,12.27 -9.80,12.21 -9.65,12.19 -9.51,12.18 -9.37,12.22 -9.23,12.25 -9.10,12.33 -8.98,12.40 -8.89,12.52 -8.80,12.63 -8.75,12.76 -8.70,12.90 -8.69,13.04 -8.69,13.19 -8.69,13.19 -8.69,13.19 -8.94,14.57 -9.19,15.96 -9.04,16.86 -8.89,17.75 -8.62,18.49 -8.34,19.22 -7.62,19.70 -6.89,20.18 -6.25,20.10 -5.60,20.02 -4.85,19.80 -4.10,19.58 -3.24,18.97 -2.38,18.36 -1.66,17.27 -0.94,16.19 -0.19,14.57 0.56,12.95 0.92,11.58 1.27,10.21 1.17,8.74 1.07,7.27 0.87,5.77 0.66,4.27 0.23,2.66 -0.20,1.06 -0.59,0.23 -0.98,-0.58 -1.81,-1.14 -2.64,-1.69 -3.34,-1.64 -4.04,-1.59 -4.88,-1.39 -5.72,-1.19 -6.10,-0.65 -6.47,-0.11 -6.64,0.40 -6.80,0.93 -6.74,1.54 -6.67,2.15 -6.44,2.71 -6.20,3.27 -5.47,3.18 -4.74,3.09 -3.99,2.90 -3.24,2.70 -2.66,2.15 -2.08,1.59 -1.50,0.52 -0.92,-0.55 -0.84,-0.65 -0.76,-0.75 -0.66,-0.83 -0.55,-0.91 -0.44,-0.97 -0.32,-1.02 -0.19,-1.05 -0.06,-1.07 0.06,-1.06 0.19,-1.05 0.31,-1.02 0.43,-0.98 0.54,-0.91 0.66,-0.84 0.75,-0.75 0.84,-0.66 0.91,-0.55 0.97,-0.44 1.01,-0.32 1.05,-0.19 1.06,-0.06 1.07,0.06 1.05,0.18 1.02,0.31 0.97,0.43 0.92,0.55 0.92,0.55 L 0.92,0.55 Z"/></g><g transform="translate(234.20111083984375 126.1171875) rotate(0 6.207489013671875 4.38177490234375)" stroke="none"><path fill="#1e1e1e" d="M 0.95,0 Q 0.95,0 0.91,1.67 0.87,3.35 0.84,4.91 0.81,6.46 0.83,7.33 0.85,8.20 0.57,9.17 0.29,10.14 -0.24,10.18 -0.79,10.21 -1.35,9.71 -1.91,9.21 -2.09,7.97 -2.26,6.73 -2.27,5.61 -2.28,4.50 -1.82,3.26 -1.37,2.03 -0.71,1.07 -0.06,0.12 0.44,-0.37 0.94,-0.87 1.64,-1.32 2.35,-1.76 3.33,-1.76 4.31,-1.77 5.26,-0.97 6.21,-0.17 6.61,0.92 7.02,2.01 7.14,3.12 7.26,4.23 7.28,5.32 7.31,6.42 7.35,7.30 7.40,8.18 7.45,8.76 7.51,9.34 7.50,9.45 7.49,9.57 7.45,9.67 7.41,9.78 7.35,9.88 7.28,9.98 7.20,10.05 7.12,10.13 7.02,10.19 6.92,10.25 6.80,10.28 6.69,10.31 6.58,10.31 6.46,10.31 6.35,10.29 6.24,10.26 6.13,10.21 6.03,10.16 5.94,10.09 5.85,10.01 5.79,9.92 5.72,9.83 5.68,9.72 5.63,9.61 5.61,9.50 5.60,9.39 5.43,8.39 5.26,7.39 5.18,6.30 5.11,5.22 5.31,4.06 5.52,2.90 5.81,1.95 6.10,1.00 6.48,0.46 6.85,-0.08 7.49,-0.55 8.13,-1.03 9.02,-1.27 9.90,-1.50 10.89,-1.11 11.88,-0.73 12.54,-0.05 13.21,0.62 13.69,1.36 14.18,2.11 14.38,3.43 14.57,4.75 14.65,5.69 14.73,6.62 14.48,8.42 14.24,10.22 14.16,10.37 14.08,10.52 13.96,10.63 13.83,10.74 13.68,10.81 13.52,10.88 13.36,10.89 13.19,10.91 13.03,10.87 12.86,10.83 12.72,10.74 12.58,10.65 12.47,10.52 12.36,10.39 12.30,10.24 12.24,10.08 12.24,9.91 12.23,9.74 12.28,9.58 12.33,9.42 12.42,9.28 12.52,9.15 12.66,9.05 12.79,8.95 12.95,8.90 13.11,8.85 13.28,8.85 13.45,8.85 13.61,8.91 13.77,8.96 13.90,9.07 14.03,9.17 14.12,9.31 14.21,9.45 14.26,9.62 14.30,9.78 14.29,9.95 14.27,10.11 14.21,10.27 14.14,10.42 14.03,10.55 13.92,10.68 13.78,10.76 13.63,10.85 13.47,10.88 13.30,10.91 13.13,10.89 12.97,10.87 12.82,10.80 12.67,10.72 12.55,10.61 12.43,10.49 12.35,10.34 12.27,10.19 12.25,10.02 12.22,9.86 12.25,9.69 12.28,9.52 12.28,9.52 12.28,9.52 12.54,8.16 12.79,6.79 12.71,5.93 12.63,5.07 12.47,4.15 12.30,3.23 11.94,2.65 11.57,2.07 11.22,1.60 10.87,1.14 10.03,0.90 9.19,0.65 8.42,1.11 7.66,1.57 7.38,2.36 7.11,3.16 6.97,4.12 6.83,5.08 6.93,6.03 7.03,6.99 7.27,8.16 7.51,9.34 7.50,9.45 7.49,9.57 7.45,9.67 7.41,9.78 7.35,9.88 7.28,9.98 7.20,10.05 7.12,10.13 7.02,10.19 6.92,10.25 6.80,10.28 6.69,10.31 6.58,10.31 6.46,10.31 6.35,10.29 6.24,10.26 6.13,10.21 6.03,10.16 5.94,10.09 5.85,10.01 5.79,9.92 5.72,9.83 5.68,9.72 5.63,9.61 5.61,9.50 5.60,9.39 5.63,8.81 5.67,8.22 5.67,7.36 5.66,6.50 5.58,5.47 5.50,4.45 5.36,3.52 5.23,2.60 5.03,1.88 4.83,1.16 3.98,0.54 3.13,-0.06 2.18,0.47 1.24,1.01 0.72,1.81 0.19,2.62 -0.14,3.54 -0.47,4.47 -0.38,5.47 -0.28,6.48 -0.56,7.34 -0.85,8.20 -0.83,7.33 -0.81,6.46 -0.84,4.91 -0.87,3.35 -0.91,1.67 -0.95,0 -0.93,-0.11 -0.92,-0.22 -0.88,-0.33 -0.84,-0.44 -0.77,-0.53 -0.71,-0.63 -0.62,-0.70 -0.54,-0.78 -0.43,-0.83 -0.33,-0.89 -0.22,-0.91 -0.11,-0.94 0.00,-0.94 0.11,-0.94 0.22,-0.91 0.33,-0.89 0.43,-0.83 0.54,-0.78 0.62,-0.70 0.71,-0.63 0.77,-0.53 0.84,-0.44 0.88,-0.33 0.92,-0.22 0.93,-0.11 0.95,0.00 0.95,0.00 L 0.95,0 Z"/></g><g transform="translate(264.14324951171875 121.00509643554688) rotate(0 -1.095458984375 7.3029632568359375)" stroke="none"><path fill="#1e1e1e" d="M 0,1.02 Q 0,1.02 -0.81,1.01 -1.62,1.01 -2.18,1.37 -2.74,1.73 -3.43,2.26 -4.12,2.79 -4.61,3.25 -5.10,3.71 -4.59,3.99 -4.09,4.27 -3.08,4.65 -2.08,5.04 -1.06,5.23 -0.04,5.41 0.91,5.71 1.87,6.01 2.58,6.35 3.28,6.70 3.91,7.43 4.55,8.17 4.65,9.09 4.75,10.01 4.48,10.92 4.21,11.83 3.31,12.55 2.41,13.28 1.37,13.71 0.33,14.14 -0.75,14.50 -1.84,14.87 -4.03,13.80 -6.22,12.74 -6.30,12.61 -6.39,12.47 -6.42,12.32 -6.46,12.16 -6.45,12.00 -6.43,11.84 -6.37,11.70 -6.31,11.55 -6.20,11.43 -6.09,11.31 -5.95,11.24 -5.81,11.16 -5.65,11.13 -5.50,11.10 -5.34,11.12 -5.18,11.15 -5.04,11.22 -4.90,11.29 -4.78,11.40 -4.67,11.52 -4.60,11.66 -4.53,11.80 -4.51,11.96 -4.49,12.12 -4.52,12.28 -4.55,12.43 -4.63,12.57 -4.71,12.71 -4.83,12.82 -4.95,12.92 -5.10,12.98 -5.24,13.05 -5.40,13.06 -5.56,13.07 -5.72,13.03 -5.87,12.99 -6.01,12.90 -6.14,12.82 -6.24,12.69 -6.34,12.57 -6.39,12.42 -6.45,12.27 -6.45,12.11 -6.45,11.95 -6.41,11.79 -6.36,11.64 -6.26,11.51 -6.17,11.38 -6.04,11.29 -5.91,11.20 -5.76,11.15 -5.60,11.11 -5.44,11.11 -5.28,11.12 -5.13,11.17 -4.98,11.23 -4.86,11.33 -4.74,11.43 -4.74,11.43 -4.74,11.43 -3.58,12.31 -2.42,13.18 -1.45,12.76 -0.48,12.34 0.34,11.92 1.17,11.51 1.88,10.72 2.58,9.94 2.43,9.17 2.28,8.39 1.80,8.08 1.32,7.77 0.50,7.51 -0.31,7.26 -1.51,7.13 -2.71,7.00 -3.96,6.66 -5.21,6.31 -6.09,5.69 -6.96,5.07 -7.10,4.28 -7.23,3.50 -6.85,2.85 -6.48,2.21 -5.91,1.74 -5.33,1.27 -4.52,0.61 -3.71,-0.05 -2.72,-0.53 -1.73,-1.01 -0.86,-1.01 0,-1.02 0.12,-1.00 0.24,-0.99 0.36,-0.95 0.47,-0.90 0.57,-0.83 0.67,-0.76 0.76,-0.67 0.84,-0.58 0.90,-0.47 0.95,-0.36 0.98,-0.24 1.01,-0.12 1.01,0.00 1.01,0.12 0.98,0.24 0.95,0.36 0.90,0.47 0.84,0.58 0.76,0.67 0.67,0.76 0.57,0.83 0.47,0.90 0.36,0.95 0.24,0.99 0.12,1.00 -0.00,1.02 -0.00,1.02 L 0,1.02 Z"/></g><g transform="translate(262.68267822265625 110.78094482421875) rotate(0 3.6514892578125 -0.365142822265625)" stroke="none"><path fill="#1e1e1e" d="M 0,-1.06 Q 0,-1.06 1.25,-1.00 2.51,-0.95 3.47,-0.94 4.43,-0.92 5.04,-0.96 5.66,-1.00 6.33,-1.28 7.00,-1.56 7.14,-1.55 7.28,-1.53 7.41,-1.48 7.53,-1.43 7.65,-1.35 7.76,-1.27 7.85,-1.17 7.95,-1.07 8.01,-0.94 8.07,-0.82 8.11,-0.69 8.14,-0.55 8.14,-0.41 8.14,-0.28 8.11,-0.14 8.07,-0.01 8.01,0.10 7.95,0.23 7.85,0.33 7.76,0.43 7.65,0.51 7.53,0.59 7.41,0.64 7.28,0.69 7.14,0.71 7.00,0.72 5.02,0.75 3.03,0.79 2.87,0.77 2.72,0.75 2.58,0.69 2.43,0.62 2.32,0.52 2.20,0.41 2.13,0.27 2.05,0.13 2.03,-0.01 2.00,-0.17 2.03,-0.32 2.05,-0.48 2.12,-0.62 2.20,-0.76 2.31,-0.87 2.42,-0.97 2.57,-1.04 2.71,-1.11 2.86,-1.13 3.02,-1.14 3.17,-1.11 3.33,-1.08 3.46,-1.00 3.60,-0.92 3.70,-0.80 3.80,-0.68 3.86,-0.53 3.92,-0.39 3.93,-0.23 3.94,-0.07 3.90,0.07 3.86,0.22 3.77,0.35 3.68,0.48 3.56,0.58 3.43,0.67 3.28,0.72 3.14,0.77 2.98,0.77 2.82,0.78 2.67,0.73 2.52,0.68 2.40,0.58 2.27,0.49 2.18,0.36 2.09,0.23 2.05,0.08 2.01,-0.06 2.02,-0.22 2.02,-0.38 2.08,-0.52 2.14,-0.67 2.24,-0.79 2.34,-0.91 2.47,-0.99 2.61,-1.07 2.76,-1.11 2.92,-1.14 2.91,-1.14 2.91,-1.14 4.96,-1.35 7.00,-1.56 7.14,-1.55 7.28,-1.53 7.41,-1.48 7.53,-1.43 7.65,-1.35 7.76,-1.27 7.85,-1.17 7.95,-1.07 8.01,-0.94 8.07,-0.82 8.11,-0.69 8.14,-0.55 8.14,-0.41 8.14,-0.28 8.11,-0.14 8.07,-0.01 8.01,0.10 7.95,0.23 7.85,0.33 7.76,0.43 7.65,0.51 7.53,0.59 7.41,0.64 7.28,0.69 7.14,0.71 7.00,0.72 6.92,0.85 6.84,0.98 6.25,0.99 5.66,1.00 5.04,0.96 4.43,0.92 3.47,0.94 2.51,0.95 1.25,1.00 0,1.06 -0.12,1.04 -0.25,1.03 -0.37,0.98 -0.49,0.94 -0.59,0.86 -0.70,0.79 -0.78,0.69 -0.87,0.60 -0.93,0.49 -0.99,0.37 -1.02,0.25 -1.05,0.12 -1.05,-0.00 -1.05,-0.12 -1.02,-0.25 -0.99,-0.37 -0.93,-0.49 -0.87,-0.60 -0.78,-0.69 -0.70,-0.79 -0.59,-0.86 -0.49,-0.94 -0.37,-0.98 -0.25,-1.03 -0.12,-1.04 0.00,-1.06 0.00,-1.06 L 0,-1.06 Z"/></g><g transform="translate(278.0189208984375 96.17501831054688) rotate(0 -1.095458984375 9.8590087890625)" stroke="none"><path fill="#1e1e1e" d="M 0.90,0.22 Q 0.90,0.22 0.44,1.89 -0.00,3.56 -0.20,5.26 -0.39,6.96 -0.49,8.53 -0.58,10.10 -0.84,11.45 -1.11,12.80 -1.21,13.95 -1.32,15.10 -1.34,17.20 -1.36,19.30 -1.39,19.43 -1.41,19.56 -1.48,19.67 -1.54,19.79 -1.64,19.87 -1.74,19.96 -1.86,20.01 -1.98,20.07 -2.11,20.08 -2.24,20.09 -2.37,20.06 -2.49,20.02 -2.61,19.95 -2.72,19.88 -2.80,19.78 -2.88,19.68 -2.93,19.55 -2.97,19.43 -2.97,19.30 -2.98,19.17 -2.94,19.04 -2.90,18.92 -2.82,18.81 -2.75,18.70 -2.64,18.63 -2.53,18.55 -2.41,18.51 -2.28,18.47 -2.15,18.48 -2.02,18.48 -1.90,18.53 -1.77,18.57 -1.67,18.65 -1.57,18.74 -1.50,18.85 -1.43,18.96 -1.40,19.09 -1.37,19.21 -1.38,19.34 -1.39,19.47 -1.44,19.59 -1.49,19.72 -1.58,19.81 -1.67,19.91 -1.78,19.98 -1.89,20.04 -2.02,20.06 -2.15,20.09 -2.28,20.07 -2.41,20.05 -2.53,20.00 -2.65,19.94 -2.74,19.84 -2.83,19.75 -2.89,19.63 -2.95,19.52 -2.97,19.39 -2.99,19.26 -2.99,19.26 -2.99,19.26 -2.86,17.12 -2.74,14.98 -2.65,13.76 -2.55,12.54 -2.33,11.28 -2.11,10.02 -2.05,8.41 -1.99,6.80 -1.83,4.97 -1.67,3.15 -1.28,1.46 -0.90,-0.22 -0.86,-0.33 -0.82,-0.43 -0.75,-0.52 -0.69,-0.61 -0.61,-0.69 -0.52,-0.76 -0.42,-0.81 -0.32,-0.87 -0.21,-0.89 -0.10,-0.92 0.00,-0.92 0.11,-0.92 0.22,-0.89 0.33,-0.86 0.43,-0.81 0.53,-0.76 0.61,-0.68 0.69,-0.61 0.76,-0.52 0.82,-0.42 0.86,-0.32 0.90,-0.21 0.91,-0.10 0.93,0.00 0.91,0.11 0.90,0.22 0.90,0.22 L 0.90,0.22 Z"/></g></svg>