<svg version="1.1" xmlns="http://www.w3.org/2000/svg" viewBox="0 0 305.2640380859375 195.71951293945312" width="305.2640380859375" height="195.71951293945312" filter="invert(93%) hue-rotate(180deg)">
  <!-- svg-source:excalidraw -->
  
  <defs>
    <style class="style-fonts">
      @font-face {
        font-family: "Virgil";
        src: url("https://excalidraw.com/Virgil.woff2");
      }
      @font-face {
        font-family: "Cascadia";
        src: url("https://excalidraw.com/Cascadia.woff2");
      }
    </style>
    
  </defs>
  <g transform="translate(18.98779296875 17.527099609375) rotate(0 13.510467529296875 18.257431030273438)" stroke="none"><path fill="#1e1e1e" d="M 0.73,-0.42 Q 0.73,-0.42 1.55,1.06 2.37,2.54 3.35,4.67 4.34,6.80 5.18,9.64 6.03,12.47 7.21,16.17 8.40,19.87 9.52,22.90 10.65,25.93 11.55,28.27 12.44,30.61 13.24,32.65 14.04,34.70 14.58,35.75 15.11,36.79 15.87,35.85 16.64,34.90 17.73,32.15 18.83,29.40 19.72,26.36 20.61,23.33 21.63,20.12 22.65,16.92 23.28,13.92 23.92,10.91 24.41,8.17 24.89,5.42 25.32,3.60 25.74,1.78 25.92,0.10 26.11,-1.56 26.15,-1.68 26.19,-1.81 26.26,-1.91 26.34,-2.02 26.45,-2.09 26.55,-2.17 26.68,-2.21 26.81,-2.24 26.94,-2.24 27.07,-2.23 27.19,-2.19 27.31,-2.14 27.41,-2.06 27.51,-1.97 27.58,-1.86 27.65,-1.75 27.68,-1.62 27.71,-1.50 27.70,-1.37 27.69,-1.24 27.63,-1.12 27.58,-1.00 27.49,-0.90 27.40,-0.80 27.29,-0.74 27.17,-0.68 27.05,-0.66 26.92,-0.63 26.79,-0.65 26.66,-0.67 26.54,-0.73 26.43,-0.79 26.33,-0.88 26.24,-0.98 26.19,-1.09 26.13,-1.21 26.11,-1.34 26.10,-1.47 26.12,-1.60 26.15,-1.73 26.22,-1.84 26.28,-1.95 26.38,-2.04 26.48,-2.13 26.60,-2.18 26.72,-2.23 26.85,-2.24 26.98,-2.25 27.11,-2.21 27.23,-2.18 27.34,-2.11 27.45,-2.04 27.53,-1.93 27.61,-1.83 27.66,-1.71 27.70,-1.58 27.70,-1.45 27.70,-1.32 27.70,-1.32 27.70,-1.32 27.39,0.38 27.07,2.08 26.66,3.87 26.26,5.66 25.78,8.43 25.30,11.20 24.67,14.28 24.03,17.35 23.04,20.55 22.05,23.74 21.17,26.86 20.29,29.97 19.21,32.82 18.12,35.66 17.41,36.98 16.70,38.30 16.13,38.49 15.55,38.68 14.74,38.05 13.92,37.42 13.35,36.31 12.78,35.19 11.97,33.15 11.17,31.10 10.26,28.76 9.35,26.41 8.19,23.36 7.04,20.30 5.84,16.60 4.63,12.89 3.79,10.17 2.96,7.45 1.97,5.39 0.98,3.33 0.12,1.87 -0.73,0.42 -0.77,0.32 -0.81,0.23 -0.83,0.13 -0.84,0.03 -0.84,-0.07 -0.83,-0.17 -0.79,-0.27 -0.76,-0.36 -0.71,-0.45 -0.65,-0.54 -0.58,-0.61 -0.50,-0.68 -0.41,-0.73 -0.32,-0.78 -0.23,-0.81 -0.13,-0.83 -0.03,-0.84 0.07,-0.84 0.17,-0.82 0.27,-0.80 0.36,-0.76 0.45,-0.71 0.53,-0.65 0.61,-0.58 0.67,-0.50 0.73,-0.42 0.73,-0.42 L 0.73,-0.42 Z"/></g><g transform="translate(52.58135986328125 36.51483154296875) rotate(0 5.842376708984375 -0.7303009033203125)" stroke="none"><path fill="#1e1e1e" d="M -0.10,-0.98 Q -0.10,-0.98 1.78,-1.15 3.67,-1.31 5.30,-1.57 6.92,-1.84 8.91,-1.77 10.90,-1.71 11.05,-1.68 11.20,-1.64 11.33,-1.56 11.46,-1.49 11.55,-1.37 11.65,-1.25 11.71,-1.11 11.76,-0.97 11.77,-0.82 11.77,-0.67 11.73,-0.52 11.69,-0.38 11.61,-0.25 11.52,-0.13 11.40,-0.04 11.28,0.04 11.13,0.09 10.99,0.14 10.84,0.14 10.69,0.13 10.54,0.09 10.40,0.04 10.28,-0.05 10.16,-0.14 10.08,-0.27 9.99,-0.39 9.95,-0.54 9.91,-0.68 9.92,-0.83 9.93,-0.99 9.99,-1.13 10.05,-1.27 10.15,-1.38 10.25,-1.50 10.38,-1.57 10.51,-1.65 10.65,-1.68 10.80,-1.71 10.95,-1.69 11.10,-1.68 11.24,-1.61 11.38,-1.55 11.49,-1.44 11.60,-1.34 11.66,-1.20 11.73,-1.07 11.76,-0.92 11.78,-0.77 11.76,-0.62 11.73,-0.47 11.66,-0.34 11.59,-0.20 11.47,-0.10 11.36,-0.00 11.23,0.05 11.09,0.12 10.94,0.13 10.79,0.15 10.79,0.15 10.79,0.15 9.00,-0.02 7.20,-0.19 5.54,0.14 3.87,0.47 1.99,0.73 0.10,0.98 -0.01,0.98 -0.12,0.98 -0.24,0.95 -0.36,0.92 -0.46,0.86 -0.57,0.81 -0.66,0.73 -0.75,0.65 -0.81,0.55 -0.88,0.45 -0.92,0.34 -0.96,0.22 -0.98,0.10 -0.99,-0.01 -0.97,-0.12 -0.96,-0.24 -0.91,-0.35 -0.87,-0.47 -0.80,-0.56 -0.73,-0.66 -0.64,-0.74 -0.55,-0.82 -0.44,-0.87 -0.34,-0.93 -0.22,-0.96 -0.10,-0.98 -0.10,-0.98 L -0.10,-0.98 Z"/></g><g transform="translate(52.58135986328125 47.469268798828125) rotate(0 5.842376708984375 0.730316162109375)" stroke="none"><path fill="#1e1e1e" d="M 0.19,-0.96 Q 0.19,-0.96 2.28,-0.50 4.37,-0.04 7.39,0.20 10.40,0.44 10.54,0.48 10.69,0.52 10.81,0.59 10.93,0.67 11.02,0.79 11.11,0.90 11.16,1.04 11.21,1.17 11.22,1.32 11.22,1.47 11.18,1.61 11.14,1.75 11.05,1.86 10.96,1.98 10.85,2.07 10.73,2.15 10.59,2.19 10.45,2.24 10.30,2.23 10.16,2.23 10.02,2.18 9.88,2.13 9.77,2.04 9.66,1.94 9.58,1.82 9.50,1.70 9.46,1.56 9.43,1.42 9.44,1.27 9.45,1.12 9.51,0.99 9.57,0.86 9.67,0.75 9.76,0.64 9.89,0.57 10.02,0.50 10.16,0.47 10.30,0.44 10.45,0.46 10.59,0.48 10.72,0.55 10.86,0.61 10.96,0.72 11.06,0.82 11.13,0.95 11.19,1.08 11.21,1.22 11.23,1.37 11.20,1.51 11.17,1.66 11.10,1.78 11.03,1.91 10.92,2.01 10.81,2.10 10.68,2.16 10.54,2.22 10.40,2.23 10.25,2.24 10.25,2.24 10.25,2.24 7.14,1.98 4.02,1.72 1.91,1.34 -0.19,0.96 -0.30,0.93 -0.42,0.89 -0.52,0.83 -0.62,0.76 -0.70,0.68 -0.78,0.59 -0.84,0.49 -0.90,0.39 -0.94,0.27 -0.97,0.16 -0.98,0.04 -0.98,-0.07 -0.96,-0.19 -0.93,-0.30 -0.88,-0.41 -0.83,-0.52 -0.76,-0.61 -0.68,-0.71 -0.59,-0.78 -0.49,-0.85 -0.38,-0.90 -0.27,-0.94 -0.16,-0.96 -0.04,-0.98 0.07,-0.97 0.19,-0.96 0.19,-0.96 L 0.19,-0.96 Z"/></g><g transform="translate(92.7476806640625 27.02099609375) rotate(0 10.589324951171875 14.605926513671875)" stroke="none"><path fill="#1e1e1e" d="M 0.75,0.21 Q 0.75,0.21 0.31,1.67 -0.12,3.14 -0.29,5.37 -0.47,7.60 -0.56,9.82 -0.64,12.05 -0.68,14.04 -0.72,16.03 -0.32,17.85 0.06,19.67 1.03,21.44 2.01,23.21 3.23,24.57 4.45,25.92 5.94,26.67 7.44,27.41 8.86,27.73 10.28,28.05 12.05,27.57 13.81,27.09 15.19,26.49 16.57,25.89 17.51,24.85 18.44,23.82 19.27,22.75 20.11,21.69 20.41,20.28 20.72,18.88 21.09,17.40 21.46,15.91 21.39,14.11 21.33,12.30 21.10,10.91 20.87,9.52 20.37,7.49 19.87,5.45 19.87,5.32 19.86,5.20 19.90,5.08 19.93,4.95 20.00,4.85 20.07,4.75 20.17,4.67 20.28,4.59 20.40,4.55 20.52,4.51 20.64,4.52 20.77,4.52 20.89,4.56 21.01,4.60 21.11,4.68 21.21,4.75 21.28,4.86 21.35,4.96 21.38,5.09 21.42,5.21 21.41,5.33 21.40,5.46 21.35,5.58 21.31,5.69 21.22,5.79 21.14,5.89 21.03,5.95 20.92,6.02 20.80,6.04 20.67,6.07 20.55,6.05 20.42,6.04 20.31,5.99 20.19,5.93 20.10,5.84 20.01,5.76 19.95,5.64 19.89,5.53 19.87,5.41 19.86,5.28 19.88,5.16 19.90,5.03 19.96,4.92 20.02,4.81 20.11,4.72 20.20,4.64 20.32,4.58 20.43,4.53 20.56,4.52 20.69,4.51 20.81,4.53 20.93,4.56 21.04,4.63 21.15,4.69 21.23,4.79 21.31,4.89 21.36,5.01 21.40,5.12 21.40,5.12 21.40,5.12 21.78,7.22 22.17,9.31 22.40,10.79 22.64,12.26 22.69,14.24 22.73,16.22 22.37,17.70 22.00,19.19 21.58,20.82 21.17,22.45 20.28,23.58 19.40,24.72 18.27,25.90 17.14,27.07 15.64,27.72 14.14,28.37 12.10,28.86 10.06,29.34 8.45,28.97 6.84,28.60 5.16,27.72 3.47,26.84 2.15,25.35 0.83,23.87 -0.21,21.92 -1.26,19.97 -1.68,18.00 -2.10,16.02 -2.07,14.01 -2.05,12.00 -1.98,9.74 -1.91,7.49 -1.73,5.11 -1.55,2.73 -1.15,1.26 -0.75,-0.21 -0.71,-0.30 -0.67,-0.38 -0.62,-0.46 -0.56,-0.53 -0.49,-0.59 -0.41,-0.65 -0.33,-0.69 -0.25,-0.73 -0.15,-0.75 -0.06,-0.77 0.02,-0.77 0.12,-0.77 0.21,-0.74 0.30,-0.71 0.38,-0.67 0.46,-0.62 0.53,-0.56 0.60,-0.49 0.65,-0.41 0.70,-0.33 0.73,-0.24 0.76,-0.15 0.77,-0.06 0.78,0.02 0.76,0.12 0.75,0.21 0.75,0.21 L 0.75,0.21 Z"/></g><g transform="translate(141.67755126953125 45.27838134765625) rotate(0 8.3984375 -1.0954437255859375)" stroke="none"><path fill="#1e1e1e" d="M -0.16,-0.91 Q -0.16,-0.91 2.14,-1.29 4.46,-1.68 6.53,-1.83 8.61,-1.99 11.92,-2.39 15.23,-2.79 15.36,-2.79 15.49,-2.78 15.61,-2.74 15.73,-2.69 15.83,-2.61 15.92,-2.53 15.99,-2.42 16.06,-2.31 16.09,-2.19 16.12,-2.06 16.11,-1.93 16.09,-1.80 16.04,-1.69 15.99,-1.57 15.90,-1.48 15.82,-1.38 15.70,-1.32 15.59,-1.26 15.46,-1.24 15.34,-1.21 15.21,-1.23 15.08,-1.25 14.97,-1.31 14.85,-1.37 14.76,-1.46 14.68,-1.55 14.62,-1.67 14.56,-1.78 14.55,-1.91 14.53,-2.04 14.56,-2.16 14.58,-2.29 14.65,-2.40 14.71,-2.51 14.81,-2.60 14.91,-2.68 15.03,-2.73 15.15,-2.78 15.27,-2.79 15.40,-2.80 15.53,-2.76 15.65,-2.73 15.76,-2.66 15.86,-2.59 15.94,-2.49 16.02,-2.39 16.07,-2.27 16.11,-2.15 16.11,-2.02 16.11,-1.89 16.07,-1.77 16.03,-1.64 15.96,-1.54 15.88,-1.44 15.77,-1.36 15.67,-1.29 15.55,-1.25 15.42,-1.22 15.42,-1.22 15.42,-1.22 12.08,-0.81 8.75,-0.39 6.76,-0.19 4.77,0.00 2.46,0.45 0.16,0.91 0.05,0.92 -0.05,0.92 -0.16,0.90 -0.27,0.88 -0.38,0.84 -0.48,0.79 -0.57,0.72 -0.65,0.65 -0.72,0.56 -0.79,0.48 -0.84,0.37 -0.88,0.27 -0.90,0.16 -0.92,0.05 -0.92,-0.05 -0.91,-0.16 -0.88,-0.27 -0.84,-0.38 -0.78,-0.47 -0.73,-0.57 -0.65,-0.65 -0.57,-0.73 -0.47,-0.79 -0.38,-0.84 -0.27,-0.88 -0.16,-0.91 -0.16,-0.91 L -0.16,-0.91 Z"/></g><g transform="translate(148.98052978515625 36.51483154296875) rotate(0 -1.095428466796875 9.493865966796875)" stroke="none"><path fill="#1e1e1e" d="M 0.90,0.18 Q 0.90,0.18 0.44,2.27 -0.00,4.36 -0.42,6.30 -0.83,8.23 -1.01,10.06 -1.19,11.89 -0.67,14.72 -0.15,17.56 -0.15,17.69 -0.15,17.82 -0.19,17.94 -0.23,18.06 -0.31,18.17 -0.39,18.27 -0.49,18.35 -0.60,18.42 -0.73,18.46 -0.85,18.49 -0.98,18.49 -1.11,18.48 -1.24,18.43 -1.36,18.38 -1.46,18.30 -1.56,18.22 -1.62,18.10 -1.69,17.99 -1.72,17.87 -1.75,17.74 -1.74,17.61 -1.72,17.48 -1.67,17.36 -1.61,17.24 -1.53,17.15 -1.44,17.05 -1.32,16.99 -1.21,16.93 -1.08,16.91 -0.95,16.88 -0.82,16.90 -0.69,16.93 -0.58,16.99 -0.46,17.05 -0.37,17.14 -0.28,17.23 -0.22,17.35 -0.17,17.47 -0.15,17.60 -0.14,17.73 -0.17,17.86 -0.19,17.98 -0.26,18.10 -0.33,18.21 -0.43,18.29 -0.53,18.38 -0.65,18.43 -0.77,18.48 -0.90,18.48 -1.03,18.49 -1.15,18.46 -1.28,18.42 -1.39,18.35 -1.50,18.28 -1.58,18.18 -1.66,18.07 -1.70,17.95 -1.74,17.83 -1.74,17.83 -1.74,17.83 -2.22,14.80 -2.70,11.77 -2.54,9.85 -2.39,7.92 -2.03,5.98 -1.67,4.03 -1.28,1.92 -0.90,-0.18 -0.86,-0.28 -0.83,-0.39 -0.77,-0.48 -0.71,-0.57 -0.63,-0.65 -0.55,-0.73 -0.45,-0.78 -0.36,-0.84 -0.25,-0.87 -0.15,-0.90 -0.04,-0.91 0.07,-0.91 0.17,-0.89 0.28,-0.87 0.38,-0.82 0.48,-0.77 0.57,-0.70 0.66,-0.63 0.72,-0.55 0.79,-0.46 0.83,-0.36 0.88,-0.25 0.90,-0.14 0.91,-0.04 0.91,0.06 0.90,0.18 0.90,0.18 L 0.90,0.18 Z"/></g><g transform="translate(200.101318359375 33.593658447265625) rotate(0 -3.6514892578125 10.224151611328125)" stroke="none"><path fill="#1e1e1e" d="M 0.24,0.74 Q 0.24,0.74 -1.01,1.14 -2.28,1.54 -4.04,2.33 -5.80,3.11 -7.55,4.45 -9.30,5.80 -11.10,7.41 -12.90,9.03 -14.05,10.71 -15.19,12.39 -15.65,14.28 -16.12,16.17 -15.99,17.20 -15.86,18.24 -14.85,18.64 -13.83,19.04 -12.44,19.03 -11.06,19.03 -9.29,18.03 -7.52,17.02 -5.31,14.95 -3.09,12.88 -1.74,10.97 -0.40,9.07 0.37,7.45 1.14,5.83 1.70,4.89 2.26,3.96 2.26,3.75 2.25,3.54 2.31,3.47 2.36,3.40 2.43,3.34 2.50,3.29 2.58,3.25 2.66,3.22 2.75,3.20 2.83,3.18 2.92,3.19 3.01,3.19 3.09,3.22 3.18,3.24 3.25,3.29 3.33,3.34 3.39,3.40 3.46,3.46 3.50,3.54 3.55,3.61 3.57,3.69 3.60,3.78 3.61,3.87 3.61,3.95 3.60,4.04 3.58,4.13 3.54,4.21 3.51,4.29 3.36,4.96 3.21,5.63 2.69,7.03 2.16,8.43 1.95,10.19 1.75,11.95 2.06,13.67 2.37,15.38 2.97,16.19 3.57,17.00 6.26,16.88 8.96,16.76 9.08,16.78 9.20,16.80 9.31,16.86 9.42,16.92 9.50,17.01 9.59,17.10 9.64,17.21 9.69,17.32 9.70,17.44 9.72,17.56 9.69,17.68 9.66,17.80 9.60,17.91 9.54,18.01 9.44,18.09 9.35,18.17 9.24,18.22 9.12,18.26 9.00,18.27 8.88,18.28 8.76,18.24 8.64,18.21 8.54,18.14 8.44,18.07 8.36,17.98 8.29,17.88 8.25,17.76 8.21,17.64 8.21,17.52 8.21,17.40 8.25,17.28 8.29,17.17 8.36,17.07 8.44,16.97 8.54,16.90 8.64,16.83 8.76,16.80 8.88,16.77 9.00,16.77 9.12,16.78 9.24,16.82 9.35,16.87 9.44,16.95 9.54,17.03 9.60,17.14 9.66,17.24 9.69,17.36 9.72,17.48 9.70,17.60 9.69,17.73 9.64,17.84 9.59,17.95 9.50,18.04 9.42,18.13 9.31,18.19 9.20,18.24 9.08,18.26 8.96,18.28 8.96,18.28 8.96,18.28 5.93,18.16 2.91,18.04 1.97,16.87 1.03,15.70 0.68,13.75 0.34,11.80 0.56,9.87 0.79,7.94 1.27,6.59 1.75,5.25 2.00,4.39 2.25,3.54 2.31,3.47 2.36,3.40 2.43,3.34 2.50,3.29 2.58,3.25 2.66,3.22 2.75,3.20 2.83,3.18 2.92,3.19 3.01,3.19 3.09,3.22 3.18,3.24 3.25,3.29 3.33,3.34 3.39,3.40 3.46,3.46 3.50,3.54 3.55,3.61 3.57,3.69 3.60,3.78 3.61,3.87 3.61,3.95 3.60,4.04 3.58,4.13 3.54,4.21 3.51,4.29 3.46,4.44 3.40,4.59 2.87,5.50 2.33,6.40 1.50,8.12 0.67,9.83 -0.75,11.84 -2.19,13.84 -4.53,16.01 -6.88,18.18 -8.94,19.26 -10.99,20.34 -12.67,20.29 -14.35,20.25 -15.61,19.57 -16.86,18.89 -17.15,17.38 -17.43,15.88 -16.88,13.76 -16.33,11.65 -15.08,9.83 -13.84,8.01 -12.00,6.35 -10.16,4.68 -8.28,3.24 -6.41,1.80 -4.58,0.96 -2.75,0.13 -1.50,-0.30 -0.24,-0.74 -0.15,-0.75 -0.06,-0.77 0.03,-0.77 0.12,-0.77 0.21,-0.74 0.30,-0.71 0.38,-0.67 0.46,-0.62 0.53,-0.55 0.60,-0.49 0.65,-0.41 0.70,-0.33 0.73,-0.24 0.76,-0.15 0.77,-0.06 0.78,0.03 0.76,0.12 0.75,0.21 0.71,0.30 0.67,0.39 0.61,0.46 0.56,0.54 0.49,0.60 0.41,0.66 0.33,0.70 0.24,0.74 0.24,0.74 L 0.24,0.74 Z"/></g><g transform="translate(234.42523193359375 0) rotate(0 2.19091796875 24.464950561523438)" stroke="none"><path fill="#1e1e1e" d="M 0.78,0 Q 0.78,0 0.76,1.25 0.74,2.51 0.73,3.89 0.72,5.27 0.50,7.77 0.28,10.27 -0.02,13.22 -0.33,16.17 -0.88,20.16 -1.43,24.15 -1.88,27.52 -2.32,30.88 -2.72,33.58 -3.13,36.28 -3.51,38.48 -3.89,40.68 -4.05,42.43 -4.21,44.17 -4.28,45.31 -4.36,46.44 -3.99,46.95 -3.62,47.46 -2.20,47.70 -0.78,47.94 0.48,48.01 1.75,48.08 3.47,47.71 5.19,47.34 6.81,45.64 8.43,43.94 8.52,43.84 8.61,43.73 8.72,43.66 8.84,43.58 8.97,43.55 9.11,43.52 9.25,43.53 9.38,43.54 9.51,43.60 9.63,43.65 9.74,43.75 9.84,43.84 9.90,43.96 9.97,44.08 10.00,44.21 10.02,44.35 10.00,44.48 9.98,44.62 9.92,44.74 9.86,44.87 9.76,44.96 9.66,45.06 9.54,45.12 9.41,45.18 9.28,45.20 9.14,45.21 9.01,45.19 8.87,45.16 8.75,45.09 8.63,45.02 8.54,44.92 8.45,44.82 8.40,44.69 8.35,44.56 8.34,44.43 8.33,44.29 8.36,44.16 8.39,44.02 8.47,43.91 8.54,43.79 8.65,43.71 8.76,43.62 8.89,43.58 9.02,43.53 9.15,43.53 9.29,43.53 9.42,43.57 9.55,43.61 9.66,43.69 9.78,43.77 9.86,43.88 9.93,43.99 9.97,44.13 10.01,44.26 10.01,44.39 10.00,44.53 9.96,44.66 9.91,44.79 9.91,44.79 9.91,44.79 7.71,46.78 5.51,48.77 3.60,49.19 1.70,49.61 0.36,49.57 -0.97,49.53 -2.20,49.39 -3.43,49.25 -4.13,48.77 -4.83,48.29 -5.24,47.39 -5.65,46.48 -5.59,45.27 -5.53,44.05 -5.37,42.26 -5.20,40.46 -4.83,38.27 -4.45,36.08 -4.06,33.40 -3.66,30.71 -3.22,27.34 -2.78,23.96 -2.24,19.99 -1.70,16.03 -1.41,13.09 -1.12,10.15 -0.92,7.71 -0.72,5.26 -0.73,3.89 -0.74,2.51 -0.76,1.25 -0.78,0 -0.76,-0.09 -0.75,-0.18 -0.72,-0.27 -0.69,-0.36 -0.63,-0.44 -0.58,-0.51 -0.51,-0.58 -0.44,-0.64 -0.36,-0.68 -0.27,-0.73 -0.18,-0.75 -0.09,-0.77 0.00,-0.77 0.09,-0.77 0.18,-0.75 0.27,-0.73 0.36,-0.68 0.44,-0.64 0.51,-0.58 0.58,-0.51 0.63,-0.44 0.69,-0.36 0.72,-0.27 0.75,-0.18 0.76,-0.09 0.78,0.00 0.78,0.00 L 0.78,0 Z"/></g><g transform="translate(225.66168212890625 35.054229736328125) rotate(0 8.03326416015625 -0.73028564453125)" stroke="none"><path fill="#1e1e1e" d="M -0.12,-0.94 Q -0.12,-0.94 3.02,-1.32 6.18,-1.70 10.21,-1.93 14.25,-2.16 14.38,-2.14 14.51,-2.13 14.63,-2.08 14.75,-2.02 14.84,-1.93 14.94,-1.84 15.00,-1.73 15.07,-1.61 15.09,-1.48 15.11,-1.35 15.09,-1.22 15.07,-1.09 15.01,-0.97 14.95,-0.86 14.86,-0.76 14.76,-0.67 14.64,-0.62 14.52,-0.56 14.39,-0.54 14.26,-0.53 14.13,-0.56 14.00,-0.58 13.89,-0.65 13.78,-0.72 13.69,-0.82 13.60,-0.92 13.55,-1.04 13.50,-1.16 13.49,-1.29 13.49,-1.42 13.52,-1.55 13.55,-1.68 13.63,-1.79 13.70,-1.90 13.80,-1.98 13.91,-2.06 14.03,-2.10 14.16,-2.15 14.29,-2.15 14.42,-2.15 14.55,-2.11 14.67,-2.07 14.78,-1.99 14.88,-1.91 14.96,-1.80 15.03,-1.69 15.07,-1.57 15.11,-1.44 15.10,-1.31 15.09,-1.18 15.05,-1.05 15.00,-0.93 14.91,-0.83 14.83,-0.73 14.72,-0.66 14.61,-0.59 14.48,-0.56 14.35,-0.53 14.35,-0.53 14.35,-0.53 10.38,-0.25 6.41,0.02 3.27,0.48 0.12,0.94 0.01,0.94 -0.10,0.94 -0.21,0.92 -0.32,0.89 -0.43,0.84 -0.53,0.79 -0.61,0.71 -0.70,0.64 -0.77,0.54 -0.83,0.45 -0.88,0.34 -0.92,0.23 -0.93,0.12 -0.95,0.01 -0.94,-0.10 -0.92,-0.21 -0.88,-0.32 -0.84,-0.43 -0.78,-0.52 -0.72,-0.62 -0.63,-0.70 -0.55,-0.77 -0.44,-0.83 -0.34,-0.88 -0.23,-0.91 -0.12,-0.94 -0.12,-0.94 L -0.12,-0.94 Z"/></g><g transform="translate(31.40277099609375 73.02969360351562) rotate(0 1.460601806640625 11.319580078125)" stroke="none"><path fill="#1e1e1e" d="M 0.92,-0.23 Q 0.92,-0.23 1.31,1.45 1.69,3.14 2.05,4.70 2.41,6.27 2.56,8.46 2.71,10.66 2.77,12.42 2.82,14.18 2.84,15.56 2.86,16.94 3.07,17.87 3.29,18.81 3.49,20.51 3.69,22.22 3.68,22.35 3.67,22.48 3.62,22.60 3.56,22.72 3.48,22.81 3.39,22.91 3.27,22.97 3.16,23.04 3.03,23.06 2.90,23.08 2.78,23.06 2.65,23.04 2.53,22.98 2.41,22.93 2.32,22.83 2.23,22.74 2.17,22.62 2.12,22.50 2.10,22.38 2.09,22.25 2.11,22.12 2.14,21.99 2.20,21.88 2.27,21.76 2.37,21.68 2.46,21.59 2.58,21.54 2.71,21.49 2.84,21.48 2.97,21.47 3.09,21.51 3.22,21.54 3.33,21.61 3.44,21.68 3.52,21.79 3.60,21.89 3.64,22.01 3.68,22.13 3.69,22.26 3.69,22.39 3.65,22.52 3.61,22.64 3.53,22.75 3.45,22.85 3.35,22.93 3.24,23.00 3.12,23.04 2.99,23.08 2.86,23.07 2.73,23.07 2.61,23.02 2.49,22.97 2.39,22.89 2.29,22.81 2.22,22.70 2.15,22.59 2.12,22.46 2.09,22.33 2.09,22.33 2.09,22.33 1.99,20.72 1.89,19.12 1.65,18.04 1.42,16.97 1.38,15.61 1.34,14.24 1.26,12.51 1.17,10.78 0.99,8.72 0.82,6.66 0.40,5.11 -0.01,3.57 -0.47,1.90 -0.92,0.23 -0.94,0.11 -0.95,0.00 -0.94,-0.11 -0.93,-0.22 -0.89,-0.33 -0.85,-0.44 -0.78,-0.53 -0.71,-0.63 -0.63,-0.71 -0.54,-0.78 -0.44,-0.84 -0.34,-0.89 -0.23,-0.92 -0.11,-0.95 -0.00,-0.95 0.11,-0.95 0.22,-0.92 0.33,-0.89 0.43,-0.84 0.54,-0.79 0.62,-0.71 0.71,-0.63 0.78,-0.54 0.84,-0.44 0.88,-0.34 0.92,-0.23 0.92,-0.23 L 0.92,-0.23 Z"/></g><g transform="translate(27.02099609375 97.8597412109375) rotate(0 9.12872314453125 5.4772491455078125)" stroke="none"><path fill="#1e1e1e" d="M 0.71,-0.57 Q 0.71,-0.57 1.52,0.50 2.34,1.57 3.13,3.15 3.93,4.72 4.66,5.98 5.38,7.23 5.90,8.20 6.42,9.17 7.02,9.69 7.61,10.20 8.23,10.60 8.85,10.99 9.79,10.38 10.74,9.76 11.19,8.98 11.64,8.21 12.31,7.19 12.98,6.18 13.89,4.52 14.79,2.87 15.90,0.90 17.01,-1.05 17.10,-1.15 17.19,-1.26 17.31,-1.33 17.43,-1.40 17.56,-1.44 17.70,-1.47 17.84,-1.45 17.97,-1.44 18.10,-1.38 18.23,-1.32 18.33,-1.23 18.43,-1.13 18.49,-1.01 18.56,-0.89 18.58,-0.75 18.61,-0.61 18.58,-0.48 18.56,-0.34 18.50,-0.21 18.43,-0.09 18.33,-0.00 18.23,0.09 18.11,0.15 17.98,0.21 17.84,0.22 17.70,0.24 17.57,0.21 17.43,0.18 17.31,0.11 17.19,0.04 17.10,-0.06 17.01,-0.16 16.96,-0.29 16.91,-0.42 16.90,-0.56 16.89,-0.70 16.93,-0.83 16.97,-0.97 17.04,-1.08 17.12,-1.20 17.23,-1.28 17.34,-1.37 17.47,-1.41 17.61,-1.46 17.74,-1.46 17.88,-1.46 18.02,-1.41 18.15,-1.37 18.26,-1.29 18.37,-1.20 18.45,-1.09 18.53,-0.97 18.56,-0.84 18.60,-0.70 18.59,-0.57 18.59,-0.43 18.54,-0.30 18.49,-0.17 18.49,-0.17 18.49,-0.17 17.31,1.70 16.13,3.58 15.23,5.30 14.33,7.03 13.72,8.04 13.11,9.05 12.52,10.07 11.94,11.09 10.99,11.82 10.05,12.56 9.06,12.49 8.08,12.43 7.31,11.88 6.54,11.33 5.85,10.61 5.15,9.89 4.62,8.95 4.08,8.00 3.30,6.73 2.52,5.45 1.77,4.04 1.01,2.62 0.15,1.59 -0.71,0.57 -0.77,0.47 -0.82,0.38 -0.86,0.27 -0.89,0.17 -0.90,0.06 -0.91,-0.04 -0.89,-0.15 -0.87,-0.26 -0.83,-0.36 -0.78,-0.46 -0.71,-0.55 -0.65,-0.63 -0.56,-0.70 -0.48,-0.77 -0.38,-0.82 -0.28,-0.86 -0.17,-0.89 -0.06,-0.91 0.04,-0.90 0.15,-0.90 0.26,-0.86 0.36,-0.83 0.46,-0.78 0.55,-0.72 0.63,-0.64 0.71,-0.57 0.71,-0.57 L 0.71,-0.57 Z"/></g><g transform="translate(0 165.04705810546875) rotate(0 12.049896240234375 9.493850708007812)" stroke="none"><path fill="#1e1e1e" d="M 0.82,-0.23 Q 0.82,-0.23 1.22,1.24 1.61,2.71 1.99,4.63 2.36,6.55 2.72,8.40 3.08,10.26 3.44,12.53 3.81,14.80 3.96,16.41 4.11,18.03 4.21,18.91 4.30,19.79 4.30,19.88 4.30,19.97 4.28,20.06 4.25,20.15 4.21,20.23 4.16,20.31 4.10,20.38 4.04,20.45 3.96,20.50 3.89,20.55 3.80,20.58 3.71,20.61 3.62,20.62 3.53,20.62 3.44,20.61 3.35,20.60 3.26,20.56 3.18,20.53 3.11,20.48 3.03,20.42 2.97,20.35 2.91,20.28 2.87,20.20 2.83,20.12 2.81,20.03 2.79,19.94 2.33,18.14 1.86,16.34 1.75,14.36 1.63,12.39 1.80,10.46 1.97,8.54 2.48,6.83 2.99,5.12 4.09,3.50 5.18,1.88 5.85,1.00 6.52,0.13 7.26,-0.52 7.99,-1.18 8.61,-1.53 9.23,-1.88 10.04,-1.71 10.85,-1.54 11.39,-0.26 11.92,1.00 12.28,2.34 12.64,3.68 12.99,5.09 13.34,6.50 13.70,8.38 14.05,10.26 14.21,11.27 14.37,12.28 14.49,12.91 14.61,13.53 14.62,13.63 14.62,13.74 14.60,13.84 14.58,13.94 14.53,14.03 14.49,14.12 14.42,14.20 14.36,14.28 14.28,14.34 14.19,14.40 14.10,14.44 14.00,14.48 13.90,14.50 13.80,14.52 13.70,14.51 13.60,14.50 13.50,14.46 13.40,14.43 13.32,14.38 13.23,14.32 13.16,14.25 13.09,14.17 13.04,14.08 12.99,13.99 12.96,13.89 12.93,13.80 12.99,12.16 13.06,10.53 13.51,8.47 13.96,6.41 14.80,4.26 15.64,2.11 16.22,0.98 16.80,-0.14 17.24,-0.89 17.67,-1.63 18.26,-2.09 18.84,-2.54 19.58,-2.47 20.32,-2.39 20.92,-1.57 21.52,-0.75 22.05,0.16 22.57,1.08 23.05,3.08 23.52,5.08 23.70,6.98 23.88,8.88 24.40,11.73 24.92,14.58 24.91,14.73 24.91,14.87 24.85,15.01 24.80,15.15 24.71,15.26 24.61,15.37 24.49,15.45 24.36,15.53 24.22,15.56 24.08,15.60 23.93,15.58 23.79,15.57 23.65,15.51 23.52,15.45 23.41,15.35 23.30,15.25 23.23,15.12 23.16,14.99 23.14,14.85 23.11,14.70 23.13,14.56 23.15,14.41 23.22,14.28 23.29,14.15 23.39,14.05 23.50,13.95 23.63,13.88 23.76,13.82 23.91,13.80 24.05,13.78 24.20,13.81 24.34,13.84 24.47,13.92 24.60,13.99 24.69,14.10 24.79,14.21 24.84,14.35 24.90,14.48 24.91,14.63 24.92,14.78 24.88,14.92 24.84,15.06 24.76,15.18 24.68,15.31 24.57,15.40 24.45,15.49 24.31,15.54 24.17,15.58 24.03,15.59 23.88,15.59 23.74,15.54 23.60,15.50 23.48,15.41 23.37,15.32 23.28,15.20 23.20,15.08 23.16,14.94 23.12,14.80 23.12,14.80 23.12,14.80 22.70,11.92 22.28,9.04 22.07,7.26 21.86,5.48 21.43,3.77 20.99,2.05 20.36,1.14 19.73,0.24 19.35,-0.24 18.97,-0.73 18.52,-0.12 18.07,0.48 17.54,1.56 17.01,2.63 16.23,4.69 15.44,6.74 15.05,8.64 14.65,10.55 14.63,12.04 14.61,13.53 14.62,13.63 14.62,13.74 14.60,13.84 14.58,13.94 14.53,14.03 14.49,14.12 14.42,14.20 14.36,14.28 14.28,14.34 14.19,14.40 14.10,14.44 14.00,14.48 13.90,14.50 13.80,14.52 13.70,14.51 13.60,14.50 13.50,14.46 13.40,14.43 13.32,14.38 13.23,14.32 13.16,14.25 13.09,14.17 13.04,14.08 12.99,13.99 12.96,13.89 12.93,13.80 12.92,13.15 12.91,12.51 12.75,11.53 12.60,10.55 12.22,8.72 11.85,6.89 11.46,5.51 11.07,4.13 10.68,2.86 10.28,1.59 9.60,0.77 8.92,-0.03 8.26,0.46 7.60,0.95 6.96,1.80 6.32,2.65 5.32,4.10 4.32,5.54 3.86,7.10 3.39,8.66 3.25,10.48 3.10,12.30 3.23,14.18 3.36,16.07 3.83,17.93 4.30,19.79 4.30,19.88 4.30,19.97 4.28,20.06 4.25,20.15 4.21,20.23 4.16,20.31 4.10,20.38 4.04,20.45 3.96,20.50 3.89,20.55 3.80,20.58 3.71,20.61 3.62,20.62 3.53,20.62 3.44,20.61 3.35,20.60 3.26,20.56 3.18,20.53 3.11,20.48 3.03,20.42 2.97,20.35 2.91,20.28 2.87,20.20 2.83,20.12 2.81,20.03 2.79,19.94 2.76,19.05 2.72,18.16 2.56,16.60 2.40,15.03 2.02,12.79 1.64,10.55 1.25,8.70 0.86,6.86 0.46,5.01 0.06,3.16 -0.38,1.69 -0.82,0.23 -0.84,0.13 -0.86,0.03 -0.85,-0.07 -0.84,-0.17 -0.81,-0.27 -0.77,-0.37 -0.72,-0.46 -0.66,-0.54 -0.59,-0.61 -0.51,-0.69 -0.42,-0.74 -0.33,-0.79 -0.23,-0.82 -0.13,-0.85 -0.03,-0.85 0.07,-0.85 0.17,-0.83 0.27,-0.81 0.36,-0.77 0.46,-0.72 0.54,-0.66 0.62,-0.59 0.68,-0.51 0.74,-0.42 0.78,-0.33 0.82,-0.23 0.82,-0.23 L 0.82,-0.23 Z"/></g><g transform="translate(40.16632080078125 160.665283203125) rotate(0 -4.38177490234375 9.858993530273438)" stroke="none"><path fill="#1e1e1e" d="M 0.47,0.76 Q 0.47,0.76 -1.21,1.78 -2.91,2.80 -3.99,3.80 -5.07,4.80 -5.48,5.75 -5.89,6.70 -5.87,7.35 -5.86,8.00 -5.30,8.36 -4.74,8.73 -3.94,9.13 -3.14,9.54 -2.27,10.21 -1.41,10.88 -0.78,11.88 -0.15,12.88 0.15,13.78 0.45,14.67 0.32,15.85 0.19,17.03 -0.81,18.05 -1.82,19.07 -2.96,19.48 -4.10,19.90 -5.10,20.07 -6.09,20.24 -7.12,19.59 -8.14,18.93 -8.79,17.24 -9.43,15.55 -9.45,15.40 -9.47,15.25 -9.44,15.11 -9.41,14.96 -9.34,14.83 -9.27,14.70 -9.16,14.61 -9.04,14.51 -8.91,14.45 -8.77,14.39 -8.62,14.38 -8.48,14.36 -8.33,14.40 -8.19,14.44 -8.06,14.52 -7.94,14.60 -7.84,14.71 -7.75,14.83 -7.70,14.97 -7.65,15.11 -7.64,15.26 -7.64,15.40 -7.68,15.55 -7.73,15.69 -7.81,15.81 -7.90,15.93 -8.02,16.02 -8.14,16.10 -8.28,16.15 -8.43,16.19 -8.57,16.19 -8.72,16.18 -8.86,16.13 -9.00,16.08 -9.12,15.99 -9.23,15.89 -9.31,15.77 -9.39,15.64 -9.43,15.50 -9.47,15.35 -9.45,15.21 -9.44,15.06 -9.38,14.92 -9.32,14.79 -9.22,14.67 -9.13,14.56 -9.00,14.49 -8.87,14.42 -8.72,14.39 -8.57,14.36 -8.43,14.38 -8.28,14.40 -8.15,14.47 -8.01,14.53 -7.91,14.64 -7.80,14.74 -7.74,14.88 -7.67,15.01 -7.67,15.01 -7.67,15.01 -7.37,16.40 -7.07,17.79 -6.53,18.26 -6.00,18.74 -5.30,18.61 -4.60,18.48 -3.72,18.19 -2.85,17.90 -2.09,17.25 -1.32,16.60 -1.23,15.85 -1.14,15.09 -1.31,14.39 -1.47,13.68 -1.94,12.90 -2.41,12.13 -3.15,11.56 -3.89,11.00 -4.89,10.49 -5.88,9.98 -6.59,9.18 -7.30,8.37 -7.29,7.26 -7.28,6.14 -6.73,4.92 -6.18,3.70 -4.99,2.54 -3.80,1.39 -2.14,0.31 -0.47,-0.76 -0.37,-0.80 -0.28,-0.85 -0.17,-0.87 -0.06,-0.89 0.04,-0.89 0.14,-0.88 0.25,-0.85 0.35,-0.82 0.45,-0.77 0.54,-0.71 0.62,-0.64 0.69,-0.56 0.75,-0.47 0.81,-0.38 0.84,-0.27 0.88,-0.17 0.89,-0.06 0.89,0.04 0.88,0.14 0.86,0.25 0.81,0.35 0.77,0.45 0.71,0.54 0.64,0.62 0.56,0.69 0.47,0.76 0.47,0.76 L 0.47,0.76 Z"/></g><g transform="translate(35.7845458984375 149.7108154296875) rotate(0 4.7469482421875 -1.4605865478515625)" stroke="none"><path fill="#1e1e1e" d="M -0.31,-0.94 Q -0.31,-0.94 0.95,-1.32 2.23,-1.69 3.63,-2.06 5.04,-2.42 6.74,-3.00 8.45,-3.58 8.60,-3.60 8.75,-3.62 8.90,-3.59 9.05,-3.56 9.18,-3.49 9.31,-3.41 9.41,-3.30 9.52,-3.19 9.58,-3.05 9.64,-2.91 9.65,-2.76 9.66,-2.61 9.62,-2.46 9.59,-2.31 9.51,-2.18 9.43,-2.06 9.31,-1.96 9.19,-1.86 9.05,-1.81 8.90,-1.76 8.75,-1.76 8.60,-1.75 8.46,-1.80 8.31,-1.84 8.19,-1.93 8.06,-2.02 7.97,-2.14 7.89,-2.26 7.84,-2.41 7.80,-2.55 7.80,-2.70 7.80,-2.86 7.86,-3.00 7.91,-3.14 8.00,-3.26 8.10,-3.38 8.23,-3.46 8.35,-3.54 8.50,-3.58 8.65,-3.62 8.80,-3.60 8.95,-3.59 9.09,-3.53 9.23,-3.47 9.34,-3.37 9.46,-3.27 9.53,-3.14 9.61,-3.01 9.63,-2.86 9.66,-2.71 9.64,-2.56 9.62,-2.41 9.56,-2.27 9.49,-2.13 9.38,-2.03 9.27,-1.92 9.14,-1.85 9.00,-1.78 9.00,-1.78 9.00,-1.78 7.25,-1.30 5.49,-0.81 4.15,-0.39 2.80,0.01 1.56,0.48 0.31,0.94 0.19,0.96 0.07,0.99 -0.04,0.98 -0.16,0.98 -0.27,0.94 -0.39,0.91 -0.49,0.85 -0.59,0.79 -0.68,0.71 -0.77,0.62 -0.83,0.52 -0.89,0.42 -0.93,0.31 -0.97,0.19 -0.98,0.07 -0.99,-0.04 -0.97,-0.15 -0.95,-0.27 -0.90,-0.38 -0.86,-0.49 -0.78,-0.59 -0.71,-0.68 -0.62,-0.76 -0.53,-0.84 -0.42,-0.89 -0.31,-0.94 -0.31,-0.94 L -0.31,-0.94 Z"/></g><g transform="translate(52.58135986328125 140.947265625) rotate(0 1.460601806640625 7.668121337890625)" stroke="none"><path fill="#1e1e1e" d="M 0.99,0 Q 0.99,0 0.94,2.09 0.90,4.19 1.07,5.88 1.24,7.56 1.52,9.33 1.79,11.10 2.60,12.81 3.41,14.51 3.47,14.64 3.53,14.77 3.55,14.91 3.57,15.05 3.54,15.19 3.51,15.32 3.44,15.45 3.37,15.57 3.26,15.66 3.16,15.76 3.03,15.81 2.90,15.86 2.76,15.87 2.62,15.88 2.48,15.85 2.34,15.81 2.22,15.74 2.11,15.66 2.02,15.55 1.93,15.44 1.88,15.31 1.84,15.17 1.83,15.03 1.83,14.89 1.87,14.76 1.92,14.62 2.00,14.51 2.08,14.39 2.20,14.31 2.31,14.23 2.45,14.19 2.58,14.15 2.73,14.16 2.87,14.16 3.00,14.21 3.13,14.26 3.24,14.35 3.35,14.44 3.42,14.56 3.50,14.68 3.53,14.82 3.56,14.95 3.55,15.09 3.54,15.23 3.48,15.36 3.42,15.49 3.33,15.60 3.23,15.70 3.11,15.77 2.99,15.84 2.85,15.86 2.71,15.89 2.57,15.87 2.43,15.85 2.31,15.78 2.18,15.72 2.08,15.62 1.98,15.52 1.98,15.52 1.98,15.52 1.11,13.44 0.24,11.36 -0.08,9.56 -0.40,7.76 -0.65,5.98 -0.90,4.20 -0.94,2.10 -0.99,0 -0.97,-0.11 -0.96,-0.23 -0.91,-0.34 -0.87,-0.46 -0.80,-0.55 -0.74,-0.65 -0.65,-0.73 -0.56,-0.81 -0.45,-0.87 -0.35,-0.92 -0.23,-0.95 -0.11,-0.98 0.00,-0.98 0.11,-0.98 0.23,-0.95 0.35,-0.92 0.45,-0.87 0.56,-0.81 0.65,-0.73 0.74,-0.65 0.80,-0.55 0.87,-0.46 0.91,-0.34 0.96,-0.23 0.97,-0.11 0.99,0.00 0.99,0.00 L 0.99,0 Z"/></g><g transform="translate(106.62335205078125 78.87203979492188) rotate(0 0.73028564453125 22.2740478515625)" stroke="none"><path fill="#1e1e1e" d="M 0.77,-0.08 Q 0.77,-0.08 0.96,1.80 1.16,3.69 1.44,6.17 1.73,8.65 1.85,11.20 1.97,13.75 2.02,16.31 2.07,18.86 2.09,21.42 2.10,23.97 2.11,26.32 2.12,28.66 2.12,31.55 2.12,34.43 2.12,36.50 2.12,38.57 1.70,41.43 1.28,44.30 1.17,44.35 1.07,44.40 0.95,44.42 0.84,44.43 0.73,44.41 0.61,44.39 0.51,44.33 0.41,44.28 0.33,44.19 0.26,44.10 0.21,44.00 0.16,43.89 0.15,43.78 0.14,43.66 0.17,43.55 0.20,43.44 0.26,43.34 0.32,43.24 0.41,43.17 0.50,43.10 0.61,43.06 0.72,43.02 0.84,43.01 0.95,43.01 1.06,43.04 1.17,43.08 1.27,43.14 1.36,43.21 1.43,43.30 1.50,43.40 1.53,43.51 1.56,43.62 1.56,43.73 1.56,43.85 1.52,43.96 1.48,44.07 1.41,44.16 1.34,44.25 1.24,44.31 1.14,44.37 1.03,44.40 0.92,44.43 0.80,44.42 0.69,44.41 0.58,44.37 0.47,44.32 0.39,44.24 0.30,44.17 0.24,44.07 0.19,43.97 0.17,43.85 0.14,43.74 0.16,43.62 0.17,43.51 0.22,43.41 0.28,43.30 0.36,43.22 0.44,43.14 0.44,43.14 0.44,43.14 0.61,40.85 0.79,38.57 0.78,36.50 0.78,34.44 0.77,31.55 0.77,28.67 0.75,26.32 0.74,23.98 0.71,21.44 0.68,18.89 0.62,16.36 0.56,13.83 0.43,11.33 0.30,8.83 -0.01,6.34 -0.32,3.86 -0.54,1.97 -0.77,0.08 -0.77,-0.00 -0.77,-0.10 -0.75,-0.19 -0.72,-0.28 -0.68,-0.36 -0.63,-0.45 -0.57,-0.52 -0.51,-0.58 -0.43,-0.64 -0.35,-0.69 -0.26,-0.72 -0.17,-0.76 -0.08,-0.77 0.00,-0.78 0.10,-0.76 0.19,-0.75 0.28,-0.72 0.37,-0.68 0.44,-0.63 0.52,-0.57 0.58,-0.50 0.64,-0.43 0.69,-0.35 0.73,-0.26 0.75,-0.17 0.77,-0.08 0.77,-0.08 L 0.77,-0.08 Z"/></g><g transform="translate(100.0506591796875 126.34133911132812) rotate(0 6.20751953125 4.746917724609375)" stroke="none"><path fill="#1e1e1e" d="M 0.83,-0.44 Q 0.83,-0.44 2.48,2.72 4.12,5.88 4.99,7.20 5.87,8.51 6.18,8.94 6.49,9.38 7.34,7.43 8.18,5.48 8.78,4.23 9.37,2.98 10.27,0.99 11.17,-0.99 11.26,-1.11 11.34,-1.23 11.46,-1.32 11.58,-1.41 11.72,-1.45 11.86,-1.50 12.01,-1.49 12.16,-1.49 12.30,-1.44 12.44,-1.39 12.55,-1.30 12.67,-1.21 12.75,-1.09 12.83,-0.96 12.87,-0.82 12.91,-0.68 12.90,-0.53 12.89,-0.38 12.83,-0.25 12.77,-0.11 12.68,-0.00 12.58,0.10 12.45,0.18 12.32,0.25 12.18,0.28 12.03,0.31 11.89,0.29 11.74,0.27 11.61,0.21 11.47,0.15 11.37,0.04 11.26,-0.05 11.19,-0.18 11.13,-0.31 11.10,-0.46 11.08,-0.61 11.11,-0.75 11.13,-0.90 11.21,-1.03 11.28,-1.16 11.39,-1.26 11.49,-1.36 11.63,-1.42 11.76,-1.48 11.91,-1.49 12.06,-1.50 12.20,-1.47 12.35,-1.44 12.47,-1.36 12.60,-1.28 12.69,-1.17 12.79,-1.05 12.84,-0.91 12.89,-0.78 12.90,-0.63 12.90,-0.48 12.86,-0.34 12.82,-0.20 12.82,-0.20 12.82,-0.20 11.84,1.72 10.87,3.65 10.34,4.90 9.81,6.16 8.83,8.33 7.85,10.49 7.09,10.66 6.32,10.84 5.43,10.14 4.54,9.43 3.56,8.07 2.59,6.70 0.87,3.57 -0.83,0.44 -0.87,0.33 -0.91,0.23 -0.93,0.11 -0.94,0.00 -0.93,-0.10 -0.92,-0.22 -0.88,-0.32 -0.84,-0.43 -0.77,-0.52 -0.71,-0.62 -0.62,-0.70 -0.54,-0.77 -0.44,-0.83 -0.34,-0.88 -0.23,-0.91 -0.12,-0.94 -0.00,-0.94 0.10,-0.94 0.21,-0.91 0.33,-0.88 0.43,-0.83 0.53,-0.78 0.61,-0.70 0.70,-0.63 0.77,-0.53 0.83,-0.44 0.83,-0.44 L 0.83,-0.44 Z"/></g><g transform="translate(89.82647705078125 168.69854736328125) rotate(0 9.493865966796875 5.842376708984375)" stroke="none"><path fill="#1e1e1e" d="M 0.89,-0.07 Q 0.89,-0.07 1.07,2.44 1.25,4.96 1.31,6.89 1.38,8.82 1.40,10.27 1.42,11.72 1.43,12.76 1.44,13.79 1.50,14.44 1.56,15.09 1.58,15.16 1.59,15.22 1.58,15.33 1.57,15.43 1.54,15.53 1.50,15.63 1.44,15.72 1.38,15.81 1.30,15.88 1.23,15.95 1.13,16.00 1.04,16.05 0.94,16.07 0.84,16.10 0.73,16.10 0.62,16.10 0.52,16.08 0.42,16.05 0.33,16.01 0.23,15.96 0.15,15.89 0.07,15.82 0.01,15.73 -0.04,15.65 -0.08,15.55 -0.12,15.45 -0.13,15.35 -0.14,15.24 -0.15,14.43 -0.17,13.61 -0.13,12.00 -0.10,10.40 0.34,7.76 0.79,5.13 1.42,3.15 2.05,1.17 2.76,-0.13 3.47,-1.43 3.98,-2.23 4.50,-3.03 5.36,-3.50 6.23,-3.97 7.20,-3.69 8.17,-3.42 8.85,-2.51 9.54,-1.60 9.78,-0.27 10.02,1.05 10.09,2.21 10.16,3.38 10.38,4.66 10.60,5.94 10.71,6.92 10.82,7.90 10.83,7.99 10.83,8.08 10.82,8.17 10.80,8.27 10.76,8.35 10.73,8.44 10.67,8.51 10.61,8.58 10.54,8.64 10.47,8.70 10.38,8.74 10.30,8.78 10.21,8.79 10.11,8.81 10.02,8.81 9.93,8.80 9.84,8.77 9.75,8.75 9.67,8.70 9.59,8.65 9.52,8.59 9.46,8.52 9.41,8.44 9.36,8.36 9.33,8.27 9.30,8.18 9.57,6.28 9.83,4.38 10.38,2.81 10.93,1.24 11.37,-0.01 11.82,-1.28 12.21,-2.10 12.60,-2.92 13.24,-3.58 13.89,-4.24 14.51,-4.58 15.13,-4.93 15.93,-4.76 16.73,-4.60 17.30,-3.52 17.87,-2.43 18.22,-1.15 18.57,0.13 18.71,2.00 18.85,3.87 19.28,5.94 19.71,8.02 19.74,8.17 19.76,8.31 19.74,8.46 19.71,8.61 19.64,8.74 19.57,8.87 19.46,8.98 19.35,9.08 19.22,9.14 19.08,9.21 18.93,9.22 18.78,9.24 18.64,9.21 18.49,9.17 18.36,9.10 18.23,9.02 18.14,8.90 18.04,8.79 17.98,8.65 17.93,8.51 17.92,8.36 17.91,8.21 17.95,8.07 17.99,7.92 18.08,7.80 18.16,7.67 18.28,7.58 18.40,7.49 18.54,7.45 18.68,7.40 18.83,7.40 18.98,7.40 19.13,7.45 19.27,7.49 19.39,7.59 19.51,7.68 19.59,7.80 19.67,7.92 19.71,8.07 19.75,8.21 19.75,8.36 19.74,8.51 19.68,8.65 19.63,8.79 19.53,8.91 19.43,9.02 19.30,9.10 19.18,9.17 19.03,9.21 18.88,9.24 18.73,9.22 18.58,9.21 18.45,9.14 18.31,9.08 18.20,8.98 18.09,8.87 18.02,8.74 17.95,8.61 17.95,8.61 17.95,8.61 17.57,6.31 17.19,4.01 17.01,2.33 16.84,0.65 16.44,-0.50 16.05,-1.65 15.54,-2.30 15.03,-2.95 14.51,-2.55 13.98,-2.16 13.59,-1.48 13.19,-0.81 12.78,0.46 12.36,1.73 11.88,3.17 11.39,4.61 11.11,6.25 10.82,7.90 10.83,7.99 10.83,8.08 10.82,8.17 10.80,8.27 10.76,8.35 10.73,8.44 10.67,8.51 10.61,8.58 10.54,8.64 10.47,8.70 10.38,8.74 10.30,8.78 10.21,8.79 10.11,8.81 10.02,8.81 9.93,8.80 9.84,8.77 9.75,8.75 9.67,8.70 9.59,8.65 9.52,8.59 9.46,8.52 9.41,8.44 9.36,8.36 9.33,8.27 9.30,8.18 9.20,7.20 9.10,6.22 8.83,4.87 8.55,3.51 8.44,2.44 8.33,1.36 8.14,0.37 7.96,-0.62 7.63,-1.21 7.31,-1.80 6.51,-1.95 5.71,-2.09 5.23,-1.41 4.75,-0.73 4.11,0.44 3.48,1.62 2.91,3.50 2.34,5.38 1.95,7.89 1.56,10.40 1.59,12.01 1.62,13.61 1.61,14.42 1.59,15.22 1.58,15.33 1.57,15.43 1.54,15.53 1.50,15.63 1.44,15.72 1.38,15.81 1.30,15.88 1.23,15.95 1.13,16.00 1.04,16.05 0.94,16.07 0.84,16.10 0.73,16.10 0.62,16.10 0.52,16.08 0.42,16.05 0.33,16.01 0.23,15.96 0.15,15.89 0.07,15.82 0.01,15.73 -0.04,15.65 -0.08,15.55 -0.12,15.45 -0.13,15.35 -0.14,15.24 -0.13,15.18 -0.12,15.11 -0.08,14.46 -0.03,13.82 -0.05,12.79 -0.07,11.76 -0.13,10.33 -0.18,8.89 -0.30,7.00 -0.41,5.10 -0.65,2.59 -0.89,0.07 -0.89,-0.03 -0.89,-0.14 -0.86,-0.24 -0.83,-0.35 -0.77,-0.44 -0.72,-0.53 -0.64,-0.61 -0.57,-0.69 -0.48,-0.75 -0.38,-0.81 -0.28,-0.84 -0.18,-0.88 -0.07,-0.89 0.03,-0.90 0.14,-0.88 0.24,-0.86 0.34,-0.82 0.44,-0.78 0.53,-0.71 0.62,-0.65 0.69,-0.56 0.76,-0.48 0.80,-0.38 0.85,-0.28 0.87,-0.18 0.89,-0.07 0.89,-0.07 L 0.89,-0.07 Z"/></g><g transform="translate(123.420166015625 162.85617065429688) rotate(0 -2.92120361328125 8.7635498046875)" stroke="none"><path fill="#1e1e1e" d="M 0.72,0.60 Q 0.72,0.60 -0.34,1.83 -1.42,3.05 -1.81,4.25 -2.21,5.45 -1.99,6.27 -1.76,7.09 -1.29,8.07 -0.82,9.06 -0.22,9.88 0.37,10.71 0.69,11.82 1.02,12.94 1.16,13.89 1.31,14.84 0.92,15.64 0.54,16.44 -0.11,17.03 -0.77,17.61 -1.58,17.91 -2.39,18.21 -3.53,18.24 -4.68,18.28 -6.06,16.14 -7.43,13.99 -7.45,13.82 -7.47,13.65 -7.44,13.48 -7.40,13.31 -7.31,13.16 -7.23,13.01 -7.10,12.90 -6.97,12.79 -6.81,12.72 -6.65,12.66 -6.47,12.65 -6.30,12.63 -6.14,12.68 -5.97,12.72 -5.83,12.82 -5.68,12.91 -5.58,13.05 -5.47,13.19 -5.41,13.35 -5.36,13.51 -5.36,13.69 -5.35,13.86 -5.41,14.02 -5.46,14.19 -5.56,14.32 -5.67,14.46 -5.81,14.56 -5.95,14.66 -6.12,14.71 -6.28,14.75 -6.46,14.75 -6.63,14.74 -6.79,14.68 -6.95,14.61 -7.08,14.50 -7.21,14.39 -7.30,14.25 -7.39,14.10 -7.43,13.93 -7.47,13.76 -7.45,13.59 -7.44,13.42 -7.37,13.26 -7.30,13.10 -7.18,12.98 -7.06,12.85 -6.91,12.77 -6.76,12.69 -6.59,12.66 -6.42,12.63 -6.25,12.66 -6.08,12.68 -5.92,12.76 -5.77,12.84 -5.65,12.96 -5.53,13.09 -5.46,13.24 -5.38,13.40 -5.38,13.40 -5.38,13.40 -4.84,14.96 -4.30,16.52 -3.09,16.31 -1.89,16.10 -1.04,15.44 -0.19,14.79 -0.27,14.05 -0.36,13.31 -0.58,12.43 -0.80,11.54 -1.48,10.63 -2.16,9.72 -2.73,8.59 -3.29,7.45 -3.53,6.26 -3.76,5.08 -3.27,3.53 -2.77,1.98 -1.75,0.68 -0.72,-0.60 -0.64,-0.68 -0.56,-0.76 -0.46,-0.81 -0.36,-0.87 -0.25,-0.90 -0.14,-0.93 -0.02,-0.93 0.08,-0.94 0.19,-0.91 0.30,-0.89 0.41,-0.84 0.51,-0.79 0.60,-0.72 0.68,-0.64 0.75,-0.55 0.82,-0.46 0.86,-0.35 0.91,-0.25 0.92,-0.14 0.94,-0.02 0.93,0.08 0.92,0.19 0.88,0.30 0.85,0.41 0.78,0.51 0.72,0.60 0.72,0.60 L 0.72,0.60 Z"/></g><g transform="translate(141.67755126953125 142.40786743164062) rotate(0 0 7.3029632568359375)" stroke="none"><path fill="#1e1e1e" d="M 0.92,0 Q 0.92,0 0.88,1.25 0.84,2.51 0.82,4.31 0.79,6.10 0.78,9.59 0.77,13.07 0.75,13.19 0.73,13.31 0.67,13.42 0.61,13.53 0.52,13.62 0.43,13.70 0.31,13.76 0.20,13.81 0.08,13.82 -0.04,13.84 -0.16,13.81 -0.28,13.78 -0.39,13.72 -0.49,13.65 -0.58,13.56 -0.66,13.46 -0.70,13.35 -0.75,13.23 -0.75,13.11 -0.76,12.98 -0.73,12.86 -0.69,12.74 -0.62,12.64 -0.55,12.54 -0.46,12.46 -0.36,12.38 -0.24,12.35 -0.12,12.31 0.00,12.31 0.12,12.31 0.24,12.35 0.36,12.39 0.46,12.46 0.55,12.54 0.62,12.64 0.69,12.74 0.73,12.86 0.76,12.98 0.75,13.11 0.75,13.23 0.70,13.35 0.66,13.46 0.57,13.56 0.49,13.65 0.39,13.72 0.28,13.78 0.16,13.81 0.04,13.84 -0.08,13.82 -0.20,13.81 -0.31,13.76 -0.43,13.70 -0.52,13.62 -0.61,13.53 -0.67,13.42 -0.73,13.31 -0.75,13.19 -0.77,13.07 -0.77,13.07 -0.77,13.07 -0.78,9.59 -0.79,6.10 -0.82,4.31 -0.84,2.51 -0.88,1.25 -0.92,0 -0.90,-0.11 -0.89,-0.22 -0.85,-0.32 -0.81,-0.42 -0.75,-0.51 -0.68,-0.61 -0.60,-0.68 -0.52,-0.75 -0.42,-0.80 -0.32,-0.86 -0.21,-0.88 -0.11,-0.91 0.00,-0.91 0.11,-0.91 0.21,-0.88 0.32,-0.86 0.42,-0.80 0.52,-0.75 0.60,-0.68 0.68,-0.61 0.75,-0.51 0.81,-0.42 0.85,-0.32 0.89,-0.22 0.90,-0.11 0.92,0.00 0.92,0.00 L 0.92,0 Z"/></g><g transform="translate(215.43756103515625 64.99639892578125) rotate(0 0.73028564453125 7.668121337890625)" stroke="none"><path fill="#1e1e1e" d="M 0.98,0 Q 0.98,0 0.93,2.09 0.89,4.19 1.07,5.88 1.24,7.56 1.31,8.95 1.38,10.34 1.82,12.54 2.26,14.75 2.26,14.89 2.25,15.03 2.21,15.17 2.16,15.30 2.07,15.41 1.98,15.52 1.86,15.60 1.74,15.68 1.61,15.72 1.47,15.75 1.33,15.74 1.18,15.73 1.05,15.68 0.92,15.62 0.82,15.53 0.71,15.43 0.64,15.31 0.57,15.19 0.54,15.05 0.51,14.91 0.53,14.77 0.55,14.63 0.61,14.50 0.67,14.37 0.77,14.27 0.87,14.17 1.00,14.10 1.12,14.04 1.26,14.02 1.41,14.00 1.55,14.02 1.69,14.05 1.81,14.12 1.93,14.19 2.03,14.29 2.13,14.40 2.18,14.53 2.24,14.66 2.25,14.80 2.27,14.94 2.23,15.08 2.20,15.22 2.12,15.34 2.05,15.46 1.94,15.55 1.83,15.64 1.70,15.69 1.56,15.74 1.42,15.74 1.28,15.75 1.14,15.71 1.01,15.67 0.89,15.58 0.77,15.50 0.69,15.39 0.61,15.27 0.56,15.14 0.52,15.00 0.52,15.00 0.52,15.00 0.17,12.72 -0.18,10.44 -0.29,9.10 -0.40,7.76 -0.65,5.98 -0.89,4.19 -0.93,2.09 -0.98,0 -0.96,-0.11 -0.95,-0.23 -0.91,-0.34 -0.87,-0.45 -0.80,-0.55 -0.73,-0.65 -0.64,-0.73 -0.55,-0.80 -0.45,-0.86 -0.34,-0.91 -0.23,-0.94 -0.11,-0.97 0.00,-0.97 0.11,-0.97 0.23,-0.94 0.34,-0.91 0.45,-0.86 0.55,-0.80 0.64,-0.73 0.73,-0.65 0.80,-0.55 0.87,-0.45 0.91,-0.34 0.95,-0.23 0.96,-0.11 0.98,0.00 0.98,0.00 L 0.98,0 Z"/></g><g transform="translate(207.404296875 81.79324340820312) rotate(0 10.58929443359375 2.5560302734375)" stroke="none"><path fill="#1e1e1e" d="M 0.67,-0.54 Q 0.67,-0.54 1.49,0.52 2.31,1.59 3.08,2.69 3.85,3.79 4.54,4.40 5.22,5.00 5.86,5.18 6.50,5.36 7.15,5.42 7.81,5.49 8.60,5.34 9.40,5.19 10.75,4.56 12.10,3.93 13.52,3.05 14.95,2.16 16.20,1.37 17.46,0.57 18.75,-0.53 20.03,-1.65 20.16,-1.72 20.28,-1.79 20.41,-1.81 20.55,-1.84 20.69,-1.82 20.83,-1.80 20.95,-1.74 21.08,-1.68 21.18,-1.58 21.28,-1.48 21.34,-1.35 21.40,-1.23 21.42,-1.09 21.44,-0.95 21.41,-0.81 21.39,-0.68 21.32,-0.56 21.25,-0.43 21.15,-0.34 21.04,-0.25 20.91,-0.19 20.79,-0.14 20.65,-0.12 20.51,-0.11 20.37,-0.15 20.24,-0.18 20.12,-0.26 20.00,-0.33 19.91,-0.44 19.82,-0.55 19.78,-0.68 19.73,-0.81 19.72,-0.95 19.72,-1.09 19.76,-1.22 19.80,-1.36 19.88,-1.47 19.96,-1.59 20.08,-1.67 20.19,-1.75 20.33,-1.79 20.46,-1.83 20.60,-1.83 20.74,-1.82 20.87,-1.78 21.00,-1.73 21.11,-1.64 21.22,-1.55 21.29,-1.43 21.37,-1.32 21.40,-1.18 21.44,-1.05 21.43,-0.91 21.42,-0.77 21.36,-0.64 21.31,-0.51 21.21,-0.41 21.12,-0.30 21.12,-0.30 21.12,-0.30 19.70,0.76 18.28,1.83 17.03,2.66 15.79,3.49 14.30,4.46 12.82,5.43 11.27,6.19 9.72,6.95 8.63,7.12 7.54,7.29 6.72,7.11 5.91,6.94 5.07,6.55 4.23,6.16 3.42,5.43 2.61,4.70 1.82,3.65 1.04,2.60 0.18,1.57 -0.67,0.54 -0.73,0.45 -0.79,0.36 -0.82,0.26 -0.85,0.16 -0.86,0.06 -0.86,-0.04 -0.85,-0.14 -0.83,-0.25 -0.79,-0.34 -0.74,-0.44 -0.68,-0.52 -0.62,-0.60 -0.53,-0.67 -0.45,-0.74 -0.36,-0.78 -0.26,-0.82 -0.16,-0.84 -0.06,-0.86 0.04,-0.86 0.14,-0.85 0.24,-0.82 0.34,-0.79 0.43,-0.74 0.53,-0.69 0.60,-0.61 0.67,-0.54 0.67,-0.54 L 0.67,-0.54 Z"/></g><g transform="translate(195.71954345703125 113.92626953125) rotate(0 12.049896240234375 7.302978515625)" stroke="none"><path fill="#1e1e1e" d="M 0.87,-0.29 Q 0.87,-0.29 1.26,0.97 1.64,2.24 2.01,3.65 2.38,5.05 2.54,6.97 2.70,8.89 2.76,10.53 2.81,12.17 2.83,13.50 2.85,14.82 2.91,15.60 2.97,16.37 3.00,16.49 3.03,16.60 3.02,16.71 3.01,16.81 2.97,16.90 2.94,17.00 2.88,17.09 2.82,17.17 2.75,17.24 2.67,17.31 2.58,17.36 2.49,17.41 2.39,17.43 2.29,17.46 2.19,17.46 2.09,17.46 1.99,17.44 1.89,17.42 1.80,17.37 1.71,17.32 1.63,17.26 1.55,17.19 1.49,17.11 1.43,17.02 1.39,16.93 1.36,16.83 1.34,16.73 1.33,16.63 1.04,14.99 0.75,13.35 0.74,12.02 0.73,10.69 1.37,8.55 2.02,6.42 2.74,5.08 3.46,3.74 4.20,2.73 4.95,1.73 5.46,1.06 5.97,0.38 6.72,-0.02 7.48,-0.42 8.22,-0.55 8.95,-0.68 9.83,-0.03 10.71,0.62 11.25,1.63 11.80,2.64 12.20,3.70 12.60,4.76 12.96,5.84 13.33,6.92 13.53,7.57 13.74,8.21 13.76,8.31 13.79,8.42 13.79,8.53 13.79,8.63 13.76,8.74 13.73,8.84 13.68,8.94 13.63,9.03 13.56,9.11 13.48,9.19 13.39,9.25 13.30,9.31 13.20,9.35 13.10,9.39 12.99,9.40 12.89,9.41 12.78,9.40 12.67,9.38 12.57,9.34 12.47,9.30 12.38,9.24 12.30,9.18 12.23,9.10 12.16,9.01 12.11,8.92 12.06,8.82 12.39,7.33 12.73,5.85 13.06,4.53 13.40,3.22 13.76,2.02 14.12,0.82 14.48,-0.13 14.84,-1.09 15.22,-1.81 15.60,-2.52 16.35,-2.96 17.11,-3.40 18.04,-3.34 18.98,-3.28 19.71,-2.73 20.44,-2.18 20.95,-1.48 21.45,-0.78 21.86,0.20 22.26,1.19 22.61,2.48 22.96,3.77 23.10,4.99 23.24,6.21 23.92,8.19 24.61,10.16 24.69,10.29 24.77,10.41 24.80,10.55 24.84,10.69 24.82,10.84 24.81,10.99 24.75,11.12 24.70,11.26 24.60,11.37 24.50,11.48 24.37,11.55 24.24,11.62 24.10,11.65 23.95,11.67 23.81,11.65 23.66,11.63 23.53,11.57 23.40,11.50 23.30,11.40 23.19,11.29 23.13,11.16 23.06,11.03 23.04,10.89 23.02,10.74 23.05,10.60 23.08,10.45 23.15,10.32 23.22,10.20 23.33,10.10 23.44,10.00 23.58,9.94 23.71,9.88 23.86,9.87 24.01,9.86 24.15,9.90 24.29,9.93 24.42,10.01 24.54,10.09 24.63,10.21 24.72,10.32 24.77,10.46 24.82,10.60 24.83,10.74 24.83,10.89 24.79,11.03 24.74,11.17 24.66,11.29 24.57,11.41 24.45,11.50 24.33,11.58 24.19,11.62 24.05,11.67 23.91,11.66 23.76,11.66 23.62,11.61 23.48,11.56 23.37,11.46 23.25,11.37 23.25,11.37 23.25,11.37 22.41,8.91 21.56,6.45 21.38,5.38 21.20,4.30 20.80,3.15 20.40,2.00 20.03,1.21 19.66,0.42 19.07,-0.48 18.49,-1.39 17.70,-1.46 16.92,-1.53 16.57,-1.04 16.23,-0.55 15.88,0.33 15.53,1.22 15.21,2.40 14.88,3.57 14.59,4.88 14.30,6.19 14.02,7.20 13.74,8.21 13.76,8.31 13.79,8.42 13.79,8.53 13.79,8.63 13.76,8.74 13.73,8.84 13.68,8.94 13.63,9.03 13.56,9.11 13.48,9.19 13.39,9.25 13.30,9.31 13.20,9.35 13.10,9.39 12.99,9.40 12.89,9.41 12.78,9.40 12.67,9.38 12.57,9.34 12.47,9.30 12.38,9.24 12.30,9.18 12.23,9.10 12.16,9.01 12.11,8.92 12.06,8.82 11.94,8.15 11.82,7.47 11.41,6.44 11.01,5.41 10.58,4.47 10.16,3.52 9.75,2.78 9.34,2.03 8.75,1.62 8.15,1.20 7.63,1.32 7.12,1.44 6.60,2.01 6.09,2.57 5.41,3.49 4.74,4.42 4.10,5.64 3.46,6.86 2.88,8.77 2.30,10.67 2.36,11.95 2.42,13.22 2.52,14.19 2.61,15.16 2.82,15.88 3.03,16.60 3.02,16.71 3.01,16.81 2.97,16.90 2.94,17.00 2.88,17.09 2.82,17.17 2.75,17.24 2.67,17.31 2.58,17.36 2.49,17.41 2.39,17.43 2.29,17.46 2.19,17.46 2.09,17.46 1.99,17.44 1.89,17.42 1.80,17.37 1.71,17.32 1.63,17.26 1.55,17.19 1.49,17.11 1.43,17.02 1.39,16.93 1.36,16.83 1.34,16.73 1.33,16.63 1.35,16.51 1.36,16.40 1.40,15.63 1.43,14.86 1.39,13.54 1.35,12.23 1.27,10.63 1.18,9.02 1.01,7.25 0.84,5.48 0.43,4.13 0.03,2.78 -0.42,1.54 -0.87,0.29 -0.90,0.18 -0.92,0.07 -0.91,-0.03 -0.91,-0.14 -0.88,-0.25 -0.85,-0.36 -0.79,-0.45 -0.73,-0.55 -0.66,-0.63 -0.58,-0.71 -0.49,-0.77 -0.39,-0.83 -0.29,-0.87 -0.18,-0.90 -0.07,-0.91 0.03,-0.92 0.14,-0.90 0.25,-0.88 0.36,-0.84 0.46,-0.80 0.55,-0.73 0.64,-0.66 0.71,-0.58 0.78,-0.49 0.83,-0.39 0.87,-0.29 0.87,-0.29 L 0.87,-0.29 Z"/></g><g transform="translate(237.346435546875 109.54449462890625) rotate(0 -5.47723388671875 9.493865966796875)" stroke="none"><path fill="#1e1e1e" d="M 0.48,0.78 Q 0.48,0.78 -1.21,1.80 -2.90,2.81 -4.05,3.44 -5.20,4.07 -5.99,5.27 -6.79,6.46 -6.91,7.26 -7.04,8.05 -5.84,9.03 -4.65,10.01 -3.61,10.73 -2.58,11.46 -1.85,12.24 -1.12,13.02 -0.74,13.74 -0.35,14.47 -0.66,15.41 -0.97,16.35 -2.55,17.18 -4.13,18.01 -5.40,18.50 -6.67,18.99 -7.96,18.90 -9.25,18.81 -10.33,16.94 -11.40,15.06 -11.44,14.92 -11.49,14.78 -11.48,14.63 -11.48,14.48 -11.42,14.34 -11.37,14.20 -11.27,14.08 -11.18,13.96 -11.05,13.89 -10.92,13.81 -10.78,13.77 -10.63,13.74 -10.48,13.75 -10.33,13.76 -10.20,13.82 -10.06,13.88 -9.95,13.99 -9.84,14.09 -9.77,14.22 -9.69,14.35 -9.67,14.50 -9.64,14.64 -9.66,14.79 -9.68,14.94 -9.75,15.08 -9.82,15.21 -9.93,15.31 -10.03,15.42 -10.17,15.48 -10.30,15.55 -10.45,15.57 -10.60,15.59 -10.75,15.56 -10.90,15.53 -11.03,15.45 -11.15,15.38 -11.25,15.27 -11.35,15.15 -11.41,15.01 -11.47,14.88 -11.48,14.73 -11.49,14.58 -11.45,14.43 -11.41,14.29 -11.33,14.16 -11.25,14.04 -11.13,13.94 -11.02,13.85 -10.87,13.80 -10.73,13.75 -10.58,13.75 -10.43,13.74 -10.29,13.79 -10.15,13.83 -10.03,13.92 -9.91,14.01 -9.82,14.13 -9.73,14.26 -9.73,14.26 -9.73,14.26 -9.07,15.97 -8.41,17.68 -7.83,17.58 -7.24,17.48 -6.07,16.96 -4.91,16.45 -3.71,15.90 -2.51,15.34 -2.39,14.70 -2.27,14.05 -2.85,13.38 -3.44,12.71 -4.50,12.02 -5.56,11.32 -6.68,10.53 -7.80,9.73 -8.15,8.87 -8.50,8.01 -8.28,6.84 -8.06,5.66 -7.06,4.20 -6.05,2.74 -4.93,2.06 -3.80,1.37 -2.14,0.29 -0.48,-0.78 -0.38,-0.82 -0.28,-0.87 -0.17,-0.89 -0.06,-0.91 0.04,-0.91 0.15,-0.90 0.25,-0.87 0.36,-0.84 0.46,-0.78 0.55,-0.73 0.63,-0.65 0.71,-0.57 0.77,-0.48 0.83,-0.39 0.86,-0.28 0.90,-0.17 0.91,-0.06 0.91,0.04 0.90,0.15 0.88,0.26 0.83,0.36 0.79,0.46 0.72,0.55 0.66,0.64 0.57,0.71 0.48,0.78 0.48,0.78 L 0.48,0.78 Z"/></g><g transform="translate(251.22210693359375 93.47796630859375) rotate(0 1.825714111328125 5.47723388671875)" stroke="none"><path fill="#1e1e1e" d="M -0.46,-0.77 Q -0.46,-0.77 0.62,-1.38 1.71,-1.98 2.95,-2.00 4.20,-2.02 4.79,-1.32 5.38,-0.62 5.56,0.64 5.73,1.91 5.56,3.32 5.39,4.73 4.87,6.21 4.35,7.68 3.46,8.99 2.57,10.29 2.00,11.21 1.44,12.13 0.95,12.65 0.47,13.18 0.11,13.38 -0.24,13.59 -0.33,13.65 -0.43,13.72 -0.53,13.76 -0.64,13.80 -0.75,13.81 -0.86,13.82 -0.97,13.81 -1.09,13.80 -1.19,13.76 -1.30,13.72 -1.39,13.65 -1.48,13.59 -1.56,13.51 -1.63,13.42 -1.68,13.32 -1.74,13.22 -1.76,13.11 -1.79,13.00 -1.79,12.89 -1.79,12.78 -1.76,12.67 -1.74,12.56 -1.68,12.46 -1.63,12.36 -1.56,12.27 -1.48,12.19 -0.91,12.30 -0.35,12.41 1.93,12.26 4.21,12.10 4.37,12.13 4.54,12.15 4.69,12.23 4.83,12.31 4.95,12.44 5.06,12.56 5.13,12.71 5.20,12.86 5.21,13.03 5.23,13.20 5.19,13.36 5.16,13.52 5.07,13.67 4.98,13.81 4.85,13.92 4.72,14.02 4.57,14.08 4.41,14.14 4.24,14.15 4.08,14.16 3.92,14.11 3.76,14.07 3.62,13.97 3.48,13.88 3.38,13.74 3.28,13.61 3.23,13.45 3.18,13.29 3.18,13.12 3.18,12.96 3.23,12.80 3.29,12.64 3.39,12.51 3.49,12.37 3.63,12.28 3.77,12.19 3.93,12.15 4.10,12.10 4.26,12.11 4.43,12.12 4.59,12.19 4.74,12.25 4.87,12.36 4.99,12.47 5.08,12.61 5.16,12.76 5.20,12.92 5.23,13.09 5.21,13.25 5.19,13.42 5.12,13.57 5.05,13.72 4.93,13.84 4.82,13.96 4.67,14.04 4.52,14.12 4.35,14.14 4.19,14.17 4.19,14.17 4.19,14.17 1.97,13.88 -0.24,13.59 -0.33,13.65 -0.43,13.72 -0.53,13.76 -0.64,13.80 -0.75,13.81 -0.86,13.82 -0.97,13.81 -1.09,13.80 -1.19,13.76 -1.30,13.72 -1.39,13.65 -1.48,13.59 -1.56,13.51 -1.63,13.42 -1.68,13.32 -1.74,13.22 -1.76,13.11 -1.79,13.00 -1.79,12.89 -1.79,12.78 -1.76,12.67 -1.74,12.56 -1.68,12.46 -1.63,12.36 -1.56,12.28 -1.48,12.19 -0.63,11.78 0.22,11.38 0.79,10.42 1.35,9.46 2.13,8.31 2.90,7.17 3.34,5.86 3.78,4.54 3.90,3.34 4.02,2.14 3.88,1.22 3.75,0.29 3.11,-0.11 2.48,-0.52 1.47,0.12 0.46,0.77 0.36,0.81 0.26,0.86 0.15,0.88 0.05,0.90 -0.05,0.89 -0.16,0.88 -0.26,0.85 -0.37,0.82 -0.46,0.76 -0.55,0.70 -0.63,0.63 -0.71,0.55 -0.76,0.46 -0.82,0.36 -0.85,0.26 -0.88,0.15 -0.89,0.05 -0.90,-0.05 -0.88,-0.16 -0.86,-0.27 -0.81,-0.37 -0.77,-0.46 -0.70,-0.55 -0.63,-0.64 -0.54,-0.70 -0.46,-0.77 -0.46,-0.77 L -0.46,-0.77 Z"/></g><g transform="translate(262.90679931640625 116.1171875) rotate(0 6.937835693359375 3.2863311767578125)" stroke="none"><path fill="#1e1e1e" d="M 0.38,-0.87 Q 0.38,-0.87 2.26,0.00 4.13,0.87 6.16,1.67 8.19,2.46 9.54,3.26 10.88,4.06 12.28,4.76 13.68,5.46 13.80,5.55 13.91,5.63 13.99,5.75 14.07,5.87 14.11,6.01 14.14,6.15 14.13,6.29 14.12,6.44 14.07,6.57 14.01,6.70 13.92,6.81 13.83,6.92 13.70,6.99 13.58,7.06 13.44,7.09 13.30,7.12 13.16,7.10 13.01,7.09 12.88,7.02 12.76,6.96 12.65,6.86 12.55,6.76 12.48,6.64 12.42,6.51 12.40,6.37 12.38,6.23 12.40,6.08 12.42,5.94 12.49,5.82 12.56,5.69 12.67,5.59 12.77,5.50 12.90,5.44 13.03,5.38 13.18,5.37 13.32,5.35 13.46,5.38 13.60,5.42 13.72,5.49 13.84,5.57 13.93,5.68 14.02,5.79 14.08,5.92 14.13,6.05 14.13,6.20 14.14,6.34 14.10,6.48 14.06,6.62 13.98,6.73 13.90,6.85 13.78,6.94 13.67,7.02 13.53,7.07 13.39,7.11 13.25,7.11 13.11,7.11 12.97,7.06 12.84,7.01 12.84,7.01 12.84,7.01 11.47,6.21 10.11,5.40 8.86,4.70 7.61,3.99 5.51,3.24 3.42,2.48 1.51,1.67 -0.38,0.87 -0.48,0.81 -0.58,0.75 -0.67,0.67 -0.75,0.59 -0.81,0.49 -0.87,0.39 -0.90,0.28 -0.94,0.17 -0.95,0.06 -0.95,-0.05 -0.93,-0.16 -0.91,-0.28 -0.87,-0.38 -0.82,-0.49 -0.75,-0.58 -0.68,-0.67 -0.59,-0.74 -0.50,-0.81 -0.39,-0.86 -0.28,-0.91 -0.17,-0.93 -0.06,-0.95 0.05,-0.95 0.16,-0.94 0.27,-0.91 0.38,-0.87 0.38,-0.87 L 0.38,-0.87 Z"/></g><g transform="translate(273.1309814453125 113.92626953125) rotate(0 -3.6514892578125 6.5726776123046875)" stroke="none"><path fill="#1e1e1e" d="M 0.79,0.53 Q 0.79,0.53 -0.49,2.39 -1.78,4.26 -2.75,5.87 -3.72,7.47 -4.34,8.76 -4.95,10.04 -5.58,11.47 -6.20,12.90 -6.29,13.02 -6.37,13.14 -6.48,13.22 -6.60,13.31 -6.73,13.35 -6.87,13.40 -7.01,13.40 -7.16,13.39 -7.29,13.35 -7.43,13.30 -7.54,13.21 -7.65,13.12 -7.73,13.00 -7.81,12.88 -7.85,12.74 -7.88,12.61 -7.87,12.46 -7.86,12.32 -7.81,12.19 -7.75,12.06 -7.66,11.95 -7.57,11.84 -7.44,11.77 -7.32,11.70 -7.18,11.67 -7.04,11.64 -6.90,11.65 -6.75,11.67 -6.62,11.73 -6.49,11.80 -6.39,11.90 -6.29,12.00 -6.22,12.12 -6.16,12.25 -6.14,12.39 -6.12,12.53 -6.14,12.68 -6.17,12.82 -6.24,12.94 -6.30,13.07 -6.41,13.16 -6.51,13.26 -6.65,13.32 -6.78,13.38 -6.92,13.39 -7.06,13.41 -7.20,13.37 -7.34,13.34 -7.46,13.26 -7.58,13.19 -7.68,13.08 -7.77,12.97 -7.82,12.83 -7.87,12.70 -7.87,12.56 -7.88,12.41 -7.84,12.28 -7.80,12.14 -7.80,12.14 -7.80,12.14 -7.08,10.76 -6.36,9.39 -5.75,8.02 -5.13,6.65 -4.19,4.97 -3.25,3.29 -2.02,1.37 -0.79,-0.53 -0.72,-0.62 -0.64,-0.70 -0.55,-0.77 -0.45,-0.84 -0.35,-0.88 -0.24,-0.92 -0.13,-0.94 -0.01,-0.95 0.09,-0.94 0.21,-0.93 0.32,-0.89 0.43,-0.85 0.52,-0.79 0.62,-0.72 0.70,-0.64 0.78,-0.55 0.83,-0.45 0.89,-0.35 0.92,-0.24 0.95,-0.13 0.95,-0.01 0.95,0.10 0.92,0.21 0.90,0.32 0.85,0.42 0.79,0.53 0.79,0.53 L 0.79,0.53 Z"/></g><g transform="translate(305.2640380859375 104.43243408203125) rotate(0 -7.302978515625 9.8590087890625)" stroke="none"><path fill="#1e1e1e" d="M 0.32,0.81 Q 0.32,0.81 -0.73,1.20 -1.79,1.59 -3.22,2.55 -4.65,3.51 -5.66,4.51 -6.67,5.51 -7.04,6.28 -7.41,7.04 -7.32,7.65 -7.24,8.25 -6.85,8.82 -6.47,9.38 -5.57,10.02 -4.68,10.66 -3.85,11.17 -3.03,11.68 -2.21,12.36 -1.38,13.05 -0.76,13.80 -0.13,14.55 0.15,15.70 0.44,16.84 0.09,17.72 -0.25,18.60 -1.41,19.20 -2.58,19.79 -3.95,20.00 -5.32,20.21 -6.73,20.28 -8.15,20.34 -10.88,19.83 -13.61,19.31 -13.74,19.26 -13.86,19.21 -13.97,19.13 -14.07,19.04 -14.14,18.93 -14.21,18.81 -14.24,18.68 -14.27,18.55 -14.26,18.41 -14.25,18.28 -14.19,18.16 -14.14,18.03 -14.05,17.94 -13.95,17.84 -13.84,17.77 -13.72,17.71 -13.58,17.68 -13.45,17.66 -13.32,17.68 -13.19,17.70 -13.07,17.76 -12.95,17.83 -12.85,17.92 -12.76,18.02 -12.70,18.14 -12.64,18.26 -12.63,18.40 -12.61,18.53 -12.64,18.66 -12.67,18.79 -12.73,18.91 -12.80,19.03 -12.90,19.11 -13.01,19.20 -13.13,19.25 -13.25,19.30 -13.39,19.31 -13.52,19.32 -13.65,19.29 -13.78,19.25 -13.90,19.18 -14.01,19.10 -14.09,19.00 -14.17,18.89 -14.22,18.76 -14.26,18.64 -14.26,18.50 -14.27,18.37 -14.22,18.24 -14.18,18.11 -14.10,18.00 -14.02,17.90 -13.91,17.82 -13.80,17.74 -13.67,17.70 -13.54,17.67 -13.41,17.67 -13.27,17.68 -13.27,17.68 -13.27,17.68 -10.75,18.26 -8.23,18.83 -6.90,18.73 -5.57,18.63 -4.43,18.44 -3.29,18.26 -2.21,17.59 -1.13,16.93 -1.29,16.23 -1.46,15.52 -1.92,14.89 -2.38,14.25 -3.13,13.65 -3.87,13.05 -4.75,12.51 -5.63,11.97 -6.78,11.13 -7.94,10.29 -8.41,9.34 -8.88,8.39 -8.83,7.41 -8.78,6.44 -8.25,5.46 -7.73,4.48 -6.63,3.36 -5.52,2.23 -3.96,1.15 -2.40,0.08 -1.36,-0.36 -0.32,-0.81 -0.22,-0.84 -0.12,-0.87 -0.01,-0.87 0.09,-0.87 0.19,-0.85 0.29,-0.82 0.39,-0.77 0.48,-0.73 0.56,-0.66 0.64,-0.59 0.70,-0.50 0.77,-0.42 0.80,-0.32 0.84,-0.22 0.86,-0.12 0.87,-0.01 0.86,0.08 0.85,0.19 0.82,0.29 0.78,0.39 0.72,0.48 0.66,0.57 0.58,0.64 0.51,0.71 0.41,0.76 0.32,0.81 0.32,0.81 L 0.32,0.81 Z"/></g><g transform="translate(235.15557861328125 143.86843872070312) rotate(0 1.095428466796875 5.112091064453125)" stroke="none"><path fill="#1e1e1e" d="M 0.99,0 Q 0.99,0 0.99,0.83 1.00,1.67 0.95,2.87 0.90,4.06 1.28,5.51 1.65,6.97 2.24,8.46 2.83,9.95 2.86,10.10 2.88,10.25 2.86,10.40 2.84,10.55 2.77,10.69 2.70,10.83 2.59,10.93 2.49,11.04 2.35,11.11 2.21,11.17 2.06,11.19 1.91,11.21 1.76,11.18 1.61,11.15 1.48,11.08 1.35,11.00 1.24,10.89 1.14,10.77 1.08,10.63 1.02,10.49 1.01,10.34 1.00,10.19 1.04,10.04 1.08,9.89 1.16,9.76 1.24,9.63 1.36,9.54 1.48,9.45 1.63,9.39 1.77,9.34 1.92,9.34 2.08,9.34 2.22,9.38 2.37,9.43 2.49,9.52 2.61,9.61 2.70,9.73 2.79,9.86 2.83,10.00 2.88,10.15 2.87,10.30 2.87,10.45 2.81,10.60 2.76,10.74 2.66,10.86 2.57,10.98 2.44,11.06 2.31,11.14 2.16,11.17 2.01,11.21 1.86,11.20 1.71,11.18 1.57,11.12 1.43,11.06 1.32,10.96 1.20,10.85 1.13,10.72 1.05,10.59 1.05,10.59 1.05,10.59 0.54,9.00 0.02,7.40 -0.44,5.74 -0.90,4.08 -0.95,2.88 -1.00,1.67 -0.99,0.83 -0.99,0 -0.97,-0.11 -0.96,-0.23 -0.92,-0.34 -0.87,-0.46 -0.81,-0.55 -0.74,-0.65 -0.65,-0.73 -0.56,-0.81 -0.45,-0.87 -0.35,-0.92 -0.23,-0.95 -0.11,-0.98 0.00,-0.98 0.11,-0.98 0.23,-0.95 0.35,-0.92 0.45,-0.87 0.56,-0.81 0.65,-0.73 0.74,-0.65 0.81,-0.55 0.87,-0.46 0.92,-0.34 0.96,-0.23 0.97,-0.11 0.99,0.00 0.99,0.00 L 0.99,0 Z"/></g><g transform="translate(227.122314453125 157.74407958984375) rotate(0 8.7635498046875 4.7469329833984375)" stroke="none"><path fill="#1e1e1e" d="M 0.70,-0.46 Q 0.70,-0.46 1.51,0.80 2.33,2.08 3.30,3.45 4.26,4.82 5.07,5.81 5.88,6.80 6.78,7.37 7.68,7.95 8.43,8.15 9.18,8.35 9.76,8.23 10.34,8.10 11.33,7.12 12.33,6.14 13.23,5.09 14.13,4.05 15.35,2.35 16.57,0.66 16.66,0.56 16.75,0.45 16.87,0.38 16.98,0.31 17.12,0.28 17.25,0.24 17.39,0.26 17.52,0.27 17.65,0.33 17.78,0.38 17.88,0.48 17.98,0.57 18.04,0.69 18.11,0.81 18.13,0.95 18.16,1.08 18.14,1.22 18.11,1.36 18.05,1.48 17.99,1.60 17.89,1.70 17.79,1.79 17.67,1.85 17.54,1.91 17.41,1.93 17.27,1.94 17.13,1.92 17.00,1.89 16.88,1.82 16.76,1.75 16.67,1.64 16.58,1.54 16.53,1.41 16.48,1.28 16.47,1.15 16.46,1.01 16.49,0.88 16.53,0.74 16.61,0.63 16.68,0.51 16.79,0.43 16.90,0.35 17.03,0.30 17.16,0.26 17.30,0.25 17.43,0.25 17.57,0.30 17.70,0.34 17.81,0.42 17.92,0.50 18.00,0.62 18.07,0.73 18.11,0.86 18.15,0.99 18.14,1.13 18.14,1.27 18.09,1.40 18.04,1.52 18.04,1.52 18.04,1.52 16.66,3.27 15.29,5.02 14.35,6.16 13.41,7.30 12.07,8.50 10.73,9.70 9.75,9.76 8.77,9.82 7.85,9.48 6.92,9.15 5.85,8.45 4.78,7.75 3.91,6.73 3.04,5.71 2.03,4.33 1.02,2.95 0.16,1.71 -0.70,0.46 -0.74,0.37 -0.79,0.28 -0.81,0.18 -0.83,0.08 -0.83,-0.01 -0.83,-0.11 -0.80,-0.21 -0.78,-0.31 -0.73,-0.40 -0.68,-0.48 -0.61,-0.56 -0.54,-0.63 -0.46,-0.69 -0.37,-0.75 -0.28,-0.78 -0.18,-0.82 -0.08,-0.83 0.01,-0.84 0.11,-0.82 0.21,-0.81 0.30,-0.77 0.40,-0.73 0.48,-0.68 0.56,-0.62 0.63,-0.54 0.70,-0.46 0.70,-0.46 L 0.70,-0.46 Z"/></g><g transform="translate(193.52862548828125 182.57418823242188) rotate(0 12.049896240234375 4.0166168212890625)" stroke="none"><path fill="#1e1e1e" d="M 0.84,-0.28 Q 0.84,-0.28 1.23,0.99 1.62,2.26 1.79,3.93 1.97,5.60 2.03,7.35 2.09,9.10 2.14,10.04 2.18,10.99 2.23,11.18 2.28,11.37 2.27,11.47 2.26,11.57 2.23,11.67 2.20,11.76 2.14,11.85 2.09,11.94 2.01,12.01 1.94,12.08 1.85,12.13 1.76,12.18 1.66,12.20 1.57,12.23 1.46,12.24 1.36,12.24 1.26,12.22 1.16,12.20 1.07,12.15 0.98,12.11 0.90,12.04 0.82,11.98 0.76,11.90 0.70,11.82 0.66,11.72 0.62,11.63 0.61,11.53 0.59,11.43 0.31,8.95 0.04,6.48 0.89,4.27 1.74,2.05 2.32,0.92 2.91,-0.20 4.09,-1.19 5.27,-2.17 6.47,-2.60 7.67,-3.03 8.94,-2.96 10.21,-2.90 11.07,-2.19 11.94,-1.47 12.50,-0.24 13.06,0.98 13.29,2.38 13.52,3.78 13.62,4.78 13.73,5.79 13.81,5.99 13.88,6.19 13.88,6.29 13.88,6.38 13.85,6.48 13.83,6.57 13.78,6.65 13.73,6.74 13.66,6.81 13.60,6.88 13.52,6.93 13.44,6.98 13.34,7.02 13.25,7.05 13.16,7.06 13.06,7.06 12.96,7.05 12.87,7.04 12.78,7.00 12.69,6.96 12.61,6.90 12.53,6.85 12.47,6.77 12.41,6.70 12.37,6.61 12.33,6.53 12.31,6.43 12.29,6.34 12.28,5.74 12.27,5.15 12.52,4.02 12.77,2.88 13.32,1.33 13.86,-0.21 14.55,-1.34 15.24,-2.47 16.24,-3.22 17.24,-3.98 18.19,-4.34 19.13,-4.70 20.14,-4.40 21.15,-4.10 21.85,-3.20 22.56,-2.31 22.82,-0.99 23.09,0.32 23.17,1.70 23.25,3.08 23.28,4.29 23.31,5.50 23.80,6.73 24.29,7.96 24.39,8.04 24.49,8.12 24.56,8.23 24.63,8.33 24.66,8.46 24.69,8.58 24.68,8.71 24.68,8.84 24.63,8.96 24.58,9.07 24.49,9.17 24.41,9.27 24.29,9.33 24.18,9.39 24.06,9.42 23.93,9.44 23.81,9.43 23.68,9.41 23.56,9.36 23.45,9.30 23.36,9.21 23.27,9.12 23.21,9.01 23.15,8.89 23.13,8.76 23.11,8.64 23.14,8.51 23.16,8.39 23.22,8.27 23.28,8.16 23.38,8.08 23.47,7.99 23.59,7.94 23.71,7.89 23.84,7.87 23.96,7.86 24.09,7.89 24.21,7.92 24.32,7.99 24.43,8.06 24.51,8.16 24.59,8.26 24.64,8.38 24.68,8.50 24.69,8.63 24.69,8.75 24.65,8.88 24.62,9.00 24.54,9.10 24.47,9.21 24.37,9.28 24.26,9.36 24.14,9.40 24.02,9.44 23.89,9.43 23.76,9.43 23.64,9.39 23.52,9.35 23.52,9.35 23.52,9.35 22.68,7.45 21.84,5.55 21.79,4.37 21.73,3.19 21.62,1.91 21.51,0.62 21.32,-0.37 21.13,-1.38 20.77,-2.00 20.41,-2.62 19.89,-2.93 19.38,-3.23 18.72,-3.03 18.06,-2.82 17.26,-2.26 16.46,-1.69 15.87,-0.70 15.29,0.28 14.81,1.74 14.33,3.20 14.10,4.69 13.88,6.19 13.88,6.29 13.88,6.38 13.85,6.48 13.83,6.57 13.78,6.65 13.73,6.74 13.66,6.81 13.60,6.88 13.52,6.93 13.44,6.98 13.34,7.02 13.25,7.05 13.16,7.06 13.06,7.06 12.96,7.05 12.87,7.04 12.78,7.00 12.69,6.96 12.61,6.90 12.53,6.85 12.47,6.77 12.41,6.70 12.37,6.61 12.33,6.53 12.31,6.43 12.29,6.34 12.29,6.13 12.29,5.92 12.21,4.96 12.14,4.00 11.95,2.78 11.75,1.55 11.32,0.55 10.89,-0.45 10.41,-1.03 9.92,-1.62 9.01,-1.66 8.09,-1.69 7.12,-1.37 6.15,-1.05 5.18,-0.27 4.21,0.50 3.70,1.56 3.18,2.61 2.43,4.54 1.67,6.47 1.76,8.24 1.86,10.01 2.07,10.69 2.28,11.37 2.27,11.47 2.26,11.57 2.23,11.67 2.20,11.76 2.14,11.85 2.09,11.94 2.01,12.01 1.94,12.08 1.85,12.13 1.76,12.18 1.66,12.20 1.57,12.23 1.46,12.24 1.36,12.24 1.26,12.22 1.16,12.20 1.07,12.15 0.98,12.11 0.90,12.04 0.82,11.98 0.76,11.90 0.70,11.82 0.66,11.72 0.62,11.63 0.61,11.53 0.59,11.43 0.61,11.24 0.63,11.04 0.62,10.10 0.60,9.16 0.51,7.47 0.42,5.77 0.23,4.27 0.05,2.77 -0.39,1.52 -0.84,0.28 -0.86,0.17 -0.88,0.07 -0.87,-0.03 -0.87,-0.14 -0.84,-0.24 -0.81,-0.34 -0.76,-0.44 -0.70,-0.53 -0.63,-0.60 -0.56,-0.68 -0.46,-0.74 -0.37,-0.80 -0.27,-0.83 -0.17,-0.86 -0.07,-0.87 0.03,-0.88 0.14,-0.86 0.24,-0.85 0.34,-0.80 0.44,-0.76 0.52,-0.70 0.61,-0.63 0.68,-0.55 0.74,-0.47 0.79,-0.37 0.84,-0.28 0.84,-0.28 L 0.84,-0.28 Z"/></g><g transform="translate(235.15557861328125 177.46209716796875) rotate(0 -5.47723388671875 9.128707885742188)" stroke="none"><path fill="#1e1e1e" d="M 0.59,0.76 Q 0.59,0.76 -1.31,2.20 -3.23,3.64 -3.99,4.37 -4.75,5.10 -4.43,5.89 -4.11,6.69 -3.56,7.57 -3.02,8.45 -2.38,9.46 -1.74,10.48 -1.24,11.34 -0.73,12.21 -0.46,13.10 -0.18,13.98 -0.30,14.98 -0.43,15.97 -1.48,16.91 -2.53,17.84 -3.68,18.20 -4.84,18.56 -6.20,18.69 -7.57,18.82 -8.79,18.31 -10.00,17.81 -10.19,15.92 -10.39,14.02 -10.33,13.90 -10.28,13.77 -10.19,13.67 -10.10,13.57 -9.99,13.50 -9.87,13.43 -9.74,13.40 -9.60,13.37 -9.47,13.39 -9.33,13.41 -9.21,13.46 -9.09,13.52 -8.99,13.62 -8.89,13.71 -8.83,13.83 -8.77,13.95 -8.75,14.09 -8.73,14.22 -8.75,14.36 -8.78,14.49 -8.84,14.61 -8.91,14.73 -9.00,14.82 -9.10,14.91 -9.23,14.97 -9.35,15.02 -9.49,15.04 -9.62,15.05 -9.76,15.02 -9.89,14.99 -10.00,14.92 -10.12,14.85 -10.21,14.74 -10.29,14.64 -10.34,14.51 -10.39,14.38 -10.40,14.25 -10.40,14.11 -10.36,13.98 -10.33,13.85 -10.25,13.74 -10.17,13.63 -10.06,13.55 -9.95,13.47 -9.82,13.42 -9.69,13.38 -9.56,13.38 -9.42,13.38 -9.29,13.43 -9.17,13.47 -9.06,13.56 -8.95,13.64 -8.88,13.75 -8.80,13.87 -8.77,14.00 -8.73,14.13 -8.74,14.27 -8.75,14.40 -8.75,14.40 -8.75,14.40 -8.91,15.62 -9.06,16.84 -8.36,17.07 -7.66,17.29 -6.49,17.15 -5.32,17.01 -4.45,16.75 -3.59,16.48 -2.74,15.43 -1.89,14.38 -2.03,13.71 -2.17,13.04 -2.65,12.22 -3.13,11.40 -3.82,10.43 -4.51,9.45 -5.12,8.61 -5.72,7.77 -6.10,6.98 -6.48,6.18 -6.25,5.14 -6.01,4.11 -5.17,3.17 -4.32,2.23 -2.46,0.73 -0.59,-0.76 -0.49,-0.82 -0.39,-0.88 -0.28,-0.92 -0.17,-0.95 -0.05,-0.96 0.06,-0.97 0.17,-0.95 0.29,-0.92 0.39,-0.88 0.50,-0.83 0.59,-0.75 0.69,-0.68 0.76,-0.59 0.83,-0.50 0.88,-0.39 0.93,-0.28 0.95,-0.17 0.97,-0.05 0.96,0.06 0.95,0.17 0.92,0.29 0.88,0.40 0.82,0.50 0.76,0.60 0.68,0.68 0.59,0.76 0.59,0.76 L 0.59,0.76 Z"/></g><g transform="translate(244.6494140625 174.54092407226562) rotate(0 6.20751953125 -0.7303009033203125)" stroke="none"><path fill="#1e1e1e" d="M -0.23,-0.94 Q -0.23,-0.94 0.60,-1.15 1.44,-1.36 2.72,-1.42 4.00,-1.48 5.09,-1.69 6.17,-1.90 8.72,-2.09 11.26,-2.29 11.41,-2.27 11.55,-2.26 11.68,-2.20 11.82,-2.14 11.92,-2.04 12.03,-1.94 12.10,-1.81 12.17,-1.68 12.19,-1.54 12.22,-1.39 12.19,-1.25 12.17,-1.11 12.10,-0.98 12.04,-0.85 11.93,-0.75 11.82,-0.65 11.69,-0.58 11.56,-0.52 11.42,-0.51 11.27,-0.49 11.13,-0.52 10.99,-0.55 10.86,-0.62 10.74,-0.70 10.64,-0.81 10.55,-0.92 10.49,-1.06 10.44,-1.19 10.43,-1.34 10.42,-1.48 10.46,-1.62 10.49,-1.76 10.58,-1.88 10.66,-2.01 10.77,-2.09 10.89,-2.18 11.03,-2.23 11.16,-2.28 11.31,-2.28 11.46,-2.28 11.59,-2.23 11.73,-2.19 11.85,-2.10 11.97,-2.01 12.05,-1.89 12.13,-1.77 12.17,-1.63 12.21,-1.49 12.20,-1.35 12.20,-1.20 12.14,-1.07 12.09,-0.93 12.00,-0.82 11.90,-0.71 11.78,-0.63 11.65,-0.55 11.51,-0.52 11.37,-0.49 11.37,-0.49 11.37,-0.49 8.94,-0.39 6.52,-0.28 5.33,0.00 4.14,0.28 3.02,0.40 1.91,0.52 1.07,0.73 0.23,0.94 0.11,0.95 0.00,0.97 -0.11,0.95 -0.22,0.94 -0.33,0.90 -0.44,0.86 -0.54,0.79 -0.64,0.72 -0.71,0.64 -0.79,0.55 -0.85,0.45 -0.90,0.34 -0.93,0.23 -0.96,0.12 -0.96,0.00 -0.96,-0.11 -0.93,-0.22 -0.90,-0.34 -0.85,-0.44 -0.80,-0.54 -0.72,-0.63 -0.64,-0.72 -0.54,-0.79 -0.45,-0.85 -0.34,-0.89 -0.23,-0.94 -0.23,-0.94 L -0.23,-0.94 Z"/></g><g transform="translate(241.90797424316406 101.03483581542969) rotate(0 -5.842376708984375 -0.7303009033203125)" stroke="none"><path fill="#1e1e1e" d="M -0.19,0.95 Q -0.19,0.95 -1.23,0.70 -2.27,0.45 -3.43,0.23 -4.59,0.00 -5.72,-0.20 -6.85,-0.41 -9.04,-0.48 -11.22,-0.55 -11.36,-0.58 -11.50,-0.61 -11.62,-0.69 -11.75,-0.76 -11.84,-0.86 -11.93,-0.97 -11.99,-1.10 -12.04,-1.24 -12.05,-1.38 -12.06,-1.52 -12.02,-1.66 -11.99,-1.80 -11.91,-1.91 -11.83,-2.03 -11.72,-2.12 -11.61,-2.21 -11.47,-2.25 -11.34,-2.30 -11.19,-2.30 -11.05,-2.30 -10.92,-2.26 -10.78,-2.22 -10.67,-2.13 -10.55,-2.05 -10.47,-1.93 -10.39,-1.81 -10.35,-1.68 -10.31,-1.54 -10.32,-1.40 -10.32,-1.25 -10.37,-1.12 -10.43,-0.99 -10.52,-0.88 -10.61,-0.77 -10.73,-0.69 -10.85,-0.62 -10.99,-0.59 -11.13,-0.56 -11.27,-0.57 -11.41,-0.58 -11.54,-0.64 -11.67,-0.70 -11.78,-0.80 -11.88,-0.89 -11.95,-1.02 -12.02,-1.14 -12.04,-1.28 -12.07,-1.42 -12.04,-1.57 -12.02,-1.71 -11.96,-1.83 -11.89,-1.96 -11.79,-2.06 -11.69,-2.16 -11.56,-2.22 -11.43,-2.28 -11.29,-2.30 -11.15,-2.31 -11.15,-2.31 -11.15,-2.31 -8.87,-2.13 -6.59,-1.95 -5.46,-1.78 -4.32,-1.62 -3.12,-1.45 -1.92,-1.29 -0.86,-1.12 0.19,-0.95 0.30,-0.92 0.41,-0.88 0.51,-0.82 0.61,-0.75 0.69,-0.67 0.77,-0.59 0.83,-0.48 0.89,-0.38 0.93,-0.27 0.96,-0.16 0.96,-0.04 0.97,0.07 0.95,0.19 0.92,0.30 0.87,0.41 0.82,0.51 0.75,0.61 0.67,0.70 0.58,0.77 0.49,0.84 0.38,0.89 0.27,0.93 0.15,0.95 0.04,0.97 -0.07,0.96 -0.19,0.95 -0.19,0.95 L -0.19,0.95 Z"/></g><g transform="translate(124.33018493652344 150.32986450195312) rotate(0 3.6514892578125 0.18257904052734375)" stroke="none"><path fill="#1e1e1e" d="M 0,-1.06 Q 0,-1.06 1.78,-1.01 3.56,-0.95 5.40,-0.82 7.24,-0.69 7.39,-0.62 7.54,-0.56 7.67,-0.45 7.79,-0.35 7.88,-0.20 7.96,-0.06 7.99,0.09 8.03,0.25 8.01,0.41 7.99,0.58 7.92,0.72 7.85,0.87 7.73,0.99 7.62,1.11 7.47,1.19 7.33,1.26 7.16,1.29 7.00,1.31 6.84,1.28 6.68,1.25 6.53,1.18 6.39,1.10 6.28,0.98 6.16,0.86 6.10,0.71 6.03,0.56 6.01,0.39 6.00,0.23 6.03,0.07 6.07,-0.08 6.16,-0.22 6.24,-0.36 6.37,-0.47 6.50,-0.57 6.65,-0.63 6.80,-0.69 6.97,-0.70 7.13,-0.71 7.29,-0.66 7.45,-0.61 7.58,-0.52 7.72,-0.43 7.82,-0.30 7.91,-0.16 7.97,-0.01 8.02,0.14 8.01,0.30 8.01,0.47 7.96,0.62 7.90,0.78 7.80,0.91 7.70,1.04 7.57,1.13 7.43,1.22 7.27,1.26 7.11,1.31 6.95,1.30 6.78,1.28 6.78,1.28 6.78,1.28 5.17,1.12 3.56,0.95 1.78,1.01 0,1.06 -0.12,1.05 -0.25,1.03 -0.37,0.98 -0.49,0.94 -0.60,0.87 -0.70,0.79 -0.79,0.70 -0.87,0.60 -0.93,0.49 -0.99,0.37 -1.02,0.25 -1.05,0.12 -1.05,-0.00 -1.05,-0.12 -1.02,-0.25 -0.99,-0.37 -0.93,-0.49 -0.87,-0.60 -0.79,-0.70 -0.70,-0.79 -0.60,-0.87 -0.49,-0.94 -0.37,-0.98 -0.25,-1.03 -0.12,-1.05 0.00,-1.06 0.00,-1.06 L 0,-1.06 Z"/></g><g transform="translate(262.7213897705078 160.91917419433594) rotate(0 -0.18255615234375 10.406723022460938)" stroke="none"><path fill="#1e1e1e" d="M 0.92,0.11 Q 0.92,0.11 0.83,0.95 0.74,1.79 0.67,2.74 0.61,3.69 0.59,4.62 0.56,5.56 0.53,6.58 0.49,7.61 0.46,8.67 0.43,9.74 0.52,10.89 0.60,12.05 0.64,13.09 0.68,14.14 0.73,15.01 0.77,15.87 0.83,16.56 0.88,17.24 0.71,18.68 0.54,20.11 0.53,20.22 0.52,20.33 0.48,20.43 0.45,20.54 0.38,20.63 0.32,20.72 0.24,20.79 0.16,20.87 0.06,20.92 -0.02,20.97 -0.13,21.00 -0.23,21.03 -0.34,21.03 -0.45,21.03 -0.56,21.00 -0.67,20.98 -0.77,20.93 -0.86,20.88 -0.95,20.81 -1.03,20.74 -1.09,20.65 -1.16,20.56 -1.20,20.45 -1.24,20.35 -1.25,20.24 -1.27,20.13 -1.25,20.03 -1.24,19.93 -1.19,19.79 -1.13,19.65 -1.04,19.54 -0.94,19.43 -0.82,19.35 -0.69,19.28 -0.55,19.25 -0.40,19.22 -0.26,19.23 -0.11,19.25 0.01,19.31 0.15,19.37 0.25,19.47 0.36,19.57 0.43,19.70 0.50,19.84 0.52,19.98 0.55,20.13 0.52,20.27 0.50,20.42 0.43,20.55 0.36,20.68 0.25,20.78 0.14,20.88 0.01,20.94 -0.11,21.00 -0.26,21.02 -0.41,21.03 -0.55,21.00 -0.69,20.97 -0.82,20.89 -0.95,20.82 -1.04,20.70 -1.14,20.59 -1.19,20.45 -1.24,20.32 -1.25,20.17 -1.26,20.02 -1.22,19.88 -1.18,19.74 -1.10,19.62 -1.01,19.50 -0.90,19.41 -0.78,19.32 -0.64,19.27 -0.50,19.23 -0.35,19.23 -0.21,19.23 -0.07,19.27 0.06,19.32 0.18,19.41 0.30,19.50 0.38,19.62 0.46,19.74 0.50,19.89 0.54,20.03 0.54,20.07 0.54,20.11 0.53,20.22 0.52,20.33 0.48,20.43 0.45,20.54 0.38,20.63 0.32,20.72 0.24,20.79 0.16,20.87 0.06,20.92 -0.02,20.97 -0.13,21.00 -0.23,21.03 -0.34,21.03 -0.45,21.03 -0.56,21.00 -0.67,20.98 -0.77,20.93 -0.86,20.88 -0.95,20.81 -1.03,20.74 -1.09,20.65 -1.16,20.56 -1.20,20.45 -1.24,20.35 -1.25,20.24 -1.27,20.13 -1.08,18.70 -0.90,17.26 -0.87,16.58 -0.83,15.91 -0.82,15.06 -0.81,14.21 -0.86,13.19 -0.91,12.18 -1.03,10.96 -1.15,9.73 -1.18,8.66 -1.20,7.59 -1.22,6.56 -1.23,5.52 -1.22,4.56 -1.21,3.61 -1.18,2.58 -1.15,1.56 -1.04,0.72 -0.92,-0.11 -0.90,-0.22 -0.87,-0.33 -0.82,-0.43 -0.76,-0.53 -0.69,-0.61 -0.61,-0.70 -0.52,-0.76 -0.43,-0.83 -0.32,-0.87 -0.22,-0.91 -0.10,-0.92 0.00,-0.93 0.11,-0.92 0.22,-0.90 0.33,-0.86 0.43,-0.82 0.53,-0.76 0.62,-0.69 0.69,-0.61 0.77,-0.52 0.82,-0.42 0.87,-0.32 0.90,-0.21 0.93,-0.10 0.92,0.00 0.92,0.11 0.92,0.11 L 0.92,0.11 Z"/></g></svg>