<svg version="1.1" xmlns="http://www.w3.org/2000/svg" viewBox="0 0 386.32696533203125 232.234375" width="386.32696533203125" height="232.234375" filter="invert(93%) hue-rotate(180deg)">
  <!-- svg-source:excalidraw -->
  
  <defs>
    <style class="style-fonts">
      @font-face {
        font-family: "Virgil";
        src: url("https://excalidraw.com/Virgil.woff2");
      }
      @font-face {
        font-family: "Cascadia";
        src: url("https://excalidraw.com/Cascadia.woff2");
      }
    </style>
    
  </defs>
  <g transform="translate(20.44830322265625 59.154052734375) rotate(0 -9.493865966796875 15.336212158203125)" stroke="none"><path fill="#1e1e1e" d="M 0,0.79 Q 0,0.79 -1.25,0.77 -2.51,0.75 -3.88,0.74 -5.25,0.72 -6.76,1.32 -8.27,1.91 -10.35,3.59 -12.42,5.27 -13.49,6.77 -14.56,8.28 -15.00,9.47 -15.44,10.66 -15.25,11.41 -15.05,12.16 -13.60,13.05 -12.15,13.94 -10.11,14.56 -8.06,15.17 -6.16,15.44 -4.25,15.71 -2.51,16.27 -0.78,16.83 0.09,17.65 0.97,18.46 0.91,19.99 0.84,21.52 -0.10,22.86 -1.06,24.21 -2.55,25.40 -4.04,26.60 -5.74,27.53 -7.45,28.46 -9.89,29.29 -12.34,30.11 -15.69,30.04 -19.04,29.96 -19.15,29.94 -19.26,29.92 -19.36,29.86 -19.46,29.80 -19.54,29.72 -19.61,29.63 -19.66,29.53 -19.70,29.42 -19.71,29.31 -19.72,29.19 -19.69,29.08 -19.66,28.97 -19.60,28.88 -19.54,28.78 -19.45,28.71 -19.36,28.64 -19.25,28.60 -19.14,28.56 -19.03,28.56 -18.91,28.56 -18.81,28.59 -18.70,28.62 -18.60,28.69 -18.51,28.76 -18.45,28.85 -18.38,28.95 -18.35,29.06 -18.31,29.17 -18.32,29.28 -18.32,29.39 -18.36,29.50 -18.40,29.61 -18.47,29.70 -18.55,29.79 -18.64,29.85 -18.74,29.91 -18.85,29.93 -18.96,29.96 -19.08,29.95 -19.19,29.94 -19.30,29.90 -19.40,29.85 -19.49,29.77 -19.57,29.70 -19.63,29.60 -19.68,29.50 -19.70,29.38 -19.72,29.27 -19.71,29.16 -19.69,29.04 -19.64,28.94 -19.59,28.84 -19.51,28.76 -19.42,28.68 -19.32,28.63 -19.22,28.58 -19.10,28.56 -18.99,28.55 -18.99,28.55 -18.99,28.55 -15.86,28.70 -12.74,28.84 -10.41,28.06 -8.09,27.28 -6.48,26.41 -4.88,25.53 -3.51,24.46 -2.15,23.38 -1.32,22.33 -0.49,21.29 -0.32,20.17 -0.15,19.05 -0.69,18.56 -1.23,18.08 -2.84,17.56 -4.44,17.05 -6.45,16.76 -8.46,16.48 -10.68,15.79 -12.90,15.10 -14.58,13.90 -16.25,12.70 -16.49,11.51 -16.72,10.31 -16.20,8.90 -15.68,7.49 -14.49,5.84 -13.30,4.19 -11.05,2.40 -8.80,0.60 -7.04,-0.06 -5.28,-0.72 -3.90,-0.74 -2.51,-0.75 -1.25,-0.77 0,-0.79 0.09,-0.78 0.18,-0.77 0.27,-0.73 0.36,-0.70 0.44,-0.64 0.52,-0.59 0.58,-0.52 0.65,-0.45 0.69,-0.36 0.74,-0.28 0.76,-0.18 0.78,-0.09 0.78,0.00 0.78,0.09 0.76,0.18 0.74,0.28 0.69,0.36 0.65,0.45 0.58,0.52 0.52,0.59 0.44,0.64 0.36,0.70 0.27,0.73 0.18,0.77 0.09,0.78 -0.00,0.79 -0.00,0.79 L 0,0.79 Z"/></g><g transform="translate(47.46929931640625 70.83877563476562) rotate(0 7.668121337890625 -0.7303009033203125)" stroke="none"><path fill="#1e1e1e" d="M -0.15,-0.91 Q -0.15,-0.91 1.11,-1.09 2.37,-1.26 3.79,-1.33 5.21,-1.39 6.82,-1.62 8.42,-1.84 11.29,-1.73 14.15,-1.62 14.28,-1.59 14.41,-1.56 14.52,-1.49 14.64,-1.42 14.72,-1.32 14.81,-1.22 14.86,-1.09 14.91,-0.97 14.92,-0.84 14.93,-0.70 14.89,-0.57 14.85,-0.44 14.78,-0.33 14.70,-0.22 14.60,-0.14 14.49,-0.06 14.36,-0.02 14.24,0.01 14.10,0.01 13.97,0.01 13.84,-0.02 13.72,-0.06 13.61,-0.14 13.50,-0.22 13.43,-0.33 13.35,-0.44 13.32,-0.57 13.28,-0.70 13.29,-0.83 13.30,-0.97 13.35,-1.09 13.39,-1.22 13.48,-1.32 13.57,-1.42 13.68,-1.49 13.80,-1.56 13.93,-1.59 14.06,-1.62 14.19,-1.60 14.32,-1.59 14.45,-1.53 14.57,-1.48 14.66,-1.38 14.76,-1.29 14.82,-1.17 14.89,-1.06 14.91,-0.92 14.93,-0.79 14.91,-0.66 14.89,-0.53 14.82,-0.41 14.76,-0.29 14.66,-0.20 14.57,-0.11 14.45,-0.05 14.32,0.00 14.19,0.01 14.06,0.02 14.06,0.02 14.06,0.02 11.35,-0.15 8.64,-0.34 6.98,-0.06 5.32,0.20 3.99,0.31 2.65,0.42 1.40,0.67 0.15,0.91 0.04,0.92 -0.07,0.92 -0.18,0.90 -0.29,0.88 -0.39,0.83 -0.49,0.78 -0.58,0.71 -0.66,0.64 -0.73,0.55 -0.80,0.46 -0.84,0.36 -0.89,0.26 -0.90,0.15 -0.92,0.04 -0.91,-0.07 -0.91,-0.18 -0.87,-0.28 -0.84,-0.39 -0.78,-0.48 -0.72,-0.58 -0.64,-0.66 -0.56,-0.74 -0.46,-0.79 -0.36,-0.85 -0.26,-0.88 -0.15,-0.91 -0.15,-0.91 L -0.15,-0.91 Z"/></g><g transform="translate(46.73895263671875 82.52352905273438) rotate(0 6.57269287109375 -0.3651580810546875)" stroke="none"><path fill="#1e1e1e" d="M -0.13,-0.96 Q -0.13,-0.96 1.33,-1.12 2.81,-1.29 4.74,-1.36 6.66,-1.42 9.31,-1.50 11.96,-1.59 12.10,-1.57 12.24,-1.55 12.37,-1.48 12.50,-1.42 12.60,-1.32 12.70,-1.21 12.77,-1.09 12.83,-0.96 12.85,-0.81 12.87,-0.67 12.84,-0.53 12.81,-0.39 12.74,-0.27 12.67,-0.14 12.56,-0.05 12.45,0.04 12.32,0.10 12.19,0.15 12.04,0.16 11.90,0.17 11.76,0.14 11.62,0.10 11.50,0.02 11.38,-0.04 11.29,-0.16 11.20,-0.27 11.15,-0.40 11.10,-0.54 11.10,-0.68 11.10,-0.83 11.14,-0.96 11.18,-1.10 11.27,-1.22 11.35,-1.33 11.47,-1.42 11.59,-1.50 11.73,-1.54 11.86,-1.58 12.01,-1.58 12.15,-1.57 12.29,-1.52 12.42,-1.47 12.53,-1.38 12.64,-1.29 12.72,-1.17 12.80,-1.05 12.83,-0.91 12.86,-0.77 12.85,-0.62 12.84,-0.48 12.78,-0.35 12.72,-0.22 12.63,-0.11 12.53,-0.01 12.40,0.05 12.28,0.12 12.14,0.15 12.00,0.18 12.00,0.18 12.00,0.18 9.37,0.20 6.74,0.22 4.90,0.34 3.06,0.45 1.60,0.71 0.13,0.96 0.02,0.96 -0.09,0.96 -0.21,0.94 -0.32,0.91 -0.43,0.86 -0.53,0.81 -0.62,0.73 -0.71,0.65 -0.78,0.56 -0.85,0.46 -0.89,0.36 -0.93,0.25 -0.95,0.13 -0.97,0.02 -0.95,-0.09 -0.94,-0.21 -0.90,-0.32 -0.86,-0.43 -0.80,-0.53 -0.74,-0.62 -0.65,-0.70 -0.56,-0.78 -0.46,-0.84 -0.36,-0.90 -0.25,-0.93 -0.13,-0.96 -0.13,-0.96 L -0.13,-0.96 Z"/></g><g transform="translate(84.71441650390625 61.344940185546875) rotate(0 8.39837646484375 10.58929443359375)" stroke="none"><path fill="#1e1e1e" d="M 0.74,0.24 Q 0.74,0.24 0.30,1.50 -0.13,2.75 -0.30,4.05 -0.48,5.36 -0.56,6.75 -0.64,8.15 -0.47,9.96 -0.30,11.77 0.16,13.12 0.63,14.46 1.43,15.61 2.22,16.77 3.14,17.43 4.05,18.09 5.27,18.80 6.50,19.51 7.58,19.79 8.65,20.07 9.45,19.96 10.25,19.84 11.16,19.43 12.07,19.02 12.83,18.26 13.59,17.51 14.54,16.16 15.50,14.82 16.10,13.44 16.70,12.07 16.95,11.09 17.21,10.11 17.31,9.09 17.42,8.07 17.48,7.04 17.53,6.00 16.96,5.06 16.39,4.13 15.13,2.98 13.87,1.84 13.80,1.74 13.72,1.63 13.68,1.51 13.65,1.39 13.65,1.26 13.65,1.13 13.70,1.01 13.74,0.89 13.82,0.79 13.90,0.69 14.01,0.62 14.11,0.56 14.24,0.52 14.36,0.49 14.49,0.50 14.62,0.51 14.74,0.56 14.85,0.61 14.95,0.70 15.04,0.78 15.11,0.89 15.17,1.01 15.19,1.13 15.22,1.26 15.20,1.38 15.19,1.51 15.13,1.62 15.07,1.74 14.98,1.83 14.89,1.92 14.78,1.98 14.66,2.04 14.54,2.05 14.41,2.07 14.28,2.05 14.16,2.02 14.05,1.96 13.94,1.90 13.85,1.80 13.76,1.71 13.71,1.59 13.66,1.47 13.65,1.35 13.64,1.22 13.67,1.09 13.70,0.97 13.77,0.86 13.84,0.75 13.94,0.67 14.04,0.59 14.16,0.55 14.28,0.50 14.41,0.50 14.53,0.50 14.66,0.53 14.78,0.57 14.88,0.65 14.99,0.72 14.99,0.72 14.99,0.72 16.26,2.09 17.54,3.47 18.18,4.71 18.83,5.96 18.79,7.09 18.75,8.22 18.63,9.33 18.50,10.45 18.22,11.53 17.94,12.61 17.27,14.11 16.61,15.60 15.58,17.05 14.55,18.50 13.61,19.40 12.66,20.29 11.53,20.78 10.40,21.28 9.37,21.32 8.34,21.36 7.09,21.01 5.84,20.67 4.54,19.92 3.25,19.16 2.19,18.36 1.12,17.55 0.24,16.23 -0.64,14.92 -1.16,13.42 -1.68,11.91 -1.86,10.00 -2.05,8.08 -1.98,6.62 -1.91,5.17 -1.73,3.73 -1.54,2.28 -1.14,1.01 -0.74,-0.24 -0.70,-0.33 -0.66,-0.41 -0.60,-0.49 -0.54,-0.56 -0.46,-0.61 -0.39,-0.67 -0.30,-0.71 -0.21,-0.75 -0.12,-0.76 -0.03,-0.78 0.06,-0.77 0.15,-0.76 0.24,-0.73 0.33,-0.70 0.41,-0.65 0.49,-0.60 0.55,-0.53 0.62,-0.46 0.67,-0.38 0.71,-0.30 0.74,-0.21 0.77,-0.12 0.77,-0.03 0.77,0.06 0.75,0.15 0.74,0.24 0.74,0.24 L 0.74,0.24 Z"/></g><g transform="translate(121.229248046875 33.5936279296875) rotate(0 8.398406982421875 20.448318481445312)" stroke="none"><path fill="#1e1e1e" d="M 0.81,0 Q 0.81,0 0.78,1.67 0.76,3.35 0.96,5.07 1.15,6.79 1.23,9.89 1.31,12.98 1.34,15.75 1.37,18.53 1.38,21.18 1.39,23.83 1.39,26.22 1.39,28.60 1.60,31.06 1.81,33.51 2.11,35.17 2.40,36.82 2.55,37.75 2.71,38.69 2.98,39.16 3.26,39.63 4.05,39.70 4.84,39.76 5.95,39.85 7.07,39.93 8.33,39.78 9.59,39.62 10.97,39.36 12.36,39.10 14.13,37.97 15.90,36.85 16.02,36.78 16.14,36.71 16.28,36.68 16.42,36.65 16.56,36.66 16.70,36.68 16.83,36.74 16.96,36.80 17.06,36.89 17.16,36.99 17.23,37.12 17.29,37.24 17.31,37.38 17.34,37.52 17.31,37.66 17.29,37.80 17.22,37.92 17.16,38.05 17.05,38.14 16.95,38.24 16.82,38.30 16.70,38.36 16.55,38.37 16.41,38.39 16.28,38.36 16.14,38.33 16.02,38.25 15.90,38.18 15.81,38.07 15.72,37.96 15.66,37.83 15.61,37.70 15.60,37.56 15.60,37.42 15.64,37.28 15.67,37.15 15.75,37.03 15.83,36.92 15.94,36.83 16.06,36.75 16.19,36.70 16.33,36.66 16.47,36.66 16.61,36.66 16.74,36.70 16.87,36.75 16.99,36.83 17.10,36.92 17.18,37.04 17.26,37.15 17.29,37.29 17.33,37.43 17.32,37.57 17.32,37.71 17.26,37.84 17.21,37.97 17.12,38.08 17.03,38.18 17.03,38.18 17.03,38.18 14.85,39.40 12.68,40.62 11.25,40.94 9.82,41.26 8.41,41.49 7.00,41.71 5.78,41.70 4.57,41.70 3.61,41.48 2.65,41.27 2.22,40.82 1.79,40.37 1.54,39.63 1.29,38.90 1.18,37.98 1.08,37.06 0.78,35.34 0.47,33.63 0.25,31.12 0.04,28.61 0.02,26.22 0.01,23.84 -0.00,21.19 -0.02,18.55 -0.07,15.79 -0.11,13.02 -0.21,9.99 -0.31,6.97 -0.54,5.16 -0.76,3.36 -0.78,1.68 -0.81,0 -0.79,-0.09 -0.78,-0.19 -0.75,-0.28 -0.71,-0.37 -0.66,-0.45 -0.60,-0.53 -0.53,-0.60 -0.46,-0.66 -0.37,-0.71 -0.28,-0.75 -0.19,-0.78 -0.09,-0.80 0.00,-0.80 0.09,-0.80 0.19,-0.78 0.28,-0.75 0.37,-0.71 0.46,-0.66 0.53,-0.60 0.60,-0.53 0.66,-0.45 0.71,-0.37 0.75,-0.28 0.78,-0.19 0.79,-0.09 0.81,0.00 0.81,0.00 L 0.81,0 Z"/></g><g transform="translate(116.84747314453125 60.6146240234375) rotate(0 6.93780517578125 -2.1909027099609375)" stroke="none"><path fill="#1e1e1e" d="M -0.46,-0.83 Q -0.46,-0.83 1.45,-1.85 3.36,-2.86 7.61,-3.81 11.87,-4.76 12.00,-4.77 12.13,-4.78 12.26,-4.74 12.39,-4.71 12.49,-4.63 12.60,-4.56 12.68,-4.45 12.76,-4.35 12.81,-4.23 12.85,-4.10 12.85,-3.97 12.85,-3.84 12.81,-3.71 12.77,-3.59 12.69,-3.48 12.61,-3.38 12.50,-3.30 12.39,-3.23 12.27,-3.19 12.14,-3.15 12.01,-3.16 11.88,-3.17 11.75,-3.22 11.63,-3.26 11.53,-3.35 11.43,-3.43 11.36,-3.55 11.29,-3.66 11.26,-3.79 11.23,-3.92 11.25,-4.05 11.26,-4.18 11.32,-4.30 11.37,-4.42 11.46,-4.51 11.55,-4.61 11.67,-4.67 11.78,-4.74 11.91,-4.76 12.04,-4.78 12.17,-4.76 12.30,-4.74 12.42,-4.68 12.54,-4.62 12.63,-4.52 12.72,-4.43 12.78,-4.31 12.83,-4.19 12.85,-4.06 12.86,-3.92 12.83,-3.80 12.81,-3.67 12.74,-3.55 12.67,-3.44 12.57,-3.35 12.47,-3.27 12.35,-3.22 12.23,-3.17 12.23,-3.17 12.23,-3.17 8.21,-2.25 4.19,-1.33 2.32,-0.24 0.46,0.83 0.35,0.87 0.25,0.92 0.13,0.93 0.02,0.95 -0.09,0.94 -0.20,0.93 -0.31,0.89 -0.42,0.85 -0.51,0.79 -0.61,0.72 -0.69,0.64 -0.77,0.56 -0.82,0.45 -0.88,0.35 -0.91,0.24 -0.94,0.13 -0.94,0.02 -0.94,-0.09 -0.92,-0.20 -0.89,-0.31 -0.84,-0.41 -0.79,-0.52 -0.72,-0.61 -0.64,-0.69 -0.55,-0.76 -0.46,-0.83 -0.46,-0.83 L -0.46,-0.83 Z"/></g><g transform="translate(172.35003662109375 62.805511474609375) rotate(0 9.858978271484375 -0.73028564453125)" stroke="none"><path fill="#1e1e1e" d="M -0.14,-0.89 Q -0.14,-0.89 1.11,-1.06 2.38,-1.24 3.96,-1.51 5.54,-1.79 7.31,-1.90 9.08,-2.02 11.09,-2.06 13.10,-2.10 15.80,-2.17 18.51,-2.25 18.64,-2.23 18.77,-2.21 18.89,-2.15 19.00,-2.09 19.09,-1.99 19.18,-1.90 19.24,-1.78 19.30,-1.67 19.31,-1.54 19.33,-1.41 19.30,-1.28 19.27,-1.15 19.21,-1.04 19.14,-0.93 19.04,-0.84 18.95,-0.76 18.82,-0.71 18.70,-0.66 18.57,-0.65 18.44,-0.64 18.32,-0.67 18.19,-0.71 18.08,-0.78 17.97,-0.85 17.89,-0.95 17.81,-1.06 17.77,-1.18 17.73,-1.30 17.73,-1.43 17.72,-1.56 17.77,-1.69 17.81,-1.81 17.88,-1.91 17.96,-2.02 18.07,-2.09 18.17,-2.17 18.30,-2.20 18.42,-2.24 18.56,-2.24 18.69,-2.23 18.81,-2.18 18.93,-2.14 19.03,-2.05 19.13,-1.97 19.20,-1.86 19.27,-1.75 19.30,-1.62 19.33,-1.49 19.31,-1.36 19.30,-1.23 19.25,-1.12 19.19,-1.00 19.11,-0.90 19.02,-0.81 18.90,-0.74 18.79,-0.68 18.66,-0.66 18.53,-0.64 18.53,-0.64 18.53,-0.64 15.83,-0.64 13.14,-0.65 11.16,-0.58 9.19,-0.52 7.51,-0.38 5.83,-0.24 4.24,0.08 2.65,0.40 1.40,0.64 0.14,0.89 0.03,0.89 -0.06,0.89 -0.17,0.87 -0.28,0.85 -0.38,0.81 -0.47,0.76 -0.56,0.69 -0.64,0.62 -0.71,0.54 -0.77,0.45 -0.82,0.35 -0.86,0.25 -0.88,0.14 -0.90,0.03 -0.89,-0.06 -0.88,-0.17 -0.85,-0.28 -0.81,-0.38 -0.75,-0.47 -0.70,-0.56 -0.62,-0.64 -0.54,-0.71 -0.45,-0.77 -0.35,-0.82 -0.25,-0.85 -0.14,-0.89 -0.14,-0.89 L -0.14,-0.89 Z"/></g><g transform="translate(178.92266845703125 51.851043701171875) rotate(0 1.82574462890625 8.398422241210938)" stroke="none"><path fill="#1e1e1e" d="M 0.94,-0.13 Q 0.94,-0.13 1.11,1.34 1.28,2.81 1.55,4.26 1.81,5.70 1.92,7.42 2.04,9.15 2.48,10.62 2.92,12.09 3.58,14.06 4.23,16.03 4.26,16.16 4.30,16.30 4.29,16.43 4.28,16.57 4.23,16.69 4.17,16.82 4.08,16.92 3.99,17.02 3.88,17.09 3.76,17.16 3.63,17.18 3.49,17.21 3.36,17.19 3.22,17.18 3.10,17.12 2.98,17.06 2.88,16.96 2.78,16.87 2.72,16.75 2.66,16.63 2.64,16.49 2.62,16.36 2.65,16.22 2.67,16.09 2.74,15.97 2.80,15.85 2.90,15.76 3.00,15.67 3.13,15.61 3.25,15.56 3.39,15.55 3.52,15.53 3.65,15.57 3.78,15.60 3.90,15.67 4.02,15.74 4.10,15.85 4.19,15.95 4.24,16.08 4.28,16.21 4.29,16.34 4.29,16.48 4.26,16.61 4.22,16.74 4.14,16.85 4.06,16.96 3.95,17.04 3.84,17.12 3.71,17.16 3.58,17.20 3.45,17.20 3.31,17.20 3.18,17.15 3.05,17.11 2.95,17.02 2.84,16.94 2.77,16.82 2.69,16.71 2.69,16.71 2.69,16.71 2.10,14.62 1.51,12.52 1.00,10.90 0.50,9.27 0.36,7.65 0.21,6.03 -0.11,4.54 -0.44,3.06 -0.69,1.59 -0.94,0.13 -0.94,0.01 -0.94,-0.09 -0.92,-0.20 -0.89,-0.31 -0.84,-0.42 -0.79,-0.52 -0.72,-0.61 -0.64,-0.70 -0.55,-0.76 -0.46,-0.83 -0.35,-0.87 -0.24,-0.92 -0.13,-0.93 -0.02,-0.95 0.09,-0.94 0.20,-0.93 0.31,-0.89 0.42,-0.85 0.52,-0.79 0.61,-0.72 0.69,-0.64 0.77,-0.55 0.82,-0.45 0.88,-0.35 0.91,-0.24 0.94,-0.13 0.94,-0.13 L 0.94,-0.13 Z"/></g><g transform="translate(216.89813232421875 11.684722900390625) rotate(0 0.365142822265625 10.589324951171875)" stroke="none"><path fill="#1e1e1e" d="M 0.97,-0.12 Q 0.97,-0.12 1.14,1.56 1.30,3.24 1.36,4.83 1.42,6.41 1.44,8.35 1.45,10.29 1.45,11.74 1.45,13.19 1.45,14.22 1.45,15.26 1.51,15.91 1.57,16.56 1.30,18.73 1.04,20.90 0.97,21.04 0.91,21.18 0.81,21.29 0.71,21.41 0.57,21.48 0.44,21.55 0.29,21.58 0.14,21.61 -0.00,21.59 -0.15,21.56 -0.28,21.49 -0.42,21.43 -0.53,21.32 -0.63,21.21 -0.70,21.07 -0.76,20.93 -0.78,20.78 -0.80,20.63 -0.77,20.48 -0.74,20.33 -0.67,20.20 -0.59,20.07 -0.48,19.97 -0.36,19.87 -0.22,19.81 -0.08,19.75 0.06,19.74 0.21,19.73 0.36,19.77 0.51,19.81 0.63,19.89 0.76,19.98 0.86,20.09 0.95,20.21 1.00,20.36 1.05,20.50 1.05,20.65 1.06,20.81 1.01,20.95 0.96,21.09 0.87,21.22 0.78,21.34 0.66,21.43 0.53,21.51 0.39,21.56 0.24,21.60 0.09,21.59 -0.05,21.59 -0.19,21.53 -0.34,21.48 -0.45,21.38 -0.57,21.29 -0.65,21.16 -0.73,21.03 -0.77,20.88 -0.80,20.73 -0.79,20.58 -0.77,20.43 -0.77,20.43 -0.77,20.43 -0.44,18.50 -0.11,16.57 -0.06,15.92 -0.01,15.27 -0.03,14.23 -0.04,13.20 -0.07,11.76 -0.10,10.32 -0.17,8.41 -0.23,6.51 -0.35,4.99 -0.46,3.47 -0.72,1.79 -0.97,0.12 -0.97,0.00 -0.97,-0.11 -0.94,-0.23 -0.92,-0.34 -0.86,-0.45 -0.81,-0.55 -0.73,-0.64 -0.65,-0.73 -0.55,-0.80 -0.45,-0.86 -0.34,-0.91 -0.23,-0.95 -0.12,-0.96 -0.00,-0.98 0.11,-0.96 0.23,-0.95 0.34,-0.91 0.45,-0.87 0.55,-0.80 0.64,-0.73 0.72,-0.64 0.80,-0.56 0.86,-0.45 0.91,-0.35 0.94,-0.23 0.97,-0.12 0.97,-0.12 L 0.97,-0.12 Z"/></g><g transform="translate(208.8648681640625 43.087493896484375) rotate(0 10.58929443359375 -0.73028564453125)" stroke="none"><path fill="#1e1e1e" d="M 0,-0.91 Q 0,-0.91 1.67,-0.87 3.35,-0.84 4.91,-0.81 6.46,-0.79 8.34,-0.98 10.22,-1.17 12.71,-1.45 15.21,-1.74 17.63,-1.97 20.05,-2.20 20.18,-2.19 20.32,-2.18 20.44,-2.12 20.56,-2.07 20.66,-1.98 20.76,-1.89 20.82,-1.77 20.89,-1.66 20.91,-1.52 20.94,-1.39 20.92,-1.26 20.90,-1.13 20.84,-1.01 20.78,-0.89 20.69,-0.79 20.59,-0.70 20.47,-0.64 20.35,-0.58 20.22,-0.57 20.08,-0.55 19.95,-0.57 19.82,-0.60 19.71,-0.67 19.59,-0.73 19.50,-0.83 19.41,-0.93 19.36,-1.06 19.31,-1.18 19.30,-1.31 19.29,-1.45 19.32,-1.58 19.35,-1.71 19.43,-1.82 19.50,-1.93 19.60,-2.02 19.71,-2.10 19.83,-2.14 19.96,-2.19 20.09,-2.19 20.23,-2.19 20.36,-2.15 20.48,-2.11 20.59,-2.04 20.70,-1.96 20.78,-1.85 20.86,-1.74 20.89,-1.61 20.93,-1.48 20.93,-1.35 20.92,-1.21 20.88,-1.09 20.83,-0.96 20.74,-0.86 20.66,-0.76 20.55,-0.68 20.43,-0.61 20.30,-0.58 20.17,-0.55 20.17,-0.55 20.17,-0.55 17.78,-0.42 15.38,-0.29 12.88,0.01 10.38,0.33 8.42,0.56 6.46,0.79 4.91,0.81 3.35,0.84 1.67,0.87 0,0.91 -0.10,0.90 -0.21,0.88 -0.32,0.84 -0.42,0.80 -0.51,0.74 -0.60,0.68 -0.67,0.60 -0.75,0.51 -0.80,0.42 -0.85,0.32 -0.88,0.21 -0.90,0.11 -0.90,-0.00 -0.90,-0.11 -0.88,-0.21 -0.85,-0.32 -0.80,-0.42 -0.75,-0.51 -0.67,-0.60 -0.60,-0.68 -0.51,-0.74 -0.42,-0.80 -0.32,-0.84 -0.21,-0.88 -0.10,-0.90 0.00,-0.91 0.00,-0.91 L 0,-0.91 Z"/></g><g transform="translate(212.516357421875 58.423736572265625) rotate(0 9.49383544921875 6.572662353515625)" stroke="none"><path fill="#1e1e1e" d="M -0.71,-0.47 Q -0.71,-0.47 -0.31,-1.12 0.07,-1.77 0.75,-2.53 1.43,-3.29 2.94,-3.67 4.45,-4.04 5.69,-4.15 6.93,-4.26 8.02,-4.07 9.10,-3.89 9.90,-3.09 10.70,-2.28 11.22,-0.80 11.74,0.67 11.93,2.16 12.13,3.65 12.00,5.17 11.86,6.69 11.58,7.98 11.30,9.26 10.74,10.49 10.17,11.72 9.27,12.91 8.37,14.09 7.54,14.83 6.71,15.57 5.87,15.96 5.04,16.35 4.53,16.73 4.02,17.12 3.91,17.14 3.81,17.17 3.71,17.17 3.60,17.17 3.50,17.15 3.39,17.12 3.30,17.07 3.21,17.02 3.13,16.95 3.05,16.89 2.99,16.80 2.92,16.71 2.89,16.61 2.85,16.51 2.83,16.41 2.82,16.30 2.83,16.20 2.85,16.09 2.88,15.99 2.92,15.90 2.98,15.81 3.04,15.72 3.12,15.65 3.20,15.58 3.29,15.53 3.38,15.48 4.35,15.43 5.32,15.38 6.46,15.14 7.60,14.90 9.81,14.60 12.01,14.29 14.85,14.06 17.68,13.84 17.82,13.85 17.96,13.86 18.09,13.92 18.21,13.97 18.31,14.07 18.42,14.16 18.48,14.28 18.55,14.40 18.57,14.54 18.60,14.67 18.58,14.81 18.56,14.95 18.50,15.07 18.43,15.19 18.33,15.29 18.24,15.39 18.11,15.45 17.99,15.51 17.85,15.52 17.71,15.54 17.58,15.51 17.44,15.49 17.32,15.42 17.20,15.35 17.11,15.24 17.02,15.14 16.97,15.01 16.91,14.88 16.90,14.75 16.89,14.61 16.93,14.48 16.96,14.34 17.04,14.23 17.12,14.11 17.22,14.03 17.33,13.94 17.46,13.89 17.59,13.85 17.73,13.85 17.87,13.84 18.00,13.88 18.13,13.93 18.24,14.01 18.36,14.09 18.44,14.20 18.51,14.32 18.55,14.45 18.59,14.58 18.59,14.72 18.58,14.86 18.53,14.99 18.48,15.12 18.40,15.22 18.31,15.33 18.19,15.40 18.07,15.48 17.94,15.51 17.80,15.54 17.80,15.54 17.80,15.54 15.03,15.71 12.25,15.88 10.12,16.22 8.00,16.57 6.85,16.88 5.70,17.19 4.86,17.15 4.02,17.12 3.91,17.14 3.81,17.17 3.71,17.17 3.60,17.17 3.50,17.15 3.39,17.12 3.30,17.07 3.21,17.02 3.13,16.95 3.05,16.89 2.99,16.80 2.92,16.71 2.89,16.61 2.85,16.51 2.83,16.41 2.82,16.30 2.83,16.20 2.85,16.09 2.88,15.99 2.92,15.90 2.98,15.81 3.04,15.72 3.12,15.65 3.20,15.58 3.29,15.53 3.38,15.48 3.93,15.19 4.48,14.91 5.15,14.72 5.83,14.52 6.56,13.89 7.29,13.26 8.10,12.20 8.92,11.14 9.42,10.05 9.92,8.96 10.16,7.76 10.41,6.57 10.53,5.21 10.64,3.85 10.44,2.52 10.24,1.18 9.83,-0.02 9.41,-1.23 9.01,-1.82 8.61,-2.40 7.85,-2.54 7.08,-2.67 5.95,-2.53 4.83,-2.39 3.73,-2.18 2.63,-1.97 2.12,-1.36 1.60,-0.74 1.15,-0.13 0.71,0.47 0.64,0.55 0.57,0.63 0.49,0.69 0.41,0.75 0.31,0.79 0.21,0.82 0.11,0.84 0.01,0.85 -0.08,0.84 -0.19,0.83 -0.28,0.80 -0.38,0.76 -0.47,0.70 -0.55,0.65 -0.62,0.57 -0.69,0.49 -0.74,0.40 -0.79,0.31 -0.82,0.21 -0.84,0.11 -0.85,0.01 -0.85,-0.08 -0.82,-0.19 -0.80,-0.29 -0.75,-0.38 -0.71,-0.47 -0.71,-0.47 L -0.71,-0.47 Z"/></g><g transform="translate(263.6370849609375 39.43603515625) rotate(0 -3.28631591796875 8.398391723632812)" stroke="none"><path fill="#1e1e1e" d="M 0.15,0.78 Q 0.15,0.78 -0.89,0.97 -1.94,1.16 -3.35,1.84 -4.77,2.52 -6.64,3.63 -8.51,4.75 -10.10,6.24 -11.69,7.73 -12.77,9.17 -13.85,10.61 -14.29,11.78 -14.72,12.95 -14.73,13.68 -14.74,14.41 -14.02,14.85 -13.31,15.28 -11.65,15.29 -9.99,15.29 -8.28,14.71 -6.57,14.12 -5.03,13.07 -3.50,12.01 -2.21,10.94 -0.92,9.87 -0.22,8.65 0.47,7.43 0.77,6.34 1.06,5.24 0.93,4.71 0.80,4.18 0.83,4.09 0.87,4.00 0.93,3.93 0.98,3.85 1.06,3.79 1.13,3.73 1.21,3.68 1.30,3.64 1.39,3.62 1.49,3.60 1.58,3.60 1.68,3.61 1.77,3.63 1.86,3.66 1.95,3.70 2.03,3.75 2.10,3.82 2.17,3.88 2.22,3.96 2.27,4.04 2.30,4.13 2.34,4.22 2.34,4.32 2.35,4.41 2.34,4.51 2.32,4.60 2.06,5.43 1.79,6.26 1.69,7.39 1.59,8.51 1.75,9.78 1.90,11.06 2.35,12.15 2.79,13.24 3.71,13.83 4.62,14.42 6.61,14.45 8.60,14.47 8.73,14.50 8.85,14.53 8.96,14.60 9.07,14.67 9.16,14.77 9.24,14.87 9.29,14.99 9.33,15.11 9.34,15.24 9.34,15.37 9.31,15.49 9.27,15.61 9.20,15.72 9.12,15.83 9.02,15.90 8.92,15.98 8.79,16.02 8.67,16.06 8.54,16.06 8.41,16.06 8.29,16.02 8.17,15.97 8.07,15.89 7.96,15.81 7.89,15.71 7.82,15.60 7.79,15.47 7.75,15.35 7.76,15.22 7.77,15.09 7.82,14.97 7.87,14.85 7.95,14.75 8.04,14.66 8.15,14.59 8.26,14.52 8.39,14.50 8.51,14.47 8.64,14.49 8.77,14.50 8.89,14.56 9.01,14.61 9.10,14.70 9.19,14.79 9.25,14.91 9.31,15.02 9.33,15.15 9.35,15.28 9.33,15.41 9.30,15.53 9.24,15.65 9.18,15.76 9.09,15.85 8.99,15.94 8.87,15.99 8.76,16.04 8.63,16.06 8.50,16.07 8.50,16.07 8.50,16.07 6.22,15.82 3.95,15.57 2.77,14.72 1.59,13.86 1.05,12.55 0.52,11.24 0.34,9.82 0.16,8.39 0.27,7.13 0.37,5.86 0.58,5.02 0.80,4.18 0.83,4.09 0.87,4.00 0.93,3.93 0.98,3.85 1.06,3.79 1.13,3.73 1.21,3.68 1.30,3.64 1.39,3.62 1.49,3.60 1.58,3.60 1.68,3.61 1.77,3.63 1.86,3.66 1.95,3.70 2.03,3.75 2.10,3.82 2.17,3.88 2.22,3.96 2.27,4.04 2.30,4.13 2.34,4.22 2.34,4.32 2.35,4.41 2.34,4.51 2.32,4.60 2.33,5.08 2.34,5.55 1.99,6.83 1.63,8.10 0.79,9.49 -0.04,10.89 -1.39,12.01 -2.73,13.13 -4.43,14.27 -6.12,15.42 -8.06,16.05 -10.01,16.68 -12.01,16.58 -14.01,16.48 -14.97,15.68 -15.94,14.88 -15.97,13.70 -16.00,12.51 -15.48,11.15 -14.96,9.80 -13.80,8.25 -12.65,6.71 -10.95,5.12 -9.25,3.54 -7.33,2.36 -5.41,1.19 -3.83,0.43 -2.25,-0.32 -1.20,-0.55 -0.15,-0.78 -0.06,-0.79 0.03,-0.80 0.13,-0.78 0.22,-0.77 0.31,-0.73 0.40,-0.69 0.48,-0.63 0.55,-0.57 0.62,-0.50 0.68,-0.42 0.72,-0.33 0.76,-0.25 0.78,-0.15 0.80,-0.06 0.79,0.03 0.79,0.13 0.76,0.22 0.73,0.31 0.68,0.40 0.64,0.48 0.57,0.55 0.50,0.62 0.42,0.67 0.34,0.72 0.24,0.75 0.15,0.78 0.15,0.78 L 0.15,0.78 Z"/></g><g transform="translate(291.38836669921875 13.145355224609375) rotate(0 1.460601806640625 20.083145141601562)" stroke="none"><path fill="#1e1e1e" d="M 0.79,0.22 Q 0.79,0.22 0.35,1.68 -0.09,3.15 -0.48,5.20 -0.88,7.26 -1.05,9.37 -1.22,11.48 -1.30,14.68 -1.38,17.88 -1.63,20.75 -1.87,23.61 -2.19,26.09 -2.51,28.57 -2.86,30.68 -3.20,32.79 -3.35,34.29 -3.49,35.78 -3.52,36.64 -3.54,37.49 -2.99,38.15 -2.43,38.81 -1.37,38.93 -0.31,39.04 0.81,39.13 1.94,39.23 4.15,38.28 6.36,37.33 6.51,37.29 6.66,37.26 6.82,37.27 6.97,37.29 7.11,37.35 7.25,37.41 7.37,37.51 7.48,37.62 7.56,37.75 7.63,37.89 7.66,38.04 7.69,38.19 7.66,38.34 7.64,38.49 7.57,38.63 7.50,38.77 7.39,38.88 7.28,38.99 7.14,39.05 7.01,39.12 6.85,39.14 6.70,39.16 6.55,39.13 6.40,39.10 6.26,39.02 6.13,38.95 6.03,38.83 5.93,38.71 5.87,38.57 5.81,38.43 5.80,38.28 5.78,38.12 5.82,37.97 5.86,37.82 5.95,37.70 6.03,37.57 6.15,37.47 6.27,37.38 6.42,37.32 6.56,37.27 6.72,37.27 6.87,37.27 7.02,37.31 7.16,37.36 7.29,37.45 7.41,37.54 7.50,37.67 7.59,37.79 7.63,37.94 7.68,38.09 7.67,38.24 7.67,38.40 7.61,38.54 7.56,38.68 7.46,38.80 7.36,38.92 7.23,39.00 7.10,39.09 7.10,39.09 7.10,39.09 4.50,40.01 1.90,40.93 0.70,40.91 -0.50,40.89 -1.96,40.73 -3.43,40.58 -4.05,40.13 -4.66,39.68 -4.91,39.19 -5.15,38.69 -5.09,38.04 -5.03,37.38 -4.93,36.52 -4.83,35.66 -4.68,34.11 -4.54,32.57 -4.20,30.48 -3.86,28.40 -3.56,25.94 -3.25,23.49 -3.02,20.67 -2.79,17.85 -2.72,14.61 -2.66,11.37 -2.50,9.18 -2.34,6.99 -1.96,4.85 -1.58,2.72 -1.19,1.24 -0.79,-0.22 -0.75,-0.31 -0.71,-0.40 -0.65,-0.48 -0.59,-0.56 -0.51,-0.63 -0.44,-0.69 -0.35,-0.73 -0.26,-0.78 -0.16,-0.80 -0.06,-0.82 0.03,-0.81 0.12,-0.81 0.22,-0.78 0.32,-0.75 0.40,-0.71 0.49,-0.66 0.56,-0.59 0.63,-0.52 0.69,-0.43 0.74,-0.35 0.77,-0.26 0.80,-0.16 0.81,-0.06 0.82,0.03 0.80,0.12 0.79,0.22 0.79,0.22 L 0.79,0.22 Z"/></g><g transform="translate(284.08538818359375 43.087493896484375) rotate(0 5.112091064453125 -0.73028564453125)" stroke="none"><path fill="#1e1e1e" d="M -0.21,-0.98 Q -0.21,-0.98 1.68,-1.36 3.58,-1.73 6.27,-2.01 8.96,-2.30 9.12,-2.29 9.27,-2.28 9.42,-2.22 9.56,-2.16 9.68,-2.06 9.79,-1.96 9.87,-1.82 9.95,-1.69 9.98,-1.54 10.01,-1.38 9.99,-1.23 9.98,-1.08 9.91,-0.94 9.84,-0.80 9.73,-0.68 9.63,-0.57 9.49,-0.50 9.35,-0.43 9.20,-0.41 9.04,-0.38 8.89,-0.41 8.74,-0.44 8.60,-0.51 8.47,-0.59 8.36,-0.70 8.25,-0.82 8.19,-0.96 8.13,-1.10 8.11,-1.25 8.10,-1.41 8.13,-1.56 8.17,-1.71 8.25,-1.84 8.33,-1.97 8.45,-2.07 8.57,-2.17 8.72,-2.23 8.86,-2.28 9.02,-2.29 9.17,-2.30 9.32,-2.25 9.47,-2.21 9.60,-2.12 9.72,-2.03 9.82,-1.91 9.91,-1.78 9.96,-1.63 10.00,-1.49 10.00,-1.33 10.00,-1.18 9.95,-1.03 9.90,-0.88 9.80,-0.76 9.71,-0.64 9.58,-0.55 9.45,-0.47 9.30,-0.43 9.15,-0.39 9.15,-0.39 9.15,-0.39 6.56,-0.16 3.97,0.05 2.09,0.52 0.21,0.98 0.09,0.99 -0.02,1.01 -0.14,0.99 -0.26,0.97 -0.37,0.93 -0.49,0.88 -0.58,0.81 -0.68,0.74 -0.76,0.64 -0.84,0.55 -0.89,0.44 -0.95,0.33 -0.98,0.21 -1.00,0.09 -1.00,-0.02 -1.00,-0.14 -0.96,-0.26 -0.93,-0.38 -0.87,-0.48 -0.81,-0.59 -0.73,-0.68 -0.65,-0.77 -0.55,-0.83 -0.44,-0.90 -0.33,-0.94 -0.21,-0.98 -0.21,-0.98 L -0.21,-0.98 Z"/></g><g transform="translate(304.53369140625 3.651458740234375) rotate(0 4.381805419921875 5.1121063232421875)" stroke="none"><path fill="#1e1e1e" d="M -0.92,-0.23 Q -0.92,-0.23 -0.70,-1.09 -0.48,-1.96 0.13,-2.74 0.76,-3.52 1.81,-3.89 2.85,-4.25 3.80,-4.36 4.74,-4.47 5.61,-3.98 6.48,-3.50 6.87,-2.47 7.26,-1.43 7.11,-0.08 6.96,1.27 6.66,2.85 6.35,4.43 5.76,5.61 5.17,6.80 4.48,7.90 3.80,9.01 2.83,9.96 1.85,10.91 0.80,11.72 -0.24,12.53 1.85,12.72 3.96,12.92 6.82,12.93 9.69,12.94 9.84,12.97 9.98,12.99 10.11,13.06 10.24,13.13 10.35,13.24 10.45,13.35 10.51,13.49 10.57,13.62 10.58,13.77 10.60,13.92 10.56,14.06 10.53,14.21 10.45,14.33 10.38,14.46 10.26,14.55 10.15,14.65 10.01,14.70 9.87,14.76 9.72,14.76 9.58,14.77 9.43,14.73 9.29,14.69 9.17,14.60 9.05,14.52 8.96,14.40 8.87,14.28 8.82,14.14 8.78,14.00 8.78,13.85 8.78,13.70 8.83,13.56 8.88,13.42 8.97,13.31 9.06,13.19 9.18,13.11 9.31,13.02 9.45,12.99 9.59,12.95 9.74,12.96 9.89,12.97 10.03,13.02 10.16,13.08 10.27,13.18 10.39,13.27 10.46,13.40 10.54,13.53 10.57,13.67 10.60,13.82 10.58,13.97 10.56,14.11 10.50,14.25 10.44,14.38 10.33,14.49 10.23,14.59 10.10,14.66 9.97,14.73 9.82,14.75 9.67,14.78 9.67,14.78 9.67,14.78 6.79,14.74 3.92,14.70 2.08,14.69 0.25,14.69 -0.94,14.11 -2.13,13.53 -1.63,12.46 -1.13,11.40 -0.16,10.62 0.81,9.84 1.64,9.03 2.48,8.21 3.08,7.14 3.69,6.07 4.16,5.10 4.62,4.12 4.83,2.60 5.04,1.09 5.12,0.09 5.19,-0.89 4.91,-1.71 4.63,-2.53 4.01,-2.43 3.40,-2.33 2.36,-1.86 1.32,-1.39 1.12,-0.58 0.92,0.23 0.88,0.33 0.84,0.44 0.77,0.53 0.71,0.63 0.62,0.71 0.53,0.78 0.43,0.83 0.33,0.89 0.22,0.91 0.11,0.94 -0.00,0.94 -0.11,0.94 -0.22,0.91 -0.34,0.88 -0.44,0.83 -0.54,0.78 -0.62,0.70 -0.71,0.62 -0.78,0.53 -0.84,0.43 -0.88,0.33 -0.92,0.22 -0.93,0.11 -0.95,-0.00 -0.93,-0.11 -0.92,-0.23 -0.92,-0.23 L -0.92,-0.23 Z"/></g><g transform="translate(233.6949462890625 1.4605712890625) rotate(0 -16.431671142578125 39.801177978515625)" stroke="none"><path fill="#1e1e1e" d="M 0.70,0.33 Q 0.70,0.33 -0.77,3.47 -2.26,6.61 -3.93,11.27 -5.60,15.93 -7.79,21.92 -9.98,27.90 -12.18,33.81 -14.37,39.71 -16.57,45.37 -18.76,51.03 -21.17,56.60 -23.58,62.16 -25.24,65.58 -26.90,69.01 -28.23,71.52 -29.57,74.03 -30.62,76.44 -31.68,78.85 -31.75,78.95 -31.82,79.06 -31.91,79.13 -32.01,79.21 -32.13,79.25 -32.24,79.29 -32.37,79.29 -32.49,79.29 -32.61,79.25 -32.73,79.21 -32.82,79.14 -32.92,79.06 -32.99,78.96 -33.06,78.86 -33.10,78.74 -33.13,78.62 -33.12,78.50 -33.12,78.37 -33.07,78.26 -33.03,78.14 -32.95,78.05 -32.87,77.95 -32.76,77.89 -32.66,77.83 -32.54,77.80 -32.41,77.77 -32.29,77.79 -32.17,77.80 -32.06,77.85 -31.94,77.90 -31.86,77.99 -31.77,78.07 -31.71,78.18 -31.65,78.29 -31.63,78.41 -31.61,78.53 -31.63,78.65 -31.65,78.78 -31.70,78.88 -31.76,78.99 -31.85,79.08 -31.94,79.16 -32.05,79.22 -32.16,79.27 -32.29,79.28 -32.41,79.30 -32.53,79.27 -32.65,79.24 -32.76,79.18 -32.86,79.12 -32.94,79.02 -33.02,78.93 -33.07,78.82 -33.12,78.70 -33.12,78.58 -33.13,78.45 -33.10,78.34 -33.06,78.22 -33.06,78.22 -33.06,78.22 -31.91,75.81 -30.75,73.40 -29.42,70.91 -28.10,68.42 -26.46,65.02 -24.82,61.63 -22.43,56.08 -20.03,50.54 -17.85,44.88 -15.67,39.23 -13.49,33.32 -11.31,27.42 -9.14,21.43 -6.96,15.45 -5.29,10.71 -3.61,5.98 -2.16,2.82 -0.70,-0.33 -0.65,-0.41 -0.60,-0.49 -0.54,-0.55 -0.47,-0.62 -0.39,-0.66 -0.31,-0.71 -0.22,-0.74 -0.13,-0.77 -0.03,-0.77 0.05,-0.77 0.15,-0.76 0.24,-0.74 0.32,-0.70 0.41,-0.66 0.48,-0.60 0.55,-0.54 0.61,-0.46 0.67,-0.39 0.71,-0.30 0.74,-0.22 0.76,-0.12 0.78,-0.03 0.77,0.05 0.76,0.15 0.73,0.24 0.70,0.33 0.70,0.33 L 0.70,0.33 Z"/></g><g transform="translate(14.60595703125 107.35360717773438) rotate(0 2.190887451171875 30.30731201171875)" stroke="none"><path fill="#1e1e1e" d="M 0.76,-0.13 Q 0.76,-0.13 1.17,2.17 1.57,4.48 1.95,6.94 2.33,9.40 2.90,12.11 3.47,14.81 3.93,18.73 4.39,22.65 4.58,26.00 4.77,29.35 4.85,32.46 4.93,35.57 4.96,38.36 4.99,41.15 5.01,43.59 5.02,46.04 4.82,48.78 4.61,51.53 4.52,53.51 4.44,55.50 4.09,57.87 3.75,60.25 3.71,60.37 3.67,60.48 3.60,60.59 3.52,60.69 3.42,60.76 3.32,60.83 3.20,60.87 3.08,60.90 2.96,60.90 2.83,60.90 2.72,60.85 2.60,60.81 2.50,60.73 2.41,60.65 2.34,60.55 2.27,60.44 2.24,60.32 2.21,60.20 2.22,60.07 2.23,59.95 2.28,59.84 2.33,59.72 2.42,59.63 2.50,59.54 2.61,59.48 2.72,59.41 2.84,59.39 2.96,59.37 3.09,59.39 3.21,59.40 3.32,59.46 3.43,59.52 3.52,59.60 3.61,59.69 3.66,59.80 3.72,59.92 3.74,60.04 3.75,60.16 3.73,60.29 3.70,60.41 3.64,60.52 3.58,60.62 3.49,60.71 3.39,60.79 3.28,60.84 3.17,60.89 3.04,60.90 2.92,60.91 2.80,60.88 2.67,60.85 2.57,60.78 2.47,60.71 2.39,60.61 2.31,60.52 2.27,60.40 2.22,60.28 2.22,60.16 2.22,60.03 2.22,60.03 2.22,60.03 2.67,57.74 3.11,55.44 3.20,53.43 3.29,51.43 3.49,48.74 3.69,46.05 3.67,43.61 3.65,41.16 3.62,38.38 3.58,35.60 3.49,32.52 3.41,29.43 3.21,26.12 3.01,22.81 2.55,18.96 2.09,15.11 1.50,12.37 0.90,9.63 0.50,7.19 0.10,4.75 -0.33,2.44 -0.76,0.13 -0.77,0.04 -0.77,-0.04 -0.76,-0.14 -0.74,-0.23 -0.70,-0.31 -0.66,-0.40 -0.60,-0.47 -0.55,-0.55 -0.47,-0.61 -0.40,-0.66 -0.31,-0.70 -0.23,-0.74 -0.13,-0.76 -0.04,-0.77 0.04,-0.77 0.14,-0.76 0.23,-0.73 0.32,-0.71 0.40,-0.66 0.48,-0.61 0.54,-0.54 0.61,-0.48 0.66,-0.40 0.71,-0.31 0.74,-0.22 0.76,-0.13 0.76,-0.13 L 0.76,-0.13 Z"/></g><g transform="translate(8.03326416015625 167.23794555664062) rotate(0 8.763580322265625 2.1908721923828125)" stroke="none"><path fill="#1e1e1e" d="M 0.78,-0.45 Q 0.78,-0.45 1.60,1.03 2.41,2.52 3.15,3.77 3.90,5.03 4.63,6.19 5.36,7.36 5.86,7.74 6.36,8.13 6.86,7.89 7.37,7.64 8.80,6.16 10.23,4.67 11.49,2.81 12.74,0.94 14.40,-1.71 16.06,-4.38 16.15,-4.48 16.25,-4.59 16.36,-4.66 16.48,-4.73 16.62,-4.75 16.75,-4.78 16.89,-4.76 17.03,-4.75 17.15,-4.69 17.28,-4.63 17.37,-4.53 17.47,-4.43 17.54,-4.31 17.60,-4.19 17.62,-4.05 17.64,-3.91 17.61,-3.78 17.59,-3.64 17.52,-3.52 17.46,-3.40 17.35,-3.31 17.25,-3.22 17.13,-3.16 17.00,-3.10 16.86,-3.09 16.73,-3.08 16.59,-3.11 16.46,-3.14 16.34,-3.22 16.22,-3.29 16.14,-3.39 16.05,-3.50 16.00,-3.63 15.95,-3.76 15.95,-3.90 15.94,-4.03 15.98,-4.17 16.02,-4.30 16.10,-4.41 16.18,-4.52 16.29,-4.61 16.40,-4.69 16.53,-4.73 16.66,-4.77 16.80,-4.77 16.94,-4.77 17.07,-4.72 17.20,-4.67 17.31,-4.59 17.41,-4.50 17.49,-4.39 17.57,-4.27 17.60,-4.14 17.63,-4.01 17.62,-3.87 17.61,-3.73 17.56,-3.60 17.51,-3.48 17.51,-3.48 17.51,-3.48 15.83,-0.80 14.15,1.87 12.86,3.90 11.57,5.92 9.96,7.66 8.36,9.39 7.48,9.71 6.61,10.02 5.91,9.70 5.22,9.38 4.66,8.78 4.10,8.18 3.33,7.02 2.56,5.86 1.75,4.61 0.94,3.35 0.07,1.90 -0.78,0.45 -0.83,0.35 -0.87,0.24 -0.89,0.14 -0.90,0.03 -0.89,-0.07 -0.89,-0.18 -0.85,-0.28 -0.82,-0.39 -0.76,-0.48 -0.70,-0.57 -0.62,-0.65 -0.54,-0.72 -0.44,-0.78 -0.35,-0.83 -0.24,-0.86 -0.14,-0.89 -0.03,-0.90 0.07,-0.90 0.18,-0.88 0.29,-0.86 0.39,-0.81 0.48,-0.76 0.57,-0.69 0.65,-0.62 0.72,-0.53 0.78,-0.45 0.78,-0.45 L 0.78,-0.45 Z"/></g><g transform="translate(5.8424072265625 205.94366455078125) rotate(0 10.954437255859375 5.477203369140625)" stroke="none"><path fill="#1e1e1e" d="M 0.78,-0.31 Q 0.78,-0.31 1.18,0.74 1.58,1.81 1.76,3.62 1.95,5.43 2.01,6.59 2.07,7.75 2.10,9.30 2.12,10.85 2.17,11.72 2.21,12.58 2.20,12.67 2.19,12.77 2.16,12.85 2.13,12.94 2.08,13.02 2.03,13.10 1.96,13.16 1.89,13.23 1.81,13.27 1.73,13.32 1.64,13.34 1.55,13.36 1.45,13.37 1.36,13.37 1.27,13.35 1.17,13.33 1.09,13.29 1.01,13.24 0.94,13.18 0.86,13.12 0.81,13.05 0.75,12.97 0.72,12.88 0.68,12.80 0.67,12.70 0.66,12.61 0.45,12.03 0.25,11.46 0.16,10.03 0.08,8.60 0.06,7.16 0.04,5.73 0.48,4.58 0.92,3.43 1.55,2.32 2.18,1.21 3.15,0.45 4.13,-0.30 5.02,-0.67 5.90,-1.04 6.86,-0.99 7.82,-0.94 8.58,-0.40 9.34,0.13 9.86,1.56 10.38,2.99 10.58,3.99 10.78,5.00 10.90,5.61 11.02,6.21 11.03,6.32 11.04,6.44 11.02,6.55 11.00,6.66 10.96,6.76 10.91,6.87 10.84,6.96 10.77,7.05 10.69,7.12 10.60,7.19 10.50,7.24 10.39,7.28 10.28,7.31 10.17,7.33 10.06,7.32 9.94,7.32 9.84,7.28 9.73,7.25 9.63,7.19 9.53,7.14 9.45,7.06 9.37,6.98 9.31,6.88 9.25,6.79 9.22,6.68 9.18,6.57 9.44,5.48 9.70,4.38 10.04,3.27 10.38,2.17 11.00,1.17 11.62,0.17 12.33,-0.66 13.03,-1.51 14.05,-2.13 15.06,-2.75 15.87,-3.04 16.68,-3.33 17.42,-2.99 18.17,-2.65 18.68,-1.48 19.19,-0.31 19.56,0.98 19.93,2.28 20.29,4.12 20.65,5.95 20.80,7.37 20.94,8.79 21.66,10.10 22.37,11.40 22.41,11.54 22.45,11.67 22.44,11.81 22.44,11.95 22.39,12.08 22.34,12.21 22.25,12.31 22.16,12.42 22.05,12.49 21.93,12.57 21.79,12.60 21.66,12.63 21.52,12.62 21.38,12.60 21.25,12.55 21.13,12.49 21.02,12.40 20.92,12.30 20.86,12.18 20.79,12.06 20.76,11.92 20.74,11.79 20.76,11.65 20.78,11.51 20.84,11.39 20.91,11.27 21.01,11.17 21.11,11.07 21.23,11.01 21.36,10.95 21.49,10.93 21.63,10.92 21.77,10.94 21.90,10.97 22.02,11.04 22.14,11.11 22.23,11.22 22.33,11.32 22.38,11.45 22.43,11.58 22.44,11.72 22.45,11.85 22.42,11.99 22.38,12.12 22.31,12.24 22.23,12.36 22.12,12.44 22.01,12.53 21.88,12.57 21.75,12.62 21.61,12.62 21.47,12.62 21.34,12.58 21.21,12.54 21.10,12.46 20.98,12.37 20.90,12.26 20.82,12.15 20.82,12.15 20.82,12.15 20.15,10.57 19.48,8.99 19.30,7.63 19.13,6.27 18.75,4.51 18.36,2.76 17.97,1.56 17.57,0.35 17.27,-0.42 16.97,-1.21 16.41,-1.33 15.84,-1.45 15.04,-0.97 14.24,-0.49 13.63,0.27 13.03,1.03 12.55,1.84 12.08,2.64 11.81,3.81 11.54,4.97 11.28,5.59 11.02,6.21 11.03,6.32 11.04,6.44 11.02,6.55 11.00,6.66 10.96,6.76 10.91,6.87 10.84,6.96 10.77,7.05 10.69,7.12 10.60,7.19 10.50,7.24 10.39,7.28 10.28,7.31 10.17,7.33 10.06,7.32 9.94,7.32 9.84,7.28 9.73,7.25 9.63,7.19 9.53,7.14 9.45,7.06 9.37,6.98 9.31,6.88 9.25,6.79 9.22,6.68 9.18,6.57 9.15,5.95 9.11,5.33 8.94,4.44 8.77,3.55 8.11,2.11 7.46,0.67 6.90,0.54 6.34,0.41 5.64,0.60 4.94,0.80 4.15,1.36 3.37,1.93 2.81,2.94 2.25,3.96 1.89,4.85 1.52,5.73 1.57,7.12 1.62,8.50 1.72,9.75 1.81,11.00 2.01,11.79 2.21,12.58 2.20,12.67 2.19,12.77 2.16,12.85 2.13,12.94 2.08,13.02 2.03,13.10 1.96,13.16 1.89,13.23 1.81,13.27 1.73,13.32 1.64,13.34 1.55,13.36 1.45,13.37 1.36,13.37 1.27,13.35 1.17,13.33 1.09,13.29 1.01,13.24 0.94,13.18 0.86,13.12 0.81,13.05 0.75,12.97 0.72,12.88 0.68,12.80 0.67,12.70 0.66,12.61 0.68,11.75 0.70,10.88 0.66,9.36 0.61,7.84 0.53,6.72 0.44,5.59 0.26,3.98 0.09,2.38 -0.34,1.35 -0.78,0.31 -0.81,0.21 -0.84,0.11 -0.84,0.01 -0.84,-0.08 -0.82,-0.18 -0.79,-0.28 -0.75,-0.37 -0.70,-0.47 -0.64,-0.54 -0.57,-0.62 -0.49,-0.68 -0.40,-0.74 -0.31,-0.78 -0.21,-0.82 -0.11,-0.83 -0.01,-0.84 0.08,-0.83 0.18,-0.82 0.28,-0.79 0.38,-0.75 0.46,-0.70 0.55,-0.64 0.62,-0.57 0.69,-0.49 0.73,-0.40 0.78,-0.31 0.78,-0.31 L 0.78,-0.31 Z"/></g><g transform="translate(111.00506591796875 95.66885375976562) rotate(0 0.730316162109375 8.763565063476562)" stroke="none"><path fill="#1e1e1e" d="M 0.88,-0.17 Q 0.88,-0.17 1.06,0.87 1.24,1.93 1.31,3.27 1.38,4.61 1.61,5.96 1.83,7.31 1.93,9.20 2.03,11.10 2.13,13.72 2.24,16.35 2.22,16.48 2.20,16.61 2.15,16.73 2.09,16.84 1.99,16.94 1.90,17.03 1.78,17.09 1.66,17.15 1.53,17.16 1.40,17.18 1.27,17.16 1.15,17.13 1.03,17.07 0.92,17.00 0.83,16.90 0.74,16.80 0.69,16.68 0.64,16.56 0.63,16.43 0.62,16.30 0.65,16.17 0.68,16.05 0.75,15.93 0.82,15.82 0.93,15.74 1.03,15.66 1.15,15.62 1.28,15.57 1.41,15.57 1.54,15.56 1.67,15.60 1.79,15.64 1.90,15.72 2.00,15.80 2.08,15.90 2.16,16.01 2.20,16.14 2.23,16.26 2.23,16.39 2.23,16.52 2.18,16.65 2.13,16.77 2.05,16.87 1.97,16.98 1.86,17.05 1.75,17.12 1.62,17.15 1.49,17.18 1.36,17.17 1.23,17.16 1.11,17.10 0.99,17.05 0.89,16.96 0.79,16.88 0.73,16.76 0.66,16.65 0.64,16.52 0.61,16.39 0.61,16.39 0.61,16.39 0.59,13.78 0.57,11.18 0.46,9.38 0.35,7.57 0.08,6.15 -0.18,4.72 -0.29,3.49 -0.40,2.26 -0.64,1.22 -0.88,0.17 -0.89,0.06 -0.90,-0.04 -0.88,-0.14 -0.86,-0.25 -0.82,-0.35 -0.78,-0.45 -0.71,-0.54 -0.65,-0.63 -0.56,-0.69 -0.48,-0.76 -0.38,-0.81 -0.28,-0.86 -0.17,-0.88 -0.06,-0.90 0.03,-0.89 0.14,-0.89 0.25,-0.86 0.35,-0.83 0.45,-0.77 0.54,-0.72 0.62,-0.64 0.70,-0.57 0.76,-0.47 0.82,-0.38 0.85,-0.28 0.88,-0.17 0.88,-0.17 L 0.88,-0.17 Z"/></g><g transform="translate(103.70208740234375 115.38687133789062) rotate(0 7.302978515625 3.6514892578125)" stroke="none"><path fill="#1e1e1e" d="M 0.63,-0.63 Q 0.63,-0.63 1.87,0.64 3.10,1.92 4.07,3.14 5.03,4.35 5.65,5.03 6.26,5.72 6.79,6.13 7.32,6.54 8.19,6.33 9.06,6.12 9.79,5.30 10.53,4.48 11.32,3.50 12.11,2.52 12.90,0.91 13.69,-0.68 13.76,-0.79 13.83,-0.90 13.93,-0.99 14.04,-1.07 14.16,-1.12 14.28,-1.17 14.42,-1.18 14.55,-1.18 14.68,-1.15 14.81,-1.11 14.92,-1.03 15.03,-0.96 15.11,-0.85 15.19,-0.74 15.23,-0.62 15.27,-0.49 15.27,-0.36 15.27,-0.22 15.22,-0.10 15.18,0.02 15.10,0.12 15.02,0.23 14.90,0.30 14.79,0.38 14.66,0.41 14.54,0.44 14.40,0.44 14.27,0.43 14.15,0.38 14.02,0.33 13.92,0.24 13.82,0.15 13.75,0.04 13.69,-0.07 13.66,-0.20 13.63,-0.33 13.65,-0.46 13.66,-0.59 13.72,-0.71 13.78,-0.83 13.87,-0.93 13.96,-1.03 14.08,-1.09 14.20,-1.15 14.33,-1.17 14.46,-1.19 14.59,-1.17 14.72,-1.14 14.84,-1.08 14.96,-1.02 15.05,-0.92 15.14,-0.82 15.19,-0.70 15.25,-0.58 15.26,-0.45 15.28,-0.31 15.25,-0.18 15.22,-0.05 15.22,-0.05 15.22,-0.05 14.24,1.68 13.26,3.42 12.44,4.48 11.63,5.55 10.56,6.58 9.50,7.61 8.11,7.81 6.72,8.01 5.88,7.40 5.05,6.79 4.43,6.07 3.82,5.34 2.87,4.22 1.92,3.10 0.64,1.87 -0.63,0.63 -0.70,0.55 -0.77,0.46 -0.81,0.36 -0.85,0.26 -0.87,0.16 -0.89,0.05 -0.89,-0.05 -0.88,-0.16 -0.85,-0.26 -0.82,-0.36 -0.76,-0.46 -0.70,-0.55 -0.63,-0.63 -0.55,-0.70 -0.46,-0.76 -0.36,-0.82 -0.26,-0.85 -0.16,-0.88 -0.05,-0.89 0.05,-0.89 0.16,-0.87 0.26,-0.85 0.36,-0.81 0.46,-0.77 0.55,-0.70 0.63,-0.63 0.63,-0.63 L 0.63,-0.63 Z"/></g><g transform="translate(81.06292724609375 145.32904052734375) rotate(0 8.7635498046875 7.6681060791015625)" stroke="none"><path fill="#1e1e1e" d="M 0.91,0 Q 0.91,0 0.87,1.67 0.84,3.35 0.81,4.91 0.79,6.46 0.77,8.17 0.75,9.88 0.74,11.03 0.72,12.18 0.78,12.87 0.83,13.57 0.84,13.66 0.86,13.74 0.85,13.85 0.84,13.95 0.80,14.05 0.76,14.15 0.70,14.23 0.64,14.32 0.56,14.39 0.49,14.46 0.39,14.50 0.30,14.55 0.20,14.58 0.10,14.60 -0.00,14.60 -0.10,14.60 -0.20,14.58 -0.30,14.55 -0.39,14.50 -0.49,14.46 -0.56,14.39 -0.64,14.32 -0.70,14.23 -0.76,14.15 -0.80,14.05 -0.84,13.95 -0.85,13.85 -0.86,13.74 -0.89,13.15 -0.92,12.56 -0.89,11.25 -0.85,9.95 -0.61,8.50 -0.37,7.05 -0.04,5.79 0.28,4.53 1.10,3.27 1.92,2.02 2.72,1.25 3.52,0.48 4.35,0.08 5.18,-0.31 6.18,-0.44 7.17,-0.56 7.95,0.10 8.72,0.78 9.00,2.28 9.29,3.78 9.36,5.00 9.43,6.22 9.45,7.37 9.47,8.52 9.50,9.43 9.54,10.33 9.60,10.93 9.66,11.52 9.67,11.56 9.68,11.61 9.67,11.72 9.66,11.83 9.62,11.93 9.58,12.04 9.52,12.13 9.45,12.22 9.37,12.30 9.29,12.37 9.19,12.43 9.09,12.48 8.98,12.51 8.88,12.54 8.77,12.54 8.65,12.54 8.54,12.51 8.44,12.49 8.34,12.44 8.24,12.39 8.15,12.31 8.07,12.24 8.00,12.15 7.94,12.06 7.90,11.95 7.86,11.85 7.84,11.74 7.83,11.63 7.87,9.96 7.92,8.29 7.94,7.15 7.97,6.01 8.43,4.96 8.88,3.91 9.01,3.33 9.14,2.75 9.72,2.09 10.30,1.42 10.93,1.10 11.55,0.78 12.88,1.18 14.20,1.58 14.85,2.26 15.49,2.95 15.91,4.17 16.33,5.39 16.69,6.73 17.04,8.06 17.39,9.69 17.75,11.32 18.03,12.92 18.31,14.51 18.31,14.66 18.31,14.80 18.26,14.94 18.21,15.08 18.12,15.19 18.03,15.31 17.91,15.39 17.78,15.46 17.64,15.50 17.50,15.54 17.36,15.53 17.21,15.51 17.08,15.46 16.94,15.40 16.83,15.30 16.73,15.21 16.65,15.08 16.58,14.96 16.55,14.81 16.52,14.67 16.54,14.53 16.56,14.38 16.62,14.25 16.69,14.12 16.79,14.02 16.89,13.91 17.02,13.85 17.15,13.78 17.30,13.76 17.44,13.74 17.58,13.77 17.73,13.79 17.86,13.86 17.98,13.93 18.08,14.04 18.18,14.15 18.24,14.28 18.30,14.42 18.31,14.56 18.32,14.71 18.29,14.85 18.25,14.99 18.17,15.11 18.10,15.24 17.98,15.33 17.87,15.42 17.73,15.47 17.60,15.52 17.45,15.53 17.31,15.53 17.17,15.49 17.03,15.45 16.91,15.36 16.79,15.28 16.70,15.16 16.62,15.04 16.58,14.91 16.53,14.77 16.53,14.77 16.53,14.77 16.37,13.22 16.20,11.68 15.81,10.11 15.43,8.53 15.02,7.27 14.62,6.01 14.04,4.64 13.45,3.26 12.74,2.99 12.02,2.71 11.40,3.04 10.77,3.37 10.54,3.97 10.31,4.58 9.93,5.33 9.54,6.07 9.57,7.18 9.60,8.29 9.64,9.95 9.68,11.61 9.67,11.72 9.66,11.83 9.62,11.93 9.58,12.04 9.52,12.13 9.45,12.22 9.37,12.30 9.29,12.37 9.19,12.43 9.09,12.48 8.98,12.51 8.88,12.54 8.77,12.54 8.65,12.54 8.54,12.51 8.44,12.49 8.34,12.44 8.24,12.39 8.15,12.31 8.07,12.24 8.00,12.15 7.94,12.06 7.90,11.95 7.86,11.85 7.84,11.74 7.83,11.63 7.83,11.59 7.84,11.54 7.88,10.95 7.93,10.36 7.93,9.47 7.93,8.57 7.87,7.46 7.81,6.35 7.69,5.21 7.58,4.07 7.41,2.98 7.25,1.89 6.52,1.54 5.78,1.19 5.14,1.38 4.50,1.57 3.82,2.20 3.14,2.83 2.44,3.87 1.75,4.92 1.48,6.10 1.21,7.29 1.03,8.62 0.85,9.95 0.89,11.26 0.92,12.56 0.89,13.15 0.86,13.74 0.85,13.85 0.84,13.95 0.80,14.05 0.76,14.15 0.70,14.23 0.64,14.32 0.56,14.39 0.49,14.46 0.39,14.50 0.30,14.55 0.20,14.58 0.10,14.60 0.00,14.60 -0.10,14.60 -0.20,14.58 -0.30,14.55 -0.39,14.50 -0.49,14.46 -0.56,14.39 -0.64,14.32 -0.70,14.23 -0.76,14.15 -0.80,14.05 -0.84,13.95 -0.85,13.85 -0.86,13.74 -0.84,13.66 -0.83,13.57 -0.78,12.87 -0.72,12.18 -0.74,11.03 -0.75,9.88 -0.77,8.17 -0.79,6.46 -0.81,4.91 -0.84,3.35 -0.87,1.67 -0.91,0 -0.90,-0.10 -0.88,-0.21 -0.84,-0.32 -0.80,-0.42 -0.74,-0.51 -0.68,-0.60 -0.60,-0.67 -0.51,-0.75 -0.42,-0.80 -0.32,-0.85 -0.21,-0.88 -0.11,-0.90 0.00,-0.90 0.11,-0.90 0.21,-0.88 0.32,-0.85 0.42,-0.80 0.51,-0.75 0.60,-0.67 0.68,-0.60 0.74,-0.51 0.80,-0.42 0.84,-0.32 0.88,-0.21 0.90,-0.10 0.91,0.00 0.91,0.00 L 0.91,0 Z"/></g><g transform="translate(112.4656982421875 143.13815307617188) rotate(0 -0.000030517578125 7.3029632568359375)" stroke="none"><path fill="#1e1e1e" d="M 0,1.33 Q 0,1.33 -0.62,1.33 -1.25,1.33 -2.15,1.37 -3.04,1.40 -3.97,1.71 -4.91,2.02 -4.96,2.78 -5.01,3.54 -3.95,4.15 -2.89,4.75 -1.68,4.95 -0.48,5.15 0.79,5.50 2.06,5.86 3.05,6.24 4.04,6.62 4.74,6.98 5.45,7.35 6.02,7.76 6.60,8.17 6.98,8.95 7.36,9.73 7.43,10.48 7.50,11.23 7.04,11.95 6.57,12.68 5.67,13.29 4.76,13.91 3.43,14.39 2.10,14.86 0.86,15.04 -0.36,15.21 -1.52,15.27 -2.69,15.32 -3.69,14.98 -4.70,14.64 -5.30,12.59 -5.91,10.54 -5.92,10.38 -5.93,10.22 -5.88,10.06 -5.84,9.90 -5.75,9.77 -5.65,9.63 -5.52,9.53 -5.39,9.44 -5.24,9.38 -5.09,9.33 -4.92,9.33 -4.76,9.33 -4.61,9.39 -4.45,9.44 -4.32,9.54 -4.19,9.64 -4.10,9.77 -4.01,9.91 -3.97,10.06 -3.92,10.22 -3.93,10.38 -3.94,10.55 -4.00,10.70 -4.06,10.85 -4.17,10.97 -4.28,11.10 -4.42,11.18 -4.56,11.26 -4.71,11.30 -4.87,11.33 -5.04,11.31 -5.20,11.30 -5.34,11.23 -5.49,11.16 -5.61,11.05 -5.73,10.93 -5.80,10.79 -5.88,10.65 -5.91,10.48 -5.93,10.32 -5.90,10.16 -5.88,10.00 -5.80,9.86 -5.72,9.72 -5.61,9.60 -5.49,9.49 -5.34,9.42 -5.19,9.36 -5.03,9.34 -4.87,9.32 -4.71,9.36 -4.55,9.39 -4.41,9.48 -4.27,9.56 -4.17,9.69 -4.06,9.81 -4.00,9.96 -3.94,10.11 -3.94,10.11 -3.94,10.11 -3.36,11.87 -2.78,13.64 -1.73,13.52 -0.67,13.41 0.34,13.19 1.37,12.98 2.40,12.53 3.42,12.08 4.30,11.28 5.19,10.48 4.81,9.81 4.42,9.14 3.90,8.80 3.39,8.47 2.49,8.19 1.60,7.91 0.42,7.71 -0.75,7.51 -2.37,7.39 -3.98,7.26 -5.01,6.84 -6.05,6.42 -6.76,5.77 -7.48,5.12 -7.76,4.33 -8.04,3.54 -8.01,2.83 -7.98,2.12 -7.84,1.59 -7.70,1.06 -7.32,0.49 -6.93,-0.07 -6.09,-0.46 -5.25,-0.85 -4.15,-1.12 -3.04,-1.40 -2.15,-1.37 -1.25,-1.33 -0.62,-1.33 0,-1.33 0.15,-1.31 0.31,-1.29 0.46,-1.23 0.62,-1.18 0.75,-1.09 0.88,-0.99 0.99,-0.87 1.09,-0.75 1.17,-0.61 1.24,-0.47 1.28,-0.31 1.32,-0.16 1.32,0.00 1.32,0.16 1.28,0.31 1.24,0.47 1.17,0.61 1.09,0.75 0.99,0.87 0.88,0.99 0.75,1.09 0.62,1.18 0.46,1.23 0.31,1.29 0.15,1.31 -0.00,1.33 -0.00,1.33 L 0,1.33 Z"/></g><g transform="translate(111.00506591796875 135.83517456054688) rotate(0 4.38177490234375 -0.7303009033203125)" stroke="none"><path fill="#1e1e1e" d="M 0,-1.02 Q 0,-1.02 0.83,-1.02 1.67,-1.03 2.79,-1.18 3.91,-1.33 5.80,-1.79 7.69,-2.26 7.86,-2.27 8.02,-2.27 8.18,-2.23 8.33,-2.19 8.47,-2.10 8.61,-2.00 8.71,-1.87 8.81,-1.74 8.86,-1.59 8.91,-1.43 8.91,-1.27 8.91,-1.11 8.86,-0.95 8.81,-0.79 8.71,-0.66 8.61,-0.53 8.47,-0.44 8.34,-0.35 8.18,-0.31 8.02,-0.26 7.86,-0.27 7.70,-0.28 7.54,-0.34 7.39,-0.40 7.27,-0.51 7.14,-0.61 7.06,-0.75 6.97,-0.89 6.94,-1.05 6.90,-1.21 6.92,-1.37 6.94,-1.54 7.00,-1.69 7.07,-1.83 7.18,-1.95 7.30,-2.07 7.44,-2.15 7.59,-2.23 7.75,-2.25 7.91,-2.28 8.07,-2.25 8.23,-2.23 8.38,-2.15 8.52,-2.07 8.64,-1.96 8.75,-1.84 8.82,-1.69 8.89,-1.54 8.90,-1.38 8.92,-1.21 8.89,-1.05 8.85,-0.89 8.77,-0.75 8.68,-0.61 8.56,-0.51 8.43,-0.40 8.28,-0.34 8.13,-0.28 8.13,-0.28 8.13,-0.28 6.18,0.10 4.23,0.49 2.95,0.76 1.68,1.03 0.84,1.02 0,1.02 -0.12,1.01 -0.24,0.99 -0.36,0.95 -0.47,0.91 -0.58,0.84 -0.68,0.76 -0.76,0.67 -0.84,0.58 -0.90,0.47 -0.96,0.36 -0.99,0.24 -1.02,0.12 -1.02,-0.00 -1.02,-0.12 -0.99,-0.24 -0.96,-0.36 -0.90,-0.47 -0.84,-0.58 -0.76,-0.67 -0.68,-0.77 -0.58,-0.84 -0.47,-0.91 -0.36,-0.95 -0.24,-0.99 -0.12,-1.01 0.00,-1.02 0.00,-1.02 L 0,-1.02 Z"/></g><g transform="translate(121.95953369140625 128.53219604492188) rotate(0 0.365142822265625 5.112091064453125)" stroke="none"><path fill="#1e1e1e" d="M 0.99,0 Q 0.99,0 0.94,1.46 0.90,2.93 0.87,4.40 0.83,5.86 1.18,7.57 1.52,9.28 1.52,9.43 1.52,9.58 1.47,9.72 1.42,9.87 1.33,9.99 1.24,10.11 1.12,10.20 0.99,10.28 0.84,10.32 0.70,10.36 0.55,10.36 0.39,10.35 0.25,10.29 0.11,10.24 0.00,10.14 -0.11,10.04 -0.19,9.91 -0.27,9.78 -0.30,9.63 -0.33,9.49 -0.32,9.34 -0.30,9.18 -0.24,9.05 -0.17,8.91 -0.07,8.80 0.02,8.69 0.16,8.62 0.29,8.54 0.44,8.52 0.59,8.49 0.74,8.52 0.89,8.54 1.02,8.61 1.16,8.68 1.26,8.79 1.37,8.90 1.43,9.04 1.50,9.18 1.51,9.33 1.53,9.48 1.50,9.63 1.47,9.78 1.39,9.91 1.31,10.04 1.20,10.14 1.08,10.23 0.94,10.29 0.80,10.35 0.65,10.36 0.50,10.37 0.35,10.33 0.20,10.29 0.08,10.20 -0.04,10.12 -0.13,10.00 -0.22,9.87 -0.27,9.73 -0.32,9.59 -0.32,9.59 -0.32,9.59 -0.58,7.73 -0.83,5.87 -0.87,4.40 -0.90,2.93 -0.94,1.46 -0.99,0 -0.98,-0.11 -0.96,-0.23 -0.92,-0.35 -0.88,-0.46 -0.81,-0.56 -0.74,-0.65 -0.65,-0.73 -0.56,-0.81 -0.45,-0.87 -0.35,-0.93 -0.23,-0.95 -0.11,-0.98 0.00,-0.98 0.11,-0.98 0.23,-0.95 0.35,-0.93 0.45,-0.87 0.56,-0.81 0.65,-0.73 0.74,-0.65 0.81,-0.56 0.88,-0.46 0.92,-0.35 0.96,-0.23 0.98,-0.11 0.99,0.00 0.99,0.00 L 0.99,0 Z"/></g><g transform="translate(137.2957763671875 144.59872436523438) rotate(0 4.38177490234375 2.5560455322265625)" stroke="none"><path fill="#1e1e1e" d="M 0.49,-0.87 Q 0.49,-0.87 1.94,0.00 3.39,0.88 5.79,2.28 8.19,3.67 8.30,3.77 8.42,3.87 8.50,4.00 8.58,4.13 8.62,4.28 8.65,4.43 8.63,4.58 8.62,4.73 8.56,4.87 8.49,5.01 8.39,5.12 8.29,5.23 8.15,5.31 8.02,5.38 7.87,5.41 7.72,5.43 7.56,5.41 7.41,5.39 7.28,5.32 7.14,5.24 7.04,5.13 6.93,5.02 6.86,4.89 6.80,4.75 6.78,4.60 6.76,4.44 6.79,4.29 6.83,4.15 6.90,4.01 6.98,3.88 7.10,3.78 7.21,3.68 7.35,3.62 7.50,3.57 7.65,3.56 7.80,3.55 7.95,3.59 8.10,3.63 8.22,3.71 8.35,3.80 8.44,3.92 8.54,4.04 8.59,4.18 8.64,4.33 8.64,4.48 8.64,4.63 8.59,4.78 8.55,4.92 8.45,5.05 8.36,5.17 8.24,5.25 8.11,5.34 7.96,5.38 7.82,5.43 7.66,5.42 7.51,5.41 7.37,5.36 7.23,5.30 7.23,5.30 7.23,5.30 4.85,3.88 2.48,2.47 0.99,1.67 -0.49,0.87 -0.59,0.80 -0.69,0.72 -0.77,0.63 -0.84,0.54 -0.90,0.43 -0.95,0.32 -0.97,0.20 -1.00,0.08 -0.99,-0.03 -0.99,-0.15 -0.96,-0.27 -0.92,-0.39 -0.86,-0.49 -0.80,-0.60 -0.72,-0.68 -0.63,-0.77 -0.53,-0.84 -0.43,-0.90 -0.32,-0.94 -0.20,-0.98 -0.08,-0.99 0.03,-1.00 0.15,-0.98 0.27,-0.96 0.38,-0.92 0.49,-0.87 0.49,-0.87 L 0.49,-0.87 Z"/></g><g transform="translate(144.5987548828125 143.86843872070312) rotate(0 -2.92120361328125 4.7469329833984375)" stroke="none"><path fill="#1e1e1e" d="M 0.75,0.64 Q 0.75,0.64 -0.53,2.08 -1.83,3.52 -2.79,4.73 -3.75,5.94 -4.22,7.50 -4.70,9.07 -4.77,9.20 -4.84,9.33 -4.95,9.44 -5.06,9.54 -5.20,9.60 -5.34,9.67 -5.49,9.68 -5.64,9.70 -5.79,9.66 -5.94,9.63 -6.07,9.55 -6.20,9.47 -6.30,9.35 -6.39,9.23 -6.45,9.09 -6.50,8.95 -6.51,8.80 -6.51,8.65 -6.47,8.50 -6.43,8.35 -6.34,8.23 -6.26,8.10 -6.13,8.01 -6.01,7.92 -5.87,7.88 -5.72,7.83 -5.57,7.83 -5.42,7.83 -5.28,7.88 -5.13,7.93 -5.01,8.03 -4.89,8.12 -4.81,8.25 -4.73,8.37 -4.69,8.52 -4.65,8.67 -4.66,8.82 -4.67,8.97 -4.73,9.11 -4.78,9.25 -4.88,9.37 -4.98,9.48 -5.11,9.56 -5.24,9.63 -5.39,9.67 -5.54,9.70 -5.69,9.68 -5.84,9.66 -5.98,9.59 -6.12,9.53 -6.23,9.42 -6.34,9.32 -6.41,9.18 -6.48,9.05 -6.50,8.90 -6.52,8.75 -6.50,8.60 -6.47,8.45 -6.47,8.45 -6.47,8.45 -5.78,6.70 -5.10,4.95 -4.15,3.65 -3.20,2.35 -1.98,0.85 -0.75,-0.64 -0.66,-0.72 -0.57,-0.80 -0.47,-0.86 -0.36,-0.92 -0.25,-0.95 -0.13,-0.98 -0.01,-0.98 0.10,-0.98 0.22,-0.96 0.33,-0.93 0.44,-0.88 0.55,-0.82 0.64,-0.75 0.73,-0.67 0.80,-0.57 0.87,-0.47 0.91,-0.36 0.96,-0.25 0.97,-0.13 0.99,-0.01 0.98,0.10 0.97,0.22 0.92,0.33 0.88,0.44 0.82,0.54 0.75,0.64 0.75,0.64 L 0.75,0.64 Z"/></g><g transform="translate(170.889404296875 137.2957763671875) rotate(0 -6.93780517578125 7.3029632568359375)" stroke="none"><path fill="#1e1e1e" d="M 0.42,0.85 Q 0.42,0.85 -0.83,1.44 -2.10,2.02 -2.73,2.79 -3.36,3.55 -3.63,4.42 -3.90,5.28 -3.78,5.98 -3.66,6.68 -3.27,7.56 -2.87,8.43 -2.48,9.51 -2.08,10.59 -1.87,11.54 -1.66,12.50 -1.82,13.13 -1.97,13.76 -2.84,14.34 -3.71,14.91 -5.67,14.87 -7.64,14.82 -10.25,14.52 -12.86,14.21 -13.00,14.17 -13.15,14.12 -13.27,14.04 -13.39,13.95 -13.48,13.83 -13.57,13.71 -13.62,13.56 -13.66,13.42 -13.66,13.27 -13.66,13.12 -13.60,12.98 -13.55,12.83 -13.46,12.72 -13.37,12.60 -13.24,12.52 -13.11,12.43 -12.97,12.40 -12.82,12.36 -12.67,12.37 -12.52,12.38 -12.38,12.44 -12.24,12.50 -12.13,12.60 -12.02,12.70 -11.94,12.83 -11.87,12.96 -11.84,13.11 -11.81,13.26 -11.83,13.40 -11.85,13.55 -11.92,13.69 -11.98,13.82 -12.09,13.93 -12.19,14.04 -12.33,14.11 -12.46,14.17 -12.61,14.20 -12.76,14.22 -12.91,14.19 -13.06,14.16 -13.19,14.09 -13.32,14.02 -13.42,13.90 -13.52,13.79 -13.58,13.65 -13.64,13.52 -13.65,13.37 -13.67,13.22 -13.63,13.07 -13.60,12.92 -13.52,12.80 -13.44,12.67 -13.32,12.57 -13.20,12.48 -13.06,12.43 -12.92,12.37 -12.77,12.37 -12.62,12.36 -12.62,12.36 -12.62,12.36 -10.10,12.72 -7.59,13.08 -6.03,13.14 -4.47,13.20 -3.85,12.94 -3.22,12.68 -3.35,11.90 -3.48,11.12 -3.89,10.10 -4.30,9.08 -4.80,7.97 -5.31,6.86 -5.35,5.86 -5.38,4.86 -5.01,3.71 -4.65,2.55 -3.79,1.52 -2.93,0.49 -1.68,-0.18 -0.42,-0.85 -0.32,-0.89 -0.21,-0.93 -0.09,-0.94 0.01,-0.96 0.13,-0.94 0.24,-0.92 0.35,-0.88 0.46,-0.84 0.55,-0.77 0.65,-0.70 0.72,-0.61 0.80,-0.53 0.85,-0.42 0.90,-0.32 0.93,-0.21 0.95,-0.09 0.95,0.01 0.95,0.13 0.92,0.24 0.89,0.35 0.83,0.46 0.78,0.56 0.70,0.64 0.62,0.73 0.52,0.79 0.42,0.85 0.42,0.85 L 0.42,0.85 Z"/></g><g transform="translate(129.26251220703125 122.68984985351562) rotate(0 -9.493865966796875 16.431671142578125)" stroke="none"><path fill="#1e1e1e" d="M 0.77,0.38 Q 0.77,0.38 0.12,1.63 -0.53,2.88 -1.44,4.86 -2.35,6.84 -3.81,9.40 -5.27,11.95 -6.94,14.71 -8.61,17.47 -11.02,20.76 -13.43,24.05 -14.86,26.26 -16.28,28.47 -17.07,30.40 -17.86,32.33 -17.93,32.44 -18.01,32.55 -18.11,32.63 -18.21,32.71 -18.34,32.75 -18.46,32.79 -18.59,32.80 -18.72,32.80 -18.84,32.76 -18.97,32.72 -19.07,32.64 -19.18,32.56 -19.25,32.46 -19.33,32.35 -19.36,32.22 -19.40,32.10 -19.40,31.97 -19.39,31.84 -19.34,31.71 -19.30,31.59 -19.21,31.49 -19.13,31.39 -19.02,31.32 -18.91,31.25 -18.78,31.22 -18.66,31.19 -18.53,31.21 -18.40,31.22 -18.28,31.27 -18.16,31.32 -18.06,31.41 -17.96,31.50 -17.90,31.62 -17.84,31.73 -17.82,31.86 -17.79,31.99 -17.81,32.12 -17.83,32.25 -17.89,32.36 -17.95,32.48 -18.04,32.57 -18.14,32.66 -18.26,32.72 -18.37,32.77 -18.50,32.79 -18.63,32.81 -18.76,32.78 -18.89,32.75 -19.00,32.69 -19.11,32.62 -19.20,32.52 -19.29,32.42 -19.34,32.30 -19.39,32.18 -19.39,32.05 -19.40,31.92 -19.37,31.80 -19.34,31.67 -19.34,31.67 -19.34,31.67 -18.39,29.70 -17.44,27.73 -16.00,25.48 -14.56,23.23 -12.20,19.98 -9.84,16.73 -8.20,13.98 -6.56,11.22 -5.15,8.72 -3.75,6.21 -2.87,4.18 -1.98,2.15 -1.38,0.88 -0.77,-0.38 -0.72,-0.47 -0.66,-0.56 -0.58,-0.63 -0.50,-0.70 -0.41,-0.75 -0.32,-0.80 -0.22,-0.83 -0.12,-0.86 -0.01,-0.86 0.08,-0.86 0.19,-0.84 0.29,-0.81 0.38,-0.77 0.48,-0.72 0.56,-0.65 0.64,-0.58 0.70,-0.50 0.76,-0.41 0.80,-0.32 0.84,-0.22 0.85,-0.12 0.87,-0.01 0.85,0.08 0.84,0.19 0.81,0.29 0.77,0.38 0.77,0.38 L 0.77,0.38 Z"/></g><g transform="translate(177.46209716796875 131.45339965820312) rotate(0 -8.763580322265625 12.4150390625)" stroke="none"><path fill="#1e1e1e" d="M 0.76,0.50 Q 0.76,0.50 -1.78,4.26 -4.33,8.02 -6.26,11.07 -8.18,14.12 -10.71,17.34 -13.24,20.56 -14.31,21.91 -15.38,23.26 -15.47,23.34 -15.55,23.42 -15.66,23.47 -15.77,23.52 -15.89,23.53 -16.00,23.54 -16.12,23.52 -16.23,23.49 -16.34,23.43 -16.44,23.37 -16.51,23.28 -16.59,23.18 -16.63,23.07 -16.67,22.96 -16.68,22.85 -16.68,22.73 -16.65,22.62 -16.61,22.50 -16.55,22.41 -16.48,22.31 -16.39,22.24 -16.29,22.17 -16.18,22.13 -16.07,22.10 -15.95,22.10 -15.83,22.10 -15.72,22.14 -15.61,22.18 -15.51,22.25 -15.42,22.32 -15.36,22.42 -15.29,22.52 -15.26,22.63 -15.23,22.75 -15.24,22.86 -15.25,22.98 -15.29,23.09 -15.34,23.20 -15.41,23.29 -15.49,23.38 -15.59,23.44 -15.70,23.50 -15.81,23.52 -15.93,23.54 -16.04,23.53 -16.16,23.52 -16.27,23.47 -16.37,23.41 -16.46,23.33 -16.54,23.25 -16.60,23.15 -16.65,23.04 -16.67,22.92 -16.69,22.81 -16.67,22.69 -16.64,22.58 -16.59,22.47 -16.53,22.37 -16.53,22.37 -16.53,22.37 -15.48,21.00 -14.44,19.63 -11.98,16.46 -9.53,13.29 -7.63,10.19 -5.74,7.09 -3.25,3.29 -0.76,-0.50 -0.68,-0.59 -0.61,-0.67 -0.52,-0.73 -0.43,-0.80 -0.33,-0.84 -0.23,-0.88 -0.12,-0.89 -0.01,-0.91 0.09,-0.90 0.20,-0.89 0.30,-0.85 0.41,-0.81 0.50,-0.75 0.59,-0.69 0.66,-0.61 0.74,-0.53 0.79,-0.43 0.84,-0.33 0.87,-0.23 0.90,-0.12 0.90,-0.01 0.90,0.09 0.88,0.20 0.85,0.31 0.80,0.40 0.76,0.50 0.76,0.50 L 0.76,0.50 Z"/></g><g transform="translate(124.8807373046875 163.58645629882812) rotate(0 -0.365142822265625 7.6681060791015625)" stroke="none"><path fill="#1e1e1e" d="M 0.97,0 Q 0.97,0 0.93,2.51 0.89,5.03 0.85,7.15 0.82,9.28 0.56,11.81 0.29,14.35 0.25,14.49 0.21,14.63 0.13,14.74 0.04,14.86 -0.06,14.95 -0.18,15.04 -0.32,15.08 -0.46,15.13 -0.60,15.13 -0.75,15.12 -0.89,15.08 -1.02,15.03 -1.14,14.94 -1.25,14.85 -1.34,14.73 -1.42,14.61 -1.45,14.47 -1.49,14.32 -1.48,14.18 -1.47,14.03 -1.42,13.90 -1.36,13.76 -1.26,13.65 -1.17,13.54 -1.04,13.47 -0.92,13.40 -0.77,13.37 -0.63,13.34 -0.49,13.35 -0.34,13.37 -0.21,13.43 -0.08,13.50 0.02,13.60 0.12,13.70 0.19,13.83 0.25,13.96 0.28,14.10 0.30,14.25 0.27,14.39 0.25,14.54 0.18,14.66 0.11,14.79 0.00,14.89 -0.10,14.99 -0.23,15.05 -0.36,15.11 -0.51,15.12 -0.65,15.14 -0.79,15.10 -0.94,15.07 -1.06,14.99 -1.18,14.92 -1.28,14.80 -1.37,14.69 -1.42,14.56 -1.48,14.42 -1.48,14.27 -1.49,14.13 -1.49,14.13 -1.49,14.13 -1.16,11.70 -0.82,9.27 -0.85,7.15 -0.89,5.03 -0.93,2.51 -0.97,0 -0.96,-0.11 -0.94,-0.23 -0.90,-0.34 -0.86,-0.45 -0.79,-0.55 -0.73,-0.64 -0.64,-0.72 -0.55,-0.80 -0.45,-0.85 -0.34,-0.91 -0.23,-0.94 -0.11,-0.97 0.00,-0.97 0.11,-0.97 0.23,-0.94 0.34,-0.91 0.45,-0.85 0.55,-0.80 0.64,-0.72 0.73,-0.64 0.79,-0.55 0.86,-0.45 0.90,-0.34 0.94,-0.23 0.96,-0.11 0.97,0.00 0.97,0.00 L 0.97,0 Z"/></g><g transform="translate(118.30804443359375 181.11358642578125) rotate(0 9.493865966796875 3.6514739990234375)" stroke="none"><path fill="#1e1e1e" d="M 0.69,-0.52 Q 0.69,-0.52 1.93,1.17 3.17,2.86 4.48,4.17 5.78,5.48 7.06,5.98 8.34,6.49 9.61,6.31 10.87,6.13 11.98,5.28 13.08,4.44 14.22,3.44 15.35,2.45 16.57,0.92 17.79,-0.59 17.89,-0.67 18.00,-0.75 18.12,-0.80 18.24,-0.85 18.37,-0.86 18.50,-0.86 18.63,-0.83 18.75,-0.79 18.86,-0.72 18.97,-0.64 19.05,-0.54 19.13,-0.43 19.17,-0.31 19.21,-0.18 19.21,-0.05 19.21,0.07 19.17,0.19 19.12,0.32 19.04,0.42 18.96,0.52 18.85,0.60 18.75,0.67 18.62,0.70 18.49,0.74 18.36,0.73 18.23,0.72 18.11,0.67 17.99,0.62 17.89,0.54 17.79,0.45 17.72,0.34 17.65,0.23 17.63,0.10 17.60,-0.02 17.61,-0.15 17.63,-0.28 17.69,-0.40 17.74,-0.52 17.83,-0.61 17.92,-0.71 18.04,-0.77 18.15,-0.83 18.28,-0.85 18.41,-0.87 18.54,-0.85 18.67,-0.82 18.79,-0.76 18.90,-0.70 18.99,-0.60 19.08,-0.51 19.14,-0.39 19.19,-0.27 19.21,-0.14 19.22,-0.01 19.19,0.11 19.16,0.24 19.09,0.35 19.02,0.46 19.02,0.46 19.02,0.46 17.64,1.97 16.26,3.48 15.09,4.52 13.91,5.56 12.52,6.54 11.13,7.52 9.51,7.70 7.88,7.88 6.31,7.24 4.75,6.61 3.30,5.23 1.86,3.84 0.58,2.18 -0.69,0.52 -0.75,0.43 -0.80,0.34 -0.83,0.24 -0.86,0.13 -0.86,0.03 -0.86,-0.07 -0.84,-0.17 -0.82,-0.27 -0.78,-0.37 -0.73,-0.46 -0.67,-0.54 -0.60,-0.63 -0.51,-0.69 -0.43,-0.75 -0.33,-0.79 -0.24,-0.83 -0.13,-0.85 -0.03,-0.87 0.07,-0.86 0.17,-0.85 0.27,-0.82 0.37,-0.78 0.46,-0.73 0.55,-0.67 0.62,-0.59 0.69,-0.52 0.69,-0.52 L 0.69,-0.52 Z"/></g><g transform="translate(109.54449462890625 209.59515380859375) rotate(0 14.24078369140625 4.38177490234375)" stroke="none"><path fill="#1e1e1e" d="M 0.85,-0.36 Q 0.85,-0.36 1.44,1.11 2.04,2.60 2.51,4.33 2.98,6.06 3.17,7.46 3.37,8.85 3.46,9.87 3.55,10.88 3.64,11.52 3.73,12.15 3.76,12.21 3.79,12.27 3.78,12.38 3.77,12.49 3.74,12.59 3.71,12.69 3.65,12.79 3.60,12.88 3.52,12.95 3.44,13.03 3.35,13.08 3.26,13.14 3.16,13.17 3.05,13.20 2.94,13.21 2.84,13.22 2.73,13.20 2.63,13.18 2.53,13.13 2.43,13.09 2.34,13.02 2.26,12.95 2.19,12.87 2.13,12.78 2.08,12.69 2.04,12.59 2.02,12.48 2.00,12.38 1.97,11.74 1.95,11.10 1.99,9.80 2.03,8.49 2.71,6.15 3.39,3.80 4.33,1.95 5.28,0.10 6.14,-0.92 7.00,-1.96 7.82,-2.64 8.64,-3.32 9.79,-3.65 10.94,-3.98 12.18,-3.42 13.43,-2.86 14.19,-1.89 14.95,-0.93 15.28,0.39 15.60,1.72 15.72,2.90 15.84,4.08 15.95,4.78 16.05,5.48 16.09,5.57 16.13,5.65 16.13,5.75 16.12,5.85 16.09,5.95 16.06,6.04 16.01,6.13 15.96,6.22 15.89,6.29 15.82,6.36 15.74,6.41 15.65,6.47 15.55,6.50 15.46,6.53 15.36,6.54 15.26,6.54 15.16,6.53 15.06,6.51 14.97,6.47 14.88,6.43 14.80,6.37 14.72,6.31 14.65,6.23 14.59,6.15 14.55,6.06 14.51,5.97 14.49,5.87 14.47,5.77 14.96,4.89 15.44,4.01 16.03,2.79 16.62,1.57 17.77,-0.07 18.92,-1.72 19.86,-2.65 20.80,-3.59 21.58,-4.07 22.35,-4.56 23.27,-4.35 24.18,-4.15 25.19,-3.31 26.21,-2.47 26.87,-1.41 27.54,-0.35 28.03,1.41 28.52,3.18 28.86,5.74 29.19,8.29 29.18,8.43 29.18,8.56 29.13,8.69 29.08,8.82 28.99,8.92 28.90,9.03 28.78,9.10 28.67,9.17 28.53,9.20 28.40,9.23 28.27,9.21 28.13,9.20 28.01,9.14 27.88,9.09 27.78,8.99 27.68,8.90 27.62,8.78 27.55,8.66 27.53,8.52 27.51,8.39 27.53,8.25 27.55,8.12 27.61,8.00 27.68,7.88 27.78,7.78 27.88,7.69 28.00,7.63 28.12,7.57 28.26,7.56 28.40,7.54 28.53,7.57 28.66,7.60 28.78,7.67 28.90,7.74 28.99,7.84 29.07,7.95 29.13,8.07 29.18,8.20 29.18,8.34 29.19,8.47 29.16,8.61 29.12,8.74 29.04,8.85 28.97,8.96 28.86,9.05 28.75,9.13 28.62,9.17 28.49,9.22 28.36,9.22 28.22,9.22 28.09,9.18 27.96,9.13 27.85,9.05 27.74,8.97 27.66,8.86 27.59,8.74 27.55,8.61 27.51,8.48 27.51,8.48 27.51,8.48 27.29,6.03 27.06,3.58 26.62,2.03 26.18,0.48 25.65,-0.34 25.12,-1.17 24.31,-1.81 23.49,-2.45 22.67,-2.49 21.85,-2.53 21.02,-1.69 20.19,-0.84 19.15,0.71 18.11,2.27 17.12,3.96 16.13,5.65 16.13,5.75 16.12,5.85 16.09,5.95 16.06,6.04 16.01,6.13 15.96,6.22 15.89,6.29 15.82,6.36 15.74,6.41 15.65,6.47 15.55,6.50 15.46,6.53 15.36,6.54 15.26,6.54 15.16,6.53 15.06,6.51 14.97,6.47 14.88,6.43 14.80,6.37 14.72,6.31 14.65,6.23 14.59,6.15 14.55,6.06 14.51,5.97 14.49,5.87 14.47,5.77 14.47,5.69 14.46,5.60 14.47,4.91 14.47,4.22 14.36,3.12 14.24,2.03 14.02,0.95 13.79,-0.11 13.25,-0.85 12.72,-1.58 11.89,-2.06 11.06,-2.53 10.31,-2.33 9.55,-2.13 8.85,-1.57 8.14,-1.01 7.40,-0.10 6.66,0.80 5.81,2.53 4.96,4.25 4.38,6.38 3.79,8.51 3.83,9.82 3.87,11.12 3.83,11.70 3.79,12.27 3.78,12.38 3.77,12.49 3.74,12.59 3.71,12.69 3.65,12.79 3.60,12.88 3.52,12.95 3.44,13.03 3.35,13.08 3.26,13.14 3.16,13.17 3.05,13.20 2.94,13.21 2.84,13.22 2.73,13.20 2.63,13.18 2.53,13.13 2.43,13.09 2.34,13.02 2.26,12.95 2.19,12.87 2.13,12.78 2.08,12.69 2.04,12.59 2.02,12.48 2.00,12.38 2.00,12.32 1.99,12.26 2.01,11.64 2.03,11.01 1.94,10.05 1.86,9.08 1.65,7.79 1.44,6.50 0.96,4.89 0.47,3.27 -0.18,1.81 -0.85,0.36 -0.88,0.25 -0.91,0.15 -0.91,0.03 -0.92,-0.07 -0.90,-0.18 -0.87,-0.29 -0.83,-0.39 -0.78,-0.49 -0.71,-0.57 -0.64,-0.66 -0.55,-0.73 -0.46,-0.80 -0.36,-0.84 -0.25,-0.88 -0.14,-0.90 -0.03,-0.92 0.07,-0.91 0.18,-0.90 0.28,-0.87 0.39,-0.83 0.48,-0.77 0.58,-0.71 0.66,-0.63 0.73,-0.55 0.79,-0.46 0.85,-0.36 0.85,-0.36 L 0.85,-0.36 Z"/></g><g transform="translate(278.97332763671875 70.10848999023438) rotate(0 0.73028564453125 12.780181884765625)" stroke="none"><path fill="#1e1e1e" d="M 0.87,0 Q 0.87,0 0.84,1.25 0.81,2.51 0.79,4.10 0.77,5.68 0.75,7.41 0.74,9.13 0.72,11.12 0.71,13.12 0.70,15.43 0.70,17.75 0.69,19.36 0.68,20.97 1.32,22.73 1.96,24.48 1.98,24.61 2.00,24.74 1.98,24.87 1.96,25.00 1.89,25.11 1.83,25.23 1.73,25.32 1.64,25.41 1.52,25.46 1.40,25.51 1.27,25.53 1.13,25.54 1.01,25.51 0.88,25.48 0.77,25.41 0.66,25.34 0.57,25.24 0.49,25.14 0.44,25.01 0.40,24.89 0.39,24.76 0.39,24.63 0.42,24.50 0.46,24.38 0.54,24.27 0.61,24.16 0.72,24.08 0.82,24.01 0.95,23.97 1.07,23.93 1.20,23.93 1.34,23.93 1.46,23.97 1.58,24.02 1.69,24.10 1.79,24.18 1.86,24.29 1.93,24.40 1.97,24.53 2.00,24.65 1.99,24.78 1.98,24.92 1.93,25.04 1.88,25.16 1.79,25.26 1.71,25.36 1.59,25.42 1.48,25.49 1.35,25.51 1.22,25.54 1.09,25.52 0.96,25.51 0.84,25.45 0.73,25.39 0.63,25.30 0.54,25.21 0.48,25.09 0.42,24.97 0.42,24.98 0.42,24.98 -0.13,22.98 -0.68,20.99 -0.69,19.37 -0.70,17.75 -0.70,15.43 -0.71,13.12 -0.72,11.12 -0.74,9.13 -0.75,7.41 -0.77,5.68 -0.79,4.10 -0.81,2.51 -0.84,1.25 -0.87,0 -0.86,-0.10 -0.84,-0.20 -0.81,-0.30 -0.77,-0.40 -0.71,-0.49 -0.65,-0.57 -0.57,-0.64 -0.49,-0.71 -0.40,-0.76 -0.30,-0.81 -0.20,-0.84 -0.10,-0.86 0.00,-0.86 0.10,-0.86 0.20,-0.84 0.30,-0.81 0.40,-0.76 0.49,-0.71 0.57,-0.64 0.65,-0.57 0.71,-0.49 0.77,-0.40 0.81,-0.30 0.84,-0.20 0.86,-0.10 0.87,0.00 0.87,0.00 L 0.87,0 Z"/></g><g transform="translate(271.67034912109375 97.12945556640625) rotate(0 9.8590087890625 6.572662353515625)" stroke="none"><path fill="#1e1e1e" d="M 0.68,-0.45 Q 0.68,-0.45 1.92,1.44 3.16,3.34 4.31,4.99 5.45,6.63 6.56,8.17 7.67,9.71 8.53,10.53 9.38,11.36 10.66,11.15 11.95,10.95 12.97,10.17 14.00,9.40 15.05,8.26 16.11,7.12 17.29,5.21 18.47,3.31 18.56,3.21 18.65,3.11 18.77,3.05 18.88,2.99 19.01,2.96 19.15,2.94 19.28,2.96 19.41,2.98 19.53,3.04 19.65,3.10 19.74,3.20 19.83,3.29 19.89,3.41 19.95,3.53 19.96,3.66 19.98,3.80 19.95,3.93 19.93,4.06 19.86,4.17 19.79,4.29 19.69,4.37 19.59,4.46 19.47,4.51 19.35,4.56 19.21,4.57 19.08,4.58 18.95,4.55 18.82,4.51 18.71,4.44 18.60,4.37 18.52,4.26 18.44,4.16 18.39,4.03 18.35,3.91 18.34,3.77 18.34,3.64 18.38,3.51 18.42,3.39 18.50,3.28 18.58,3.17 18.69,3.10 18.80,3.02 18.93,2.98 19.06,2.95 19.19,2.95 19.32,2.96 19.45,3.00 19.57,3.05 19.67,3.14 19.78,3.22 19.85,3.33 19.92,3.45 19.95,3.58 19.98,3.71 19.97,3.84 19.95,3.97 19.90,4.09 19.84,4.21 19.84,4.21 19.84,4.21 18.50,6.15 17.16,8.08 16.03,9.33 14.89,10.57 13.73,11.46 12.57,12.35 11.27,12.83 9.97,13.31 9.19,12.84 8.41,12.37 7.46,11.47 6.52,10.56 5.38,9.03 4.24,7.49 3.05,5.85 1.87,4.20 0.59,2.33 -0.68,0.45 -0.72,0.36 -0.77,0.27 -0.79,0.18 -0.81,0.08 -0.81,-0.01 -0.81,-0.11 -0.78,-0.20 -0.76,-0.30 -0.71,-0.38 -0.66,-0.47 -0.60,-0.54 -0.53,-0.62 -0.45,-0.67 -0.36,-0.73 -0.27,-0.76 -0.18,-0.79 -0.08,-0.80 0.01,-0.81 0.11,-0.80 0.20,-0.79 0.30,-0.75 0.39,-0.71 0.47,-0.66 0.55,-0.60 0.61,-0.52 0.68,-0.45 0.68,-0.45 L 0.68,-0.45 Z"/></g><g transform="translate(251.95233154296875 137.2957763671875) rotate(0 9.8590087890625 7.3029632568359375)" stroke="none"><path fill="#1e1e1e" d="M 0.96,-0.19 Q 0.96,-0.19 1.12,0.86 1.29,1.92 1.36,3.69 1.42,5.46 1.44,6.83 1.45,8.19 1.45,9.41 1.45,10.62 1.50,11.34 1.56,12.06 1.61,12.59 1.67,13.12 1.66,13.23 1.64,13.35 1.60,13.45 1.56,13.56 1.50,13.66 1.44,13.75 1.35,13.83 1.27,13.90 1.17,13.96 1.06,14.01 0.95,14.04 0.84,14.07 0.73,14.07 0.61,14.07 0.50,14.04 0.39,14.01 0.29,13.96 0.19,13.91 0.10,13.83 0.02,13.76 -0.04,13.66 -0.10,13.57 -0.14,13.46 -0.18,13.36 -0.20,13.24 -0.21,13.13 -0.20,11.48 -0.19,9.83 0.27,8.15 0.74,6.47 1.61,4.89 2.48,3.30 3.29,2.20 4.11,1.10 4.95,0.53 5.78,-0.03 6.73,-0.28 7.68,-0.53 8.50,-0.14 9.32,0.24 9.87,1.64 10.42,3.04 10.59,4.49 10.76,5.93 10.82,7.16 10.88,8.39 10.96,9.11 11.04,9.83 11.03,9.93 11.02,10.04 10.99,10.14 10.96,10.24 10.91,10.33 10.86,10.42 10.78,10.49 10.71,10.56 10.62,10.62 10.53,10.67 10.43,10.70 10.33,10.74 10.23,10.74 10.12,10.75 10.02,10.73 9.92,10.71 9.82,10.67 9.72,10.63 9.64,10.56 9.56,10.50 9.49,10.42 9.43,10.34 9.39,10.24 9.34,10.15 9.32,10.04 9.30,9.94 9.55,9.21 9.80,8.48 10.11,7.27 10.43,6.07 11.02,4.64 11.61,3.21 12.32,2.13 13.03,1.06 14.17,0.53 15.31,0.00 16.17,0.67 17.02,1.34 17.77,2.32 18.52,3.29 19.08,4.61 19.63,5.94 19.97,9.48 20.31,13.02 20.30,13.14 20.29,13.26 20.24,13.37 20.20,13.48 20.12,13.57 20.04,13.65 19.94,13.71 19.83,13.77 19.72,13.80 19.60,13.82 19.48,13.81 19.37,13.79 19.26,13.74 19.15,13.69 19.07,13.60 18.98,13.52 18.93,13.41 18.87,13.31 18.86,13.19 18.84,13.07 18.86,12.96 18.88,12.84 18.94,12.74 19.00,12.63 19.09,12.55 19.17,12.47 19.28,12.42 19.39,12.37 19.51,12.36 19.63,12.35 19.74,12.38 19.86,12.41 19.96,12.47 20.06,12.53 20.14,12.63 20.21,12.72 20.25,12.83 20.30,12.94 20.30,13.06 20.30,13.18 20.27,13.29 20.24,13.41 20.17,13.50 20.10,13.60 20.00,13.67 19.91,13.74 19.79,13.78 19.68,13.81 19.56,13.81 19.44,13.81 19.33,13.77 19.22,13.73 19.13,13.66 19.03,13.58 18.97,13.48 18.90,13.38 18.87,13.27 18.84,13.15 18.84,13.15 18.84,13.15 18.55,9.82 18.26,6.49 17.78,5.37 17.30,4.24 16.61,3.39 15.91,2.54 15.07,2.23 14.24,1.91 13.64,2.85 13.05,3.79 12.54,5.12 12.03,6.46 11.53,8.14 11.04,9.83 11.03,9.93 11.02,10.04 10.99,10.14 10.96,10.24 10.91,10.33 10.86,10.42 10.78,10.49 10.71,10.56 10.62,10.62 10.53,10.67 10.43,10.70 10.33,10.74 10.23,10.74 10.12,10.75 10.02,10.73 9.92,10.71 9.82,10.67 9.72,10.63 9.64,10.56 9.56,10.50 9.49,10.42 9.43,10.34 9.39,10.24 9.34,10.15 9.32,10.04 9.30,9.94 9.32,9.22 9.33,8.49 9.23,7.32 9.13,6.15 8.94,4.89 8.75,3.64 8.20,2.37 7.66,1.10 7.14,1.23 6.61,1.36 5.96,1.69 5.31,2.03 4.60,3.04 3.89,4.06 3.14,5.49 2.39,6.93 2.02,8.39 1.65,9.85 1.66,11.49 1.67,13.12 1.66,13.23 1.64,13.35 1.60,13.45 1.56,13.56 1.50,13.66 1.44,13.75 1.35,13.83 1.27,13.90 1.17,13.96 1.06,14.01 0.95,14.04 0.84,14.07 0.73,14.07 0.61,14.07 0.50,14.04 0.39,14.01 0.29,13.96 0.19,13.91 0.10,13.83 0.02,13.76 -0.04,13.66 -0.10,13.57 -0.14,13.46 -0.18,13.36 -0.20,13.24 -0.21,13.13 -0.17,12.61 -0.12,12.08 -0.08,11.36 -0.04,10.64 -0.07,9.44 -0.10,8.24 -0.16,6.89 -0.23,5.55 -0.34,3.91 -0.45,2.27 -0.70,1.23 -0.96,0.19 -0.97,0.07 -0.97,-0.04 -0.95,-0.15 -0.94,-0.27 -0.89,-0.38 -0.84,-0.49 -0.77,-0.58 -0.70,-0.68 -0.61,-0.75 -0.52,-0.83 -0.41,-0.88 -0.30,-0.93 -0.19,-0.95 -0.07,-0.97 0.04,-0.97 0.16,-0.96 0.27,-0.93 0.38,-0.90 0.48,-0.84 0.59,-0.78 0.67,-0.69 0.76,-0.61 0.82,-0.51 0.88,-0.41 0.92,-0.30 0.96,-0.19 0.96,-0.19 L 0.96,-0.19 Z"/></g><g transform="translate(289.197509765625 132.18368530273438) rotate(0 -1.46063232421875 8.763565063476562)" stroke="none"><path fill="#1e1e1e" d="M 0.23,0.95 Q 0.23,0.95 -0.59,1.15 -1.42,1.36 -2.06,1.80 -2.70,2.24 -3.42,2.82 -4.13,3.40 -4.58,4.02 -5.03,4.63 -5.20,5.30 -5.37,5.98 -4.59,6.63 -3.82,7.27 -3.07,7.63 -2.33,7.99 -1.26,8.17 -0.19,8.35 0.80,8.65 1.79,8.96 2.54,9.34 3.29,9.71 3.74,10.44 4.20,11.17 4.33,12.24 4.46,13.32 3.78,14.55 3.11,15.79 2.35,16.52 1.59,17.26 0.75,17.65 -0.08,18.03 -1.12,18.16 -2.16,18.29 -4.43,16.78 -6.69,15.28 -6.72,15.11 -6.74,14.95 -6.71,14.79 -6.68,14.63 -6.60,14.48 -6.52,14.34 -6.40,14.23 -6.28,14.12 -6.12,14.05 -5.97,13.98 -5.81,13.97 -5.64,13.96 -5.48,13.99 -5.32,14.03 -5.18,14.12 -5.05,14.21 -4.94,14.34 -4.84,14.46 -4.78,14.62 -4.72,14.77 -4.72,14.94 -4.71,15.10 -4.76,15.26 -4.81,15.42 -4.90,15.55 -5.00,15.69 -5.13,15.78 -5.26,15.88 -5.42,15.93 -5.58,15.98 -5.74,15.98 -5.91,15.97 -6.06,15.92 -6.22,15.86 -6.35,15.76 -6.48,15.66 -6.57,15.52 -6.65,15.38 -6.70,15.22 -6.74,15.06 -6.72,14.90 -6.71,14.73 -6.65,14.58 -6.58,14.43 -6.47,14.30 -6.36,14.18 -6.22,14.10 -6.08,14.02 -5.92,13.98 -5.75,13.95 -5.59,13.97 -5.43,14.00 -5.28,14.07 -5.13,14.14 -5.01,14.26 -4.90,14.37 -4.82,14.52 -4.75,14.67 -4.75,14.67 -4.75,14.67 -3.57,15.54 -2.39,16.41 -1.57,16.32 -0.76,16.22 -0.19,16.06 0.37,15.91 0.95,15.37 1.53,14.84 2.02,14.08 2.50,13.31 2.36,12.26 2.21,11.21 1.75,10.92 1.28,10.64 0.41,10.38 -0.45,10.12 -1.80,9.95 -3.14,9.78 -4.13,9.32 -5.12,8.87 -5.78,8.25 -6.44,7.63 -6.77,6.75 -7.10,5.88 -6.82,4.72 -6.54,3.55 -5.94,2.78 -5.33,2.01 -4.54,1.32 -3.76,0.63 -2.84,0.05 -1.93,-0.52 -1.08,-0.73 -0.23,-0.95 -0.12,-0.96 -0.00,-0.98 0.11,-0.96 0.23,-0.95 0.34,-0.91 0.45,-0.86 0.55,-0.80 0.64,-0.73 0.72,-0.64 0.80,-0.55 0.86,-0.45 0.91,-0.35 0.94,-0.23 0.97,-0.12 0.97,-0.00 0.97,0.11 0.94,0.22 0.91,0.34 0.86,0.44 0.80,0.55 0.73,0.64 0.65,0.73 0.55,0.79 0.45,0.86 0.34,0.90 0.23,0.95 0.23,0.95 L 0.23,0.95 Z"/></g><g transform="translate(295.7701416015625 117.5777587890625) rotate(0 2.92120361328125 0)" stroke="none"><path fill="#1e1e1e" d="M 0,-0.97 Q 0,-0.97 1.25,-0.93 2.51,-0.89 2.20,-0.85 1.88,-0.82 1.98,-0.81 2.08,-0.80 2.17,-0.76 2.26,-0.73 2.34,-0.67 2.43,-0.61 2.49,-0.54 2.56,-0.47 2.61,-0.38 2.65,-0.29 2.68,-0.19 2.70,-0.09 2.70,0.00 2.70,0.09 2.68,0.19 2.65,0.29 2.61,0.38 2.56,0.47 2.49,0.54 2.43,0.61 2.34,0.67 2.26,0.73 2.17,0.76 2.08,0.80 1.98,0.81 1.88,0.82 1.75,0.80 1.61,0.78 1.50,0.72 1.38,0.65 1.28,0.56 1.19,0.46 1.14,0.34 1.08,0.22 1.07,0.08 1.05,-0.04 1.08,-0.17 1.11,-0.30 1.18,-0.42 1.25,-0.53 1.35,-0.62 1.45,-0.70 1.58,-0.75 1.70,-0.80 1.83,-0.81 1.97,-0.82 2.10,-0.78 2.23,-0.75 2.34,-0.67 2.45,-0.60 2.53,-0.49 2.61,-0.38 2.65,-0.26 2.69,-0.13 2.69,0.00 2.69,0.13 2.65,0.26 2.61,0.38 2.53,0.49 2.45,0.60 2.34,0.67 2.23,0.75 2.10,0.78 1.97,0.82 1.83,0.81 1.70,0.80 1.58,0.75 1.45,0.70 1.35,0.62 1.25,0.53 1.18,0.42 1.11,0.30 1.08,0.17 1.05,0.04 1.07,-0.08 1.08,-0.22 1.14,-0.34 1.19,-0.46 1.28,-0.56 1.38,-0.65 1.50,-0.72 1.61,-0.78 1.75,-0.80 1.88,-0.82 1.88,-0.82 1.88,-0.82 1.98,-0.81 2.08,-0.80 2.17,-0.76 2.26,-0.73 2.34,-0.67 2.43,-0.61 2.49,-0.54 2.56,-0.47 2.61,-0.38 2.65,-0.29 2.68,-0.19 2.70,-0.09 2.70,-0.00 2.70,0.09 2.68,0.19 2.65,0.29 2.61,0.38 2.56,0.47 2.49,0.54 2.43,0.61 2.34,0.67 2.26,0.73 2.17,0.76 2.08,0.80 1.98,0.81 1.88,0.82 2.20,0.85 2.51,0.89 1.25,0.93 0,0.97 -0.11,0.96 -0.23,0.94 -0.34,0.90 -0.45,0.86 -0.55,0.79 -0.64,0.73 -0.72,0.64 -0.80,0.55 -0.85,0.45 -0.91,0.34 -0.94,0.23 -0.97,0.11 -0.97,-0.00 -0.97,-0.11 -0.94,-0.23 -0.91,-0.34 -0.85,-0.45 -0.80,-0.55 -0.72,-0.64 -0.64,-0.73 -0.55,-0.79 -0.45,-0.86 -0.34,-0.90 -0.23,-0.94 -0.11,-0.96 0.00,-0.97 0.00,-0.97 L 0,-0.97 Z"/></g><g transform="translate(310.3760986328125 111.73538208007812) rotate(0 2.19085693359375 6.20751953125)" stroke="none"><path fill="#1e1e1e" d="M -0.16,-0.98 Q -0.16,-0.98 1.27,-1.09 2.70,-1.20 3.50,-0.58 4.30,0.04 4.63,1.09 4.97,2.13 5.04,3.43 5.11,4.72 4.90,5.97 4.70,7.22 3.92,8.46 3.15,9.71 2.63,10.45 2.10,11.20 1.34,11.64 0.59,12.08 2.79,12.32 4.99,12.55 5.17,12.61 5.35,12.67 5.50,12.79 5.65,12.90 5.75,13.06 5.86,13.21 5.91,13.39 5.96,13.58 5.95,13.76 5.94,13.95 5.87,14.13 5.80,14.30 5.67,14.44 5.55,14.59 5.39,14.68 5.23,14.78 5.05,14.82 4.86,14.86 4.67,14.84 4.49,14.82 4.32,14.74 4.15,14.66 4.01,14.53 3.87,14.40 3.79,14.23 3.70,14.07 3.67,13.88 3.64,13.70 3.67,13.51 3.70,13.33 3.79,13.16 3.88,12.99 4.01,12.86 4.15,12.74 4.32,12.66 4.49,12.58 4.68,12.56 4.87,12.54 5.05,12.58 5.23,12.62 5.39,12.72 5.56,12.81 5.68,12.96 5.80,13.10 5.87,13.28 5.94,13.45 5.95,13.64 5.96,13.83 5.91,14.01 5.85,14.19 5.75,14.34 5.64,14.50 5.49,14.61 5.34,14.73 5.17,14.79 4.99,14.85 4.80,14.85 4.61,14.85 4.61,14.85 4.61,14.85 2.17,14.42 -0.27,14.00 -0.80,13.64 -1.34,13.29 -1.42,12.38 -1.50,11.47 -0.84,10.95 -0.17,10.42 0.34,10.28 0.85,10.14 1.34,9.52 1.84,8.89 2.47,7.91 3.10,6.92 3.23,5.89 3.36,4.85 3.24,3.73 3.11,2.62 2.99,1.95 2.87,1.27 2.60,0.82 2.33,0.36 1.24,0.67 0.16,0.98 0.04,0.98 -0.07,0.99 -0.19,0.96 -0.31,0.94 -0.42,0.89 -0.52,0.84 -0.62,0.76 -0.71,0.69 -0.78,0.59 -0.86,0.50 -0.90,0.39 -0.95,0.28 -0.97,0.16 -0.99,0.04 -0.98,-0.07 -0.97,-0.19 -0.93,-0.30 -0.90,-0.42 -0.83,-0.52 -0.77,-0.62 -0.68,-0.71 -0.60,-0.79 -0.49,-0.85 -0.39,-0.91 -0.27,-0.94 -0.16,-0.98 -0.16,-0.98 L -0.16,-0.98 Z"/></g><g transform="translate(322.06085205078125 142.4078369140625) rotate(0 6.572662353515625 4.016632080078125)" stroke="none"><path fill="#1e1e1e" d="M 0.50,-0.81 Q 0.50,-0.81 2.16,0.27 3.82,1.35 5.19,2.48 6.55,3.61 7.91,4.48 9.27,5.34 11.01,6.10 12.75,6.87 12.86,6.95 12.98,7.03 13.07,7.14 13.15,7.26 13.20,7.39 13.24,7.53 13.24,7.67 13.24,7.81 13.19,7.95 13.14,8.08 13.06,8.20 12.97,8.31 12.85,8.39 12.73,8.47 12.59,8.50 12.45,8.54 12.31,8.53 12.17,8.52 12.04,8.47 11.91,8.41 11.80,8.32 11.69,8.23 11.62,8.10 11.55,7.98 11.52,7.84 11.49,7.70 11.50,7.56 11.52,7.42 11.58,7.29 11.64,7.16 11.74,7.06 11.84,6.96 11.97,6.89 12.09,6.82 12.24,6.80 12.38,6.78 12.52,6.80 12.66,6.83 12.78,6.90 12.91,6.97 13.01,7.07 13.10,7.17 13.16,7.30 13.22,7.43 13.23,7.58 13.25,7.72 13.22,7.86 13.18,8.00 13.11,8.12 13.03,8.24 12.92,8.33 12.82,8.42 12.68,8.47 12.55,8.53 12.41,8.53 12.26,8.54 12.13,8.50 11.99,8.46 11.99,8.46 11.99,8.46 10.22,7.56 8.46,6.66 6.99,5.77 5.53,4.88 4.21,3.86 2.89,2.84 1.19,1.82 -0.50,0.81 -0.59,0.73 -0.68,0.66 -0.75,0.57 -0.82,0.48 -0.87,0.37 -0.91,0.27 -0.93,0.15 -0.95,0.04 -0.94,-0.07 -0.93,-0.18 -0.90,-0.29 -0.86,-0.40 -0.80,-0.50 -0.74,-0.60 -0.66,-0.68 -0.57,-0.76 -0.47,-0.81 -0.37,-0.87 -0.26,-0.91 -0.15,-0.94 -0.04,-0.94 0.07,-0.95 0.18,-0.93 0.29,-0.90 0.40,-0.86 0.50,-0.81 0.50,-0.81 L 0.50,-0.81 Z"/></g><g transform="translate(333.74560546875 140.21694946289062) rotate(0 -4.016632080078125 7.668121337890625)" stroke="none"><path fill="#1e1e1e" d="M 0.80,0.50 Q 0.80,0.50 -0.27,2.16 -1.36,3.82 -2.46,5.56 -3.55,7.30 -4.44,8.87 -5.33,10.43 -6.09,12.56 -6.85,14.69 -6.92,14.81 -7.00,14.93 -7.10,15.02 -7.21,15.12 -7.34,15.17 -7.47,15.22 -7.61,15.23 -7.75,15.24 -7.88,15.21 -8.02,15.17 -8.13,15.09 -8.25,15.01 -8.34,14.90 -8.42,14.79 -8.47,14.66 -8.51,14.53 -8.52,14.39 -8.52,14.25 -8.47,14.12 -8.43,13.98 -8.35,13.87 -8.26,13.76 -8.15,13.68 -8.03,13.60 -7.90,13.56 -7.77,13.52 -7.63,13.53 -7.49,13.53 -7.36,13.58 -7.22,13.63 -7.12,13.72 -7.01,13.81 -6.94,13.93 -6.86,14.05 -6.83,14.19 -6.80,14.32 -6.81,14.46 -6.83,14.60 -6.88,14.73 -6.94,14.86 -7.04,14.96 -7.13,15.06 -7.25,15.13 -7.38,15.20 -7.51,15.22 -7.65,15.24 -7.79,15.22 -7.93,15.20 -8.05,15.14 -8.18,15.07 -8.28,14.97 -8.37,14.87 -8.43,14.75 -8.49,14.62 -8.51,14.48 -8.53,14.34 -8.50,14.21 -8.47,14.07 -8.47,14.07 -8.47,14.07 -7.57,11.88 -6.68,9.69 -5.81,8.07 -4.94,6.46 -3.89,4.68 -2.83,2.89 -1.82,1.19 -0.80,-0.50 -0.73,-0.59 -0.66,-0.68 -0.56,-0.74 -0.47,-0.81 -0.37,-0.86 -0.26,-0.90 -0.15,-0.92 -0.04,-0.94 0.07,-0.93 0.18,-0.92 0.29,-0.89 0.40,-0.85 0.49,-0.79 0.59,-0.73 0.67,-0.65 0.75,-0.57 0.81,-0.47 0.87,-0.37 0.90,-0.26 0.93,-0.15 0.94,-0.04 0.94,0.07 0.92,0.18 0.90,0.29 0.85,0.39 0.80,0.50 0.80,0.50 L 0.80,0.50 Z"/></g><g transform="translate(368.7998046875 131.45339965820312) rotate(0 -5.842376708984375 10.224151611328125)" stroke="none"><path fill="#1e1e1e" d="M 0.54,0.75 Q 0.54,0.75 -0.94,1.77 -2.44,2.79 -3.68,3.82 -4.92,4.85 -5.61,5.85 -6.30,6.85 -6.56,7.56 -6.83,8.26 -6.36,9.06 -5.89,9.86 -5.31,10.65 -4.73,11.45 -4.08,11.94 -3.43,12.43 -2.84,13.14 -2.25,13.86 -1.95,14.79 -1.65,15.72 -2.27,16.89 -2.88,18.07 -4.30,18.99 -5.72,19.91 -6.99,20.29 -8.27,20.66 -9.18,20.82 -10.10,20.98 -10.19,21.00 -10.29,21.01 -10.38,21.01 -10.48,21.00 -10.57,20.97 -10.66,20.94 -10.74,20.89 -10.82,20.84 -10.88,20.77 -10.95,20.70 -11.00,20.62 -11.05,20.54 -11.07,20.45 -11.10,20.36 -11.10,20.26 -11.11,20.17 -11.09,20.07 -11.07,19.98 -11.03,19.89 -10.99,19.81 -10.93,19.73 -10.87,19.66 -10.80,19.60 -10.72,19.54 -10.63,19.51 -10.54,19.47 -11.12,17.90 -11.70,16.33 -11.69,16.19 -11.69,16.05 -11.64,15.91 -11.59,15.78 -11.50,15.67 -11.41,15.57 -11.29,15.49 -11.17,15.42 -11.04,15.38 -10.90,15.35 -10.76,15.36 -10.62,15.38 -10.49,15.43 -10.36,15.49 -10.26,15.58 -10.16,15.68 -10.09,15.80 -10.02,15.92 -9.99,16.06 -9.97,16.20 -9.99,16.34 -10.01,16.48 -10.07,16.60 -10.14,16.73 -10.24,16.82 -10.34,16.92 -10.46,16.98 -10.59,17.05 -10.73,17.06 -10.87,17.08 -11.00,17.05 -11.14,17.03 -11.26,16.96 -11.38,16.89 -11.48,16.78 -11.57,16.68 -11.62,16.55 -11.68,16.42 -11.69,16.28 -11.70,16.14 -11.66,16.00 -11.63,15.87 -11.55,15.75 -11.48,15.63 -11.37,15.54 -11.26,15.46 -11.12,15.41 -10.99,15.36 -10.85,15.36 -10.71,15.36 -10.58,15.40 -10.44,15.44 -10.33,15.52 -10.22,15.61 -10.14,15.72 -10.06,15.84 -10.02,15.97 -9.98,16.11 -9.98,16.11 -9.98,16.11 -10.04,18.54 -10.10,20.98 -10.19,21.00 -10.29,21.01 -10.38,21.01 -10.48,21.00 -10.57,20.97 -10.66,20.94 -10.74,20.89 -10.82,20.84 -10.88,20.77 -10.95,20.70 -11.00,20.62 -11.05,20.54 -11.07,20.45 -11.10,20.36 -11.10,20.26 -11.11,20.17 -11.09,20.07 -11.07,19.98 -11.03,19.89 -10.99,19.81 -10.93,19.73 -10.87,19.66 -10.80,19.60 -10.72,19.54 -10.63,19.51 -10.54,19.47 -9.62,19.34 -8.70,19.21 -7.63,18.89 -6.56,18.57 -5.42,17.86 -4.28,17.15 -3.94,16.00 -3.61,14.85 -4.02,14.24 -4.44,13.63 -5.16,12.98 -5.89,12.33 -6.57,11.43 -7.25,10.53 -7.77,9.32 -8.30,8.11 -7.93,7.05 -7.56,6.00 -6.77,4.82 -5.97,3.64 -4.70,2.52 -3.43,1.40 -1.99,0.32 -0.54,-0.75 -0.44,-0.81 -0.34,-0.86 -0.23,-0.89 -0.12,-0.92 -0.01,-0.92 0.09,-0.92 0.20,-0.90 0.31,-0.87 0.41,-0.82 0.51,-0.77 0.60,-0.70 0.68,-0.62 0.75,-0.53 0.81,-0.44 0.86,-0.34 0.90,-0.23 0.91,-0.12 0.93,-0.01 0.92,0.09 0.90,0.20 0.87,0.31 0.83,0.42 0.77,0.51 0.70,0.60 0.62,0.68 0.54,0.75 0.54,0.75 L 0.54,0.75 Z"/></g><g transform="translate(379.7542724609375 109.54449462890625) rotate(0 2.92120361328125 6.2075347900390625)" stroke="none"><path fill="#1e1e1e" d="M -0.11,-0.91 Q -0.11,-0.91 1.71,-1.03 3.54,-1.15 4.47,-0.29 5.39,0.56 5.76,1.92 6.13,3.28 5.60,4.80 5.08,6.32 4.20,7.78 3.31,9.24 2.48,10.11 1.65,10.97 3.82,11.50 5.99,12.02 6.14,12.08 6.29,12.13 6.41,12.23 6.53,12.34 6.62,12.47 6.70,12.61 6.74,12.76 6.77,12.91 6.76,13.07 6.74,13.23 6.68,13.38 6.61,13.52 6.51,13.64 6.40,13.75 6.26,13.83 6.12,13.91 5.96,13.93 5.81,13.96 5.65,13.94 5.49,13.92 5.35,13.84 5.21,13.77 5.10,13.66 4.99,13.54 4.92,13.40 4.85,13.26 4.83,13.10 4.81,12.94 4.85,12.79 4.88,12.63 4.96,12.49 5.04,12.36 5.16,12.25 5.28,12.15 5.42,12.09 5.57,12.03 5.73,12.02 5.89,12.00 6.04,12.05 6.19,12.09 6.33,12.17 6.46,12.26 6.56,12.38 6.65,12.51 6.71,12.66 6.76,12.81 6.76,12.97 6.76,13.13 6.72,13.28 6.67,13.43 6.57,13.56 6.48,13.68 6.35,13.78 6.22,13.87 6.07,13.91 5.91,13.96 5.76,13.95 5.60,13.94 5.60,13.94 5.60,13.94 3.89,13.54 2.19,13.15 0.82,12.56 -0.54,11.97 0.05,10.98 0.64,10.00 1.37,9.25 2.09,8.50 2.89,7.15 3.70,5.80 4.17,4.65 4.65,3.50 4.41,2.55 4.17,1.59 3.67,0.95 3.17,0.31 1.64,0.61 0.11,0.91 0.00,0.91 -0.10,0.91 -0.21,0.88 -0.32,0.86 -0.42,0.81 -0.52,0.76 -0.60,0.68 -0.68,0.61 -0.75,0.52 -0.81,0.43 -0.85,0.32 -0.89,0.22 -0.90,0.11 -0.92,0.00 -0.90,-0.10 -0.89,-0.21 -0.85,-0.32 -0.81,-0.42 -0.75,-0.51 -0.69,-0.60 -0.60,-0.68 -0.52,-0.75 -0.42,-0.80 -0.33,-0.86 -0.22,-0.88 -0.11,-0.91 -0.11,-0.91 L -0.11,-0.91 Z"/></g><g transform="translate(322.7911376953125 108.08389282226562) rotate(0 -21.54376220703125 26.655838012695312)" stroke="none"><path fill="#1e1e1e" d="M 0.55,0.55 Q 0.55,0.55 -0.92,2.00 -2.41,3.46 -3.85,5.30 -5.29,7.15 -7.81,10.46 -10.33,13.77 -12.87,17.07 -15.41,20.37 -17.97,23.66 -20.52,26.95 -22.86,30.02 -25.21,33.10 -27.26,35.67 -29.31,38.24 -30.80,40.37 -32.29,42.49 -33.77,44.46 -35.26,46.43 -36.30,47.88 -37.35,49.34 -39.66,51.26 -41.98,53.18 -42.09,53.20 -42.20,53.23 -42.31,53.22 -42.43,53.21 -42.53,53.16 -42.63,53.12 -42.72,53.04 -42.80,52.96 -42.85,52.86 -42.91,52.77 -42.93,52.65 -42.95,52.54 -42.93,52.43 -42.91,52.32 -42.86,52.22 -42.81,52.12 -42.73,52.04 -42.65,51.96 -42.55,51.91 -42.45,51.87 -42.33,51.85 -42.22,51.84 -42.11,51.86 -42.00,51.88 -41.90,51.94 -41.81,52.00 -41.73,52.08 -41.66,52.17 -41.62,52.27 -41.57,52.38 -41.56,52.49 -41.56,52.60 -41.59,52.71 -41.61,52.82 -41.68,52.91 -41.74,53.01 -41.83,53.07 -41.92,53.14 -42.02,53.18 -42.13,53.22 -42.24,53.22 -42.35,53.22 -42.46,53.19 -42.57,53.15 -42.66,53.09 -42.75,53.02 -42.81,52.93 -42.88,52.83 -42.91,52.73 -42.94,52.62 -42.94,52.51 -42.93,52.39 -42.89,52.29 -42.85,52.18 -42.78,52.10 -42.71,52.01 -42.61,51.95 -42.52,51.89 -42.52,51.89 -42.52,51.89 -40.47,50.23 -38.42,48.57 -37.37,47.10 -36.32,45.63 -34.85,43.68 -33.38,41.73 -31.87,39.57 -30.36,37.41 -28.32,34.84 -26.28,32.28 -23.94,29.20 -21.60,26.11 -19.05,22.82 -16.51,19.52 -13.98,16.22 -11.45,12.92 -8.94,9.59 -6.43,6.26 -4.95,4.33 -3.46,2.41 -2.01,0.92 -0.55,-0.55 -0.47,-0.61 -0.40,-0.66 -0.31,-0.70 -0.23,-0.74 -0.13,-0.76 -0.04,-0.77 0.04,-0.77 0.14,-0.76 0.23,-0.74 0.32,-0.71 0.40,-0.66 0.48,-0.61 0.54,-0.54 0.61,-0.48 0.66,-0.40 0.71,-0.32 0.74,-0.23 0.76,-0.14 0.77,-0.04 0.77,0.04 0.76,0.13 0.74,0.23 0.70,0.31 0.66,0.40 0.61,0.47 0.55,0.55 0.55,0.55 L 0.55,0.55 Z"/></g><g transform="translate(384.13604736328125 111.73538208007812) rotate(0 -14.9710693359375 20.813461303710938)" stroke="none"><path fill="#1e1e1e" d="M 0.62,0.57 Q 0.62,0.57 -1.70,3.07 -4.03,5.57 -6.27,8.29 -8.51,11.01 -10.50,14.03 -12.49,17.05 -14.18,20.01 -15.86,22.96 -17.42,25.90 -18.98,28.83 -20.51,31.16 -22.03,33.48 -23.95,35.95 -25.87,38.42 -27.30,39.97 -28.73,41.53 -28.83,41.60 -28.93,41.68 -29.06,41.72 -29.18,41.76 -29.31,41.76 -29.44,41.76 -29.56,41.71 -29.68,41.67 -29.79,41.59 -29.89,41.51 -29.96,41.40 -30.03,41.29 -30.06,41.17 -30.09,41.04 -30.09,40.91 -30.08,40.78 -30.03,40.66 -29.98,40.55 -29.89,40.45 -29.81,40.35 -29.69,40.29 -29.58,40.22 -29.46,40.19 -29.33,40.17 -29.20,40.19 -29.07,40.20 -28.96,40.26 -28.84,40.31 -28.75,40.40 -28.65,40.49 -28.60,40.61 -28.54,40.72 -28.52,40.85 -28.50,40.98 -28.52,41.11 -28.54,41.24 -28.61,41.35 -28.67,41.46 -28.76,41.55 -28.86,41.64 -28.98,41.69 -29.10,41.74 -29.23,41.75 -29.35,41.77 -29.48,41.74 -29.61,41.71 -29.72,41.64 -29.83,41.57 -29.91,41.47 -29.99,41.37 -30.04,41.25 -30.08,41.13 -30.09,41.00 -30.09,40.87 -30.06,40.75 -30.02,40.62 -29.94,40.52 -29.87,40.41 -29.87,40.41 -29.87,40.41 -28.40,39.00 -26.94,37.59 -25.06,35.16 -23.18,32.73 -21.70,30.46 -20.22,28.18 -18.66,25.22 -17.10,22.26 -15.41,19.26 -13.71,16.25 -11.70,13.15 -9.69,10.06 -7.44,7.28 -5.20,4.49 -2.91,1.96 -0.62,-0.57 -0.54,-0.64 -0.47,-0.70 -0.37,-0.75 -0.28,-0.80 -0.18,-0.82 -0.08,-0.84 0.01,-0.84 0.11,-0.84 0.21,-0.81 0.31,-0.79 0.40,-0.74 0.49,-0.69 0.57,-0.62 0.64,-0.55 0.70,-0.46 0.76,-0.38 0.79,-0.28 0.82,-0.18 0.84,-0.08 0.85,0.01 0.83,0.11 0.82,0.21 0.78,0.31 0.74,0.40 0.68,0.49 0.62,0.57 0.62,0.57 L 0.62,0.57 Z"/></g><g transform="translate(319.1396484375 167.96823120117188) rotate(0 0 8.398406982421875)" stroke="none"><path fill="#1e1e1e" d="M 0.95,0 Q 0.95,0 0.91,1.67 0.87,3.35 0.84,5.54 0.81,7.72 0.79,9.70 0.77,11.68 0.82,13.77 0.87,15.87 0.85,16.01 0.83,16.15 0.76,16.27 0.69,16.40 0.59,16.50 0.49,16.59 0.36,16.65 0.23,16.71 0.09,16.73 -0.04,16.74 -0.18,16.71 -0.32,16.68 -0.44,16.61 -0.56,16.54 -0.65,16.43 -0.75,16.32 -0.80,16.19 -0.85,16.06 -0.86,15.91 -0.87,15.77 -0.83,15.64 -0.79,15.50 -0.71,15.38 -0.63,15.27 -0.52,15.18 -0.41,15.09 -0.27,15.05 -0.14,15.00 0.00,15.00 0.14,15.00 0.27,15.05 0.41,15.09 0.52,15.18 0.63,15.27 0.71,15.38 0.79,15.50 0.83,15.64 0.87,15.77 0.86,15.91 0.85,16.06 0.80,16.19 0.75,16.32 0.65,16.43 0.56,16.54 0.44,16.61 0.32,16.68 0.18,16.71 0.04,16.74 -0.09,16.73 -0.23,16.71 -0.36,16.65 -0.49,16.59 -0.59,16.50 -0.69,16.40 -0.76,16.27 -0.83,16.15 -0.85,16.01 -0.87,15.87 -0.87,15.87 -0.87,15.87 -0.82,13.77 -0.77,11.68 -0.79,9.70 -0.81,7.72 -0.84,5.54 -0.87,3.35 -0.91,1.67 -0.95,0 -0.93,-0.11 -0.92,-0.22 -0.88,-0.33 -0.84,-0.44 -0.77,-0.53 -0.71,-0.63 -0.62,-0.70 -0.54,-0.78 -0.43,-0.83 -0.33,-0.89 -0.22,-0.91 -0.11,-0.94 0.00,-0.94 0.11,-0.94 0.22,-0.91 0.33,-0.89 0.44,-0.83 0.54,-0.78 0.62,-0.70 0.71,-0.63 0.77,-0.53 0.84,-0.44 0.88,-0.33 0.92,-0.22 0.93,-0.11 0.95,0.00 0.95,0.00 L 0.95,0 Z"/></g><g transform="translate(314.027587890625 186.9559326171875) rotate(0 8.398406982421875 4.381805419921875)" stroke="none"><path fill="#1e1e1e" d="M 0.76,-0.32 Q 0.76,-0.32 1.37,1.14 1.98,2.62 2.82,3.81 3.66,5.01 4.45,6.18 5.24,7.35 6.10,7.97 6.96,8.59 7.79,8.64 8.62,8.69 9.51,7.95 10.40,7.21 11.63,5.47 12.86,3.74 14.19,1.44 15.52,-0.84 15.60,-0.94 15.68,-1.03 15.79,-1.10 15.90,-1.16 16.02,-1.19 16.14,-1.22 16.27,-1.20 16.39,-1.19 16.50,-1.14 16.62,-1.08 16.71,-1.00 16.80,-0.91 16.86,-0.80 16.91,-0.69 16.93,-0.57 16.95,-0.44 16.93,-0.32 16.91,-0.20 16.85,-0.09 16.80,0.01 16.71,0.10 16.61,0.18 16.50,0.24 16.39,0.29 16.26,0.30 16.14,0.32 16.02,0.29 15.90,0.26 15.79,0.20 15.68,0.13 15.60,0.04 15.52,-0.05 15.47,-0.16 15.43,-0.28 15.42,-0.40 15.41,-0.53 15.45,-0.65 15.48,-0.77 15.55,-0.87 15.62,-0.98 15.72,-1.05 15.82,-1.13 15.94,-1.17 16.06,-1.21 16.18,-1.21 16.31,-1.21 16.43,-1.17 16.54,-1.13 16.64,-1.05 16.74,-0.97 16.81,-0.87 16.88,-0.77 16.92,-0.65 16.95,-0.53 16.94,-0.40 16.94,-0.28 16.89,-0.16 16.84,-0.05 16.84,-0.05 16.84,-0.05 15.41,2.24 13.97,4.53 12.61,6.41 11.24,8.30 9.99,9.16 8.74,10.02 7.48,9.89 6.23,9.77 5.15,8.98 4.06,8.19 3.25,7.04 2.44,5.88 1.49,4.56 0.53,3.25 -0.11,1.79 -0.76,0.32 -0.79,0.23 -0.82,0.13 -0.82,0.03 -0.83,-0.06 -0.81,-0.16 -0.79,-0.26 -0.75,-0.35 -0.70,-0.44 -0.64,-0.52 -0.58,-0.60 -0.49,-0.66 -0.41,-0.72 -0.32,-0.76 -0.23,-0.80 -0.13,-0.81 -0.03,-0.83 0.06,-0.82 0.16,-0.81 0.26,-0.78 0.35,-0.75 0.44,-0.70 0.52,-0.64 0.59,-0.57 0.66,-0.50 0.71,-0.41 0.76,-0.32 0.76,-0.32 L 0.76,-0.32 Z"/></g><g transform="translate(296.50042724609375 217.62841796875) rotate(0 14.60595703125 5.47723388671875)" stroke="none"><path fill="#1e1e1e" d="M 0.81,-0.30 Q 0.81,-0.30 1.41,1.38 2.02,3.07 2.28,4.70 2.55,6.33 2.65,7.87 2.75,9.41 2.79,10.69 2.83,11.97 2.90,12.72 2.97,13.46 2.96,13.56 2.95,13.66 2.92,13.75 2.89,13.84 2.84,13.93 2.78,14.01 2.71,14.08 2.64,14.14 2.56,14.19 2.47,14.24 2.38,14.27 2.28,14.30 2.19,14.30 2.09,14.30 1.99,14.28 1.90,14.26 1.81,14.22 1.72,14.18 1.64,14.12 1.57,14.06 1.51,13.98 1.45,13.90 1.41,13.81 1.38,13.72 1.36,13.62 1.34,13.53 1.34,12.98 1.34,12.44 1.58,11.11 1.82,9.78 2.36,7.94 2.90,6.10 3.99,3.81 5.08,1.53 6.01,0.30 6.94,-0.92 8.05,-1.50 9.17,-2.08 10.24,-2.30 11.31,-2.52 12.48,-1.50 13.65,-0.47 14.55,1.06 15.44,2.60 15.83,4.15 16.21,5.71 16.37,6.78 16.52,7.85 16.64,8.49 16.77,9.14 16.77,9.24 16.77,9.33 16.75,9.43 16.73,9.52 16.68,9.61 16.64,9.70 16.58,9.77 16.52,9.85 16.44,9.90 16.36,9.96 16.27,10.00 16.18,10.03 16.08,10.05 15.99,10.06 15.89,10.05 15.79,10.04 15.70,10.01 15.61,9.98 15.53,9.93 15.45,9.87 15.38,9.80 15.31,9.73 15.27,9.64 15.22,9.56 15.19,9.47 15.17,9.37 15.58,8.85 16.00,8.33 16.41,7.56 16.82,6.79 17.45,5.20 18.08,3.62 18.79,1.87 19.49,0.12 20.47,-1.12 21.45,-2.36 22.14,-2.97 22.82,-3.57 23.76,-3.66 24.70,-3.74 25.63,-3.03 26.56,-2.31 27.33,-1.09 28.10,0.11 28.64,1.95 29.19,3.79 29.40,5.21 29.62,6.62 29.81,8.37 30.00,10.12 29.99,10.26 29.98,10.40 29.93,10.53 29.87,10.65 29.78,10.76 29.68,10.86 29.56,10.93 29.44,11.00 29.30,11.02 29.17,11.05 29.03,11.03 28.89,11.01 28.77,10.95 28.64,10.88 28.55,10.79 28.45,10.69 28.39,10.56 28.33,10.44 28.31,10.30 28.29,10.16 28.32,10.03 28.34,9.89 28.41,9.77 28.48,9.65 28.59,9.56 28.69,9.46 28.82,9.41 28.94,9.36 29.08,9.34 29.22,9.33 29.36,9.37 29.49,9.40 29.61,9.48 29.72,9.55 29.81,9.66 29.90,9.77 29.94,9.90 29.99,10.03 30.00,10.17 30.00,10.31 29.96,10.44 29.92,10.57 29.83,10.69 29.75,10.80 29.64,10.88 29.53,10.96 29.39,11.00 29.26,11.04 29.12,11.04 28.98,11.03 28.85,10.98 28.72,10.93 28.61,10.85 28.51,10.76 28.43,10.64 28.36,10.52 28.33,10.39 28.29,10.25 28.29,10.25 28.29,10.26 28.22,8.56 28.15,6.86 27.93,5.54 27.70,4.23 27.21,2.61 26.72,0.99 26.05,-0.01 25.38,-1.01 24.49,-1.64 23.59,-2.26 23.07,-1.88 22.54,-1.49 21.68,-0.41 20.81,0.66 20.13,2.40 19.45,4.15 18.80,5.85 18.14,7.55 17.45,8.34 16.77,9.14 16.77,9.24 16.77,9.33 16.75,9.43 16.73,9.52 16.68,9.61 16.64,9.70 16.58,9.77 16.52,9.85 16.44,9.90 16.36,9.96 16.27,10.00 16.18,10.03 16.08,10.05 15.99,10.06 15.89,10.05 15.79,10.04 15.70,10.01 15.61,9.98 15.53,9.93 15.45,9.87 15.38,9.80 15.31,9.73 15.27,9.64 15.22,9.56 15.19,9.47 15.17,9.37 15.16,8.71 15.15,8.05 15.00,7.04 14.86,6.04 14.53,4.67 14.20,3.30 13.41,1.93 12.62,0.55 11.82,-0.33 11.01,-1.23 10.39,-1.03 9.78,-0.83 8.89,-0.43 8.01,-0.02 7.20,1.06 6.39,2.15 5.37,4.33 4.34,6.51 3.86,8.28 3.38,10.04 3.17,11.75 2.97,13.46 2.96,13.56 2.95,13.66 2.92,13.75 2.89,13.84 2.84,13.93 2.78,14.01 2.71,14.08 2.64,14.14 2.56,14.19 2.47,14.24 2.38,14.27 2.28,14.30 2.19,14.30 2.09,14.30 1.99,14.28 1.90,14.26 1.81,14.22 1.72,14.18 1.64,14.12 1.57,14.06 1.51,13.98 1.45,13.90 1.41,13.81 1.38,13.72 1.36,13.62 1.34,13.53 1.37,12.77 1.40,12.02 1.34,10.77 1.28,9.52 1.16,8.06 1.03,6.59 0.76,5.11 0.49,3.64 -0.15,1.97 -0.81,0.30 -0.83,0.20 -0.86,0.10 -0.86,-0.00 -0.86,-0.10 -0.83,-0.20 -0.81,-0.31 -0.76,-0.40 -0.71,-0.49 -0.64,-0.57 -0.57,-0.65 -0.48,-0.71 -0.40,-0.77 -0.30,-0.80 -0.20,-0.84 -0.10,-0.85 0.00,-0.86 0.10,-0.85 0.21,-0.84 0.30,-0.80 0.40,-0.76 0.49,-0.70 0.57,-0.64 0.64,-0.56 0.71,-0.49 0.76,-0.39 0.81,-0.30 0.81,-0.30 L 0.81,-0.30 Z"/></g></svg>